%TF.GenerationSoftware,KiCad,Pcbnew,7.0.6*%
%TF.CreationDate,2024-04-21T21:28:25+02:00*%
%TF.ProjectId,Arius80-HE,41726975-7338-4302-9d48-452e6b696361,rev?*%
%TF.SameCoordinates,Original*%
%TF.FileFunction,Other,Comment*%
%FSLAX46Y46*%
G04 Gerber Fmt 4.6, Leading zero omitted, Abs format (unit mm)*
G04 Created by KiCad (PCBNEW 7.0.6) date 2024-04-21 21:28:25*
%MOMM*%
%LPD*%
G01*
G04 APERTURE LIST*
%ADD10C,0.100000*%
%ADD11C,0.150000*%
G04 APERTURE END LIST*
D10*
%TO.C,HALL64*%
X64240250Y-157708500D02*
X63732250Y-158216500D01*
X64240250Y-158216500D02*
X63732250Y-157708500D01*
%TO.C,HALL34*%
X57096500Y-119608500D02*
X56588500Y-120116500D01*
X57096500Y-120116500D02*
X56588500Y-119608500D01*
%TO.C,HALL13*%
X319034000Y-76746000D02*
X318526000Y-77254000D01*
X319034000Y-77254000D02*
X318526000Y-76746000D01*
%TO.C,HALL17*%
X52334000Y-100558500D02*
X51826000Y-101066500D01*
X52334000Y-101066500D02*
X51826000Y-100558500D01*
%TO.C,HALL55*%
X142821500Y-138658500D02*
X142313500Y-139166500D01*
X142821500Y-139166500D02*
X142313500Y-138658500D01*
%TO.C,HALL32*%
X361896500Y-100558500D02*
X361388500Y-101066500D01*
X361896500Y-101066500D02*
X361388500Y-100558500D01*
%TO.C,HALL77*%
X57096500Y-176758500D02*
X56588500Y-177266500D01*
X57096500Y-177266500D02*
X56588500Y-176758500D01*
%TO.C,HALL4*%
X128534000Y-76746000D02*
X128026000Y-77254000D01*
X128534000Y-77254000D02*
X128026000Y-76746000D01*
%TO.C,HALL59*%
X219021500Y-138658500D02*
X218513500Y-139166500D01*
X219021500Y-139166500D02*
X218513500Y-138658500D01*
%TO.C,HALL86*%
X380946500Y-176758500D02*
X380438500Y-177266500D01*
X380946500Y-177266500D02*
X380438500Y-176758500D01*
%TO.C,HALL8*%
X214259000Y-76746000D02*
X213751000Y-77254000D01*
X214259000Y-77254000D02*
X213751000Y-76746000D01*
%TO.C,HALL35*%
X80909000Y-119608500D02*
X80401000Y-120116500D01*
X80909000Y-120116500D02*
X80401000Y-119608500D01*
%TO.C,HALL42*%
X214259000Y-119608500D02*
X213751000Y-120116500D01*
X214259000Y-120116500D02*
X213751000Y-119608500D01*
%TO.C,HALL21*%
X128534000Y-100558500D02*
X128026000Y-101066500D01*
X128534000Y-101066500D02*
X128026000Y-100558500D01*
%TO.C,HALL3*%
X109484000Y-76746000D02*
X108976000Y-77254000D01*
X109484000Y-77254000D02*
X108976000Y-76746000D01*
%TO.C,HALL20*%
X109484000Y-100558500D02*
X108976000Y-101066500D01*
X109484000Y-101066500D02*
X108976000Y-100558500D01*
%TO.C,HALL2*%
X90434000Y-76746000D02*
X89926000Y-77254000D01*
X90434000Y-77254000D02*
X89926000Y-76746000D01*
%TO.C,HALL38*%
X138059000Y-119608500D02*
X137551000Y-120116500D01*
X138059000Y-120116500D02*
X137551000Y-119608500D01*
%TO.C,HALL83*%
X314271500Y-176758500D02*
X313763500Y-177266500D01*
X314271500Y-177266500D02*
X313763500Y-176758500D01*
%TO.C,HALL65*%
X95196500Y-157708500D02*
X94688500Y-158216500D01*
X95196500Y-158216500D02*
X94688500Y-157708500D01*
%TO.C,HALL85*%
X361896500Y-176758500D02*
X361388500Y-177266500D01*
X361896500Y-177266500D02*
X361388500Y-176758500D01*
%TO.C,HALL40*%
X176159000Y-119608500D02*
X175651000Y-120116500D01*
X176159000Y-120116500D02*
X175651000Y-119608500D01*
%TO.C,HALL47*%
X314271500Y-119608500D02*
X313763500Y-120116500D01*
X314271500Y-120116500D02*
X313763500Y-119608500D01*
%TO.C,HALL7*%
X195209000Y-76746000D02*
X194701000Y-77254000D01*
X195209000Y-77254000D02*
X194701000Y-76746000D01*
%TO.C,HALL81*%
X266646500Y-176758500D02*
X266138500Y-177266500D01*
X266646500Y-177266500D02*
X266138500Y-176758500D01*
%TO.C,HALL79*%
X104721500Y-176758500D02*
X104213500Y-177266500D01*
X104721500Y-177266500D02*
X104213500Y-176758500D01*
%TO.C,HALL15*%
X361896500Y-76746000D02*
X361388500Y-77254000D01*
X361896500Y-77254000D02*
X361388500Y-76746000D01*
%TO.C,HALL25*%
X204734000Y-100558500D02*
X204226000Y-101066500D01*
X204734000Y-101066500D02*
X204226000Y-100558500D01*
%TO.C,HALL58*%
X199971500Y-138658500D02*
X199463500Y-139166500D01*
X199971500Y-139166500D02*
X199463500Y-138658500D01*
%TO.C,HALL84*%
X342846500Y-176758500D02*
X342338500Y-177266500D01*
X342846500Y-177266500D02*
X342338500Y-176758500D01*
%TO.C,HALL71*%
X209496500Y-157708500D02*
X208988500Y-158216500D01*
X209496500Y-158216500D02*
X208988500Y-157708500D01*
%TO.C,HALL80*%
X185684000Y-176758500D02*
X185176000Y-177266500D01*
X185684000Y-177266500D02*
X185176000Y-176758500D01*
%TO.C,HALL14*%
X342846500Y-76746000D02*
X342338500Y-77254000D01*
X342846500Y-77254000D02*
X342338500Y-76746000D01*
%TO.C,HALL43*%
X233309000Y-119608500D02*
X232801000Y-120116500D01*
X233309000Y-120116500D02*
X232801000Y-119608500D01*
%TO.C,HALL30*%
X309509000Y-100558500D02*
X309001000Y-101066500D01*
X309509000Y-101066500D02*
X309001000Y-100558500D01*
%TO.C,HALL41*%
X195209000Y-119608500D02*
X194701000Y-120116500D01*
X195209000Y-120116500D02*
X194701000Y-119608500D01*
%TO.C,HALL16*%
X380946500Y-76746000D02*
X380438500Y-77254000D01*
X380946500Y-77254000D02*
X380438500Y-76746000D01*
%TO.C,HALL27*%
X242834000Y-100558500D02*
X242326000Y-101066500D01*
X242834000Y-101066500D02*
X242326000Y-100558500D01*
%TO.C,HALL22*%
X147584000Y-100558500D02*
X147076000Y-101066500D01*
X147584000Y-101066500D02*
X147076000Y-100558500D01*
%TO.C,HALL75*%
X302365250Y-157708500D02*
X301857250Y-158216500D01*
X302365250Y-158216500D02*
X301857250Y-157708500D01*
%TO.C,HALL67*%
X133296500Y-157708500D02*
X132788500Y-158216500D01*
X133296500Y-158216500D02*
X132788500Y-157708500D01*
%TO.C,HALL72*%
X228546500Y-157708500D02*
X228038500Y-158216500D01*
X228546500Y-158216500D02*
X228038500Y-157708500D01*
%TO.C,HALL1*%
X52334000Y-76746000D02*
X51826000Y-77254000D01*
X52334000Y-77254000D02*
X51826000Y-76746000D01*
%TO.C,HALL76*%
X361896500Y-157708500D02*
X361388500Y-158216500D01*
X361896500Y-158216500D02*
X361388500Y-157708500D01*
%TO.C,HALL10*%
X261884000Y-76746000D02*
X261376000Y-77254000D01*
X261884000Y-77254000D02*
X261376000Y-76746000D01*
%TO.C,HALL31*%
X342846500Y-100558500D02*
X342338500Y-101066500D01*
X342846500Y-101066500D02*
X342338500Y-100558500D01*
%TO.C,HALL50*%
X380946500Y-119608500D02*
X380438500Y-120116500D01*
X380946500Y-120116500D02*
X380438500Y-119608500D01*
%TO.C,HALL57*%
X180921500Y-138658500D02*
X180413500Y-139166500D01*
X180921500Y-139166500D02*
X180413500Y-138658500D01*
%TO.C,HALL48*%
X342846500Y-119608500D02*
X342338500Y-120116500D01*
X342846500Y-120116500D02*
X342338500Y-119608500D01*
%TO.C,HALL26*%
X223784000Y-100558500D02*
X223276000Y-101066500D01*
X223784000Y-101066500D02*
X223276000Y-100558500D01*
%TO.C,HALL23*%
X166634000Y-100558500D02*
X166126000Y-101066500D01*
X166634000Y-101066500D02*
X166126000Y-100558500D01*
%TO.C,HALL45*%
X271409000Y-119608500D02*
X270901000Y-120116500D01*
X271409000Y-120116500D02*
X270901000Y-119608500D01*
%TO.C,HALL74*%
X266646500Y-157708500D02*
X266138500Y-158216500D01*
X266646500Y-158216500D02*
X266138500Y-157708500D01*
%TO.C,HALL82*%
X290459000Y-176758500D02*
X289951000Y-177266500D01*
X290459000Y-177266500D02*
X289951000Y-176758500D01*
%TO.C,HALL6*%
X176159000Y-76746000D02*
X175651000Y-77254000D01*
X176159000Y-77254000D02*
X175651000Y-76746000D01*
%TO.C,HALL12*%
X299984000Y-76746000D02*
X299476000Y-77254000D01*
X299984000Y-77254000D02*
X299476000Y-76746000D01*
%TO.C,HALL46*%
X290459000Y-119608500D02*
X289951000Y-120116500D01*
X290459000Y-120116500D02*
X289951000Y-119608500D01*
%TO.C,HALL73*%
X247596500Y-157708500D02*
X247088500Y-158216500D01*
X247596500Y-158216500D02*
X247088500Y-157708500D01*
%TO.C,HALL78*%
X80909000Y-176758500D02*
X80401000Y-177266500D01*
X80909000Y-177266500D02*
X80401000Y-176758500D01*
%TO.C,HALL33*%
X380946500Y-100558500D02*
X380438500Y-101066500D01*
X380946500Y-101066500D02*
X380438500Y-100558500D01*
%TO.C,HALL11*%
X280934000Y-76746000D02*
X280426000Y-77254000D01*
X280934000Y-77254000D02*
X280426000Y-76746000D01*
%TO.C,HALL39*%
X157109000Y-119608500D02*
X156601000Y-120116500D01*
X157109000Y-120116500D02*
X156601000Y-119608500D01*
%TO.C,HALL36*%
X99959000Y-119608500D02*
X99451000Y-120116500D01*
X99959000Y-120116500D02*
X99451000Y-119608500D01*
%TO.C,HALL18*%
X71384000Y-100558500D02*
X70876000Y-101066500D01*
X71384000Y-101066500D02*
X70876000Y-100558500D01*
%TO.C,HALL5*%
X147584000Y-76746000D02*
X147076000Y-77254000D01*
X147584000Y-77254000D02*
X147076000Y-76746000D01*
%TO.C,HALL54*%
X123771500Y-138658500D02*
X123263500Y-139166500D01*
X123771500Y-139166500D02*
X123263500Y-138658500D01*
%TO.C,HALL52*%
X85671500Y-138658500D02*
X85163500Y-139166500D01*
X85671500Y-139166500D02*
X85163500Y-138658500D01*
%TO.C,HALL61*%
X257121500Y-138658500D02*
X256613500Y-139166500D01*
X257121500Y-139166500D02*
X256613500Y-138658500D01*
%TO.C,HALL62*%
X276171500Y-138658500D02*
X275663500Y-139166500D01*
X276171500Y-139166500D02*
X275663500Y-138658500D01*
%TO.C,HALL68*%
X152346500Y-157708500D02*
X151838500Y-158216500D01*
X152346500Y-158216500D02*
X151838500Y-157708500D01*
%TO.C,HALL51*%
X54715250Y-138658500D02*
X54207250Y-139166500D01*
X54715250Y-139166500D02*
X54207250Y-138658500D01*
%TO.C,HALL37*%
X119009000Y-119608500D02*
X118501000Y-120116500D01*
X119009000Y-120116500D02*
X118501000Y-119608500D01*
%TO.C,HALL9*%
X233309000Y-76746000D02*
X232801000Y-77254000D01*
X233309000Y-77254000D02*
X232801000Y-76746000D01*
%TO.C,HALL19*%
X90434000Y-100558500D02*
X89926000Y-101066500D01*
X90434000Y-101066500D02*
X89926000Y-100558500D01*
%TO.C,HALL60*%
X238071500Y-138658500D02*
X237563500Y-139166500D01*
X238071500Y-139166500D02*
X237563500Y-138658500D01*
%TO.C,HALL63*%
X307127750Y-138658500D02*
X306619750Y-139166500D01*
X307127750Y-139166500D02*
X306619750Y-138658500D01*
%TO.C,HALL69*%
X171396500Y-157708500D02*
X170888500Y-158216500D01*
X171396500Y-158216500D02*
X170888500Y-157708500D01*
%TO.C,HALL70*%
X190446500Y-157708500D02*
X189938500Y-158216500D01*
X190446500Y-158216500D02*
X189938500Y-157708500D01*
%TO.C,HALL28*%
X261884000Y-100558500D02*
X261376000Y-101066500D01*
X261884000Y-101066500D02*
X261376000Y-100558500D01*
%TO.C,HALL56*%
X161871500Y-138658500D02*
X161363500Y-139166500D01*
X161871500Y-139166500D02*
X161363500Y-138658500D01*
%TO.C,HALL29*%
X280934000Y-100558500D02*
X280426000Y-101066500D01*
X280934000Y-101066500D02*
X280426000Y-100558500D01*
%TO.C,HALL49*%
X361896500Y-119608500D02*
X361388500Y-120116500D01*
X361896500Y-120116500D02*
X361388500Y-119608500D01*
%TO.C,HALL53*%
X104721500Y-138658500D02*
X104213500Y-139166500D01*
X104721500Y-139166500D02*
X104213500Y-138658500D01*
%TO.C,HALL24*%
X185684000Y-100558500D02*
X185176000Y-101066500D01*
X185684000Y-101066500D02*
X185176000Y-100558500D01*
%TO.C,HALL66*%
X114246500Y-157708500D02*
X113738500Y-158216500D01*
X114246500Y-158216500D02*
X113738500Y-157708500D01*
%TO.C,HALL44*%
X252359000Y-119608500D02*
X251851000Y-120116500D01*
X252359000Y-120116500D02*
X251851000Y-119608500D01*
D11*
%TO.C,H3*%
X95060000Y-173600000D02*
G75*
G03*
X95060000Y-173600000I-2200000J0D01*
G01*
%TO.C,H7*%
X373250000Y-110380000D02*
G75*
G03*
X373250000Y-110380000I-2200000J0D01*
G01*
%TO.C,H4*%
X197110000Y-108990000D02*
G75*
G03*
X197110000Y-108990000I-2200000J0D01*
G01*
%TO.C,H1*%
X84080000Y-110040000D02*
G75*
G03*
X84080000Y-110040000I-2200000J0D01*
G01*
%TO.C,H6*%
X281480000Y-149530000D02*
G75*
G03*
X281480000Y-149530000I-2200000J0D01*
G01*
%TO.C,H2*%
X266040000Y-89550000D02*
G75*
G03*
X266040000Y-89550000I-2200000J0D01*
G01*
%TO.C,H5*%
X155960000Y-170550000D02*
G75*
G03*
X155960000Y-170550000I-2200000J0D01*
G01*
%TO.C,H8*%
X347780000Y-160930000D02*
G75*
G03*
X347780000Y-160930000I-2200000J0D01*
G01*
%TD*%
M02*
