%TF.GenerationSoftware,KiCad,Pcbnew,7.0.6*%
%TF.CreationDate,2024-01-18T22:37:55+01:00*%
%TF.ProjectId,Arius8X-HE,41726975-7338-4582-9d48-452e6b696361,rev?*%
%TF.SameCoordinates,Original*%
%TF.FileFunction,Legend,Top*%
%TF.FilePolarity,Positive*%
%FSLAX46Y46*%
G04 Gerber Fmt 4.6, Leading zero omitted, Abs format (unit mm)*
G04 Created by KiCad (PCBNEW 7.0.6) date 2024-01-18 22:37:55*
%MOMM*%
%LPD*%
G01*
G04 APERTURE LIST*
G04 Aperture macros list*
%AMRoundRect*
0 Rectangle with rounded corners*
0 $1 Rounding radius*
0 $2 $3 $4 $5 $6 $7 $8 $9 X,Y pos of 4 corners*
0 Add a 4 corners polygon primitive as box body*
4,1,4,$2,$3,$4,$5,$6,$7,$8,$9,$2,$3,0*
0 Add four circle primitives for the rounded corners*
1,1,$1+$1,$2,$3*
1,1,$1+$1,$4,$5*
1,1,$1+$1,$6,$7*
1,1,$1+$1,$8,$9*
0 Add four rect primitives between the rounded corners*
20,1,$1+$1,$2,$3,$4,$5,0*
20,1,$1+$1,$4,$5,$6,$7,0*
20,1,$1+$1,$6,$7,$8,$9,0*
20,1,$1+$1,$8,$9,$2,$3,0*%
%AMHorizOval*
0 Thick line with rounded ends*
0 $1 width*
0 $2 $3 position (X,Y) of the first rounded end (center of the circle)*
0 $4 $5 position (X,Y) of the second rounded end (center of the circle)*
0 Add line between two ends*
20,1,$1,$2,$3,$4,$5,0*
0 Add two circle primitives to create the rounded ends*
1,1,$1,$2,$3*
1,1,$1,$4,$5*%
G04 Aperture macros list end*
%ADD10C,0.150000*%
%ADD11C,0.125000*%
%ADD12C,3.124000*%
%ADD13C,4.063800*%
%ADD14C,1.826000*%
%ADD15RoundRect,0.038000X-0.850000X0.850000X-0.850000X-0.850000X0.850000X-0.850000X0.850000X0.850000X0*%
%ADD16O,1.776000X1.776000*%
%ADD17C,0.726000*%
%ADD18O,1.076000X1.676000*%
%ADD19O,1.076000X2.176000*%
%ADD20RoundRect,0.038000X0.000000X-1.202082X1.202082X0.000000X0.000000X1.202082X-1.202082X0.000000X0*%
%ADD21HorizOval,1.776000X0.000000X0.000000X0.000000X0.000000X0*%
G04 APERTURE END LIST*
D10*
X330078095Y-75794819D02*
X330078095Y-76604342D01*
X330078095Y-76604342D02*
X330125714Y-76699580D01*
X330125714Y-76699580D02*
X330173333Y-76747200D01*
X330173333Y-76747200D02*
X330268571Y-76794819D01*
X330268571Y-76794819D02*
X330459047Y-76794819D01*
X330459047Y-76794819D02*
X330554285Y-76747200D01*
X330554285Y-76747200D02*
X330601904Y-76699580D01*
X330601904Y-76699580D02*
X330649523Y-76604342D01*
X330649523Y-76604342D02*
X330649523Y-75794819D01*
X331173333Y-76794819D02*
X331363809Y-76794819D01*
X331363809Y-76794819D02*
X331459047Y-76747200D01*
X331459047Y-76747200D02*
X331506666Y-76699580D01*
X331506666Y-76699580D02*
X331601904Y-76556723D01*
X331601904Y-76556723D02*
X331649523Y-76366247D01*
X331649523Y-76366247D02*
X331649523Y-75985295D01*
X331649523Y-75985295D02*
X331601904Y-75890057D01*
X331601904Y-75890057D02*
X331554285Y-75842438D01*
X331554285Y-75842438D02*
X331459047Y-75794819D01*
X331459047Y-75794819D02*
X331268571Y-75794819D01*
X331268571Y-75794819D02*
X331173333Y-75842438D01*
X331173333Y-75842438D02*
X331125714Y-75890057D01*
X331125714Y-75890057D02*
X331078095Y-75985295D01*
X331078095Y-75985295D02*
X331078095Y-76223390D01*
X331078095Y-76223390D02*
X331125714Y-76318628D01*
X331125714Y-76318628D02*
X331173333Y-76366247D01*
X331173333Y-76366247D02*
X331268571Y-76413866D01*
X331268571Y-76413866D02*
X331459047Y-76413866D01*
X331459047Y-76413866D02*
X331554285Y-76366247D01*
X331554285Y-76366247D02*
X331601904Y-76318628D01*
X331601904Y-76318628D02*
X331649523Y-76223390D01*
D11*
X296507190Y-76883928D02*
X296531000Y-76907737D01*
X296531000Y-76907737D02*
X296554809Y-76979166D01*
X296554809Y-76979166D02*
X296554809Y-77026785D01*
X296554809Y-77026785D02*
X296531000Y-77098213D01*
X296531000Y-77098213D02*
X296483380Y-77145832D01*
X296483380Y-77145832D02*
X296435761Y-77169642D01*
X296435761Y-77169642D02*
X296340523Y-77193451D01*
X296340523Y-77193451D02*
X296269095Y-77193451D01*
X296269095Y-77193451D02*
X296173857Y-77169642D01*
X296173857Y-77169642D02*
X296126238Y-77145832D01*
X296126238Y-77145832D02*
X296078619Y-77098213D01*
X296078619Y-77098213D02*
X296054809Y-77026785D01*
X296054809Y-77026785D02*
X296054809Y-76979166D01*
X296054809Y-76979166D02*
X296078619Y-76907737D01*
X296078619Y-76907737D02*
X296102428Y-76883928D01*
X296221476Y-76455356D02*
X296554809Y-76455356D01*
X296031000Y-76574404D02*
X296388142Y-76693451D01*
X296388142Y-76693451D02*
X296388142Y-76383928D01*
X296554809Y-75931547D02*
X296554809Y-76217261D01*
X296554809Y-76074404D02*
X296054809Y-76074404D01*
X296054809Y-76074404D02*
X296126238Y-76122023D01*
X296126238Y-76122023D02*
X296173857Y-76169642D01*
X296173857Y-76169642D02*
X296197666Y-76217261D01*
D10*
X333834819Y-75456666D02*
X333358628Y-75789999D01*
X333834819Y-76028094D02*
X332834819Y-76028094D01*
X332834819Y-76028094D02*
X332834819Y-75647142D01*
X332834819Y-75647142D02*
X332882438Y-75551904D01*
X332882438Y-75551904D02*
X332930057Y-75504285D01*
X332930057Y-75504285D02*
X333025295Y-75456666D01*
X333025295Y-75456666D02*
X333168152Y-75456666D01*
X333168152Y-75456666D02*
X333263390Y-75504285D01*
X333263390Y-75504285D02*
X333311009Y-75551904D01*
X333311009Y-75551904D02*
X333358628Y-75647142D01*
X333358628Y-75647142D02*
X333358628Y-76028094D01*
X332930057Y-75075713D02*
X332882438Y-75028094D01*
X332882438Y-75028094D02*
X332834819Y-74932856D01*
X332834819Y-74932856D02*
X332834819Y-74694761D01*
X332834819Y-74694761D02*
X332882438Y-74599523D01*
X332882438Y-74599523D02*
X332930057Y-74551904D01*
X332930057Y-74551904D02*
X333025295Y-74504285D01*
X333025295Y-74504285D02*
X333120533Y-74504285D01*
X333120533Y-74504285D02*
X333263390Y-74551904D01*
X333263390Y-74551904D02*
X333834819Y-75123332D01*
X333834819Y-75123332D02*
X333834819Y-74504285D01*
X328444819Y-75456666D02*
X327968628Y-75789999D01*
X328444819Y-76028094D02*
X327444819Y-76028094D01*
X327444819Y-76028094D02*
X327444819Y-75647142D01*
X327444819Y-75647142D02*
X327492438Y-75551904D01*
X327492438Y-75551904D02*
X327540057Y-75504285D01*
X327540057Y-75504285D02*
X327635295Y-75456666D01*
X327635295Y-75456666D02*
X327778152Y-75456666D01*
X327778152Y-75456666D02*
X327873390Y-75504285D01*
X327873390Y-75504285D02*
X327921009Y-75551904D01*
X327921009Y-75551904D02*
X327968628Y-75647142D01*
X327968628Y-75647142D02*
X327968628Y-76028094D01*
X328444819Y-74504285D02*
X328444819Y-75075713D01*
X328444819Y-74789999D02*
X327444819Y-74789999D01*
X327444819Y-74789999D02*
X327587676Y-74885237D01*
X327587676Y-74885237D02*
X327682914Y-74980475D01*
X327682914Y-74980475D02*
X327730533Y-75075713D01*
X327946309Y-104331128D02*
X327946309Y-104807319D01*
X327612976Y-103807319D02*
X327946309Y-104331128D01*
X327946309Y-104331128D02*
X328279642Y-103807319D01*
X329136785Y-104807319D02*
X328565357Y-104807319D01*
X328851071Y-104807319D02*
X328851071Y-103807319D01*
X328851071Y-103807319D02*
X328755833Y-103950176D01*
X328755833Y-103950176D02*
X328660595Y-104045414D01*
X328660595Y-104045414D02*
X328565357Y-104093033D01*
X330284819Y-86931904D02*
X331094342Y-86931904D01*
X331094342Y-86931904D02*
X331189580Y-86884285D01*
X331189580Y-86884285D02*
X331237200Y-86836666D01*
X331237200Y-86836666D02*
X331284819Y-86741428D01*
X331284819Y-86741428D02*
X331284819Y-86550952D01*
X331284819Y-86550952D02*
X331237200Y-86455714D01*
X331237200Y-86455714D02*
X331189580Y-86408095D01*
X331189580Y-86408095D02*
X331094342Y-86360476D01*
X331094342Y-86360476D02*
X330284819Y-86360476D01*
X330380057Y-85931904D02*
X330332438Y-85884285D01*
X330332438Y-85884285D02*
X330284819Y-85789047D01*
X330284819Y-85789047D02*
X330284819Y-85550952D01*
X330284819Y-85550952D02*
X330332438Y-85455714D01*
X330332438Y-85455714D02*
X330380057Y-85408095D01*
X330380057Y-85408095D02*
X330475295Y-85360476D01*
X330475295Y-85360476D02*
X330570533Y-85360476D01*
X330570533Y-85360476D02*
X330713390Y-85408095D01*
X330713390Y-85408095D02*
X331284819Y-85979523D01*
X331284819Y-85979523D02*
X331284819Y-85360476D01*
%LPC*%
D12*
%TO.C,REF\u002A\u002A*%
X294967500Y-131927500D03*
D13*
X294967500Y-147167500D03*
D12*
X318780000Y-131927500D03*
D13*
X318780000Y-147167500D03*
%TD*%
D12*
%TO.C,REF\u002A\u002A*%
X52080000Y-150977500D03*
D13*
X52080000Y-166217500D03*
D12*
X75892500Y-150977500D03*
D13*
X75892500Y-166217500D03*
%TD*%
D12*
%TO.C,REF\u002A\u002A*%
X290205000Y-150977500D03*
D13*
X290205000Y-166217500D03*
D12*
X314017500Y-150977500D03*
D13*
X314017500Y-166217500D03*
%TD*%
D12*
%TO.C,REF\u002A\u002A*%
X297348750Y-93827500D03*
D13*
X297348750Y-109067500D03*
D12*
X321161250Y-93827500D03*
D13*
X321161250Y-109067500D03*
%TD*%
D12*
%TO.C,REF\u002A\u002A*%
X242580000Y-183997500D03*
D13*
X242580000Y-168757500D03*
D12*
X128280000Y-183997500D03*
D13*
X128280000Y-168757500D03*
%TD*%
D14*
%TO.C,HALL34*%
X61922500Y-119862500D03*
X51762500Y-119862500D03*
%TD*%
%TO.C,HALL13*%
X323860000Y-77000000D03*
X313700000Y-77000000D03*
%TD*%
%TO.C,HALL17*%
X57160000Y-100812500D03*
X47000000Y-100812500D03*
%TD*%
%TO.C,HALL55*%
X147647500Y-138912500D03*
X137487500Y-138912500D03*
%TD*%
%TO.C,HALL32*%
X366722500Y-100812500D03*
X356562500Y-100812500D03*
%TD*%
%TO.C,HALL77*%
X61922500Y-177012500D03*
X51762500Y-177012500D03*
%TD*%
%TO.C,HALL4*%
X133360000Y-77000000D03*
X123200000Y-77000000D03*
%TD*%
D15*
%TO.C,J3*%
X369195000Y-136240000D03*
D16*
X371735000Y-136240000D03*
%TD*%
D14*
%TO.C,HALL59*%
X223847500Y-138912500D03*
X213687500Y-138912500D03*
%TD*%
%TO.C,HALL86*%
X385772500Y-177012500D03*
X375612500Y-177012500D03*
%TD*%
%TO.C,HALL8*%
X219085000Y-77000000D03*
X208925000Y-77000000D03*
%TD*%
%TO.C,HALL64*%
X69066250Y-157962500D03*
X58906250Y-157962500D03*
%TD*%
%TO.C,HALL35*%
X85735000Y-119862500D03*
X75575000Y-119862500D03*
%TD*%
%TO.C,HALL42*%
X219085000Y-119862500D03*
X208925000Y-119862500D03*
%TD*%
%TO.C,HALL21*%
X133360000Y-100812500D03*
X123200000Y-100812500D03*
%TD*%
%TO.C,HALL3*%
X114310000Y-77000000D03*
X104150000Y-77000000D03*
%TD*%
%TO.C,HALL20*%
X114310000Y-100812500D03*
X104150000Y-100812500D03*
%TD*%
%TO.C,HALL2*%
X95260000Y-77000000D03*
X85100000Y-77000000D03*
%TD*%
%TO.C,HALL38*%
X142885000Y-119862500D03*
X132725000Y-119862500D03*
%TD*%
%TO.C,HALL83*%
X319097500Y-177012500D03*
X308937500Y-177012500D03*
%TD*%
%TO.C,HALL65*%
X100022500Y-157962500D03*
X89862500Y-157962500D03*
%TD*%
%TO.C,HALL85*%
X366722500Y-177012500D03*
X356562500Y-177012500D03*
%TD*%
%TO.C,HALL40*%
X180985000Y-119862500D03*
X170825000Y-119862500D03*
%TD*%
%TO.C,HALL47*%
X319097500Y-119862500D03*
X308937500Y-119862500D03*
%TD*%
%TO.C,HALL7*%
X200035000Y-77000000D03*
X189875000Y-77000000D03*
%TD*%
%TO.C,HALL81*%
X271472500Y-177012500D03*
X261312500Y-177012500D03*
%TD*%
%TO.C,HALL79*%
X109547500Y-177012500D03*
X99387500Y-177012500D03*
%TD*%
%TO.C,HALL15*%
X366722500Y-77000000D03*
X356562500Y-77000000D03*
%TD*%
%TO.C,HALL25*%
X209560000Y-100812500D03*
X199400000Y-100812500D03*
%TD*%
%TO.C,HALL58*%
X204797500Y-138912500D03*
X194637500Y-138912500D03*
%TD*%
%TO.C,HALL84*%
X347672500Y-177012500D03*
X337512500Y-177012500D03*
%TD*%
%TO.C,HALL71*%
X214322500Y-157962500D03*
X204162500Y-157962500D03*
%TD*%
%TO.C,HALL80*%
X190510000Y-177012500D03*
X180350000Y-177012500D03*
%TD*%
%TO.C,HALL14*%
X347672500Y-77000000D03*
X337512500Y-77000000D03*
%TD*%
%TO.C,HALL43*%
X238135000Y-119862500D03*
X227975000Y-119862500D03*
%TD*%
%TO.C,HALL30*%
X314335000Y-100812500D03*
X304175000Y-100812500D03*
%TD*%
%TO.C,HALL41*%
X200035000Y-119862500D03*
X189875000Y-119862500D03*
%TD*%
%TO.C,HALL16*%
X385772500Y-77000000D03*
X375612500Y-77000000D03*
%TD*%
%TO.C,HALL27*%
X247660000Y-100812500D03*
X237500000Y-100812500D03*
%TD*%
D17*
%TO.C,J1*%
X327796742Y-71447386D03*
X333576742Y-71447386D03*
D18*
X326366742Y-67797386D03*
D19*
X326366742Y-71977386D03*
D18*
X335006742Y-67797386D03*
D19*
X335006742Y-71977386D03*
%TD*%
D14*
%TO.C,HALL22*%
X152410000Y-100812500D03*
X142250000Y-100812500D03*
%TD*%
%TO.C,HALL75*%
X307191250Y-157962500D03*
X297031250Y-157962500D03*
%TD*%
%TO.C,HALL67*%
X138122500Y-157962500D03*
X127962500Y-157962500D03*
%TD*%
%TO.C,HALL72*%
X233372500Y-157962500D03*
X223212500Y-157962500D03*
%TD*%
%TO.C,HALL1*%
X57160000Y-77000000D03*
X47000000Y-77000000D03*
%TD*%
%TO.C,HALL76*%
X366722500Y-157962500D03*
X356562500Y-157962500D03*
%TD*%
%TO.C,HALL10*%
X266710000Y-77000000D03*
X256550000Y-77000000D03*
%TD*%
%TO.C,HALL31*%
X347672500Y-100812500D03*
X337512500Y-100812500D03*
%TD*%
%TO.C,HALL50*%
X385772500Y-119862500D03*
X375612500Y-119862500D03*
%TD*%
%TO.C,HALL57*%
X185747500Y-138912500D03*
X175587500Y-138912500D03*
%TD*%
%TO.C,HALL48*%
X347672500Y-119862500D03*
X337512500Y-119862500D03*
%TD*%
%TO.C,HALL26*%
X228610000Y-100812500D03*
X218450000Y-100812500D03*
%TD*%
%TO.C,HALL23*%
X171460000Y-100812500D03*
X161300000Y-100812500D03*
%TD*%
%TO.C,HALL45*%
X276235000Y-119862500D03*
X266075000Y-119862500D03*
%TD*%
%TO.C,HALL74*%
X271472500Y-157962500D03*
X261312500Y-157962500D03*
%TD*%
%TO.C,HALL82*%
X295285000Y-177012500D03*
X285125000Y-177012500D03*
%TD*%
%TO.C,HALL6*%
X180985000Y-77000000D03*
X170825000Y-77000000D03*
%TD*%
%TO.C,HALL12*%
X304810000Y-77000000D03*
X294650000Y-77000000D03*
%TD*%
%TO.C,HALL46*%
X295285000Y-119862500D03*
X285125000Y-119862500D03*
%TD*%
%TO.C,HALL73*%
X252422500Y-157962500D03*
X242262500Y-157962500D03*
%TD*%
%TO.C,HALL78*%
X85735000Y-177012500D03*
X75575000Y-177012500D03*
%TD*%
%TO.C,HALL33*%
X385772500Y-100812500D03*
X375612500Y-100812500D03*
%TD*%
%TO.C,HALL11*%
X285760000Y-77000000D03*
X275600000Y-77000000D03*
%TD*%
%TO.C,HALL39*%
X161935000Y-119862500D03*
X151775000Y-119862500D03*
%TD*%
%TO.C,HALL36*%
X104785000Y-119862500D03*
X94625000Y-119862500D03*
%TD*%
%TO.C,HALL18*%
X76210000Y-100812500D03*
X66050000Y-100812500D03*
%TD*%
%TO.C,HALL5*%
X152410000Y-77000000D03*
X142250000Y-77000000D03*
%TD*%
%TO.C,HALL54*%
X128597500Y-138912500D03*
X118437500Y-138912500D03*
%TD*%
%TO.C,HALL52*%
X90497500Y-138912500D03*
X80337500Y-138912500D03*
%TD*%
%TO.C,HALL61*%
X261947500Y-138912500D03*
X251787500Y-138912500D03*
%TD*%
D15*
%TO.C,J2*%
X361975000Y-136400000D03*
D16*
X364515000Y-136400000D03*
%TD*%
D14*
%TO.C,HALL62*%
X280997500Y-138912500D03*
X270837500Y-138912500D03*
%TD*%
%TO.C,HALL68*%
X157172500Y-157962500D03*
X147012500Y-157962500D03*
%TD*%
%TO.C,HALL51*%
X59541250Y-138912500D03*
X49381250Y-138912500D03*
%TD*%
%TO.C,HALL37*%
X123835000Y-119862500D03*
X113675000Y-119862500D03*
%TD*%
%TO.C,HALL9*%
X238135000Y-77000000D03*
X227975000Y-77000000D03*
%TD*%
%TO.C,HALL19*%
X95260000Y-100812500D03*
X85100000Y-100812500D03*
%TD*%
%TO.C,HALL60*%
X242897500Y-138912500D03*
X232737500Y-138912500D03*
%TD*%
%TO.C,HALL63*%
X311953750Y-138912500D03*
X301793750Y-138912500D03*
%TD*%
%TO.C,HALL69*%
X176222500Y-157962500D03*
X166062500Y-157962500D03*
%TD*%
%TO.C,HALL70*%
X195272500Y-157962500D03*
X185112500Y-157962500D03*
%TD*%
%TO.C,HALL28*%
X266710000Y-100812500D03*
X256550000Y-100812500D03*
%TD*%
%TO.C,HALL56*%
X166697500Y-138912500D03*
X156537500Y-138912500D03*
%TD*%
%TO.C,HALL29*%
X285760000Y-100812500D03*
X275600000Y-100812500D03*
%TD*%
D20*
%TO.C,SWD1*%
X315523949Y-92236051D03*
D21*
X317320000Y-90440000D03*
X313727898Y-90440000D03*
X315523949Y-88643949D03*
X311931847Y-88643949D03*
X313727898Y-86847897D03*
%TD*%
D14*
%TO.C,HALL49*%
X366722500Y-119862500D03*
X356562500Y-119862500D03*
%TD*%
%TO.C,HALL53*%
X109547500Y-138912500D03*
X99387500Y-138912500D03*
%TD*%
%TO.C,HALL24*%
X190510000Y-100812500D03*
X180350000Y-100812500D03*
%TD*%
%TO.C,HALL66*%
X119072500Y-157962500D03*
X108912500Y-157962500D03*
%TD*%
%TO.C,HALL44*%
X257185000Y-119862500D03*
X247025000Y-119862500D03*
%TD*%
%LPD*%
M02*
