%TF.GenerationSoftware,KiCad,Pcbnew,7.0.6*%
%TF.CreationDate,2024-04-21T09:39:13+02:00*%
%TF.ProjectId,Arius80-HE,41726975-7338-4302-9d48-452e6b696361,rev?*%
%TF.SameCoordinates,Original*%
%TF.FileFunction,Legend,Top*%
%TF.FilePolarity,Positive*%
%FSLAX46Y46*%
G04 Gerber Fmt 4.6, Leading zero omitted, Abs format (unit mm)*
G04 Created by KiCad (PCBNEW 7.0.6) date 2024-04-21 09:39:13*
%MOMM*%
%LPD*%
G01*
G04 APERTURE LIST*
G04 Aperture macros list*
%AMRoundRect*
0 Rectangle with rounded corners*
0 $1 Rounding radius*
0 $2 $3 $4 $5 $6 $7 $8 $9 X,Y pos of 4 corners*
0 Add a 4 corners polygon primitive as box body*
4,1,4,$2,$3,$4,$5,$6,$7,$8,$9,$2,$3,0*
0 Add four circle primitives for the rounded corners*
1,1,$1+$1,$2,$3*
1,1,$1+$1,$4,$5*
1,1,$1+$1,$6,$7*
1,1,$1+$1,$8,$9*
0 Add four rect primitives between the rounded corners*
20,1,$1+$1,$2,$3,$4,$5,0*
20,1,$1+$1,$4,$5,$6,$7,0*
20,1,$1+$1,$6,$7,$8,$9,0*
20,1,$1+$1,$8,$9,$2,$3,0*%
%AMHorizOval*
0 Thick line with rounded ends*
0 $1 width*
0 $2 $3 position (X,Y) of the first rounded end (center of the circle)*
0 $4 $5 position (X,Y) of the second rounded end (center of the circle)*
0 Add line between two ends*
20,1,$1,$2,$3,$4,$5,0*
0 Add two circle primitives to create the rounded ends*
1,1,$1,$2,$3*
1,1,$1,$4,$5*%
G04 Aperture macros list end*
%ADD10C,0.150000*%
%ADD11C,0.125000*%
%ADD12C,4.476000*%
%ADD13C,3.124000*%
%ADD14C,4.063800*%
%ADD15C,1.826000*%
%ADD16RoundRect,0.038000X-0.850000X0.850000X-0.850000X-0.850000X0.850000X-0.850000X0.850000X0.850000X0*%
%ADD17O,1.776000X1.776000*%
%ADD18C,0.726000*%
%ADD19O,1.076000X1.676000*%
%ADD20O,1.076000X2.176000*%
%ADD21RoundRect,0.038000X0.000000X-1.202082X1.202082X0.000000X0.000000X1.202082X-1.202082X0.000000X0*%
%ADD22HorizOval,1.776000X0.000000X0.000000X0.000000X0.000000X0*%
G04 APERTURE END LIST*
D10*
X92098095Y-170854819D02*
X92098095Y-169854819D01*
X92098095Y-170331009D02*
X92669523Y-170331009D01*
X92669523Y-170854819D02*
X92669523Y-169854819D01*
X93050476Y-169854819D02*
X93669523Y-169854819D01*
X93669523Y-169854819D02*
X93336190Y-170235771D01*
X93336190Y-170235771D02*
X93479047Y-170235771D01*
X93479047Y-170235771D02*
X93574285Y-170283390D01*
X93574285Y-170283390D02*
X93621904Y-170331009D01*
X93621904Y-170331009D02*
X93669523Y-170426247D01*
X93669523Y-170426247D02*
X93669523Y-170664342D01*
X93669523Y-170664342D02*
X93621904Y-170759580D01*
X93621904Y-170759580D02*
X93574285Y-170807200D01*
X93574285Y-170807200D02*
X93479047Y-170854819D01*
X93479047Y-170854819D02*
X93193333Y-170854819D01*
X93193333Y-170854819D02*
X93098095Y-170807200D01*
X93098095Y-170807200D02*
X93050476Y-170759580D01*
X370288095Y-107634819D02*
X370288095Y-106634819D01*
X370288095Y-107111009D02*
X370859523Y-107111009D01*
X370859523Y-107634819D02*
X370859523Y-106634819D01*
X371240476Y-106634819D02*
X371907142Y-106634819D01*
X371907142Y-106634819D02*
X371478571Y-107634819D01*
X194148095Y-106244819D02*
X194148095Y-105244819D01*
X194148095Y-105721009D02*
X194719523Y-105721009D01*
X194719523Y-106244819D02*
X194719523Y-105244819D01*
X195624285Y-105578152D02*
X195624285Y-106244819D01*
X195386190Y-105197200D02*
X195148095Y-105911485D01*
X195148095Y-105911485D02*
X195767142Y-105911485D01*
X81118095Y-107294819D02*
X81118095Y-106294819D01*
X81118095Y-106771009D02*
X81689523Y-106771009D01*
X81689523Y-107294819D02*
X81689523Y-106294819D01*
X82689523Y-107294819D02*
X82118095Y-107294819D01*
X82403809Y-107294819D02*
X82403809Y-106294819D01*
X82403809Y-106294819D02*
X82308571Y-106437676D01*
X82308571Y-106437676D02*
X82213333Y-106532914D01*
X82213333Y-106532914D02*
X82118095Y-106580533D01*
X278518095Y-146784819D02*
X278518095Y-145784819D01*
X278518095Y-146261009D02*
X279089523Y-146261009D01*
X279089523Y-146784819D02*
X279089523Y-145784819D01*
X279994285Y-145784819D02*
X279803809Y-145784819D01*
X279803809Y-145784819D02*
X279708571Y-145832438D01*
X279708571Y-145832438D02*
X279660952Y-145880057D01*
X279660952Y-145880057D02*
X279565714Y-146022914D01*
X279565714Y-146022914D02*
X279518095Y-146213390D01*
X279518095Y-146213390D02*
X279518095Y-146594342D01*
X279518095Y-146594342D02*
X279565714Y-146689580D01*
X279565714Y-146689580D02*
X279613333Y-146737200D01*
X279613333Y-146737200D02*
X279708571Y-146784819D01*
X279708571Y-146784819D02*
X279899047Y-146784819D01*
X279899047Y-146784819D02*
X279994285Y-146737200D01*
X279994285Y-146737200D02*
X280041904Y-146689580D01*
X280041904Y-146689580D02*
X280089523Y-146594342D01*
X280089523Y-146594342D02*
X280089523Y-146356247D01*
X280089523Y-146356247D02*
X280041904Y-146261009D01*
X280041904Y-146261009D02*
X279994285Y-146213390D01*
X279994285Y-146213390D02*
X279899047Y-146165771D01*
X279899047Y-146165771D02*
X279708571Y-146165771D01*
X279708571Y-146165771D02*
X279613333Y-146213390D01*
X279613333Y-146213390D02*
X279565714Y-146261009D01*
X279565714Y-146261009D02*
X279518095Y-146356247D01*
X263078095Y-86804819D02*
X263078095Y-85804819D01*
X263078095Y-86281009D02*
X263649523Y-86281009D01*
X263649523Y-86804819D02*
X263649523Y-85804819D01*
X264078095Y-85900057D02*
X264125714Y-85852438D01*
X264125714Y-85852438D02*
X264220952Y-85804819D01*
X264220952Y-85804819D02*
X264459047Y-85804819D01*
X264459047Y-85804819D02*
X264554285Y-85852438D01*
X264554285Y-85852438D02*
X264601904Y-85900057D01*
X264601904Y-85900057D02*
X264649523Y-85995295D01*
X264649523Y-85995295D02*
X264649523Y-86090533D01*
X264649523Y-86090533D02*
X264601904Y-86233390D01*
X264601904Y-86233390D02*
X264030476Y-86804819D01*
X264030476Y-86804819D02*
X264649523Y-86804819D01*
X152998095Y-167804819D02*
X152998095Y-166804819D01*
X152998095Y-167281009D02*
X153569523Y-167281009D01*
X153569523Y-167804819D02*
X153569523Y-166804819D01*
X154521904Y-166804819D02*
X154045714Y-166804819D01*
X154045714Y-166804819D02*
X153998095Y-167281009D01*
X153998095Y-167281009D02*
X154045714Y-167233390D01*
X154045714Y-167233390D02*
X154140952Y-167185771D01*
X154140952Y-167185771D02*
X154379047Y-167185771D01*
X154379047Y-167185771D02*
X154474285Y-167233390D01*
X154474285Y-167233390D02*
X154521904Y-167281009D01*
X154521904Y-167281009D02*
X154569523Y-167376247D01*
X154569523Y-167376247D02*
X154569523Y-167614342D01*
X154569523Y-167614342D02*
X154521904Y-167709580D01*
X154521904Y-167709580D02*
X154474285Y-167757200D01*
X154474285Y-167757200D02*
X154379047Y-167804819D01*
X154379047Y-167804819D02*
X154140952Y-167804819D01*
X154140952Y-167804819D02*
X154045714Y-167757200D01*
X154045714Y-167757200D02*
X153998095Y-167709580D01*
X344818095Y-158184819D02*
X344818095Y-157184819D01*
X344818095Y-157661009D02*
X345389523Y-157661009D01*
X345389523Y-158184819D02*
X345389523Y-157184819D01*
X346008571Y-157613390D02*
X345913333Y-157565771D01*
X345913333Y-157565771D02*
X345865714Y-157518152D01*
X345865714Y-157518152D02*
X345818095Y-157422914D01*
X345818095Y-157422914D02*
X345818095Y-157375295D01*
X345818095Y-157375295D02*
X345865714Y-157280057D01*
X345865714Y-157280057D02*
X345913333Y-157232438D01*
X345913333Y-157232438D02*
X346008571Y-157184819D01*
X346008571Y-157184819D02*
X346199047Y-157184819D01*
X346199047Y-157184819D02*
X346294285Y-157232438D01*
X346294285Y-157232438D02*
X346341904Y-157280057D01*
X346341904Y-157280057D02*
X346389523Y-157375295D01*
X346389523Y-157375295D02*
X346389523Y-157422914D01*
X346389523Y-157422914D02*
X346341904Y-157518152D01*
X346341904Y-157518152D02*
X346294285Y-157565771D01*
X346294285Y-157565771D02*
X346199047Y-157613390D01*
X346199047Y-157613390D02*
X346008571Y-157613390D01*
X346008571Y-157613390D02*
X345913333Y-157661009D01*
X345913333Y-157661009D02*
X345865714Y-157708628D01*
X345865714Y-157708628D02*
X345818095Y-157803866D01*
X345818095Y-157803866D02*
X345818095Y-157994342D01*
X345818095Y-157994342D02*
X345865714Y-158089580D01*
X345865714Y-158089580D02*
X345913333Y-158137200D01*
X345913333Y-158137200D02*
X346008571Y-158184819D01*
X346008571Y-158184819D02*
X346199047Y-158184819D01*
X346199047Y-158184819D02*
X346294285Y-158137200D01*
X346294285Y-158137200D02*
X346341904Y-158089580D01*
X346341904Y-158089580D02*
X346389523Y-157994342D01*
X346389523Y-157994342D02*
X346389523Y-157803866D01*
X346389523Y-157803866D02*
X346341904Y-157708628D01*
X346341904Y-157708628D02*
X346294285Y-157661009D01*
X346294285Y-157661009D02*
X346199047Y-157613390D01*
X330078095Y-75794819D02*
X330078095Y-76604342D01*
X330078095Y-76604342D02*
X330125714Y-76699580D01*
X330125714Y-76699580D02*
X330173333Y-76747200D01*
X330173333Y-76747200D02*
X330268571Y-76794819D01*
X330268571Y-76794819D02*
X330459047Y-76794819D01*
X330459047Y-76794819D02*
X330554285Y-76747200D01*
X330554285Y-76747200D02*
X330601904Y-76699580D01*
X330601904Y-76699580D02*
X330649523Y-76604342D01*
X330649523Y-76604342D02*
X330649523Y-75794819D01*
X331173333Y-76794819D02*
X331363809Y-76794819D01*
X331363809Y-76794819D02*
X331459047Y-76747200D01*
X331459047Y-76747200D02*
X331506666Y-76699580D01*
X331506666Y-76699580D02*
X331601904Y-76556723D01*
X331601904Y-76556723D02*
X331649523Y-76366247D01*
X331649523Y-76366247D02*
X331649523Y-75985295D01*
X331649523Y-75985295D02*
X331601904Y-75890057D01*
X331601904Y-75890057D02*
X331554285Y-75842438D01*
X331554285Y-75842438D02*
X331459047Y-75794819D01*
X331459047Y-75794819D02*
X331268571Y-75794819D01*
X331268571Y-75794819D02*
X331173333Y-75842438D01*
X331173333Y-75842438D02*
X331125714Y-75890057D01*
X331125714Y-75890057D02*
X331078095Y-75985295D01*
X331078095Y-75985295D02*
X331078095Y-76223390D01*
X331078095Y-76223390D02*
X331125714Y-76318628D01*
X331125714Y-76318628D02*
X331173333Y-76366247D01*
X331173333Y-76366247D02*
X331268571Y-76413866D01*
X331268571Y-76413866D02*
X331459047Y-76413866D01*
X331459047Y-76413866D02*
X331554285Y-76366247D01*
X331554285Y-76366247D02*
X331601904Y-76318628D01*
X331601904Y-76318628D02*
X331649523Y-76223390D01*
D11*
X296507190Y-76883928D02*
X296531000Y-76907737D01*
X296531000Y-76907737D02*
X296554809Y-76979166D01*
X296554809Y-76979166D02*
X296554809Y-77026785D01*
X296554809Y-77026785D02*
X296531000Y-77098213D01*
X296531000Y-77098213D02*
X296483380Y-77145832D01*
X296483380Y-77145832D02*
X296435761Y-77169642D01*
X296435761Y-77169642D02*
X296340523Y-77193451D01*
X296340523Y-77193451D02*
X296269095Y-77193451D01*
X296269095Y-77193451D02*
X296173857Y-77169642D01*
X296173857Y-77169642D02*
X296126238Y-77145832D01*
X296126238Y-77145832D02*
X296078619Y-77098213D01*
X296078619Y-77098213D02*
X296054809Y-77026785D01*
X296054809Y-77026785D02*
X296054809Y-76979166D01*
X296054809Y-76979166D02*
X296078619Y-76907737D01*
X296078619Y-76907737D02*
X296102428Y-76883928D01*
X296221476Y-76455356D02*
X296554809Y-76455356D01*
X296031000Y-76574404D02*
X296388142Y-76693451D01*
X296388142Y-76693451D02*
X296388142Y-76383928D01*
X296554809Y-75931547D02*
X296554809Y-76217261D01*
X296554809Y-76074404D02*
X296054809Y-76074404D01*
X296054809Y-76074404D02*
X296126238Y-76122023D01*
X296126238Y-76122023D02*
X296173857Y-76169642D01*
X296173857Y-76169642D02*
X296197666Y-76217261D01*
D10*
X333834819Y-75456666D02*
X333358628Y-75789999D01*
X333834819Y-76028094D02*
X332834819Y-76028094D01*
X332834819Y-76028094D02*
X332834819Y-75647142D01*
X332834819Y-75647142D02*
X332882438Y-75551904D01*
X332882438Y-75551904D02*
X332930057Y-75504285D01*
X332930057Y-75504285D02*
X333025295Y-75456666D01*
X333025295Y-75456666D02*
X333168152Y-75456666D01*
X333168152Y-75456666D02*
X333263390Y-75504285D01*
X333263390Y-75504285D02*
X333311009Y-75551904D01*
X333311009Y-75551904D02*
X333358628Y-75647142D01*
X333358628Y-75647142D02*
X333358628Y-76028094D01*
X332930057Y-75075713D02*
X332882438Y-75028094D01*
X332882438Y-75028094D02*
X332834819Y-74932856D01*
X332834819Y-74932856D02*
X332834819Y-74694761D01*
X332834819Y-74694761D02*
X332882438Y-74599523D01*
X332882438Y-74599523D02*
X332930057Y-74551904D01*
X332930057Y-74551904D02*
X333025295Y-74504285D01*
X333025295Y-74504285D02*
X333120533Y-74504285D01*
X333120533Y-74504285D02*
X333263390Y-74551904D01*
X333263390Y-74551904D02*
X333834819Y-75123332D01*
X333834819Y-75123332D02*
X333834819Y-74504285D01*
X328444819Y-75456666D02*
X327968628Y-75789999D01*
X328444819Y-76028094D02*
X327444819Y-76028094D01*
X327444819Y-76028094D02*
X327444819Y-75647142D01*
X327444819Y-75647142D02*
X327492438Y-75551904D01*
X327492438Y-75551904D02*
X327540057Y-75504285D01*
X327540057Y-75504285D02*
X327635295Y-75456666D01*
X327635295Y-75456666D02*
X327778152Y-75456666D01*
X327778152Y-75456666D02*
X327873390Y-75504285D01*
X327873390Y-75504285D02*
X327921009Y-75551904D01*
X327921009Y-75551904D02*
X327968628Y-75647142D01*
X327968628Y-75647142D02*
X327968628Y-76028094D01*
X328444819Y-74504285D02*
X328444819Y-75075713D01*
X328444819Y-74789999D02*
X327444819Y-74789999D01*
X327444819Y-74789999D02*
X327587676Y-74885237D01*
X327587676Y-74885237D02*
X327682914Y-74980475D01*
X327682914Y-74980475D02*
X327730533Y-75075713D01*
X327946309Y-104331128D02*
X327946309Y-104807319D01*
X327612976Y-103807319D02*
X327946309Y-104331128D01*
X327946309Y-104331128D02*
X328279642Y-103807319D01*
X329136785Y-104807319D02*
X328565357Y-104807319D01*
X328851071Y-104807319D02*
X328851071Y-103807319D01*
X328851071Y-103807319D02*
X328755833Y-103950176D01*
X328755833Y-103950176D02*
X328660595Y-104045414D01*
X328660595Y-104045414D02*
X328565357Y-104093033D01*
X330284819Y-86931904D02*
X331094342Y-86931904D01*
X331094342Y-86931904D02*
X331189580Y-86884285D01*
X331189580Y-86884285D02*
X331237200Y-86836666D01*
X331237200Y-86836666D02*
X331284819Y-86741428D01*
X331284819Y-86741428D02*
X331284819Y-86550952D01*
X331284819Y-86550952D02*
X331237200Y-86455714D01*
X331237200Y-86455714D02*
X331189580Y-86408095D01*
X331189580Y-86408095D02*
X331094342Y-86360476D01*
X331094342Y-86360476D02*
X330284819Y-86360476D01*
X330380057Y-85931904D02*
X330332438Y-85884285D01*
X330332438Y-85884285D02*
X330284819Y-85789047D01*
X330284819Y-85789047D02*
X330284819Y-85550952D01*
X330284819Y-85550952D02*
X330332438Y-85455714D01*
X330332438Y-85455714D02*
X330380057Y-85408095D01*
X330380057Y-85408095D02*
X330475295Y-85360476D01*
X330475295Y-85360476D02*
X330570533Y-85360476D01*
X330570533Y-85360476D02*
X330713390Y-85408095D01*
X330713390Y-85408095D02*
X331284819Y-85979523D01*
X331284819Y-85979523D02*
X331284819Y-85360476D01*
%TO.C,G\u002A\u002A\u002A*%
G36*
X229819395Y-177817781D02*
G01*
X229807195Y-177829981D01*
X229794996Y-177817781D01*
X229807195Y-177805581D01*
X229819395Y-177817781D01*
G37*
G36*
X219733429Y-174394464D02*
G01*
X219870070Y-174402714D01*
X219969724Y-174415199D01*
X220044152Y-174433921D01*
X220096148Y-174456117D01*
X220188412Y-174509992D01*
X220246419Y-174565078D01*
X220277645Y-174634634D01*
X220289568Y-174731918D01*
X220290610Y-174800959D01*
X220271872Y-174991935D01*
X220215686Y-175153945D01*
X220119650Y-175290706D01*
X219981362Y-175405934D01*
X219852841Y-175478353D01*
X219757815Y-175520646D01*
X219674238Y-175546217D01*
X219589457Y-175555755D01*
X219490824Y-175549950D01*
X219365687Y-175529491D01*
X219270769Y-175510074D01*
X219108811Y-175469307D01*
X218987854Y-175422865D01*
X218900120Y-175366330D01*
X218837827Y-175295285D01*
X218812235Y-175249762D01*
X218775872Y-175119294D01*
X218782602Y-174969636D01*
X218832212Y-174804094D01*
X218842483Y-174780029D01*
X218921504Y-174644191D01*
X219026812Y-174539096D01*
X219161806Y-174463273D01*
X219329883Y-174415252D01*
X219534442Y-174393563D01*
X219733429Y-174394464D01*
G37*
G36*
X201585798Y-174736670D02*
G01*
X201597667Y-174760543D01*
X201612269Y-174811648D01*
X201630416Y-174893813D01*
X201652915Y-175010864D01*
X201680579Y-175166629D01*
X201714216Y-175364934D01*
X201733388Y-175480391D01*
X201765033Y-175671282D01*
X201794633Y-175848536D01*
X201821130Y-176005926D01*
X201843468Y-176137225D01*
X201860591Y-176236206D01*
X201871443Y-176296642D01*
X201874333Y-176311105D01*
X201887125Y-176366004D01*
X201248650Y-176366004D01*
X201078554Y-176365337D01*
X200926293Y-176363459D01*
X200798118Y-176360551D01*
X200700278Y-176356796D01*
X200639022Y-176352376D01*
X200620420Y-176347704D01*
X200658448Y-176280986D01*
X200714467Y-176184327D01*
X200785141Y-176063349D01*
X200867138Y-175923677D01*
X200957123Y-175770935D01*
X201051761Y-175610747D01*
X201147718Y-175448737D01*
X201241659Y-175290528D01*
X201330251Y-175141745D01*
X201410159Y-175008012D01*
X201478049Y-174894951D01*
X201530586Y-174808188D01*
X201564437Y-174753347D01*
X201575852Y-174736203D01*
X201585798Y-174736670D01*
G37*
G36*
X219007937Y-176263787D02*
G01*
X219112405Y-176278019D01*
X219248328Y-176305324D01*
X219315361Y-176320101D01*
X219499719Y-176363807D01*
X219642838Y-176404271D01*
X219751888Y-176444405D01*
X219834039Y-176487123D01*
X219896461Y-176535340D01*
X219928335Y-176569197D01*
X219960928Y-176612087D01*
X219978889Y-176653496D01*
X219985266Y-176708448D01*
X219983111Y-176791966D01*
X219981024Y-176828734D01*
X219949912Y-177015435D01*
X219880820Y-177171576D01*
X219773910Y-177296938D01*
X219629344Y-177391299D01*
X219540958Y-177427489D01*
X219451319Y-177448458D01*
X219325889Y-177464700D01*
X219177480Y-177475876D01*
X219018903Y-177481650D01*
X218862967Y-177481684D01*
X218722485Y-177475640D01*
X218610267Y-177463181D01*
X218564348Y-177453219D01*
X218420664Y-177396046D01*
X218319548Y-177317202D01*
X218259194Y-177213673D01*
X218237793Y-177082447D01*
X218251483Y-176931688D01*
X218304088Y-176740310D01*
X218389261Y-176583216D01*
X218510741Y-176455318D01*
X218672266Y-176351526D01*
X218680971Y-176347123D01*
X218771441Y-176304297D01*
X218848637Y-176276450D01*
X218923742Y-176263106D01*
X219007937Y-176263787D01*
G37*
G36*
X224482837Y-174527200D02*
G01*
X224668356Y-174573697D01*
X224816372Y-174651414D01*
X224926887Y-174760352D01*
X224999901Y-174900512D01*
X225002713Y-174908777D01*
X225027307Y-175029585D01*
X225035769Y-175187914D01*
X225029089Y-175375587D01*
X225008258Y-175584426D01*
X224974267Y-175806257D01*
X224928104Y-176032901D01*
X224870762Y-176256184D01*
X224819581Y-176420771D01*
X224714891Y-176687002D01*
X224595201Y-176908675D01*
X224458691Y-177088216D01*
X224303539Y-177228053D01*
X224141972Y-177324101D01*
X224068648Y-177357345D01*
X224006492Y-177379918D01*
X223942548Y-177394156D01*
X223863857Y-177402393D01*
X223757461Y-177406963D01*
X223670692Y-177409004D01*
X223520281Y-177410032D01*
X223407988Y-177405457D01*
X223323366Y-177394449D01*
X223255967Y-177376182D01*
X223255899Y-177376157D01*
X223110306Y-177306171D01*
X223001426Y-177210055D01*
X222920894Y-177080369D01*
X222919195Y-177076684D01*
X222890236Y-177007633D01*
X222872026Y-176943988D01*
X222862332Y-176871147D01*
X222858921Y-176774512D01*
X222859087Y-176683680D01*
X222876121Y-176396433D01*
X222919998Y-176093219D01*
X222987266Y-175789243D01*
X223074470Y-175499712D01*
X223178158Y-175239832D01*
X223195158Y-175203853D01*
X223320751Y-174983366D01*
X223463941Y-174807509D01*
X223627686Y-174674359D01*
X223814942Y-174581996D01*
X224028665Y-174528498D01*
X224259813Y-174511923D01*
X224482837Y-174527200D01*
G37*
G36*
X236797685Y-176024409D02*
G01*
X236797685Y-180660336D01*
X216790000Y-180660336D01*
X196782316Y-180660336D01*
X196782316Y-178294470D01*
X203852689Y-178294470D01*
X204432920Y-178287922D01*
X205013151Y-178281374D01*
X205015160Y-178271828D01*
X207225351Y-178271828D01*
X207248665Y-178278061D01*
X207314268Y-178283570D01*
X207415654Y-178288107D01*
X207546314Y-178291423D01*
X207699741Y-178293272D01*
X207796097Y-178293573D01*
X208366843Y-178293573D01*
X208380423Y-178238674D01*
X208387637Y-178206012D01*
X208404031Y-178129631D01*
X208428750Y-178013570D01*
X208460940Y-177861869D01*
X208499745Y-177678565D01*
X208544313Y-177467697D01*
X208570432Y-177343955D01*
X209351510Y-177343955D01*
X209352519Y-177399919D01*
X209353462Y-177427387D01*
X209360479Y-177553961D01*
X209372739Y-177648853D01*
X209393616Y-177729144D01*
X209426482Y-177811917D01*
X209431696Y-177823498D01*
X209536009Y-177997964D01*
X209674112Y-178137794D01*
X209845127Y-178242697D01*
X210048178Y-178312383D01*
X210282387Y-178346561D01*
X210546878Y-178344940D01*
X210840774Y-178307231D01*
X210873094Y-178301206D01*
X211134096Y-178234690D01*
X211380517Y-178140112D01*
X211513214Y-178072816D01*
X211584170Y-178034420D01*
X211638004Y-178008271D01*
X211659612Y-178000734D01*
X211668196Y-178022811D01*
X211671715Y-178080255D01*
X211670014Y-178147131D01*
X211661747Y-178293573D01*
X212200705Y-178293573D01*
X212356973Y-178292852D01*
X212495445Y-178290833D01*
X212609174Y-178287730D01*
X212691208Y-178283760D01*
X212734596Y-178279139D01*
X212739664Y-178276849D01*
X212744565Y-178250311D01*
X212758612Y-178180691D01*
X212771967Y-178115731D01*
X213448229Y-178115731D01*
X213456241Y-178150511D01*
X213488926Y-178176725D01*
X213557002Y-178202176D01*
X213574073Y-178207346D01*
X213826574Y-178268190D01*
X214112041Y-178312698D01*
X214417215Y-178340169D01*
X214728835Y-178349903D01*
X215033642Y-178341198D01*
X215318375Y-178313352D01*
X215385726Y-178303177D01*
X215673320Y-178238357D01*
X215922420Y-178143865D01*
X216133662Y-178019193D01*
X216307678Y-177863829D01*
X216445103Y-177677266D01*
X216546572Y-177458993D01*
X216583205Y-177340882D01*
X216596615Y-177269252D01*
X217120982Y-177269252D01*
X217121010Y-177392484D01*
X217124338Y-177480505D01*
X217133369Y-177546894D01*
X217150510Y-177605231D01*
X217178162Y-177669096D01*
X217199591Y-177713261D01*
X217301323Y-177875376D01*
X217435651Y-178011384D01*
X217606101Y-178123748D01*
X217816205Y-178214926D01*
X217997781Y-178269818D01*
X218198049Y-178309547D01*
X218434010Y-178335942D01*
X218694312Y-178348627D01*
X218967599Y-178347226D01*
X219242518Y-178331360D01*
X219392370Y-178316087D01*
X219680828Y-178266013D01*
X219956011Y-178187761D01*
X220207234Y-178085031D01*
X220423810Y-177961524D01*
X220431779Y-177956082D01*
X220625517Y-177794161D01*
X220792299Y-177596666D01*
X220927876Y-177371216D01*
X221027994Y-177125434D01*
X221088404Y-176866940D01*
X221100893Y-176756658D01*
X221100106Y-176709328D01*
X221677140Y-176709328D01*
X221683325Y-177009861D01*
X221719520Y-177283393D01*
X221785873Y-177525940D01*
X221860775Y-177695003D01*
X221941602Y-177815616D01*
X222052744Y-177941897D01*
X222179864Y-178059826D01*
X222308625Y-178155382D01*
X222365313Y-178188411D01*
X222540914Y-178266119D01*
X222742706Y-178332836D01*
X222948235Y-178381416D01*
X222999703Y-178390224D01*
X223122311Y-178402234D01*
X223280288Y-178407235D01*
X223460789Y-178405756D01*
X223650969Y-178398330D01*
X223837985Y-178385486D01*
X224008991Y-178367757D01*
X224151144Y-178345674D01*
X224170058Y-178341834D01*
X224456083Y-178264375D01*
X226271585Y-178264375D01*
X226281616Y-178274697D01*
X226307664Y-178282263D01*
X226355351Y-178287497D01*
X226430301Y-178290821D01*
X226538136Y-178292659D01*
X226684480Y-178293434D01*
X226839192Y-178293573D01*
X227416764Y-178293573D01*
X227595061Y-177445687D01*
X227637391Y-177244961D01*
X227677470Y-177055995D01*
X227713972Y-176884955D01*
X227745573Y-176738008D01*
X227770947Y-176621318D01*
X227788770Y-176541053D01*
X227796933Y-176506302D01*
X227820508Y-176414803D01*
X228746753Y-176414803D01*
X229015825Y-176415449D01*
X229239860Y-176417376D01*
X229418145Y-176420563D01*
X229549967Y-176424992D01*
X229634614Y-176430644D01*
X229671372Y-176437500D01*
X229672998Y-176439465D01*
X229668125Y-176468200D01*
X229654417Y-176538176D01*
X229633233Y-176642912D01*
X229605937Y-176775929D01*
X229573888Y-176930744D01*
X229538450Y-177100878D01*
X229500983Y-177279849D01*
X229462849Y-177461178D01*
X229425410Y-177638383D01*
X229390027Y-177804984D01*
X229358063Y-177954500D01*
X229330878Y-178080450D01*
X229309834Y-178176354D01*
X229296293Y-178235731D01*
X229292415Y-178250874D01*
X229291120Y-178264334D01*
X229300268Y-178274631D01*
X229325440Y-178282183D01*
X229372216Y-178287409D01*
X229446176Y-178290726D01*
X229552899Y-178292552D01*
X229697966Y-178293304D01*
X229860450Y-178293411D01*
X230441585Y-178293249D01*
X230442800Y-178287474D01*
X231210980Y-178287474D01*
X231234596Y-178288482D01*
X231303132Y-178289438D01*
X231412706Y-178290328D01*
X231559438Y-178291139D01*
X231739447Y-178291857D01*
X231948853Y-178292468D01*
X232183777Y-178292958D01*
X232440336Y-178293315D01*
X232714651Y-178293523D01*
X232937146Y-178293573D01*
X234664118Y-178293573D01*
X234754963Y-177860480D01*
X234784002Y-177721066D01*
X234809194Y-177598257D01*
X234828943Y-177499983D01*
X234841655Y-177434175D01*
X234845762Y-177409087D01*
X234822147Y-177405398D01*
X234754494Y-177401958D01*
X234647566Y-177398843D01*
X234506124Y-177396127D01*
X234334930Y-177393888D01*
X234138745Y-177392202D01*
X233922331Y-177391143D01*
X233697290Y-177390788D01*
X233430639Y-177390703D01*
X233208754Y-177390349D01*
X233027602Y-177389574D01*
X232883150Y-177388225D01*
X232771365Y-177386152D01*
X232688214Y-177383203D01*
X232629663Y-177379227D01*
X232591680Y-177374070D01*
X232570232Y-177367583D01*
X232561285Y-177359614D01*
X232560806Y-177350010D01*
X232561311Y-177348088D01*
X232570283Y-177310948D01*
X232587340Y-177234804D01*
X232610566Y-177128418D01*
X232638044Y-177000551D01*
X232661394Y-176890596D01*
X232690902Y-176751982D01*
X232717720Y-176627961D01*
X232739921Y-176527293D01*
X232755577Y-176458740D01*
X232762034Y-176433103D01*
X232767906Y-176422577D01*
X232781434Y-176413931D01*
X232807018Y-176406981D01*
X232849059Y-176401544D01*
X232911956Y-176397436D01*
X233000109Y-176394474D01*
X233117919Y-176392475D01*
X233269786Y-176391254D01*
X233460109Y-176390628D01*
X233693289Y-176390415D01*
X233785977Y-176390403D01*
X234002784Y-176390261D01*
X234203706Y-176389855D01*
X234383663Y-176389216D01*
X234537574Y-176388374D01*
X234660358Y-176387360D01*
X234746934Y-176386205D01*
X234792221Y-176384939D01*
X234797800Y-176384303D01*
X234802760Y-176359654D01*
X234816023Y-176294759D01*
X234836042Y-176197164D01*
X234861269Y-176074418D01*
X234890155Y-175934068D01*
X234890393Y-175932911D01*
X234982102Y-175487618D01*
X233974524Y-175487618D01*
X233715801Y-175487318D01*
X233502271Y-175486347D01*
X233330330Y-175484596D01*
X233196376Y-175481955D01*
X233096806Y-175478316D01*
X233028016Y-175473569D01*
X232986404Y-175467605D01*
X232968365Y-175460315D01*
X232966942Y-175457118D01*
X232971927Y-175424767D01*
X232985820Y-175352581D01*
X233007026Y-175248381D01*
X233033951Y-175119986D01*
X233064999Y-174975217D01*
X233068967Y-174956926D01*
X233170995Y-174487233D01*
X234320150Y-174487233D01*
X235469305Y-174487233D01*
X235560151Y-174054140D01*
X235589190Y-173914712D01*
X235614383Y-173791875D01*
X235634132Y-173693563D01*
X235646843Y-173627712D01*
X235650950Y-173602584D01*
X235627190Y-173599616D01*
X235558519Y-173596969D01*
X235448822Y-173594670D01*
X235301984Y-173592748D01*
X235121893Y-173591228D01*
X234912435Y-173590140D01*
X234677495Y-173589510D01*
X234420961Y-173589366D01*
X234146717Y-173589736D01*
X233926861Y-173590384D01*
X232202818Y-173596647D01*
X231707302Y-175939010D01*
X231637473Y-176269122D01*
X231570558Y-176585506D01*
X231507240Y-176884923D01*
X231448204Y-177164136D01*
X231394134Y-177419909D01*
X231345715Y-177649003D01*
X231303629Y-177848181D01*
X231268563Y-178014206D01*
X231241199Y-178143839D01*
X231222223Y-178233845D01*
X231212317Y-178280984D01*
X231210980Y-178287474D01*
X230442800Y-178287474D01*
X230928086Y-175981548D01*
X230997315Y-175652663D01*
X231063816Y-175336878D01*
X231126884Y-175037521D01*
X231185819Y-174757923D01*
X231239917Y-174501412D01*
X231288475Y-174271318D01*
X231330790Y-174070971D01*
X231366161Y-173903699D01*
X231393884Y-173772831D01*
X231413256Y-173681698D01*
X231423575Y-173633629D01*
X231425024Y-173627147D01*
X231425425Y-173613605D01*
X231415396Y-173603263D01*
X231389296Y-173595693D01*
X231341485Y-173590467D01*
X231266323Y-173587157D01*
X231158170Y-173585337D01*
X231011385Y-173584578D01*
X230861835Y-173584448D01*
X230668748Y-173585085D01*
X230519936Y-173587152D01*
X230410891Y-173590886D01*
X230337104Y-173596521D01*
X230294067Y-173604292D01*
X230277269Y-173614434D01*
X230277059Y-173614947D01*
X230269682Y-173644974D01*
X230253479Y-173717349D01*
X230229620Y-173826655D01*
X230199269Y-173967473D01*
X230163594Y-174134387D01*
X230123762Y-174321978D01*
X230080940Y-174524830D01*
X230074732Y-174554332D01*
X229883555Y-175463218D01*
X228948224Y-175463218D01*
X228012894Y-175463218D01*
X228025575Y-175408319D01*
X228036839Y-175357413D01*
X228055889Y-175268918D01*
X228081385Y-175149234D01*
X228111984Y-175004763D01*
X228146347Y-174841904D01*
X228183131Y-174667058D01*
X228220996Y-174486625D01*
X228258601Y-174307006D01*
X228294604Y-174134600D01*
X228327666Y-173975808D01*
X228356444Y-173837032D01*
X228379598Y-173724670D01*
X228395786Y-173645123D01*
X228403668Y-173604792D01*
X228404218Y-173601172D01*
X228380942Y-173596462D01*
X228315609Y-173592265D01*
X228214960Y-173588778D01*
X228085737Y-173586198D01*
X227934679Y-173584722D01*
X227831291Y-173584448D01*
X227258365Y-173584448D01*
X227245422Y-173639347D01*
X227238623Y-173670698D01*
X227222495Y-173746409D01*
X227197754Y-173863082D01*
X227165118Y-174017323D01*
X227125303Y-174205737D01*
X227079026Y-174424927D01*
X227027004Y-174671499D01*
X226969953Y-174942056D01*
X226908591Y-175233205D01*
X226843635Y-175541548D01*
X226775800Y-175863691D01*
X226757376Y-175951210D01*
X226688964Y-176276131D01*
X226623288Y-176587931D01*
X226561060Y-176883238D01*
X226502990Y-177158682D01*
X226449790Y-177410890D01*
X226402173Y-177636493D01*
X226360850Y-177832117D01*
X226326532Y-177994392D01*
X226299932Y-178119946D01*
X226281760Y-178205408D01*
X226272729Y-178247407D01*
X226271946Y-178250874D01*
X226271585Y-178264375D01*
X224456083Y-178264375D01*
X224488275Y-178255657D01*
X224774829Y-178137422D01*
X225031618Y-177985274D01*
X225260540Y-177797355D01*
X225463493Y-177571809D01*
X225642377Y-177306779D01*
X225799089Y-177000409D01*
X225935527Y-176650843D01*
X225953279Y-176597864D01*
X226039522Y-176309859D01*
X226111346Y-176017330D01*
X226167234Y-175729554D01*
X226205672Y-175455809D01*
X226225142Y-175205371D01*
X226224128Y-174987518D01*
X226221828Y-174954617D01*
X226197273Y-174772555D01*
X226154820Y-174583841D01*
X226099250Y-174405798D01*
X226035342Y-174255753D01*
X226022207Y-174231037D01*
X225919227Y-174081894D01*
X225783087Y-173937555D01*
X225628592Y-173811799D01*
X225472176Y-173719169D01*
X225318642Y-173653524D01*
X225167157Y-173604618D01*
X225002331Y-173568547D01*
X224808773Y-173541410D01*
X224744203Y-173534568D01*
X224530034Y-173523346D01*
X224289825Y-173527799D01*
X224043331Y-173546756D01*
X223810312Y-173579042D01*
X223727758Y-173594908D01*
X223406538Y-173684031D01*
X223114249Y-173810588D01*
X222850065Y-173975381D01*
X222613160Y-174179210D01*
X222402707Y-174422875D01*
X222217878Y-174707178D01*
X222057848Y-175032917D01*
X221949523Y-175316820D01*
X221837156Y-175685538D01*
X221754204Y-176043184D01*
X221700815Y-176385775D01*
X221677140Y-176709328D01*
X221100106Y-176709328D01*
X221097434Y-176548740D01*
X221052262Y-176365599D01*
X220964316Y-176205016D01*
X220832536Y-176064777D01*
X220735126Y-175991568D01*
X220594789Y-175897728D01*
X220735863Y-175813264D01*
X220928634Y-175672718D01*
X221093365Y-175502099D01*
X221227439Y-175308074D01*
X221328238Y-175097308D01*
X221393144Y-174876469D01*
X221419540Y-174652222D01*
X221404809Y-174431233D01*
X221353794Y-174239485D01*
X221262431Y-174056563D01*
X221134802Y-173901336D01*
X220969284Y-173772627D01*
X220764258Y-173669255D01*
X220518105Y-173590042D01*
X220435007Y-173570598D01*
X220310060Y-173551169D01*
X220149798Y-173537477D01*
X219967386Y-173529665D01*
X219775985Y-173527876D01*
X219588759Y-173532251D01*
X219418872Y-173542935D01*
X219290961Y-173558177D01*
X218961638Y-173630107D01*
X218668188Y-173734818D01*
X218410768Y-173872183D01*
X218189536Y-174042073D01*
X218004649Y-174244359D01*
X217856264Y-174478913D01*
X217744539Y-174745607D01*
X217714456Y-174845311D01*
X217675168Y-175062037D01*
X217678182Y-175265537D01*
X217722153Y-175451584D01*
X217805739Y-175615952D01*
X217927598Y-175754414D01*
X218026814Y-175828595D01*
X218051827Y-175854501D01*
X218045309Y-175867652D01*
X217865765Y-175965798D01*
X217686651Y-176099263D01*
X217521153Y-176256261D01*
X217382458Y-176425008D01*
X217328270Y-176508426D01*
X217237506Y-176677211D01*
X217176277Y-176831605D01*
X217139792Y-176989193D01*
X217123259Y-177167561D01*
X217120982Y-177269252D01*
X216596615Y-177269252D01*
X216607415Y-177211568D01*
X216617908Y-177068214D01*
X216614928Y-176926567D01*
X216598719Y-176802371D01*
X216573605Y-176719798D01*
X216511963Y-176616522D01*
X216423092Y-176521398D01*
X216303091Y-176432102D01*
X216148054Y-176346313D01*
X215954077Y-176261709D01*
X215717258Y-176175967D01*
X215589684Y-176134502D01*
X215457952Y-176091083D01*
X215336667Y-176047706D01*
X215236411Y-176008403D01*
X215167765Y-175977204D01*
X215150491Y-175967210D01*
X215082676Y-175901124D01*
X215061102Y-175828319D01*
X215086627Y-175754329D01*
X215112675Y-175723147D01*
X215186969Y-175677241D01*
X215300558Y-175643475D01*
X215445486Y-175621789D01*
X215613798Y-175612127D01*
X215797538Y-175614430D01*
X215988751Y-175628640D01*
X216179481Y-175654700D01*
X216361772Y-175692551D01*
X216502122Y-175733270D01*
X216578613Y-175757744D01*
X216633619Y-175772896D01*
X216654305Y-175775532D01*
X216660550Y-175750432D01*
X216674782Y-175685312D01*
X216695349Y-175587988D01*
X216720594Y-175466276D01*
X216744835Y-175347819D01*
X216830359Y-174927425D01*
X216755281Y-174903073D01*
X216574537Y-174855667D01*
X216358531Y-174817233D01*
X216120168Y-174788912D01*
X215872352Y-174771847D01*
X215627989Y-174767177D01*
X215399982Y-174776045D01*
X215358008Y-174779496D01*
X215070352Y-174815443D01*
X214823153Y-174868689D01*
X214610481Y-174941370D01*
X214426410Y-175035623D01*
X214265009Y-175153586D01*
X214227507Y-175187033D01*
X214085404Y-175350428D01*
X213975222Y-175543496D01*
X213900894Y-175755936D01*
X213866353Y-175977444D01*
X213867712Y-176129425D01*
X213886833Y-176257170D01*
X213924945Y-176369830D01*
X213986016Y-176470650D01*
X214074012Y-176562877D01*
X214192899Y-176649758D01*
X214346643Y-176734539D01*
X214539212Y-176820466D01*
X214774571Y-176910787D01*
X214859280Y-176941045D01*
X215036432Y-177005309D01*
X215171635Y-177059551D01*
X215269900Y-177107020D01*
X215336238Y-177150964D01*
X215375659Y-177194631D01*
X215393176Y-177241270D01*
X215394402Y-177287911D01*
X215368567Y-177372361D01*
X215318053Y-177424963D01*
X215290706Y-177443019D01*
X215259381Y-177456261D01*
X215216504Y-177465427D01*
X215154499Y-177471257D01*
X215065791Y-177474489D01*
X214942806Y-177475862D01*
X214793461Y-177476118D01*
X214563406Y-177473062D01*
X214369847Y-177462887D01*
X214200790Y-177443969D01*
X214044244Y-177414684D01*
X213888214Y-177373409D01*
X213779900Y-177338879D01*
X213703008Y-177315697D01*
X213645993Y-177303479D01*
X213623324Y-177304182D01*
X213613361Y-177332109D01*
X213596118Y-177398120D01*
X213573710Y-177492410D01*
X213548253Y-177605177D01*
X213521860Y-177726618D01*
X213496648Y-177846929D01*
X213474731Y-177956308D01*
X213458225Y-178044951D01*
X213449244Y-178103055D01*
X213448229Y-178115731D01*
X212771967Y-178115731D01*
X212780826Y-178072644D01*
X212810226Y-177930824D01*
X212845831Y-177759887D01*
X212886660Y-177564488D01*
X212931734Y-177349280D01*
X212980070Y-177118920D01*
X213030689Y-176878062D01*
X213082610Y-176631360D01*
X213134853Y-176383470D01*
X213186436Y-176139046D01*
X213236379Y-175902743D01*
X213283702Y-175679216D01*
X213327423Y-175473120D01*
X213366562Y-175289109D01*
X213400139Y-175131839D01*
X213427173Y-175005964D01*
X213446683Y-174916140D01*
X213457688Y-174867020D01*
X213459641Y-174859328D01*
X213452909Y-174849318D01*
X213421936Y-174841611D01*
X213362142Y-174835960D01*
X213268951Y-174832120D01*
X213137782Y-174829847D01*
X212964059Y-174828894D01*
X212889865Y-174828828D01*
X212309608Y-174828828D01*
X212056488Y-176019670D01*
X211803367Y-177210512D01*
X211686605Y-177291012D01*
X211516251Y-177393715D01*
X211351008Y-177458986D01*
X211173274Y-177492332D01*
X211019491Y-177499710D01*
X210867938Y-177495130D01*
X210755114Y-177478068D01*
X210671862Y-177445415D01*
X210609020Y-177394061D01*
X210574428Y-177348647D01*
X210556471Y-177314048D01*
X210544352Y-177270742D01*
X210538604Y-177214693D01*
X210539762Y-177141864D01*
X210548361Y-177048218D01*
X210564935Y-176929717D01*
X210590018Y-176782325D01*
X210624145Y-176602004D01*
X210667850Y-176384719D01*
X210721668Y-176126431D01*
X210760447Y-175943464D01*
X210807051Y-175723809D01*
X210850341Y-175518272D01*
X210889278Y-175331898D01*
X210922823Y-175169730D01*
X210949936Y-175036813D01*
X210969578Y-174938192D01*
X210980711Y-174878909D01*
X210982892Y-174863781D01*
X210976232Y-174852492D01*
X210952662Y-174843848D01*
X210906797Y-174837522D01*
X210833250Y-174833185D01*
X210726635Y-174830510D01*
X210581567Y-174829168D01*
X210409501Y-174828828D01*
X210248077Y-174829498D01*
X210104235Y-174831379D01*
X209984714Y-174834277D01*
X209896253Y-174837997D01*
X209845588Y-174842347D01*
X209836110Y-174845335D01*
X209831201Y-174871790D01*
X209817125Y-174941309D01*
X209794855Y-175049224D01*
X209765369Y-175190866D01*
X209729640Y-175361564D01*
X209688644Y-175556651D01*
X209643356Y-175771457D01*
X209594751Y-176001314D01*
X209590239Y-176022616D01*
X209533777Y-176289639D01*
X209486731Y-176513786D01*
X209448287Y-176699894D01*
X209417628Y-176852802D01*
X209393939Y-176977346D01*
X209376405Y-177078366D01*
X209364211Y-177160699D01*
X209356541Y-177229183D01*
X209352579Y-177288655D01*
X209351510Y-177343955D01*
X208570432Y-177343955D01*
X208593787Y-177233304D01*
X208647314Y-176979423D01*
X208704039Y-176710094D01*
X208737941Y-176549001D01*
X208796069Y-176272968D01*
X208851480Y-176010346D01*
X208903321Y-175765137D01*
X208950741Y-175541341D01*
X208992891Y-175342957D01*
X209028919Y-175173988D01*
X209057975Y-175038434D01*
X209079207Y-174940296D01*
X209091766Y-174883573D01*
X209094752Y-174871187D01*
X209095911Y-174859349D01*
X209088295Y-174849974D01*
X209067059Y-174842834D01*
X209027360Y-174837700D01*
X208964354Y-174834342D01*
X208873195Y-174832532D01*
X208749042Y-174832040D01*
X208587049Y-174832636D01*
X208382372Y-174834093D01*
X208321118Y-174834588D01*
X207534611Y-174841028D01*
X207418737Y-175187729D01*
X207376421Y-175316016D01*
X207338702Y-175433477D01*
X207308854Y-175529686D01*
X207290152Y-175594215D01*
X207286568Y-175608622D01*
X207270273Y-175682815D01*
X207516208Y-175682815D01*
X207619073Y-175684202D01*
X207700807Y-175687946D01*
X207751122Y-175693416D01*
X207762143Y-175697861D01*
X207757235Y-175723922D01*
X207743131Y-175793267D01*
X207720763Y-175901444D01*
X207691062Y-176043999D01*
X207654959Y-176216480D01*
X207613384Y-176414434D01*
X207567270Y-176633407D01*
X207517546Y-176868948D01*
X207493747Y-176981495D01*
X207442649Y-177223410D01*
X207394737Y-177451014D01*
X207350942Y-177659824D01*
X207312199Y-177845356D01*
X207279439Y-178003127D01*
X207253594Y-178128653D01*
X207235599Y-178217450D01*
X207226384Y-178265035D01*
X207225351Y-178271828D01*
X205015160Y-178271828D01*
X205259164Y-177112571D01*
X205505178Y-175943769D01*
X205661272Y-175885477D01*
X205851583Y-175822349D01*
X206075427Y-175761355D01*
X206317567Y-175706344D01*
X206523926Y-175667579D01*
X206653816Y-175643244D01*
X206739661Y-175621172D01*
X206786078Y-175599982D01*
X206797321Y-175585935D01*
X206807042Y-175545898D01*
X206823588Y-175470538D01*
X206844892Y-175369996D01*
X206868884Y-175254413D01*
X206893497Y-175133932D01*
X206916661Y-175018693D01*
X206936308Y-174918838D01*
X206950368Y-174844508D01*
X206956774Y-174805845D01*
X206956955Y-174803364D01*
X206935157Y-174786227D01*
X206874465Y-174783779D01*
X206781929Y-174794266D01*
X206664601Y-174815935D01*
X206529532Y-174847034D01*
X206383773Y-174885809D01*
X206234376Y-174930508D01*
X206088393Y-174979376D01*
X205952874Y-175030662D01*
X205836106Y-175082016D01*
X205761697Y-175116166D01*
X205704161Y-175139388D01*
X205680080Y-175146023D01*
X205669235Y-175123390D01*
X205666871Y-175061227D01*
X205671529Y-174987425D01*
X205686339Y-174828828D01*
X205139910Y-174828828D01*
X204962175Y-174829104D01*
X204827217Y-174830237D01*
X204729017Y-174832689D01*
X204661554Y-174836918D01*
X204618809Y-174843384D01*
X204594761Y-174852548D01*
X204583390Y-174864868D01*
X204580817Y-174871527D01*
X204573765Y-174902090D01*
X204557537Y-174976410D01*
X204532983Y-175090490D01*
X204500953Y-175240330D01*
X204462299Y-175421929D01*
X204417870Y-175631289D01*
X204368517Y-175864410D01*
X204315091Y-176117293D01*
X204258441Y-176385938D01*
X204224106Y-176549001D01*
X204165901Y-176825429D01*
X204110399Y-177088754D01*
X204058454Y-177334935D01*
X204010922Y-177559933D01*
X203968658Y-177759707D01*
X203932517Y-177930219D01*
X203903354Y-178067428D01*
X203882025Y-178167294D01*
X203869383Y-178225778D01*
X203866374Y-178239122D01*
X203852689Y-178294470D01*
X196782316Y-178294470D01*
X196782316Y-178275274D01*
X198399930Y-178275274D01*
X198420419Y-178280234D01*
X198483354Y-178284674D01*
X198582384Y-178288405D01*
X198711156Y-178291237D01*
X198863318Y-178292978D01*
X199007340Y-178293460D01*
X199624871Y-178293346D01*
X199950369Y-177756346D01*
X200275868Y-177219347D01*
X201096973Y-177225768D01*
X201918077Y-177232190D01*
X202014934Y-177762882D01*
X202111790Y-178293573D01*
X202667802Y-178293573D01*
X202855326Y-178292968D01*
X202998689Y-178290982D01*
X203102518Y-178287361D01*
X203171438Y-178281852D01*
X203210077Y-178274200D01*
X203223059Y-178264151D01*
X203223126Y-178263074D01*
X203218995Y-178235164D01*
X203207179Y-178162494D01*
X203188242Y-178048401D01*
X203162749Y-177896224D01*
X203131263Y-177709298D01*
X203094350Y-177490961D01*
X203052575Y-177244551D01*
X203006500Y-176973404D01*
X202956693Y-176680858D01*
X202903716Y-176370249D01*
X202848134Y-176044916D01*
X202825847Y-175914611D01*
X202540927Y-174249337D01*
X207981189Y-174249337D01*
X208004662Y-174254299D01*
X208070449Y-174258750D01*
X208172063Y-174262499D01*
X208303022Y-174265354D01*
X208456838Y-174267126D01*
X208602285Y-174267637D01*
X208792998Y-174267410D01*
X208940549Y-174266476D01*
X209050578Y-174264454D01*
X209128720Y-174260964D01*
X209180613Y-174255625D01*
X209211895Y-174248058D01*
X209228203Y-174237882D01*
X209235110Y-174224937D01*
X209244388Y-174186713D01*
X209261606Y-174110435D01*
X209284620Y-174005794D01*
X209311286Y-173882482D01*
X209322848Y-173828444D01*
X209350454Y-173700246D01*
X209375392Y-173586724D01*
X209395496Y-173497570D01*
X209408599Y-173442478D01*
X209411456Y-173431950D01*
X209412703Y-173418977D01*
X209403905Y-173408926D01*
X209379695Y-173401428D01*
X209334709Y-173396111D01*
X209263583Y-173392606D01*
X209160952Y-173390542D01*
X209021452Y-173389549D01*
X208839718Y-173389258D01*
X208792735Y-173389251D01*
X208160866Y-173389251D01*
X208070752Y-173810144D01*
X208041594Y-173947464D01*
X208016431Y-174068129D01*
X207996904Y-174164094D01*
X207984653Y-174227311D01*
X207981189Y-174249337D01*
X202540927Y-174249337D01*
X202429255Y-173596647D01*
X201804523Y-173590141D01*
X201179791Y-173583635D01*
X199794921Y-175920304D01*
X199611310Y-176230119D01*
X199434649Y-176528227D01*
X199266533Y-176811936D01*
X199108556Y-177078557D01*
X198962312Y-177325397D01*
X198829395Y-177549766D01*
X198711399Y-177748972D01*
X198609919Y-177920324D01*
X198526548Y-178061132D01*
X198462881Y-178168702D01*
X198420511Y-178240346D01*
X198401034Y-178273370D01*
X198399930Y-178275274D01*
X196782316Y-178275274D01*
X196782316Y-176024409D01*
X196782316Y-171388482D01*
X216790000Y-171388482D01*
X236797685Y-171388482D01*
X236797685Y-176024409D01*
G37*
%TD*%
%LPC*%
D12*
%TO.C,H3*%
X92860000Y-173600000D03*
%TD*%
%TO.C,H7*%
X371050000Y-110380000D03*
%TD*%
D13*
%TO.C,REF\u002A\u002A*%
X294967500Y-131927500D03*
D14*
X294967500Y-147167500D03*
D13*
X318780000Y-131927500D03*
D14*
X318780000Y-147167500D03*
%TD*%
D13*
%TO.C,REF\u002A\u002A*%
X52080000Y-150977500D03*
D14*
X52080000Y-166217500D03*
D13*
X75892500Y-150977500D03*
D14*
X75892500Y-166217500D03*
%TD*%
D12*
%TO.C,H4*%
X194910000Y-108990000D03*
%TD*%
D13*
%TO.C,REF\u002A\u002A*%
X290205000Y-150977500D03*
D14*
X290205000Y-166217500D03*
D13*
X314017500Y-150977500D03*
D14*
X314017500Y-166217500D03*
%TD*%
D12*
%TO.C,H1*%
X81880000Y-110040000D03*
%TD*%
D13*
%TO.C,REF\u002A\u002A*%
X297348750Y-93827500D03*
D14*
X297348750Y-109067500D03*
D13*
X321161250Y-93827500D03*
D14*
X321161250Y-109067500D03*
%TD*%
D13*
%TO.C,REF\u002A\u002A*%
X242580000Y-183997500D03*
D14*
X242580000Y-168757500D03*
D13*
X128280000Y-183997500D03*
D14*
X128280000Y-168757500D03*
%TD*%
D12*
%TO.C,H6*%
X279280000Y-149530000D03*
%TD*%
%TO.C,H2*%
X263840000Y-89550000D03*
%TD*%
%TO.C,H5*%
X153760000Y-170550000D03*
%TD*%
%TO.C,H8*%
X345580000Y-160930000D03*
%TD*%
D15*
%TO.C,HALL34*%
X61922500Y-119862500D03*
X51762500Y-119862500D03*
%TD*%
%TO.C,HALL13*%
X323860000Y-77000000D03*
X313700000Y-77000000D03*
%TD*%
%TO.C,HALL17*%
X57160000Y-100812500D03*
X47000000Y-100812500D03*
%TD*%
%TO.C,HALL55*%
X147647500Y-138912500D03*
X137487500Y-138912500D03*
%TD*%
%TO.C,HALL32*%
X366722500Y-100812500D03*
X356562500Y-100812500D03*
%TD*%
%TO.C,HALL77*%
X61922500Y-177012500D03*
X51762500Y-177012500D03*
%TD*%
%TO.C,HALL4*%
X133360000Y-77000000D03*
X123200000Y-77000000D03*
%TD*%
D16*
%TO.C,J3*%
X369195000Y-136240000D03*
D17*
X371735000Y-136240000D03*
%TD*%
D15*
%TO.C,HALL59*%
X223847500Y-138912500D03*
X213687500Y-138912500D03*
%TD*%
%TO.C,HALL86*%
X385772500Y-177012500D03*
X375612500Y-177012500D03*
%TD*%
%TO.C,HALL8*%
X219085000Y-77000000D03*
X208925000Y-77000000D03*
%TD*%
%TO.C,HALL64*%
X69066250Y-157962500D03*
X58906250Y-157962500D03*
%TD*%
%TO.C,HALL35*%
X85735000Y-119862500D03*
X75575000Y-119862500D03*
%TD*%
%TO.C,HALL42*%
X219085000Y-119862500D03*
X208925000Y-119862500D03*
%TD*%
%TO.C,HALL21*%
X133360000Y-100812500D03*
X123200000Y-100812500D03*
%TD*%
%TO.C,HALL3*%
X114310000Y-77000000D03*
X104150000Y-77000000D03*
%TD*%
%TO.C,HALL20*%
X114310000Y-100812500D03*
X104150000Y-100812500D03*
%TD*%
%TO.C,HALL2*%
X95260000Y-77000000D03*
X85100000Y-77000000D03*
%TD*%
%TO.C,HALL38*%
X142885000Y-119862500D03*
X132725000Y-119862500D03*
%TD*%
%TO.C,HALL83*%
X319097500Y-177012500D03*
X308937500Y-177012500D03*
%TD*%
%TO.C,HALL65*%
X100022500Y-157962500D03*
X89862500Y-157962500D03*
%TD*%
%TO.C,HALL85*%
X366722500Y-177012500D03*
X356562500Y-177012500D03*
%TD*%
%TO.C,HALL40*%
X180985000Y-119862500D03*
X170825000Y-119862500D03*
%TD*%
%TO.C,HALL47*%
X319097500Y-119862500D03*
X308937500Y-119862500D03*
%TD*%
%TO.C,HALL7*%
X200035000Y-77000000D03*
X189875000Y-77000000D03*
%TD*%
%TO.C,HALL81*%
X271472500Y-177012500D03*
X261312500Y-177012500D03*
%TD*%
%TO.C,HALL79*%
X109547500Y-177012500D03*
X99387500Y-177012500D03*
%TD*%
%TO.C,HALL15*%
X366722500Y-77000000D03*
X356562500Y-77000000D03*
%TD*%
%TO.C,HALL25*%
X209560000Y-100812500D03*
X199400000Y-100812500D03*
%TD*%
%TO.C,HALL58*%
X204797500Y-138912500D03*
X194637500Y-138912500D03*
%TD*%
%TO.C,HALL84*%
X347672500Y-177012500D03*
X337512500Y-177012500D03*
%TD*%
%TO.C,HALL71*%
X214322500Y-157962500D03*
X204162500Y-157962500D03*
%TD*%
%TO.C,HALL80*%
X190510000Y-177012500D03*
X180350000Y-177012500D03*
%TD*%
%TO.C,HALL14*%
X347672500Y-77000000D03*
X337512500Y-77000000D03*
%TD*%
%TO.C,HALL43*%
X238135000Y-119862500D03*
X227975000Y-119862500D03*
%TD*%
%TO.C,HALL30*%
X314335000Y-100812500D03*
X304175000Y-100812500D03*
%TD*%
%TO.C,HALL41*%
X200035000Y-119862500D03*
X189875000Y-119862500D03*
%TD*%
%TO.C,HALL16*%
X385772500Y-77000000D03*
X375612500Y-77000000D03*
%TD*%
%TO.C,HALL27*%
X247660000Y-100812500D03*
X237500000Y-100812500D03*
%TD*%
D18*
%TO.C,J1*%
X327796742Y-71447386D03*
X333576742Y-71447386D03*
D19*
X326366742Y-67797386D03*
D20*
X326366742Y-71977386D03*
D19*
X335006742Y-67797386D03*
D20*
X335006742Y-71977386D03*
%TD*%
D15*
%TO.C,HALL22*%
X152410000Y-100812500D03*
X142250000Y-100812500D03*
%TD*%
%TO.C,HALL75*%
X307191250Y-157962500D03*
X297031250Y-157962500D03*
%TD*%
%TO.C,HALL67*%
X138122500Y-157962500D03*
X127962500Y-157962500D03*
%TD*%
%TO.C,HALL72*%
X233372500Y-157962500D03*
X223212500Y-157962500D03*
%TD*%
%TO.C,HALL1*%
X57160000Y-77000000D03*
X47000000Y-77000000D03*
%TD*%
%TO.C,HALL76*%
X366722500Y-157962500D03*
X356562500Y-157962500D03*
%TD*%
%TO.C,HALL10*%
X266710000Y-77000000D03*
X256550000Y-77000000D03*
%TD*%
%TO.C,HALL31*%
X347672500Y-100812500D03*
X337512500Y-100812500D03*
%TD*%
%TO.C,HALL50*%
X385772500Y-119862500D03*
X375612500Y-119862500D03*
%TD*%
%TO.C,HALL57*%
X185747500Y-138912500D03*
X175587500Y-138912500D03*
%TD*%
%TO.C,HALL48*%
X347672500Y-119862500D03*
X337512500Y-119862500D03*
%TD*%
%TO.C,HALL26*%
X228610000Y-100812500D03*
X218450000Y-100812500D03*
%TD*%
%TO.C,HALL23*%
X171460000Y-100812500D03*
X161300000Y-100812500D03*
%TD*%
%TO.C,HALL45*%
X276235000Y-119862500D03*
X266075000Y-119862500D03*
%TD*%
%TO.C,HALL74*%
X271472500Y-157962500D03*
X261312500Y-157962500D03*
%TD*%
%TO.C,HALL82*%
X295285000Y-177012500D03*
X285125000Y-177012500D03*
%TD*%
%TO.C,HALL6*%
X180985000Y-77000000D03*
X170825000Y-77000000D03*
%TD*%
%TO.C,HALL12*%
X304810000Y-77000000D03*
X294650000Y-77000000D03*
%TD*%
%TO.C,HALL46*%
X295285000Y-119862500D03*
X285125000Y-119862500D03*
%TD*%
%TO.C,HALL73*%
X252422500Y-157962500D03*
X242262500Y-157962500D03*
%TD*%
%TO.C,HALL78*%
X85735000Y-177012500D03*
X75575000Y-177012500D03*
%TD*%
%TO.C,HALL33*%
X385772500Y-100812500D03*
X375612500Y-100812500D03*
%TD*%
%TO.C,HALL11*%
X285760000Y-77000000D03*
X275600000Y-77000000D03*
%TD*%
%TO.C,HALL39*%
X161935000Y-119862500D03*
X151775000Y-119862500D03*
%TD*%
%TO.C,HALL36*%
X104785000Y-119862500D03*
X94625000Y-119862500D03*
%TD*%
%TO.C,HALL18*%
X76210000Y-100812500D03*
X66050000Y-100812500D03*
%TD*%
%TO.C,HALL5*%
X152410000Y-77000000D03*
X142250000Y-77000000D03*
%TD*%
%TO.C,HALL54*%
X128597500Y-138912500D03*
X118437500Y-138912500D03*
%TD*%
%TO.C,HALL52*%
X90497500Y-138912500D03*
X80337500Y-138912500D03*
%TD*%
%TO.C,HALL61*%
X261947500Y-138912500D03*
X251787500Y-138912500D03*
%TD*%
D16*
%TO.C,J2*%
X361975000Y-136400000D03*
D17*
X364515000Y-136400000D03*
%TD*%
D15*
%TO.C,HALL62*%
X280997500Y-138912500D03*
X270837500Y-138912500D03*
%TD*%
%TO.C,HALL68*%
X157172500Y-157962500D03*
X147012500Y-157962500D03*
%TD*%
%TO.C,HALL51*%
X59541250Y-138912500D03*
X49381250Y-138912500D03*
%TD*%
%TO.C,HALL37*%
X123835000Y-119862500D03*
X113675000Y-119862500D03*
%TD*%
%TO.C,HALL9*%
X238135000Y-77000000D03*
X227975000Y-77000000D03*
%TD*%
%TO.C,HALL19*%
X95260000Y-100812500D03*
X85100000Y-100812500D03*
%TD*%
%TO.C,HALL60*%
X242897500Y-138912500D03*
X232737500Y-138912500D03*
%TD*%
%TO.C,HALL63*%
X311953750Y-138912500D03*
X301793750Y-138912500D03*
%TD*%
%TO.C,HALL69*%
X176222500Y-157962500D03*
X166062500Y-157962500D03*
%TD*%
%TO.C,HALL70*%
X195272500Y-157962500D03*
X185112500Y-157962500D03*
%TD*%
%TO.C,HALL28*%
X266710000Y-100812500D03*
X256550000Y-100812500D03*
%TD*%
%TO.C,HALL56*%
X166697500Y-138912500D03*
X156537500Y-138912500D03*
%TD*%
%TO.C,HALL29*%
X285760000Y-100812500D03*
X275600000Y-100812500D03*
%TD*%
D21*
%TO.C,SWD1*%
X315523949Y-92236051D03*
D22*
X317320000Y-90440000D03*
X313727898Y-90440000D03*
X315523949Y-88643949D03*
X311931847Y-88643949D03*
X313727898Y-86847897D03*
%TD*%
D15*
%TO.C,HALL49*%
X366722500Y-119862500D03*
X356562500Y-119862500D03*
%TD*%
%TO.C,HALL53*%
X109547500Y-138912500D03*
X99387500Y-138912500D03*
%TD*%
%TO.C,HALL24*%
X190510000Y-100812500D03*
X180350000Y-100812500D03*
%TD*%
%TO.C,HALL66*%
X119072500Y-157962500D03*
X108912500Y-157962500D03*
%TD*%
%TO.C,HALL44*%
X257185000Y-119862500D03*
X247025000Y-119862500D03*
%TD*%
%LPD*%
M02*
