M48
; DRILL file {KiCad 7.0.6} date Sun Apr 21 10:48:58 2024
; FORMAT={-:-/ absolute / inch / decimal}
; #@! TF.CreationDate,2024-04-21T10:48:58+02:00
; #@! TF.GenerationSoftware,Kicad,Pcbnew,7.0.6
; #@! TF.FileFunction,NonPlated,1,2,NPTH
FMAT,2
INCH
; #@! TA.AperFunction,NonPlated,NPTH,ComponentDrill
T1C0.0256
; #@! TA.AperFunction,NonPlated,NPTH,ComponentDrill
T2C0.0689
; #@! TA.AperFunction,NonPlated,NPTH,ComponentDrill
T3C0.1200
; #@! TA.AperFunction,NonPlated,NPTH,ComponentDrill
T4C0.1570
%
G90
G05
T1
X12.9054Y-2.8129
X13.1329Y-2.8129
T2
X1.8504Y-3.0315
X1.8504Y-3.969
X1.9441Y-5.469
X2.0379Y-4.719
X2.0379Y-6.969
X2.2504Y-3.0315
X2.2504Y-3.969
X2.3191Y-6.219
X2.3441Y-5.469
X2.4379Y-4.719
X2.4379Y-6.969
X2.6004Y-3.969
X2.7191Y-6.219
X2.9754Y-4.719
X2.9754Y-6.969
X3.0004Y-3.969
X3.1629Y-5.469
X3.3504Y-3.0315
X3.3504Y-3.969
X3.3754Y-4.719
X3.3754Y-6.969
X3.5379Y-6.219
X3.5629Y-5.469
X3.7254Y-4.719
X3.7504Y-3.0315
X3.7504Y-3.969
X3.9129Y-5.469
X3.9129Y-6.969
X3.9379Y-6.219
X4.1004Y-3.0315
X4.1004Y-3.969
X4.1254Y-4.719
X4.2879Y-6.219
X4.3129Y-5.469
X4.3129Y-6.969
X4.4754Y-4.719
X4.5004Y-3.0315
X4.5004Y-3.969
X4.6629Y-5.469
X4.6879Y-6.219
X4.8504Y-3.0315
X4.8504Y-3.969
X4.8754Y-4.719
X5.0379Y-6.219
X5.0629Y-5.469
X5.2254Y-4.719
X5.2504Y-3.0315
X5.2504Y-3.969
X5.4129Y-5.469
X5.4379Y-6.219
X5.6004Y-3.0315
X5.6004Y-3.969
X5.6254Y-4.719
X5.7879Y-6.219
X5.8129Y-5.469
X5.9754Y-4.719
X6.0004Y-3.0315
X6.0004Y-3.969
X6.1629Y-5.469
X6.1879Y-6.219
X6.3504Y-3.969
X6.3754Y-4.719
X6.5379Y-6.219
X6.5629Y-5.469
X6.7254Y-3.0315
X6.7254Y-4.719
X6.7504Y-3.969
X6.9129Y-5.469
X6.9379Y-6.219
X7.1004Y-3.969
X7.1004Y-6.969
X7.1254Y-3.0315
X7.1254Y-4.719
X7.2879Y-6.219
X7.3129Y-5.469
X7.4754Y-3.0315
X7.4754Y-4.719
X7.5004Y-3.969
X7.5004Y-6.969
X7.6629Y-5.469
X7.6879Y-6.219
X7.8504Y-3.969
X7.8754Y-3.0315
X7.8754Y-4.719
X8.0379Y-6.219
X8.0629Y-5.469
X8.2254Y-3.0315
X8.2254Y-4.719
X8.2504Y-3.969
X8.4129Y-5.469
X8.4379Y-6.219
X8.6004Y-3.969
X8.6254Y-3.0315
X8.6254Y-4.719
X8.7879Y-6.219
X8.8129Y-5.469
X8.9754Y-3.0315
X8.9754Y-4.719
X9.0004Y-3.969
X9.1629Y-5.469
X9.1879Y-6.219
X9.3504Y-3.969
X9.3754Y-3.0315
X9.3754Y-4.719
X9.5379Y-6.219
X9.5629Y-5.469
X9.7254Y-4.719
X9.7504Y-3.969
X9.9129Y-5.469
X9.9379Y-6.219
X10.1004Y-3.0315
X10.1004Y-3.969
X10.1254Y-4.719
X10.2879Y-6.219
X10.2879Y-6.969
X10.3129Y-5.469
X10.4754Y-4.719
X10.5004Y-3.0315
X10.5004Y-3.969
X10.6629Y-5.469
X10.6879Y-6.219
X10.6879Y-6.969
X10.8504Y-3.0315
X10.8504Y-3.969
X10.8754Y-4.719
X11.0629Y-5.469
X11.2254Y-4.719
X11.2254Y-6.969
X11.2504Y-3.0315
X11.2504Y-3.969
X11.6004Y-3.0315
X11.6254Y-4.719
X11.6254Y-6.969
X11.6941Y-6.219
X11.8816Y-5.469
X11.9754Y-3.969
X12.0004Y-3.0315
X12.0941Y-6.219
X12.1629Y-4.719
X12.1629Y-6.969
X12.2816Y-5.469
X12.3504Y-3.0315
X12.3754Y-3.969
X12.5629Y-4.719
X12.5629Y-6.969
X12.7504Y-3.0315
X13.2879Y-3.0315
X13.2879Y-3.969
X13.2879Y-4.719
X13.2879Y-6.969
X13.6879Y-3.0315
X13.6879Y-3.969
X13.6879Y-4.719
X13.6879Y-6.969
X14.0379Y-3.0315
X14.0379Y-3.969
X14.0379Y-4.719
X14.0379Y-6.219
X14.0379Y-6.969
X14.4379Y-3.0315
X14.4379Y-3.969
X14.4379Y-4.719
X14.4379Y-6.219
X14.4379Y-6.969
X14.7879Y-3.0315
X14.7879Y-3.969
X14.7879Y-4.719
X14.7879Y-6.969
X15.1879Y-3.0315
X15.1879Y-3.969
X15.1879Y-4.719
X15.1879Y-6.969
T3
X2.0504Y-5.944
X2.9879Y-5.944
X5.0504Y-7.244
X9.5504Y-7.244
X11.4254Y-5.944
X11.6129Y-5.194
X11.7066Y-3.694
X12.3629Y-5.944
X12.5504Y-5.194
X12.6441Y-3.694
T4
X2.0504Y-6.544
X2.9879Y-6.544
X5.0504Y-6.644
X9.5504Y-6.644
X11.4254Y-6.544
X11.6129Y-5.794
X11.7066Y-4.294
X12.3629Y-6.544
X12.5504Y-5.794
X12.6441Y-4.294
T0
M30
