M48
; DRILL file {KiCad 7.0.6} date Thu Jan 18 22:37:56 2024
; FORMAT={-:-/ absolute / inch / decimal}
; #@! TF.CreationDate,2024-01-18T22:37:56+01:00
; #@! TF.GenerationSoftware,Kicad,Pcbnew,7.0.6
; #@! TF.FileFunction,Plated,1,2,PTH
FMAT,2
INCH
; #@! TA.AperFunction,Plated,PTH,ViaDrill
T1C0.0118
; #@! TA.AperFunction,Plated,PTH,ViaDrill
T2C0.0157
; #@! TA.AperFunction,Plated,PTH,ComponentDrill
T3C0.0236
; #@! TA.AperFunction,Plated,PTH,ComponentDrill
T4C0.0394
%
G90
G05
T1
X1.9598Y-3.0669
X1.9598Y-4.0044
X2.0504Y-3.122
X2.0504Y-4.0595
X2.0536Y-5.5044
X2.1402Y-3.852
X2.1421Y-2.9169
X2.1441Y-5.5595
X2.1473Y-4.7544
X2.1473Y-7.0044
X2.1803Y-3.0276
X2.1803Y-3.9651
X2.2379Y-4.8095
X2.2379Y-7.0595
X2.2741Y-5.4651
X2.3303Y-4.6051
X2.3331Y-5.3927
X2.3678Y-4.7151
X2.3678Y-6.8588
X2.3678Y-6.9651
X2.4286Y-6.2544
X2.4297Y-5.2278
X2.5191Y-6.3095
X2.5669Y-5.0521
X2.5831Y-5.1754
X2.6154Y-4.939
X2.6154Y-5.2854
X2.6154Y-6.0954
X2.6341Y-5.0561
X2.6491Y-6.2151
X2.6665Y-4.939
X2.6665Y-5.2835
X2.7098Y-4.0044
X2.7177Y-4.939
X2.7177Y-5.2795
X2.7433Y-5.1634
X2.7689Y-4.939
X2.7689Y-5.2795
X2.8004Y-4.0595
X2.8031Y-5.1654
X2.8456Y-5.0554
X2.8931Y-3.8454
X2.9303Y-3.9651
X3.0848Y-4.7544
X3.0848Y-7.0044
X3.1754Y-4.8095
X3.1754Y-7.0595
X3.2723Y-5.5044
X3.3024Y-4.6054
X3.3053Y-4.7151
X3.3053Y-6.9651
X3.3056Y-6.8535
X3.3629Y-5.5595
X3.4598Y-3.0669
X3.4598Y-4.0044
X3.4924Y-5.3505
X3.4928Y-5.4651
X3.5504Y-3.122
X3.5504Y-4.0595
X3.6431Y-2.9154
X3.6453Y-3.8583
X3.6473Y-6.2544
X3.6803Y-3.0276
X3.6803Y-3.9651
X3.7379Y-6.3095
X3.8348Y-4.7544
X3.8678Y-6.2151
X3.8679Y-6.1115
X3.9254Y-4.8095
X4.0189Y-4.6063
X4.0223Y-5.5044
X4.0223Y-7.0044
X4.0553Y-4.7151
X4.1129Y-5.5595
X4.1129Y-7.0595
X4.2067Y-6.8559
X4.2098Y-3.0669
X4.2098Y-4.0044
X4.2424Y-5.35
X4.2428Y-5.4651
X4.2428Y-6.9651
X4.3004Y-3.122
X4.3004Y-4.0595
X4.3407Y-5.3582
X4.3479Y-5.103
X4.3807Y-4.991
X4.3931Y-2.9154
X4.3931Y-3.8554
X4.3973Y-6.2544
X4.4008Y-5.3317
X4.4239Y-4.9849
X4.4264Y-5.1014
X4.4303Y-3.0276
X4.4303Y-3.9651
X4.452Y-5.3337
X4.4731Y-4.9832
X4.4879Y-6.3095
X4.5Y-5.223
X4.5031Y-5.3337
X4.5431Y-4.9954
X4.55Y-5.22
X4.5543Y-5.3376
X4.5848Y-4.7544
X4.6138Y-6.1047
X4.6178Y-6.2151
X4.6754Y-4.8095
X4.6854Y-5.1166
X4.769Y-4.6063
X4.7723Y-5.5044
X4.8053Y-4.7151
X4.8629Y-5.5595
X4.9598Y-3.0669
X4.9598Y-4.0044
X4.9866Y-5.3526
X4.9928Y-5.4651
X5.0504Y-3.122
X5.0504Y-4.0595
X5.1374Y-3.8567
X5.1431Y-2.9187
X5.1473Y-6.2544
X5.1803Y-3.0276
X5.1803Y-3.9651
X5.2379Y-6.3095
X5.3348Y-4.7544
X5.3638Y-6.1047
X5.3678Y-6.2151
X5.4254Y-4.8095
X5.5189Y-4.6062
X5.5223Y-5.5044
X5.5553Y-4.7151
X5.6129Y-5.5595
X5.7098Y-3.0669
X5.7098Y-4.0044
X5.7428Y-5.4651
X5.7731Y-5.3554
X5.8004Y-3.122
X5.8004Y-4.0595
X5.8508Y-5.3465
X5.893Y-3.8554
X5.8931Y-2.9167
X5.8973Y-6.2544
X5.9041Y-5.089
X5.914Y-5.2134
X5.9303Y-3.0276
X5.9303Y-3.9651
X5.9335Y-4.972
X5.951Y-5.3274
X5.9764Y-5.0876
X5.9879Y-6.3095
X6.002Y-4.9783
X6.0022Y-5.3309
X6.0276Y-5.087
X6.0531Y-4.9783
X6.0533Y-5.327
X6.0692Y-5.2142
X6.0787Y-5.088
X6.0848Y-4.7544
X6.1043Y-4.9764
X6.1044Y-5.3273
X6.1138Y-6.1047
X6.1178Y-6.2151
X6.153Y-5.3356
X6.1754Y-4.8095
X6.2122Y-5.0502
X6.2675Y-4.604
X6.2723Y-5.5044
X6.3053Y-4.7151
X6.3629Y-5.5595
X6.4598Y-4.0044
X6.4921Y-5.3543
X6.4928Y-5.4651
X6.5504Y-4.0595
X6.6431Y-3.8649
X6.6473Y-6.2544
X6.6803Y-3.9651
X6.7379Y-6.3095
X6.8348Y-3.0669
X6.8348Y-4.7544
X6.8638Y-6.1047
X6.8678Y-6.2151
X6.9254Y-3.122
X6.9254Y-4.8095
X7.0184Y-2.9178
X7.0185Y-4.6055
X7.0223Y-5.5044
X7.0553Y-3.0276
X7.0553Y-4.7151
X7.1129Y-5.5595
X7.2098Y-4.0044
X7.2098Y-7.0044
X7.2327Y-5.3486
X7.2428Y-5.4651
X7.3004Y-4.0595
X7.3004Y-7.0595
X7.3931Y-3.8654
X7.3973Y-6.2544
X7.4131Y-6.8554
X7.4303Y-3.9651
X7.4303Y-6.9651
X7.4879Y-6.3095
X7.5848Y-3.0669
X7.5848Y-4.7544
X7.6138Y-6.1047
X7.6178Y-6.2151
X7.6754Y-3.122
X7.6754Y-4.8095
X7.7675Y-4.6049
X7.7687Y-2.9182
X7.7723Y-5.5044
X7.8053Y-3.0276
X7.8053Y-4.7151
X7.8629Y-5.5595
X7.9598Y-4.0044
X7.9928Y-5.4651
X8.0268Y-5.369
X8.0504Y-4.0595
X8.0549Y-5.3089
X8.1202Y-5.2871
X8.1301Y-5.0656
X8.1431Y-3.8654
X8.1473Y-6.2544
X8.1555Y-4.9514
X8.1555Y-5.2894
X8.1803Y-3.9651
X8.1811Y-5.0669
X8.1811Y-5.1896
X8.2068Y-4.9499
X8.2068Y-5.2906
X8.2323Y-5.0669
X8.2323Y-5.187
X8.2379Y-6.3095
X8.2579Y-4.9553
X8.2579Y-5.2906
X8.2754Y-5.1829
X8.2835Y-5.0669
X8.3083Y-5.2902
X8.3091Y-4.9553
X8.3189Y-5.1809
X8.3348Y-3.0669
X8.3348Y-4.7544
X8.367Y-6.1079
X8.3678Y-6.2151
X8.4254Y-3.122
X8.4254Y-4.8095
X8.4299Y-5.0404
X8.5181Y-2.9151
X8.5189Y-4.6019
X8.5223Y-5.5044
X8.5553Y-3.0276
X8.5553Y-4.7151
X8.6129Y-5.5595
X8.7098Y-4.0044
X8.7324Y-5.3579
X8.7428Y-5.4651
X8.8004Y-4.0595
X8.8931Y-3.8554
X8.8973Y-6.2544
X8.9303Y-3.9651
X8.9879Y-6.3095
X9.0848Y-3.0669
X9.0848Y-4.7544
X9.1178Y-6.2151
X9.1181Y-6.1102
X9.1754Y-3.122
X9.1754Y-4.8095
X9.2677Y-4.6068
X9.2685Y-2.9157
X9.2723Y-5.5044
X9.3053Y-3.0276
X9.3053Y-4.7151
X9.3629Y-5.5595
X9.4598Y-4.0044
X9.4928Y-5.4651
X9.493Y-5.359
X9.5504Y-4.0595
X9.6431Y-3.8554
X9.6473Y-6.2544
X9.6803Y-3.9651
X9.7379Y-6.3095
X9.8348Y-4.7544
X9.8661Y-6.1071
X9.8678Y-6.2151
X9.9254Y-4.8095
X10.0197Y-4.6071
X10.0223Y-5.5044
X10.0553Y-4.7151
X10.1129Y-5.5595
X10.2098Y-3.0669
X10.2098Y-4.0044
X10.2428Y-5.4651
X10.243Y-5.3594
X10.3004Y-3.122
X10.3004Y-4.0595
X10.3931Y-2.9171
X10.3941Y-3.8563
X10.3973Y-6.2544
X10.3973Y-7.0044
X10.4303Y-3.0276
X10.4303Y-3.9651
X10.4879Y-6.3095
X10.4879Y-7.0595
X10.5848Y-4.7544
X10.6175Y-6.1085
X10.6178Y-6.2151
X10.6178Y-6.9651
X10.6231Y-6.8554
X10.6754Y-4.8095
X10.7675Y-4.6049
X10.7723Y-5.5044
X10.8053Y-4.7151
X10.8629Y-5.5595
X10.9598Y-3.0669
X10.9598Y-4.0044
X10.9928Y-5.4651
X11.0343Y-5.3927
X11.0504Y-3.122
X11.0504Y-4.0595
X11.1431Y-3.853
X11.1691Y-5.1085
X11.1728Y-5.2269
X11.1803Y-3.0276
X11.1803Y-3.9651
X11.2213Y-5.1079
X11.2224Y-5.002
X11.2293Y-2.9528
X11.2293Y-5.3341
X11.2339Y-5.2279
X11.2736Y-5.3346
X11.2772Y-5.1108
X11.29Y-4.9681
X11.2905Y-5.2301
X11.3248Y-4.99
X11.3248Y-5.3366
X11.3324Y-5.2291
X11.3348Y-4.7544
X11.3348Y-7.0044
X11.3504Y-5.1079
X11.376Y-5.3366
X11.3761Y-4.99
X11.3787Y-5.2228
X11.4254Y-4.8095
X11.4254Y-7.0595
X11.4634Y-5.1087
X11.5176Y-4.6051
X11.5553Y-4.7151
X11.5553Y-6.9651
X11.556Y-6.858
X11.6644Y-2.9469
X11.7098Y-3.0669
X11.8004Y-3.122
X11.8036Y-6.2544
X11.8941Y-6.3095
X11.9303Y-3.0276
X11.9911Y-5.5044
X12.024Y-6.106
X12.0241Y-6.2151
X12.0816Y-5.5595
X12.0848Y-4.0044
X12.1754Y-4.0595
X12.1969Y-3.2169
X12.2116Y-5.4651
X12.2126Y-5.3602
X12.2684Y-3.8514
X12.2723Y-4.7544
X12.2723Y-7.0044
X12.3053Y-3.9651
X12.3629Y-4.8095
X12.3629Y-7.0595
X12.4554Y-4.6002
X12.4598Y-3.0669
X12.4928Y-4.7151
X12.4928Y-6.86
X12.4928Y-6.9651
X12.5504Y-3.122
X12.5941Y-3.313
X12.6803Y-3.0276
X12.7197Y-3.3244
X12.7739Y-6.0956
X12.8177Y-6.0156
X12.8454Y-5.767
X12.8867Y-4.0621
X12.8894Y-5.7685
X12.9114Y-6.115
X12.9253Y-5.7669
X12.931Y-3.8338
X12.9327Y-6.0035
X12.9598Y-5.8863
X12.9602Y-6.1126
X12.9659Y-5.7593
X12.9816Y-5.9865
X12.9979Y-3.8239
X13.011Y-5.7647
X13.0154Y-6.1265
X13.0368Y-6.0037
X13.0409Y-3.4996
X13.0506Y-5.8904
X13.0515Y-5.7694
X13.0722Y-6.0071
X13.0856Y-6.1101
X13.139Y-5.7823
X13.1677Y-4.2583
X13.2106Y-4.2559
X13.2382Y-3.6368
X13.2745Y-3.4754
X13.3973Y-3.0669
X13.3973Y-4.0044
X13.3973Y-4.7544
X13.3973Y-7.0044
X13.4879Y-3.122
X13.4879Y-4.0595
X13.4879Y-4.8095
X13.4879Y-7.0595
X13.5781Y-3.8553
X13.58Y-4.6
X13.5803Y-2.9178
X13.597Y-6.8411
X13.6178Y-3.0276
X13.6178Y-3.9651
X13.6178Y-4.7151
X13.6178Y-6.9651
X13.6496Y-3.2953
X13.6496Y-3.4882
X13.689Y-3.2953
X13.689Y-3.4882
X13.811Y-3.5079
X13.811Y-3.5472
X14.1473Y-3.0669
X14.1473Y-4.0044
X14.1473Y-4.7544
X14.1473Y-6.2544
X14.1473Y-7.0044
X14.2379Y-3.122
X14.2379Y-4.0595
X14.2379Y-4.8095
X14.2379Y-6.3095
X14.2379Y-7.0595
X14.3288Y-2.9159
X14.3295Y-4.6016
X14.3331Y-3.85
X14.3678Y-3.0276
X14.3678Y-3.9651
X14.3678Y-4.7151
X14.3678Y-6.1101
X14.3678Y-6.2151
X14.3678Y-6.9651
X14.3679Y-6.8598
X14.8973Y-3.0669
X14.8973Y-4.0044
X14.8973Y-4.7544
X14.8973Y-7.0044
X14.9879Y-3.122
X14.9879Y-4.0595
X14.9879Y-4.8095
X14.9879Y-7.0595
X15.0779Y-2.9152
X15.078Y-3.8543
X15.0831Y-4.6054
X15.1178Y-3.0276
X15.1178Y-3.9651
X15.1178Y-4.7151
X15.1178Y-6.9651
X15.1178Y-6.8528
T2
X2.9449Y-4.8563
X4.4567Y-4.6093
X4.5288Y-5.0965
X6.1496Y-4.3878
X8.7156Y-4.9193
X11.0974Y-4.8071
X11.21Y-5.42
X12.7323Y-3.8789
X12.7579Y-3.2295
X12.7799Y-3.4599
X12.78Y-3.5
X12.78Y-3.4205
X12.7894Y-5.7435
X12.8189Y-3.5423
X12.874Y-3.5807
X12.8996Y-3.7126
X12.9362Y-3.4886
X12.9843Y-3.0157
X13.0827Y-3.0197
X13.1508Y-2.9543
X13.1783Y-3.1398
X13.5518Y-3.2402
X14.3051Y-5.4634
X14.3921Y-5.7866
X14.5413Y-5.5969
X14.6894Y-5.7047
X14.8272Y-5.4587
X14.8547Y-5.7913
T4
X12.2808Y-3.4899
X12.3515Y-3.4192
X12.3515Y-3.5606
X12.4222Y-3.4899
X12.4222Y-3.6313
X12.4929Y-3.5606
X14.251Y-5.3701
X14.351Y-5.3701
X14.5352Y-5.3638
X14.6352Y-5.3638
T3
G00X12.8491Y-2.6574
M15
G01X12.8491Y-2.681
M16
G05
G00X12.8491Y-2.8121
M15
G01X12.8491Y-2.8554
M16
G05
G00X13.1892Y-2.6574
M15
G01X13.1892Y-2.681
M16
G05
G00X13.1892Y-2.8121
M15
G01X13.1892Y-2.8554
M16
G05
T0
M30
