%TF.GenerationSoftware,KiCad,Pcbnew,8.0.6*%
%TF.CreationDate,2024-11-23T19:51:20+07:00*%
%TF.ProjectId,Zellia80,5a656c6c-6961-4383-902e-6b696361645f,rev?*%
%TF.SameCoordinates,Original*%
%TF.FileFunction,Other,Comment*%
%FSLAX46Y46*%
G04 Gerber Fmt 4.6, Leading zero omitted, Abs format (unit mm)*
G04 Created by KiCad (PCBNEW 8.0.6) date 2024-11-23 19:51:20*
%MOMM*%
%LPD*%
G01*
G04 APERTURE LIST*
%ADD10C,0.150000*%
G04 APERTURE END LIST*
D10*
%TO.C,H16*%
X294056250Y-134547499D02*
G75*
G02*
X289056250Y-134547499I-2500000J0D01*
G01*
X289056250Y-134547499D02*
G75*
G02*
X294056250Y-134547499I2500000J0D01*
G01*
%TO.C,H13*%
X339299622Y-74110009D02*
G75*
G02*
X334299622Y-74110009I-2500000J0D01*
G01*
X334299622Y-74110009D02*
G75*
G02*
X339299622Y-74110009I2500000J0D01*
G01*
%TO.C,H14*%
X35690247Y-163122509D02*
G75*
G02*
X30690247Y-163122509I-2500000J0D01*
G01*
X30690247Y-163122509D02*
G75*
G02*
X35690247Y-163122509I2500000J0D01*
G01*
%TO.C,H11*%
X213093750Y-96447499D02*
G75*
G02*
X208093750Y-96447499I-2500000J0D01*
G01*
X208093750Y-96447499D02*
G75*
G02*
X213093750Y-96447499I2500000J0D01*
G01*
%TO.C,H5*%
X193824744Y-74110009D02*
G75*
G02*
X188824744Y-74110009I-2500000J0D01*
G01*
X188824744Y-74110009D02*
G75*
G02*
X193824744Y-74110009I2500000J0D01*
G01*
%TO.C,H4*%
X14974622Y-114497509D02*
G75*
G02*
X9974622Y-114497509I-2500000J0D01*
G01*
X9974622Y-114497509D02*
G75*
G02*
X14974622Y-114497509I2500000J0D01*
G01*
%TO.C,H10*%
X303581250Y-96447499D02*
G75*
G02*
X298581250Y-96447499I-2500000J0D01*
G01*
X298581250Y-96447499D02*
G75*
G02*
X303581250Y-96447499I2500000J0D01*
G01*
%TO.C,H1*%
X113211744Y-74110009D02*
G75*
G02*
X108211744Y-74110009I-2500000J0D01*
G01*
X108211744Y-74110009D02*
G75*
G02*
X113211744Y-74110009I2500000J0D01*
G01*
%TO.C,H18*%
X217856250Y-134547499D02*
G75*
G02*
X212856250Y-134547499I-2500000J0D01*
G01*
X212856250Y-134547499D02*
G75*
G02*
X217856250Y-134547499I2500000J0D01*
G01*
%TO.C,H12*%
X32211744Y-74110009D02*
G75*
G02*
X27211744Y-74110009I-2500000J0D01*
G01*
X27211744Y-74110009D02*
G75*
G02*
X32211744Y-74110009I2500000J0D01*
G01*
%TO.C,H17*%
X98793750Y-96447499D02*
G75*
G02*
X93793750Y-96447499I-2500000J0D01*
G01*
X93793750Y-96447499D02*
G75*
G02*
X98793750Y-96447499I2500000J0D01*
G01*
%TO.C,H2*%
X280824744Y-74110009D02*
G75*
G02*
X275824744Y-74110009I-2500000J0D01*
G01*
X275824744Y-74110009D02*
G75*
G02*
X280824744Y-74110009I2500000J0D01*
G01*
%TO.C,H3*%
X103556250Y-134547499D02*
G75*
G02*
X98556250Y-134547499I-2500000J0D01*
G01*
X98556250Y-134547499D02*
G75*
G02*
X103556250Y-134547499I2500000J0D01*
G01*
%TO.C,H15*%
X271433997Y-163122509D02*
G75*
G02*
X266433997Y-163122509I-2500000J0D01*
G01*
X266433997Y-163122509D02*
G75*
G02*
X271433997Y-163122509I2500000J0D01*
G01*
%TO.C,H8*%
X344824744Y-147122519D02*
G75*
G02*
X339824744Y-147122519I-2500000J0D01*
G01*
X339824744Y-147122519D02*
G75*
G02*
X344824744Y-147122519I2500000J0D01*
G01*
%TO.C,H7*%
X164062500Y-166122499D02*
G75*
G02*
X159062500Y-166122499I-2500000J0D01*
G01*
X159062500Y-166122499D02*
G75*
G02*
X164062500Y-166122499I2500000J0D01*
G01*
%TO.C,U25*%
X60829000Y-144326499D02*
X60321000Y-143818499D01*
X60829000Y-143818499D02*
X60321000Y-144326499D01*
%TO.C,U23*%
X65591500Y-106226499D02*
X65083500Y-105718499D01*
X65591500Y-105718499D02*
X65083500Y-106226499D01*
%TO.C,U96*%
X346579000Y-163376499D02*
X346071000Y-162868499D01*
X346579000Y-162868499D02*
X346071000Y-163376499D01*
%TO.C,U26*%
X141791500Y-63363999D02*
X141283500Y-62855999D01*
X141791500Y-62855999D02*
X141283500Y-63363999D01*
%TO.C,U27*%
X160841500Y-63363999D02*
X160333500Y-62855999D01*
X160841500Y-62855999D02*
X160333500Y-63363999D01*
%TO.C,U30*%
X89404000Y-125276499D02*
X88896000Y-124768499D01*
X89404000Y-124768499D02*
X88896000Y-125276499D01*
%TO.C,U38*%
X203704000Y-63363999D02*
X203196000Y-62855999D01*
X203704000Y-62855999D02*
X203196000Y-63363999D01*
%TO.C,U66*%
X203704000Y-125276499D02*
X203196000Y-124768499D01*
X203704000Y-124768499D02*
X203196000Y-125276499D01*
%TO.C,U13*%
X79879000Y-63363999D02*
X79371000Y-62855999D01*
X79879000Y-62855999D02*
X79371000Y-63363999D01*
%TO.C,U20*%
X122741500Y-63363999D02*
X122233500Y-62855999D01*
X122741500Y-62855999D02*
X122233500Y-63363999D01*
%TO.C,U72*%
X222754000Y-125276499D02*
X222246000Y-124768499D01*
X222754000Y-124768499D02*
X222246000Y-125276499D01*
%TO.C,U79*%
X232279000Y-144326499D02*
X231771000Y-143818499D01*
X232279000Y-143818499D02*
X231771000Y-144326499D01*
%TO.C,U44*%
X241804000Y-63363999D02*
X241296000Y-62855999D01*
X241804000Y-62855999D02*
X241296000Y-63363999D01*
%TO.C,U32*%
X179891500Y-63363999D02*
X179383500Y-62855999D01*
X179891500Y-62855999D02*
X179383500Y-63363999D01*
%TO.C,U9*%
X60829000Y-63363999D02*
X60321000Y-62855999D01*
X60829000Y-62855999D02*
X60321000Y-63363999D01*
%TO.C,U94*%
X308479000Y-163376499D02*
X307971000Y-162868499D01*
X308479000Y-162868499D02*
X307971000Y-163376499D01*
%TO.C,U55*%
X156079000Y-144326499D02*
X155571000Y-143818499D01*
X156079000Y-143818499D02*
X155571000Y-144326499D01*
%TO.C,U82*%
X246566500Y-87176499D02*
X246058500Y-86668499D01*
X246566500Y-86668499D02*
X246058500Y-87176499D01*
%TO.C,U77*%
X237041500Y-106226499D02*
X236533500Y-105718499D01*
X237041500Y-105718499D02*
X236533500Y-106226499D01*
%TO.C,U58*%
X170366500Y-87176499D02*
X169858500Y-86668499D01*
X170366500Y-86668499D02*
X169858500Y-87176499D01*
%TO.C,U31*%
X79879000Y-144326499D02*
X79371000Y-143818499D01*
X79879000Y-143818499D02*
X79371000Y-144326499D01*
%TO.C,U89*%
X279396000Y-106226499D02*
X279904000Y-105718499D01*
X279396000Y-105718499D02*
X279904000Y-106226499D01*
%TO.C,U92*%
X256091500Y-163376499D02*
X255583500Y-162868499D01*
X256091500Y-162868499D02*
X255583500Y-163376499D01*
%TO.C,U37*%
X98929000Y-144326499D02*
X98421000Y-143818499D01*
X98929000Y-143818499D02*
X98421000Y-144326499D01*
%TO.C,U18*%
X51304000Y-125276499D02*
X50796000Y-124768499D01*
X51304000Y-124768499D02*
X50796000Y-125276499D01*
%TO.C,U65*%
X198941500Y-106226499D02*
X198433500Y-105718499D01*
X198941500Y-105718499D02*
X198433500Y-106226499D01*
%TO.C,U10*%
X17966500Y-87176499D02*
X17458500Y-86668499D01*
X17966500Y-86668499D02*
X17458500Y-87176499D01*
%TO.C,U97*%
X327529000Y-144326499D02*
X327021000Y-143818499D01*
X327529000Y-143818499D02*
X327021000Y-144326499D01*
%TO.C,U87*%
X346579000Y-87176499D02*
X346071000Y-86668499D01*
X346579000Y-86668499D02*
X346071000Y-87176499D01*
%TO.C,U12*%
X24602250Y-125276499D02*
X25110250Y-124768499D01*
X24602250Y-124768499D02*
X25110250Y-125276499D01*
%TO.C,U86*%
X327529000Y-87176499D02*
X327021000Y-86668499D01*
X327529000Y-86668499D02*
X327021000Y-87176499D01*
%TO.C,U57*%
X267489750Y-144326499D02*
X267997750Y-143818499D01*
X267489750Y-143818499D02*
X267997750Y-144326499D01*
%TO.C,U83*%
X256091500Y-106226499D02*
X255583500Y-105718499D01*
X256091500Y-105718499D02*
X255583500Y-106226499D01*
%TO.C,U33*%
X29364750Y-144326499D02*
X29872750Y-143818499D01*
X29364750Y-143818499D02*
X29872750Y-144326499D01*
%TO.C,U93*%
X327529000Y-63363999D02*
X327021000Y-62855999D01*
X327529000Y-62855999D02*
X327021000Y-63363999D01*
%TO.C,U17*%
X46541500Y-106226499D02*
X46033500Y-105718499D01*
X46541500Y-105718499D02*
X46033500Y-106226499D01*
%TO.C,U88*%
X308479000Y-106226499D02*
X307971000Y-105718499D01*
X308479000Y-105718499D02*
X307971000Y-106226499D01*
%TO.C,U3*%
X274633500Y-87176499D02*
X275141500Y-86668499D01*
X274633500Y-86668499D02*
X275141500Y-87176499D01*
%TO.C,U34*%
X94166500Y-87176499D02*
X93658500Y-86668499D01*
X94166500Y-86668499D02*
X93658500Y-87176499D01*
%TO.C,U35*%
X103691500Y-106226499D02*
X103183500Y-105718499D01*
X103691500Y-105718499D02*
X103183500Y-106226499D01*
%TO.C,U6*%
X69846000Y-163376499D02*
X70354000Y-162868499D01*
X69846000Y-162868499D02*
X70354000Y-163376499D01*
%TO.C,U36*%
X108454000Y-125276499D02*
X107946000Y-124768499D01*
X108454000Y-124768499D02*
X107946000Y-125276499D01*
%TO.C,U70*%
X208466500Y-87176499D02*
X207958500Y-86668499D01*
X208466500Y-86668499D02*
X207958500Y-87176499D01*
%TO.C,U8*%
X231771000Y-163376499D02*
X232279000Y-162868499D01*
X231771000Y-162868499D02*
X232279000Y-163376499D01*
%TO.C,U50*%
X284666500Y-63363999D02*
X284158500Y-62855999D01*
X284666500Y-62855999D02*
X284158500Y-63363999D01*
%TO.C,U43*%
X117979000Y-144326499D02*
X117471000Y-143818499D01*
X117979000Y-143818499D02*
X117471000Y-144326499D01*
%TO.C,U52*%
X151316500Y-87176499D02*
X150808500Y-86668499D01*
X151316500Y-86668499D02*
X150808500Y-87176499D01*
%TO.C,U22*%
X56066500Y-87176499D02*
X55558500Y-86668499D01*
X56066500Y-86668499D02*
X55558500Y-87176499D01*
%TO.C,U5*%
X46541500Y-163376499D02*
X46033500Y-162868499D01*
X46541500Y-162868499D02*
X46033500Y-163376499D01*
%TO.C,U67*%
X194179000Y-144326499D02*
X193671000Y-143818499D01*
X194179000Y-143818499D02*
X193671000Y-144326499D01*
%TO.C,U54*%
X165604000Y-125276499D02*
X165096000Y-124768499D01*
X165604000Y-124768499D02*
X165096000Y-125276499D01*
%TO.C,U53*%
X160841500Y-106226499D02*
X160333500Y-105718499D01*
X160841500Y-105718499D02*
X160333500Y-106226499D01*
%TO.C,U29*%
X84641500Y-106226499D02*
X84133500Y-105718499D01*
X84641500Y-105718499D02*
X84133500Y-106226499D01*
%TO.C,U91*%
X346579000Y-106226499D02*
X346071000Y-105718499D01*
X346579000Y-105718499D02*
X346071000Y-106226499D01*
%TO.C,U40*%
X113216500Y-87176499D02*
X112708500Y-86668499D01*
X113216500Y-86668499D02*
X112708500Y-87176499D01*
%TO.C,U90*%
X327529000Y-106226499D02*
X327021000Y-105718499D01*
X327529000Y-105718499D02*
X327021000Y-106226499D01*
%TO.C,U75*%
X308479000Y-63363999D02*
X307971000Y-62855999D01*
X308479000Y-62855999D02*
X307971000Y-63363999D01*
%TO.C,U45*%
X260854000Y-63363999D02*
X260346000Y-62855999D01*
X260854000Y-62855999D02*
X260346000Y-63363999D01*
%TO.C,U47*%
X141791500Y-106226499D02*
X141283500Y-105718499D01*
X141791500Y-105718499D02*
X141283500Y-106226499D01*
%TO.C,U95*%
X327529000Y-163376499D02*
X327021000Y-162868499D01*
X327529000Y-162868499D02*
X327021000Y-163376499D01*
%TO.C,U71*%
X217991500Y-106226499D02*
X217483500Y-105718499D01*
X217991500Y-105718499D02*
X217483500Y-106226499D01*
%TO.C,U14*%
X98929000Y-63363999D02*
X98421000Y-62855999D01*
X98929000Y-62855999D02*
X98421000Y-63363999D01*
%TO.C,U28*%
X75116500Y-87176499D02*
X74608500Y-86668499D01*
X75116500Y-86668499D02*
X74608500Y-87176499D01*
%TO.C,U42*%
X127504000Y-125276499D02*
X126996000Y-124768499D01*
X127504000Y-124768499D02*
X126996000Y-125276499D01*
%TO.C,U4*%
X22221000Y-163376499D02*
X22729000Y-162868499D01*
X22221000Y-162868499D02*
X22729000Y-163376499D01*
%TO.C,U11*%
X22221000Y-106226499D02*
X22729000Y-105718499D01*
X22221000Y-105718499D02*
X22729000Y-106226499D01*
%TO.C,U73*%
X213229000Y-144326499D02*
X212721000Y-143818499D01*
X213229000Y-143818499D02*
X212721000Y-144326499D01*
%TO.C,U84*%
X272760250Y-125276499D02*
X272252250Y-124768499D01*
X272760250Y-124768499D02*
X272252250Y-125276499D01*
%TO.C,U41*%
X122741500Y-106226499D02*
X122233500Y-105718499D01*
X122741500Y-105718499D02*
X122233500Y-106226499D01*
%TO.C,U48*%
X146554000Y-125276499D02*
X146046000Y-124768499D01*
X146554000Y-124768499D02*
X146046000Y-125276499D01*
%TO.C,U39*%
X222754000Y-63363999D02*
X222246000Y-62855999D01*
X222754000Y-62855999D02*
X222246000Y-63363999D01*
%TO.C,U60*%
X184654000Y-125276499D02*
X184146000Y-124768499D01*
X184654000Y-124768499D02*
X184146000Y-125276499D01*
%TO.C,U64*%
X189416500Y-87176499D02*
X188908500Y-86668499D01*
X189416500Y-86668499D02*
X188908500Y-87176499D01*
%TO.C,U7*%
X150808500Y-163376499D02*
X151316500Y-162868499D01*
X150808500Y-162868499D02*
X151316500Y-163376499D01*
%TO.C,U59*%
X179891500Y-106226499D02*
X179383500Y-105718499D01*
X179891500Y-105718499D02*
X179383500Y-106226499D01*
%TO.C,U78*%
X241804000Y-125276499D02*
X241296000Y-124768499D01*
X241804000Y-124768499D02*
X241296000Y-125276499D01*
%TO.C,U99*%
X346579000Y-63363999D02*
X346071000Y-62855999D01*
X346579000Y-62855999D02*
X346071000Y-63363999D01*
%TO.C,U16*%
X37016500Y-87176499D02*
X36508500Y-86668499D01*
X37016500Y-86668499D02*
X36508500Y-87176499D01*
%TO.C,U49*%
X137029000Y-144326499D02*
X136521000Y-143818499D01*
X137029000Y-143818499D02*
X136521000Y-144326499D01*
%TO.C,U61*%
X175129000Y-144326499D02*
X174621000Y-143818499D01*
X175129000Y-143818499D02*
X174621000Y-144326499D01*
%TO.C,U46*%
X132266500Y-87176499D02*
X131758500Y-86668499D01*
X132266500Y-86668499D02*
X131758500Y-87176499D01*
%TO.C,U76*%
X227516500Y-87176499D02*
X227008500Y-86668499D01*
X227516500Y-86668499D02*
X227008500Y-87176499D01*
%TO.C,U98*%
X279396000Y-163376499D02*
X279904000Y-162868499D01*
X279396000Y-162868499D02*
X279904000Y-163376499D01*
%TO.C,U2*%
X41779000Y-63363999D02*
X41271000Y-62855999D01*
X41779000Y-62855999D02*
X41271000Y-63363999D01*
%TO.C,U1*%
X17966500Y-63363999D02*
X17458500Y-62855999D01*
X17966500Y-62855999D02*
X17458500Y-63363999D01*
%TO.C,U80*%
X308479000Y-87176499D02*
X307971000Y-86668499D01*
X308479000Y-86668499D02*
X307971000Y-87176499D01*
%TO.C,U24*%
X70354000Y-125276499D02*
X69846000Y-124768499D01*
X70354000Y-124768499D02*
X69846000Y-125276499D01*
%TD*%
M02*
