%TF.GenerationSoftware,KiCad,Pcbnew,8.0.6*%
%TF.CreationDate,2024-11-23T19:51:20+07:00*%
%TF.ProjectId,Zellia80,5a656c6c-6961-4383-902e-6b696361645f,rev?*%
%TF.SameCoordinates,Original*%
%TF.FileFunction,Legend,Bot*%
%TF.FilePolarity,Positive*%
%FSLAX46Y46*%
G04 Gerber Fmt 4.6, Leading zero omitted, Abs format (unit mm)*
G04 Created by KiCad (PCBNEW 8.0.6) date 2024-11-23 19:51:20*
%MOMM*%
%LPD*%
G01*
G04 APERTURE LIST*
G04 Aperture macros list*
%AMRoundRect*
0 Rectangle with rounded corners*
0 $1 Rounding radius*
0 $2 $3 $4 $5 $6 $7 $8 $9 X,Y pos of 4 corners*
0 Add a 4 corners polygon primitive as box body*
4,1,4,$2,$3,$4,$5,$6,$7,$8,$9,$2,$3,0*
0 Add four circle primitives for the rounded corners*
1,1,$1+$1,$2,$3*
1,1,$1+$1,$4,$5*
1,1,$1+$1,$6,$7*
1,1,$1+$1,$8,$9*
0 Add four rect primitives between the rounded corners*
20,1,$1+$1,$2,$3,$4,$5,0*
20,1,$1+$1,$4,$5,$6,$7,0*
20,1,$1+$1,$6,$7,$8,$9,0*
20,1,$1+$1,$8,$9,$2,$3,0*%
%AMRotRect*
0 Rectangle, with rotation*
0 The origin of the aperture is its center*
0 $1 length*
0 $2 width*
0 $3 Rotation angle, in degrees counterclockwise*
0 Add horizontal line*
21,1,$1,$2,0,0,$3*%
G04 Aperture macros list end*
%ADD10C,0.375000*%
%ADD11C,0.300000*%
%ADD12C,0.150000*%
%ADD13C,0.120000*%
%ADD14C,0.153000*%
%ADD15C,0.500000*%
%ADD16R,1.190000X3.000000*%
%ADD17C,0.800000*%
%ADD18C,5.000000*%
%ADD19R,1.700000X1.700000*%
%ADD20O,1.700000X1.700000*%
%ADD21R,0.620000X0.560000*%
%ADD22R,0.560000X0.620000*%
%ADD23RoundRect,0.150000X-0.150000X0.350000X-0.150000X-0.350000X0.150000X-0.350000X0.150000X0.350000X0*%
%ADD24C,1.750000*%
%ADD25RotRect,0.560000X0.620000X225.000000*%
%ADD26R,0.600000X1.550000*%
%ADD27R,1.200000X1.800000*%
%ADD28RoundRect,0.135000X-0.185000X0.135000X-0.185000X-0.135000X0.185000X-0.135000X0.185000X0.135000X0*%
%ADD29RoundRect,0.375000X0.375000X-0.625000X0.375000X0.625000X-0.375000X0.625000X-0.375000X-0.625000X0*%
%ADD30RoundRect,0.500000X1.400000X-0.500000X1.400000X0.500000X-1.400000X0.500000X-1.400000X-0.500000X0*%
%ADD31RotRect,0.560000X0.620000X315.000000*%
%ADD32RoundRect,0.100000X-0.637500X-0.100000X0.637500X-0.100000X0.637500X0.100000X-0.637500X0.100000X0*%
%ADD33C,3.048000*%
%ADD34C,3.987800*%
%ADD35RotRect,0.560000X0.620000X45.000000*%
%ADD36RoundRect,0.200000X0.200000X0.800000X-0.200000X0.800000X-0.200000X-0.800000X0.200000X-0.800000X0*%
%ADD37R,1.900000X0.400000*%
%ADD38RoundRect,0.075000X0.662500X0.075000X-0.662500X0.075000X-0.662500X-0.075000X0.662500X-0.075000X0*%
%ADD39RoundRect,0.075000X0.075000X0.662500X-0.075000X0.662500X-0.075000X-0.662500X0.075000X-0.662500X0*%
%ADD40RoundRect,0.200000X-0.200000X-0.800000X0.200000X-0.800000X0.200000X0.800000X-0.200000X0.800000X0*%
G04 APERTURE END LIST*
D10*
X28896428Y-133069250D02*
X27753571Y-133069250D01*
X28324999Y-133640678D02*
X28324999Y-132497821D01*
D11*
X320627142Y-127698327D02*
X321127142Y-126984041D01*
X321484285Y-127698327D02*
X321484285Y-126198327D01*
X321484285Y-126198327D02*
X320912856Y-126198327D01*
X320912856Y-126198327D02*
X320769999Y-126269756D01*
X320769999Y-126269756D02*
X320698570Y-126341184D01*
X320698570Y-126341184D02*
X320627142Y-126484041D01*
X320627142Y-126484041D02*
X320627142Y-126698327D01*
X320627142Y-126698327D02*
X320698570Y-126841184D01*
X320698570Y-126841184D02*
X320769999Y-126912613D01*
X320769999Y-126912613D02*
X320912856Y-126984041D01*
X320912856Y-126984041D02*
X321484285Y-126984041D01*
X319412856Y-127626899D02*
X319555713Y-127698327D01*
X319555713Y-127698327D02*
X319841428Y-127698327D01*
X319841428Y-127698327D02*
X319984285Y-127626899D01*
X319984285Y-127626899D02*
X320055713Y-127484041D01*
X320055713Y-127484041D02*
X320055713Y-126912613D01*
X320055713Y-126912613D02*
X319984285Y-126769756D01*
X319984285Y-126769756D02*
X319841428Y-126698327D01*
X319841428Y-126698327D02*
X319555713Y-126698327D01*
X319555713Y-126698327D02*
X319412856Y-126769756D01*
X319412856Y-126769756D02*
X319341428Y-126912613D01*
X319341428Y-126912613D02*
X319341428Y-127055470D01*
X319341428Y-127055470D02*
X320055713Y-127198327D01*
X318769999Y-127626899D02*
X318627142Y-127698327D01*
X318627142Y-127698327D02*
X318341428Y-127698327D01*
X318341428Y-127698327D02*
X318198571Y-127626899D01*
X318198571Y-127626899D02*
X318127142Y-127484041D01*
X318127142Y-127484041D02*
X318127142Y-127412613D01*
X318127142Y-127412613D02*
X318198571Y-127269756D01*
X318198571Y-127269756D02*
X318341428Y-127198327D01*
X318341428Y-127198327D02*
X318555714Y-127198327D01*
X318555714Y-127198327D02*
X318698571Y-127126899D01*
X318698571Y-127126899D02*
X318769999Y-126984041D01*
X318769999Y-126984041D02*
X318769999Y-126912613D01*
X318769999Y-126912613D02*
X318698571Y-126769756D01*
X318698571Y-126769756D02*
X318555714Y-126698327D01*
X318555714Y-126698327D02*
X318341428Y-126698327D01*
X318341428Y-126698327D02*
X318198571Y-126769756D01*
X316912856Y-127626899D02*
X317055713Y-127698327D01*
X317055713Y-127698327D02*
X317341428Y-127698327D01*
X317341428Y-127698327D02*
X317484285Y-127626899D01*
X317484285Y-127626899D02*
X317555713Y-127484041D01*
X317555713Y-127484041D02*
X317555713Y-126912613D01*
X317555713Y-126912613D02*
X317484285Y-126769756D01*
X317484285Y-126769756D02*
X317341428Y-126698327D01*
X317341428Y-126698327D02*
X317055713Y-126698327D01*
X317055713Y-126698327D02*
X316912856Y-126769756D01*
X316912856Y-126769756D02*
X316841428Y-126912613D01*
X316841428Y-126912613D02*
X316841428Y-127055470D01*
X316841428Y-127055470D02*
X317555713Y-127198327D01*
X316412856Y-126698327D02*
X315841428Y-126698327D01*
X316198571Y-126198327D02*
X316198571Y-127484041D01*
X316198571Y-127484041D02*
X316127142Y-127626899D01*
X316127142Y-127626899D02*
X315984285Y-127698327D01*
X315984285Y-127698327D02*
X315841428Y-127698327D01*
X352435667Y-154511983D02*
X352221382Y-154583411D01*
X352221382Y-154583411D02*
X351864239Y-154583411D01*
X351864239Y-154583411D02*
X351721382Y-154511983D01*
X351721382Y-154511983D02*
X351649953Y-154440554D01*
X351649953Y-154440554D02*
X351578524Y-154297697D01*
X351578524Y-154297697D02*
X351578524Y-154154840D01*
X351578524Y-154154840D02*
X351649953Y-154011983D01*
X351649953Y-154011983D02*
X351721382Y-153940554D01*
X351721382Y-153940554D02*
X351864239Y-153869125D01*
X351864239Y-153869125D02*
X352149953Y-153797697D01*
X352149953Y-153797697D02*
X352292810Y-153726268D01*
X352292810Y-153726268D02*
X352364239Y-153654840D01*
X352364239Y-153654840D02*
X352435667Y-153511983D01*
X352435667Y-153511983D02*
X352435667Y-153369125D01*
X352435667Y-153369125D02*
X352364239Y-153226268D01*
X352364239Y-153226268D02*
X352292810Y-153154840D01*
X352292810Y-153154840D02*
X352149953Y-153083411D01*
X352149953Y-153083411D02*
X351792810Y-153083411D01*
X351792810Y-153083411D02*
X351578524Y-153154840D01*
X350292811Y-154583411D02*
X350292811Y-153797697D01*
X350292811Y-153797697D02*
X350364239Y-153654840D01*
X350364239Y-153654840D02*
X350507096Y-153583411D01*
X350507096Y-153583411D02*
X350792811Y-153583411D01*
X350792811Y-153583411D02*
X350935668Y-153654840D01*
X350292811Y-154511983D02*
X350435668Y-154583411D01*
X350435668Y-154583411D02*
X350792811Y-154583411D01*
X350792811Y-154583411D02*
X350935668Y-154511983D01*
X350935668Y-154511983D02*
X351007096Y-154369125D01*
X351007096Y-154369125D02*
X351007096Y-154226268D01*
X351007096Y-154226268D02*
X350935668Y-154083411D01*
X350935668Y-154083411D02*
X350792811Y-154011983D01*
X350792811Y-154011983D02*
X350435668Y-154011983D01*
X350435668Y-154011983D02*
X350292811Y-153940554D01*
X349364239Y-154583411D02*
X349507096Y-154511983D01*
X349507096Y-154511983D02*
X349578525Y-154369125D01*
X349578525Y-154369125D02*
X349578525Y-153083411D01*
X348149954Y-154583411D02*
X348149954Y-153797697D01*
X348149954Y-153797697D02*
X348221382Y-153654840D01*
X348221382Y-153654840D02*
X348364239Y-153583411D01*
X348364239Y-153583411D02*
X348649954Y-153583411D01*
X348649954Y-153583411D02*
X348792811Y-153654840D01*
X348149954Y-154511983D02*
X348292811Y-154583411D01*
X348292811Y-154583411D02*
X348649954Y-154583411D01*
X348649954Y-154583411D02*
X348792811Y-154511983D01*
X348792811Y-154511983D02*
X348864239Y-154369125D01*
X348864239Y-154369125D02*
X348864239Y-154226268D01*
X348864239Y-154226268D02*
X348792811Y-154083411D01*
X348792811Y-154083411D02*
X348649954Y-154011983D01*
X348649954Y-154011983D02*
X348292811Y-154011983D01*
X348292811Y-154011983D02*
X348149954Y-153940554D01*
X347435668Y-153583411D02*
X347435668Y-154583411D01*
X347435668Y-153726268D02*
X347364239Y-153654840D01*
X347364239Y-153654840D02*
X347221382Y-153583411D01*
X347221382Y-153583411D02*
X347007096Y-153583411D01*
X347007096Y-153583411D02*
X346864239Y-153654840D01*
X346864239Y-153654840D02*
X346792811Y-153797697D01*
X346792811Y-153797697D02*
X346792811Y-154583411D01*
X345507096Y-154511983D02*
X345649953Y-154583411D01*
X345649953Y-154583411D02*
X345935668Y-154583411D01*
X345935668Y-154583411D02*
X346078525Y-154511983D01*
X346078525Y-154511983D02*
X346149953Y-154369125D01*
X346149953Y-154369125D02*
X346149953Y-153797697D01*
X346149953Y-153797697D02*
X346078525Y-153654840D01*
X346078525Y-153654840D02*
X345935668Y-153583411D01*
X345935668Y-153583411D02*
X345649953Y-153583411D01*
X345649953Y-153583411D02*
X345507096Y-153654840D01*
X345507096Y-153654840D02*
X345435668Y-153797697D01*
X345435668Y-153797697D02*
X345435668Y-153940554D01*
X345435668Y-153940554D02*
X346149953Y-154083411D01*
X342792811Y-154440554D02*
X342864239Y-154511983D01*
X342864239Y-154511983D02*
X343078525Y-154583411D01*
X343078525Y-154583411D02*
X343221382Y-154583411D01*
X343221382Y-154583411D02*
X343435668Y-154511983D01*
X343435668Y-154511983D02*
X343578525Y-154369125D01*
X343578525Y-154369125D02*
X343649954Y-154226268D01*
X343649954Y-154226268D02*
X343721382Y-153940554D01*
X343721382Y-153940554D02*
X343721382Y-153726268D01*
X343721382Y-153726268D02*
X343649954Y-153440554D01*
X343649954Y-153440554D02*
X343578525Y-153297697D01*
X343578525Y-153297697D02*
X343435668Y-153154840D01*
X343435668Y-153154840D02*
X343221382Y-153083411D01*
X343221382Y-153083411D02*
X343078525Y-153083411D01*
X343078525Y-153083411D02*
X342864239Y-153154840D01*
X342864239Y-153154840D02*
X342792811Y-153226268D01*
X341864239Y-153083411D02*
X341578525Y-153083411D01*
X341578525Y-153083411D02*
X341435668Y-153154840D01*
X341435668Y-153154840D02*
X341292811Y-153297697D01*
X341292811Y-153297697D02*
X341221382Y-153583411D01*
X341221382Y-153583411D02*
X341221382Y-154083411D01*
X341221382Y-154083411D02*
X341292811Y-154369125D01*
X341292811Y-154369125D02*
X341435668Y-154511983D01*
X341435668Y-154511983D02*
X341578525Y-154583411D01*
X341578525Y-154583411D02*
X341864239Y-154583411D01*
X341864239Y-154583411D02*
X342007097Y-154511983D01*
X342007097Y-154511983D02*
X342149954Y-154369125D01*
X342149954Y-154369125D02*
X342221382Y-154083411D01*
X342221382Y-154083411D02*
X342221382Y-153583411D01*
X342221382Y-153583411D02*
X342149954Y-153297697D01*
X342149954Y-153297697D02*
X342007097Y-153154840D01*
X342007097Y-153154840D02*
X341864239Y-153083411D01*
X340578525Y-154440554D02*
X340507096Y-154511983D01*
X340507096Y-154511983D02*
X340578525Y-154583411D01*
X340578525Y-154583411D02*
X340649953Y-154511983D01*
X340649953Y-154511983D02*
X340578525Y-154440554D01*
X340578525Y-154440554D02*
X340578525Y-154583411D01*
X338007096Y-154583411D02*
X338721382Y-154583411D01*
X338721382Y-154583411D02*
X338721382Y-153083411D01*
X336792810Y-154583411D02*
X337507096Y-154583411D01*
X337507096Y-154583411D02*
X337507096Y-153083411D01*
X335435667Y-154440554D02*
X335507095Y-154511983D01*
X335507095Y-154511983D02*
X335721381Y-154583411D01*
X335721381Y-154583411D02*
X335864238Y-154583411D01*
X335864238Y-154583411D02*
X336078524Y-154511983D01*
X336078524Y-154511983D02*
X336221381Y-154369125D01*
X336221381Y-154369125D02*
X336292810Y-154226268D01*
X336292810Y-154226268D02*
X336364238Y-153940554D01*
X336364238Y-153940554D02*
X336364238Y-153726268D01*
X336364238Y-153726268D02*
X336292810Y-153440554D01*
X336292810Y-153440554D02*
X336221381Y-153297697D01*
X336221381Y-153297697D02*
X336078524Y-153154840D01*
X336078524Y-153154840D02*
X335864238Y-153083411D01*
X335864238Y-153083411D02*
X335721381Y-153083411D01*
X335721381Y-153083411D02*
X335507095Y-153154840D01*
X335507095Y-153154840D02*
X335435667Y-153226268D01*
X352507096Y-155498327D02*
X351507096Y-155498327D01*
X351507096Y-155498327D02*
X352507096Y-156998327D01*
X352507096Y-156998327D02*
X351507096Y-156998327D01*
X350364239Y-156926899D02*
X350507096Y-156998327D01*
X350507096Y-156998327D02*
X350792811Y-156998327D01*
X350792811Y-156998327D02*
X350935668Y-156926899D01*
X350935668Y-156926899D02*
X351007096Y-156784041D01*
X351007096Y-156784041D02*
X351007096Y-156212613D01*
X351007096Y-156212613D02*
X350935668Y-156069756D01*
X350935668Y-156069756D02*
X350792811Y-155998327D01*
X350792811Y-155998327D02*
X350507096Y-155998327D01*
X350507096Y-155998327D02*
X350364239Y-156069756D01*
X350364239Y-156069756D02*
X350292811Y-156212613D01*
X350292811Y-156212613D02*
X350292811Y-156355470D01*
X350292811Y-156355470D02*
X351007096Y-156498327D01*
X349435668Y-156998327D02*
X349578525Y-156926899D01*
X349578525Y-156926899D02*
X349649954Y-156784041D01*
X349649954Y-156784041D02*
X349649954Y-155498327D01*
X348649954Y-156998327D02*
X348792811Y-156926899D01*
X348792811Y-156926899D02*
X348864240Y-156784041D01*
X348864240Y-156784041D02*
X348864240Y-155498327D01*
X348078526Y-156998327D02*
X348078526Y-155998327D01*
X348078526Y-155498327D02*
X348149954Y-155569756D01*
X348149954Y-155569756D02*
X348078526Y-155641184D01*
X348078526Y-155641184D02*
X348007097Y-155569756D01*
X348007097Y-155569756D02*
X348078526Y-155498327D01*
X348078526Y-155498327D02*
X348078526Y-155641184D01*
X346721383Y-156998327D02*
X346721383Y-156212613D01*
X346721383Y-156212613D02*
X346792811Y-156069756D01*
X346792811Y-156069756D02*
X346935668Y-155998327D01*
X346935668Y-155998327D02*
X347221383Y-155998327D01*
X347221383Y-155998327D02*
X347364240Y-156069756D01*
X346721383Y-156926899D02*
X346864240Y-156998327D01*
X346864240Y-156998327D02*
X347221383Y-156998327D01*
X347221383Y-156998327D02*
X347364240Y-156926899D01*
X347364240Y-156926899D02*
X347435668Y-156784041D01*
X347435668Y-156784041D02*
X347435668Y-156641184D01*
X347435668Y-156641184D02*
X347364240Y-156498327D01*
X347364240Y-156498327D02*
X347221383Y-156426899D01*
X347221383Y-156426899D02*
X346864240Y-156426899D01*
X346864240Y-156426899D02*
X346721383Y-156355470D01*
X344649954Y-156141184D02*
X344792811Y-156069756D01*
X344792811Y-156069756D02*
X344864240Y-155998327D01*
X344864240Y-155998327D02*
X344935668Y-155855470D01*
X344935668Y-155855470D02*
X344935668Y-155784041D01*
X344935668Y-155784041D02*
X344864240Y-155641184D01*
X344864240Y-155641184D02*
X344792811Y-155569756D01*
X344792811Y-155569756D02*
X344649954Y-155498327D01*
X344649954Y-155498327D02*
X344364240Y-155498327D01*
X344364240Y-155498327D02*
X344221383Y-155569756D01*
X344221383Y-155569756D02*
X344149954Y-155641184D01*
X344149954Y-155641184D02*
X344078525Y-155784041D01*
X344078525Y-155784041D02*
X344078525Y-155855470D01*
X344078525Y-155855470D02*
X344149954Y-155998327D01*
X344149954Y-155998327D02*
X344221383Y-156069756D01*
X344221383Y-156069756D02*
X344364240Y-156141184D01*
X344364240Y-156141184D02*
X344649954Y-156141184D01*
X344649954Y-156141184D02*
X344792811Y-156212613D01*
X344792811Y-156212613D02*
X344864240Y-156284041D01*
X344864240Y-156284041D02*
X344935668Y-156426899D01*
X344935668Y-156426899D02*
X344935668Y-156712613D01*
X344935668Y-156712613D02*
X344864240Y-156855470D01*
X344864240Y-156855470D02*
X344792811Y-156926899D01*
X344792811Y-156926899D02*
X344649954Y-156998327D01*
X344649954Y-156998327D02*
X344364240Y-156998327D01*
X344364240Y-156998327D02*
X344221383Y-156926899D01*
X344221383Y-156926899D02*
X344149954Y-156855470D01*
X344149954Y-156855470D02*
X344078525Y-156712613D01*
X344078525Y-156712613D02*
X344078525Y-156426899D01*
X344078525Y-156426899D02*
X344149954Y-156284041D01*
X344149954Y-156284041D02*
X344221383Y-156212613D01*
X344221383Y-156212613D02*
X344364240Y-156141184D01*
X343149954Y-155498327D02*
X343007097Y-155498327D01*
X343007097Y-155498327D02*
X342864240Y-155569756D01*
X342864240Y-155569756D02*
X342792812Y-155641184D01*
X342792812Y-155641184D02*
X342721383Y-155784041D01*
X342721383Y-155784041D02*
X342649954Y-156069756D01*
X342649954Y-156069756D02*
X342649954Y-156426899D01*
X342649954Y-156426899D02*
X342721383Y-156712613D01*
X342721383Y-156712613D02*
X342792812Y-156855470D01*
X342792812Y-156855470D02*
X342864240Y-156926899D01*
X342864240Y-156926899D02*
X343007097Y-156998327D01*
X343007097Y-156998327D02*
X343149954Y-156998327D01*
X343149954Y-156998327D02*
X343292812Y-156926899D01*
X343292812Y-156926899D02*
X343364240Y-156855470D01*
X343364240Y-156855470D02*
X343435669Y-156712613D01*
X343435669Y-156712613D02*
X343507097Y-156426899D01*
X343507097Y-156426899D02*
X343507097Y-156069756D01*
X343507097Y-156069756D02*
X343435669Y-155784041D01*
X343435669Y-155784041D02*
X343364240Y-155641184D01*
X343364240Y-155641184D02*
X343292812Y-155569756D01*
X343292812Y-155569756D02*
X343149954Y-155498327D01*
X340864241Y-156998327D02*
X340864241Y-155498327D01*
X340864241Y-155498327D02*
X340507098Y-155498327D01*
X340507098Y-155498327D02*
X340292812Y-155569756D01*
X340292812Y-155569756D02*
X340149955Y-155712613D01*
X340149955Y-155712613D02*
X340078526Y-155855470D01*
X340078526Y-155855470D02*
X340007098Y-156141184D01*
X340007098Y-156141184D02*
X340007098Y-156355470D01*
X340007098Y-156355470D02*
X340078526Y-156641184D01*
X340078526Y-156641184D02*
X340149955Y-156784041D01*
X340149955Y-156784041D02*
X340292812Y-156926899D01*
X340292812Y-156926899D02*
X340507098Y-156998327D01*
X340507098Y-156998327D02*
X340864241Y-156998327D01*
X338792812Y-156926899D02*
X338935669Y-156998327D01*
X338935669Y-156998327D02*
X339221384Y-156998327D01*
X339221384Y-156998327D02*
X339364241Y-156926899D01*
X339364241Y-156926899D02*
X339435669Y-156784041D01*
X339435669Y-156784041D02*
X339435669Y-156212613D01*
X339435669Y-156212613D02*
X339364241Y-156069756D01*
X339364241Y-156069756D02*
X339221384Y-155998327D01*
X339221384Y-155998327D02*
X338935669Y-155998327D01*
X338935669Y-155998327D02*
X338792812Y-156069756D01*
X338792812Y-156069756D02*
X338721384Y-156212613D01*
X338721384Y-156212613D02*
X338721384Y-156355470D01*
X338721384Y-156355470D02*
X339435669Y-156498327D01*
X338221384Y-155998327D02*
X337864241Y-156998327D01*
X337864241Y-156998327D02*
X337507098Y-155998327D01*
X335792813Y-156998327D02*
X335792813Y-155498327D01*
X334935670Y-156998327D02*
X335578527Y-156141184D01*
X334935670Y-155498327D02*
X335792813Y-156355470D01*
X334292813Y-156998327D02*
X334292813Y-155998327D01*
X334292813Y-155498327D02*
X334364241Y-155569756D01*
X334364241Y-155569756D02*
X334292813Y-155641184D01*
X334292813Y-155641184D02*
X334221384Y-155569756D01*
X334221384Y-155569756D02*
X334292813Y-155498327D01*
X334292813Y-155498327D02*
X334292813Y-155641184D01*
X333792812Y-155998327D02*
X333221384Y-155998327D01*
X333578527Y-155498327D02*
X333578527Y-156784041D01*
X333578527Y-156784041D02*
X333507098Y-156926899D01*
X333507098Y-156926899D02*
X333364241Y-156998327D01*
X333364241Y-156998327D02*
X333221384Y-156998327D01*
X331578527Y-156998327D02*
X331578527Y-155498327D01*
X331578527Y-155498327D02*
X331007098Y-155498327D01*
X331007098Y-155498327D02*
X330864241Y-155569756D01*
X330864241Y-155569756D02*
X330792812Y-155641184D01*
X330792812Y-155641184D02*
X330721384Y-155784041D01*
X330721384Y-155784041D02*
X330721384Y-155998327D01*
X330721384Y-155998327D02*
X330792812Y-156141184D01*
X330792812Y-156141184D02*
X330864241Y-156212613D01*
X330864241Y-156212613D02*
X331007098Y-156284041D01*
X331007098Y-156284041D02*
X331578527Y-156284041D01*
X329221384Y-156855470D02*
X329292812Y-156926899D01*
X329292812Y-156926899D02*
X329507098Y-156998327D01*
X329507098Y-156998327D02*
X329649955Y-156998327D01*
X329649955Y-156998327D02*
X329864241Y-156926899D01*
X329864241Y-156926899D02*
X330007098Y-156784041D01*
X330007098Y-156784041D02*
X330078527Y-156641184D01*
X330078527Y-156641184D02*
X330149955Y-156355470D01*
X330149955Y-156355470D02*
X330149955Y-156141184D01*
X330149955Y-156141184D02*
X330078527Y-155855470D01*
X330078527Y-155855470D02*
X330007098Y-155712613D01*
X330007098Y-155712613D02*
X329864241Y-155569756D01*
X329864241Y-155569756D02*
X329649955Y-155498327D01*
X329649955Y-155498327D02*
X329507098Y-155498327D01*
X329507098Y-155498327D02*
X329292812Y-155569756D01*
X329292812Y-155569756D02*
X329221384Y-155641184D01*
X328078527Y-156212613D02*
X327864241Y-156284041D01*
X327864241Y-156284041D02*
X327792812Y-156355470D01*
X327792812Y-156355470D02*
X327721384Y-156498327D01*
X327721384Y-156498327D02*
X327721384Y-156712613D01*
X327721384Y-156712613D02*
X327792812Y-156855470D01*
X327792812Y-156855470D02*
X327864241Y-156926899D01*
X327864241Y-156926899D02*
X328007098Y-156998327D01*
X328007098Y-156998327D02*
X328578527Y-156998327D01*
X328578527Y-156998327D02*
X328578527Y-155498327D01*
X328578527Y-155498327D02*
X328078527Y-155498327D01*
X328078527Y-155498327D02*
X327935670Y-155569756D01*
X327935670Y-155569756D02*
X327864241Y-155641184D01*
X327864241Y-155641184D02*
X327792812Y-155784041D01*
X327792812Y-155784041D02*
X327792812Y-155926899D01*
X327792812Y-155926899D02*
X327864241Y-156069756D01*
X327864241Y-156069756D02*
X327935670Y-156141184D01*
X327935670Y-156141184D02*
X328078527Y-156212613D01*
X328078527Y-156212613D02*
X328578527Y-156212613D01*
X325935670Y-156998327D02*
X325935670Y-155998327D01*
X325935670Y-156284041D02*
X325864241Y-156141184D01*
X325864241Y-156141184D02*
X325792813Y-156069756D01*
X325792813Y-156069756D02*
X325649955Y-155998327D01*
X325649955Y-155998327D02*
X325507098Y-155998327D01*
X324435670Y-156926899D02*
X324578527Y-156998327D01*
X324578527Y-156998327D02*
X324864242Y-156998327D01*
X324864242Y-156998327D02*
X325007099Y-156926899D01*
X325007099Y-156926899D02*
X325078527Y-156784041D01*
X325078527Y-156784041D02*
X325078527Y-156212613D01*
X325078527Y-156212613D02*
X325007099Y-156069756D01*
X325007099Y-156069756D02*
X324864242Y-155998327D01*
X324864242Y-155998327D02*
X324578527Y-155998327D01*
X324578527Y-155998327D02*
X324435670Y-156069756D01*
X324435670Y-156069756D02*
X324364242Y-156212613D01*
X324364242Y-156212613D02*
X324364242Y-156355470D01*
X324364242Y-156355470D02*
X325078527Y-156498327D01*
X323864242Y-155998327D02*
X323507099Y-156998327D01*
X323507099Y-156998327D02*
X323149956Y-155998327D01*
X321792813Y-156998327D02*
X322649956Y-156998327D01*
X322221385Y-156998327D02*
X322221385Y-155498327D01*
X322221385Y-155498327D02*
X322364242Y-155712613D01*
X322364242Y-155712613D02*
X322507099Y-155855470D01*
X322507099Y-155855470D02*
X322649956Y-155926899D01*
X320448571Y-130722613D02*
X320234285Y-130794041D01*
X320234285Y-130794041D02*
X320162856Y-130865470D01*
X320162856Y-130865470D02*
X320091428Y-131008327D01*
X320091428Y-131008327D02*
X320091428Y-131222613D01*
X320091428Y-131222613D02*
X320162856Y-131365470D01*
X320162856Y-131365470D02*
X320234285Y-131436899D01*
X320234285Y-131436899D02*
X320377142Y-131508327D01*
X320377142Y-131508327D02*
X320948571Y-131508327D01*
X320948571Y-131508327D02*
X320948571Y-130008327D01*
X320948571Y-130008327D02*
X320448571Y-130008327D01*
X320448571Y-130008327D02*
X320305714Y-130079756D01*
X320305714Y-130079756D02*
X320234285Y-130151184D01*
X320234285Y-130151184D02*
X320162856Y-130294041D01*
X320162856Y-130294041D02*
X320162856Y-130436899D01*
X320162856Y-130436899D02*
X320234285Y-130579756D01*
X320234285Y-130579756D02*
X320305714Y-130651184D01*
X320305714Y-130651184D02*
X320448571Y-130722613D01*
X320448571Y-130722613D02*
X320948571Y-130722613D01*
X319234285Y-131508327D02*
X319377142Y-131436899D01*
X319377142Y-131436899D02*
X319448571Y-131365470D01*
X319448571Y-131365470D02*
X319519999Y-131222613D01*
X319519999Y-131222613D02*
X319519999Y-130794041D01*
X319519999Y-130794041D02*
X319448571Y-130651184D01*
X319448571Y-130651184D02*
X319377142Y-130579756D01*
X319377142Y-130579756D02*
X319234285Y-130508327D01*
X319234285Y-130508327D02*
X319019999Y-130508327D01*
X319019999Y-130508327D02*
X318877142Y-130579756D01*
X318877142Y-130579756D02*
X318805714Y-130651184D01*
X318805714Y-130651184D02*
X318734285Y-130794041D01*
X318734285Y-130794041D02*
X318734285Y-131222613D01*
X318734285Y-131222613D02*
X318805714Y-131365470D01*
X318805714Y-131365470D02*
X318877142Y-131436899D01*
X318877142Y-131436899D02*
X319019999Y-131508327D01*
X319019999Y-131508327D02*
X319234285Y-131508327D01*
X317877142Y-131508327D02*
X318019999Y-131436899D01*
X318019999Y-131436899D02*
X318091428Y-131365470D01*
X318091428Y-131365470D02*
X318162856Y-131222613D01*
X318162856Y-131222613D02*
X318162856Y-130794041D01*
X318162856Y-130794041D02*
X318091428Y-130651184D01*
X318091428Y-130651184D02*
X318019999Y-130579756D01*
X318019999Y-130579756D02*
X317877142Y-130508327D01*
X317877142Y-130508327D02*
X317662856Y-130508327D01*
X317662856Y-130508327D02*
X317519999Y-130579756D01*
X317519999Y-130579756D02*
X317448571Y-130651184D01*
X317448571Y-130651184D02*
X317377142Y-130794041D01*
X317377142Y-130794041D02*
X317377142Y-131222613D01*
X317377142Y-131222613D02*
X317448571Y-131365470D01*
X317448571Y-131365470D02*
X317519999Y-131436899D01*
X317519999Y-131436899D02*
X317662856Y-131508327D01*
X317662856Y-131508327D02*
X317877142Y-131508327D01*
X316948570Y-130508327D02*
X316377142Y-130508327D01*
X316734285Y-130008327D02*
X316734285Y-131294041D01*
X316734285Y-131294041D02*
X316662856Y-131436899D01*
X316662856Y-131436899D02*
X316519999Y-131508327D01*
X316519999Y-131508327D02*
X316377142Y-131508327D01*
D12*
X313953628Y-137383808D02*
X314429819Y-137383808D01*
X313429819Y-137050475D02*
X313953628Y-137383808D01*
X313953628Y-137383808D02*
X313429819Y-137717141D01*
X313525057Y-138002856D02*
X313477438Y-138050475D01*
X313477438Y-138050475D02*
X313429819Y-138145713D01*
X313429819Y-138145713D02*
X313429819Y-138383808D01*
X313429819Y-138383808D02*
X313477438Y-138479046D01*
X313477438Y-138479046D02*
X313525057Y-138526665D01*
X313525057Y-138526665D02*
X313620295Y-138574284D01*
X313620295Y-138574284D02*
X313715533Y-138574284D01*
X313715533Y-138574284D02*
X313858390Y-138526665D01*
X313858390Y-138526665D02*
X314429819Y-137955237D01*
X314429819Y-137955237D02*
X314429819Y-138574284D01*
%TO.C,D1*%
X26956250Y-131922499D02*
X28356250Y-131922499D01*
X26956250Y-128322499D02*
X28356250Y-128322499D01*
X28356250Y-128322499D02*
X28356250Y-131922499D01*
X27856250Y-132422499D02*
G75*
G02*
X27456250Y-132422499I-200000J0D01*
G01*
X27456250Y-132422499D02*
G75*
G02*
X27856250Y-132422499I200000J0D01*
G01*
D13*
%TO.C,C33*%
X52887500Y-85972499D02*
X52887500Y-86372499D01*
X53737500Y-85972499D02*
X53737500Y-86372499D01*
%TO.C,C73*%
X176950000Y-143122499D02*
X176950000Y-143522499D01*
X177800000Y-143122499D02*
X177800000Y-143522499D01*
%TO.C,C1*%
X19787500Y-62159999D02*
X19787500Y-62559999D01*
X20637500Y-62159999D02*
X20637500Y-62559999D01*
%TO.C,C160*%
X276725000Y-162172499D02*
X276725000Y-162572499D01*
X277575000Y-162172499D02*
X277575000Y-162572499D01*
%TO.C,C60*%
X167425000Y-124072499D02*
X167425000Y-124472499D01*
X168275000Y-124072499D02*
X168275000Y-124472499D01*
%TO.C,C109*%
X203687500Y-119838124D02*
X204087500Y-119838124D01*
X203687500Y-120688124D02*
X204087500Y-120688124D01*
%TO.C,C195*%
X281487500Y-62159999D02*
X281487500Y-62559999D01*
X282337500Y-62159999D02*
X282337500Y-62559999D01*
%TO.C,C152*%
X329350000Y-62159999D02*
X329350000Y-62559999D01*
X330200000Y-62159999D02*
X330200000Y-62559999D01*
D14*
%TO.C,U25*%
X62135000Y-144092500D02*
X62135000Y-144742499D01*
X62135000Y-144092500D02*
X62135000Y-143442499D01*
X59015000Y-144092500D02*
X59015000Y-144742499D01*
X59015000Y-144092500D02*
X59015000Y-142417499D01*
D13*
%TO.C,C22*%
X38837500Y-85972499D02*
X38837500Y-86372499D01*
X39687500Y-85972499D02*
X39687500Y-86372499D01*
D14*
%TO.C,U23*%
X66897500Y-105992500D02*
X66897500Y-106642499D01*
X66897500Y-105992500D02*
X66897500Y-105342499D01*
X63777500Y-105992500D02*
X63777500Y-106642499D01*
X63777500Y-105992500D02*
X63777500Y-104317499D01*
D13*
%TO.C,C125*%
X143375000Y-124072499D02*
X143375000Y-124472499D01*
X144225000Y-124072499D02*
X144225000Y-124472499D01*
%TO.C,C23*%
X48362500Y-105022499D02*
X48362500Y-105422499D01*
X49212500Y-105022499D02*
X49212500Y-105422499D01*
%TO.C,C108*%
X310300000Y-62159999D02*
X310300000Y-62559999D01*
X311150000Y-62159999D02*
X311150000Y-62559999D01*
%TO.C,C199*%
X303283058Y-134650900D02*
X303565901Y-134368057D01*
X303884099Y-135251941D02*
X304166942Y-134969098D01*
D14*
%TO.C,U96*%
X347885000Y-163142500D02*
X347885000Y-163792499D01*
X347885000Y-163142500D02*
X347885000Y-162492499D01*
X344765000Y-163142500D02*
X344765000Y-163792499D01*
X344765000Y-163142500D02*
X344765000Y-161467499D01*
%TO.C,U26*%
X143097500Y-63130000D02*
X143097500Y-63779999D01*
X143097500Y-63130000D02*
X143097500Y-62479999D01*
X139977500Y-63130000D02*
X139977500Y-63779999D01*
X139977500Y-63130000D02*
X139977500Y-61454999D01*
%TO.C,U27*%
X162147500Y-63130000D02*
X162147500Y-63779999D01*
X162147500Y-63130000D02*
X162147500Y-62479999D01*
X159027500Y-63130000D02*
X159027500Y-63779999D01*
X159027500Y-63130000D02*
X159027500Y-61454999D01*
D12*
%TO.C,J2*%
X299318750Y-81797499D02*
X298318750Y-81797499D01*
X299318750Y-79397499D02*
X299318750Y-81797499D01*
X294318750Y-81797499D02*
X293318750Y-81797499D01*
X294318750Y-77597499D02*
X298318750Y-77597499D01*
X293318750Y-81797499D02*
X293318750Y-79397499D01*
D13*
%TO.C,C18*%
X26931250Y-124072499D02*
X26931250Y-124472499D01*
X27781250Y-124072499D02*
X27781250Y-124472499D01*
%TO.C,C2*%
X43600000Y-62159999D02*
X43600000Y-62559999D01*
X44450000Y-62159999D02*
X44450000Y-62559999D01*
%TO.C,C123*%
X181475000Y-124072499D02*
X181475000Y-124472499D01*
X182325000Y-124072499D02*
X182325000Y-124472499D01*
%TO.C,C17*%
X24550000Y-105022499D02*
X24550000Y-105422499D01*
X25400000Y-105022499D02*
X25400000Y-105422499D01*
D14*
%TO.C,U30*%
X90710000Y-125042500D02*
X90710000Y-125692499D01*
X90710000Y-125042500D02*
X90710000Y-124392499D01*
X87590000Y-125042500D02*
X87590000Y-125692499D01*
X87590000Y-125042500D02*
X87590000Y-123367499D01*
D13*
%TO.C,C105*%
X195762500Y-105022499D02*
X195762500Y-105422499D01*
X196612500Y-105022499D02*
X196612500Y-105422499D01*
D14*
%TO.C,U38*%
X205010000Y-63130000D02*
X205010000Y-63779999D01*
X205010000Y-63130000D02*
X205010000Y-62479999D01*
X201890000Y-63130000D02*
X201890000Y-63779999D01*
X201890000Y-63130000D02*
X201890000Y-61454999D01*
D13*
%TO.C,C99*%
X138612500Y-105022499D02*
X138612500Y-105422499D01*
X139462500Y-105022499D02*
X139462500Y-105422499D01*
%TO.C,C122*%
X67175000Y-124072499D02*
X67175000Y-124472499D01*
X68025000Y-124072499D02*
X68025000Y-124472499D01*
%TO.C,C71*%
X200762500Y-105022499D02*
X200762500Y-105422499D01*
X201612500Y-105022499D02*
X201612500Y-105422499D01*
%TO.C,C179*%
X324350000Y-143122499D02*
X324350000Y-143522499D01*
X325200000Y-143122499D02*
X325200000Y-143522499D01*
%TO.C,C81*%
X224575000Y-62159999D02*
X224575000Y-62559999D01*
X225425000Y-62159999D02*
X225425000Y-62559999D01*
%TO.C,C151*%
X310300000Y-162172499D02*
X310300000Y-162572499D01*
X311150000Y-162172499D02*
X311150000Y-162572499D01*
D14*
%TO.C,U66*%
X205010000Y-125042500D02*
X205010000Y-125692499D01*
X205010000Y-125042500D02*
X205010000Y-124392499D01*
X201890000Y-125042500D02*
X201890000Y-125692499D01*
X201890000Y-125042500D02*
X201890000Y-123367499D01*
D13*
%TO.C,C44*%
X110037500Y-85972499D02*
X110037500Y-86372499D01*
X110887500Y-85972499D02*
X110887500Y-86372499D01*
%TO.C,C19*%
X31693750Y-143122499D02*
X31693750Y-143522499D01*
X32543750Y-143122499D02*
X32543750Y-143522499D01*
%TO.C,C98*%
X286487500Y-62159999D02*
X286487500Y-62559999D01*
X287337500Y-62159999D02*
X287337500Y-62559999D01*
D14*
%TO.C,U13*%
X81185000Y-63130000D02*
X81185000Y-63779999D01*
X81185000Y-63130000D02*
X81185000Y-62479999D01*
X78065000Y-63130000D02*
X78065000Y-63779999D01*
X78065000Y-63130000D02*
X78065000Y-61454999D01*
D13*
%TO.C,C24*%
X53125000Y-124072499D02*
X53125000Y-124472499D01*
X53975000Y-124072499D02*
X53975000Y-124472499D01*
D14*
%TO.C,U20*%
X124047500Y-63130000D02*
X124047500Y-63779999D01*
X124047500Y-63130000D02*
X124047500Y-62479999D01*
X120927500Y-63130000D02*
X120927500Y-63779999D01*
X120927500Y-63130000D02*
X120927500Y-61454999D01*
%TO.C,U72*%
X224060000Y-125042500D02*
X224060000Y-125692499D01*
X224060000Y-125042500D02*
X224060000Y-124392499D01*
X220940000Y-125042500D02*
X220940000Y-125692499D01*
X220940000Y-125042500D02*
X220940000Y-123367499D01*
D13*
%TO.C,C117*%
X19550000Y-105022499D02*
X19550000Y-105422499D01*
X20400000Y-105022499D02*
X20400000Y-105422499D01*
%TO.C,C30*%
X72175000Y-124072499D02*
X72175000Y-124472499D01*
X73025000Y-124072499D02*
X73025000Y-124472499D01*
D14*
%TO.C,U79*%
X233585000Y-144092500D02*
X233585000Y-144742499D01*
X233585000Y-144092500D02*
X233585000Y-143442499D01*
X230465000Y-144092500D02*
X230465000Y-144742499D01*
X230465000Y-144092500D02*
X230465000Y-142417499D01*
D13*
%TO.C,C128*%
X86225000Y-124072499D02*
X86225000Y-124472499D01*
X87075000Y-124072499D02*
X87075000Y-124472499D01*
%TO.C,R10*%
X20877500Y-130041141D02*
X20877500Y-129733859D01*
X20117500Y-130041141D02*
X20117500Y-129733859D01*
D14*
%TO.C,U44*%
X243110000Y-63130000D02*
X243110000Y-63779999D01*
X243110000Y-63130000D02*
X243110000Y-62479999D01*
X239990000Y-63130000D02*
X239990000Y-63779999D01*
X239990000Y-63130000D02*
X239990000Y-61454999D01*
D13*
%TO.C,C56*%
X271962500Y-85972499D02*
X271962500Y-86372499D01*
X272812500Y-85972499D02*
X272812500Y-86372499D01*
D14*
%TO.C,U32*%
X181197500Y-63130000D02*
X181197500Y-63779999D01*
X181197500Y-63130000D02*
X181197500Y-62479999D01*
X178077500Y-63130000D02*
X178077500Y-63779999D01*
X178077500Y-63130000D02*
X178077500Y-61454999D01*
%TO.C,U9*%
X62135000Y-63130000D02*
X62135000Y-63779999D01*
X62135000Y-63130000D02*
X62135000Y-62479999D01*
X59015000Y-63130000D02*
X59015000Y-63779999D01*
X59015000Y-63130000D02*
X59015000Y-61454999D01*
D13*
%TO.C,U63*%
X292908750Y-61987499D02*
X292908750Y-65747499D01*
X294168750Y-61987499D02*
X292908750Y-61987499D01*
X298468750Y-61987499D02*
X299728750Y-61987499D01*
X299728750Y-61987499D02*
X299728750Y-65747499D01*
X299958750Y-67267499D02*
X299628750Y-67027499D01*
X299958750Y-66787499D01*
X299958750Y-67267499D01*
G36*
X299958750Y-67267499D02*
G01*
X299628750Y-67027499D01*
X299958750Y-66787499D01*
X299958750Y-67267499D01*
G37*
D14*
%TO.C,U94*%
X309785000Y-163142500D02*
X309785000Y-163792499D01*
X309785000Y-163142500D02*
X309785000Y-162492499D01*
X306665000Y-163142500D02*
X306665000Y-163792499D01*
X306665000Y-163142500D02*
X306665000Y-161467499D01*
D13*
%TO.C,C35*%
X86462500Y-105022499D02*
X86462500Y-105422499D01*
X87312500Y-105022499D02*
X87312500Y-105422499D01*
%TO.C,C36*%
X91225000Y-124072499D02*
X91225000Y-124472499D01*
X92075000Y-124072499D02*
X92075000Y-124472499D01*
D14*
%TO.C,U55*%
X157385000Y-144092500D02*
X157385000Y-144742499D01*
X157385000Y-144092500D02*
X157385000Y-143442499D01*
X154265000Y-144092500D02*
X154265000Y-144742499D01*
X154265000Y-144092500D02*
X154265000Y-142417499D01*
D13*
%TO.C,C50*%
X162662500Y-62159999D02*
X162662500Y-62559999D01*
X163512500Y-62159999D02*
X163512500Y-62559999D01*
%TO.C,C58*%
X153137500Y-85972499D02*
X153137500Y-86372499D01*
X153987500Y-85972499D02*
X153987500Y-86372499D01*
%TO.C,C200*%
X303565901Y-144251941D02*
X303283058Y-143969098D01*
X304166942Y-143650900D02*
X303884099Y-143368057D01*
D14*
%TO.C,U82*%
X247872500Y-86942500D02*
X247872500Y-87592499D01*
X247872500Y-86942500D02*
X247872500Y-86292499D01*
X244752500Y-86942500D02*
X244752500Y-87592499D01*
X244752500Y-86942500D02*
X244752500Y-85267499D01*
D13*
%TO.C,C173*%
X281725000Y-162172499D02*
X281725000Y-162572499D01*
X282575000Y-162172499D02*
X282575000Y-162572499D01*
D14*
%TO.C,U77*%
X238347500Y-105992500D02*
X238347500Y-106642499D01*
X238347500Y-105992500D02*
X238347500Y-105342499D01*
X235227500Y-105992500D02*
X235227500Y-106642499D01*
X235227500Y-105992500D02*
X235227500Y-104317499D01*
D13*
%TO.C,C171*%
X72175000Y-162172499D02*
X72175000Y-162572499D01*
X73025000Y-162172499D02*
X73025000Y-162572499D01*
%TO.C,U62*%
X196487500Y-112653124D02*
X198687500Y-112653124D01*
X196487500Y-120723124D02*
X198687500Y-120723124D01*
X200887500Y-112653124D02*
X198687500Y-112653124D01*
X200887500Y-120723124D02*
X198687500Y-120723124D01*
X194827500Y-120263124D02*
X194497500Y-120503124D01*
X194497500Y-120023124D01*
X194827500Y-120263124D01*
G36*
X194827500Y-120263124D02*
G01*
X194497500Y-120503124D01*
X194497500Y-120023124D01*
X194827500Y-120263124D01*
G37*
%TO.C,C129*%
X105275000Y-124072499D02*
X105275000Y-124472499D01*
X106125000Y-124072499D02*
X106125000Y-124472499D01*
%TO.C,C161*%
X348400000Y-62159999D02*
X348400000Y-62559999D01*
X349250000Y-62159999D02*
X349250000Y-62559999D01*
%TO.C,C127*%
X48125000Y-124072499D02*
X48125000Y-124472499D01*
X48975000Y-124072499D02*
X48975000Y-124472499D01*
D14*
%TO.C,U58*%
X171672500Y-86942500D02*
X171672500Y-87592499D01*
X171672500Y-86942500D02*
X171672500Y-86292499D01*
X168552500Y-86942500D02*
X168552500Y-87592499D01*
X168552500Y-86942500D02*
X168552500Y-85267499D01*
%TO.C,U31*%
X81185000Y-144092500D02*
X81185000Y-144742499D01*
X81185000Y-144092500D02*
X81185000Y-143442499D01*
X78065000Y-144092500D02*
X78065000Y-144742499D01*
X78065000Y-144092500D02*
X78065000Y-142417499D01*
D13*
%TO.C,C181*%
X343400000Y-85972499D02*
X343400000Y-86372499D01*
X344250000Y-85972499D02*
X344250000Y-86372499D01*
D14*
%TO.C,U89*%
X281210000Y-106642499D02*
X281210000Y-105992499D01*
X281210000Y-105342499D02*
X281210000Y-105992499D01*
X278090000Y-106642499D02*
X278090000Y-105992499D01*
X278090000Y-104317499D02*
X278090000Y-105992499D01*
D13*
%TO.C,C162*%
X348400000Y-85972499D02*
X348400000Y-86372499D01*
X349250000Y-85972499D02*
X349250000Y-86372499D01*
D14*
%TO.C,U92*%
X257397500Y-163142500D02*
X257397500Y-163792499D01*
X257397500Y-163142500D02*
X257397500Y-162492499D01*
X254277500Y-163142500D02*
X254277500Y-163792499D01*
X254277500Y-163142500D02*
X254277500Y-161467499D01*
%TO.C,U37*%
X100235000Y-144092500D02*
X100235000Y-144742499D01*
X100235000Y-144092500D02*
X100235000Y-143442499D01*
X97115000Y-144092500D02*
X97115000Y-144742499D01*
X97115000Y-144092500D02*
X97115000Y-142417499D01*
%TO.C,U18*%
X52610000Y-125042500D02*
X52610000Y-125692499D01*
X52610000Y-125042500D02*
X52610000Y-124392499D01*
X49490000Y-125042500D02*
X49490000Y-125692499D01*
X49490000Y-125042500D02*
X49490000Y-123367499D01*
D13*
%TO.C,U69*%
X267925000Y-112653124D02*
X270125000Y-112653124D01*
X267925000Y-120723124D02*
X270125000Y-120723124D01*
X272325000Y-112653124D02*
X270125000Y-112653124D01*
X272325000Y-120723124D02*
X270125000Y-120723124D01*
X266265000Y-120263124D02*
X265935000Y-120503124D01*
X265935000Y-120023124D01*
X266265000Y-120263124D01*
G36*
X266265000Y-120263124D02*
G01*
X265935000Y-120503124D01*
X265935000Y-120023124D01*
X266265000Y-120263124D01*
G37*
%TO.C,C189*%
X157662500Y-62159999D02*
X157662500Y-62559999D01*
X158512500Y-62159999D02*
X158512500Y-62559999D01*
%TO.C,C66*%
X186475000Y-124072499D02*
X186475000Y-124472499D01*
X187325000Y-124072499D02*
X187325000Y-124472499D01*
%TO.C,C141*%
X76700000Y-143122499D02*
X76700000Y-143522499D01*
X77550000Y-143122499D02*
X77550000Y-143522499D01*
D14*
%TO.C,U65*%
X200247500Y-105992500D02*
X200247500Y-106642499D01*
X200247500Y-105992500D02*
X200247500Y-105342499D01*
X197127500Y-105992500D02*
X197127500Y-106642499D01*
X197127500Y-105992500D02*
X197127500Y-104317499D01*
D13*
%TO.C,C72*%
X205525000Y-124072499D02*
X205525000Y-124472499D01*
X206375000Y-124072499D02*
X206375000Y-124472499D01*
%TO.C,C156*%
X275125000Y-119838124D02*
X275525000Y-119838124D01*
X275125000Y-120688124D02*
X275525000Y-120688124D01*
%TO.C,C41*%
X105512500Y-105022499D02*
X105512500Y-105422499D01*
X106362500Y-105022499D02*
X106362500Y-105422499D01*
%TO.C,C167*%
X14787500Y-62159999D02*
X14787500Y-62559999D01*
X15637500Y-62159999D02*
X15637500Y-62559999D01*
%TO.C,C95*%
X281725000Y-105022499D02*
X281725000Y-105422499D01*
X282575000Y-105022499D02*
X282575000Y-105422499D01*
D14*
%TO.C,U10*%
X19272500Y-86942500D02*
X19272500Y-87592499D01*
X19272500Y-86942500D02*
X19272500Y-86292499D01*
X16152500Y-86942500D02*
X16152500Y-87592499D01*
X16152500Y-86942500D02*
X16152500Y-85267499D01*
D13*
%TO.C,C34*%
X76937500Y-85972499D02*
X76937500Y-86372499D01*
X77787500Y-85972499D02*
X77787500Y-86372499D01*
D14*
%TO.C,U97*%
X328835000Y-144092500D02*
X328835000Y-144742499D01*
X328835000Y-144092500D02*
X328835000Y-143442499D01*
X325715000Y-144092500D02*
X325715000Y-144742499D01*
X325715000Y-144092500D02*
X325715000Y-142417499D01*
%TO.C,U87*%
X347885000Y-86942500D02*
X347885000Y-87592499D01*
X347885000Y-86942500D02*
X347885000Y-86292499D01*
X344765000Y-86942500D02*
X344765000Y-87592499D01*
X344765000Y-86942500D02*
X344765000Y-85267499D01*
%TO.C,U12*%
X26416250Y-125692499D02*
X26416250Y-125042499D01*
X26416250Y-124392499D02*
X26416250Y-125042499D01*
X23296250Y-125692499D02*
X23296250Y-125042499D01*
X23296250Y-123367499D02*
X23296250Y-125042499D01*
D13*
%TO.C,C183*%
X57650000Y-62159999D02*
X57650000Y-62559999D01*
X58500000Y-62159999D02*
X58500000Y-62559999D01*
D14*
%TO.C,U86*%
X328835000Y-86942500D02*
X328835000Y-87592499D01*
X328835000Y-86942500D02*
X328835000Y-86292499D01*
X325715000Y-86942500D02*
X325715000Y-87592499D01*
X325715000Y-86942500D02*
X325715000Y-85267499D01*
D15*
%TO.C,U57*%
X281400000Y-137087499D02*
G75*
G02*
X277900000Y-137087499I-1750000J0D01*
G01*
X277900000Y-137087499D02*
G75*
G02*
X281400000Y-137087499I1750000J0D01*
G01*
X257587500Y-137087499D02*
G75*
G02*
X254087500Y-137087499I-1750000J0D01*
G01*
X254087500Y-137087499D02*
G75*
G02*
X257587500Y-137087499I1750000J0D01*
G01*
X280650000Y-154327499D02*
G75*
G02*
X278651051Y-154328024I-1000000J1999998D01*
G01*
X256837500Y-154327499D02*
G75*
G02*
X254838551Y-154328024I-1000000J2000000D01*
G01*
D14*
X269303750Y-144742499D02*
X269303750Y-144092499D01*
X269303750Y-143442499D02*
X269303750Y-144092499D01*
X266183750Y-144742499D02*
X266183750Y-144092499D01*
X266183750Y-142417499D02*
X266183750Y-144092499D01*
D13*
%TO.C,C28*%
X57887500Y-85972499D02*
X57887500Y-86372499D01*
X58737500Y-85972499D02*
X58737500Y-86372499D01*
D14*
%TO.C,U83*%
X257397500Y-105992500D02*
X257397500Y-106642499D01*
X257397500Y-105992500D02*
X257397500Y-105342499D01*
X254277500Y-105992500D02*
X254277500Y-106642499D01*
X254277500Y-105992500D02*
X254277500Y-104317499D01*
D13*
%TO.C,C140*%
X152900000Y-143122499D02*
X152900000Y-143522499D01*
X153750000Y-143122499D02*
X153750000Y-143522499D01*
%TO.C,C86*%
X243625000Y-62159999D02*
X243625000Y-62559999D01*
X244475000Y-62159999D02*
X244475000Y-62559999D01*
D15*
%TO.C,U33*%
X43275000Y-137087499D02*
G75*
G02*
X39775000Y-137087499I-1750000J0D01*
G01*
X39775000Y-137087499D02*
G75*
G02*
X43275000Y-137087499I1750000J0D01*
G01*
X19462500Y-137087499D02*
G75*
G02*
X15962500Y-137087499I-1750000J0D01*
G01*
X15962500Y-137087499D02*
G75*
G02*
X19462500Y-137087499I1750000J0D01*
G01*
X42525000Y-154327499D02*
G75*
G02*
X40526051Y-154328024I-1000000J1999998D01*
G01*
X18712500Y-154327499D02*
G75*
G02*
X16713551Y-154328024I-1000000J2000000D01*
G01*
D14*
X31178750Y-144742499D02*
X31178750Y-144092499D01*
X31178750Y-143442499D02*
X31178750Y-144092499D01*
X28058750Y-144742499D02*
X28058750Y-144092499D01*
X28058750Y-142417499D02*
X28058750Y-144092499D01*
D13*
%TO.C,C96*%
X119562500Y-105022499D02*
X119562500Y-105422499D01*
X120412500Y-105022499D02*
X120412500Y-105422499D01*
%TO.C,C43*%
X81700000Y-143122499D02*
X81700000Y-143522499D01*
X82550000Y-143122499D02*
X82550000Y-143522499D01*
%TO.C,C93*%
X43362500Y-105022499D02*
X43362500Y-105422499D01*
X44212500Y-105022499D02*
X44212500Y-105422499D01*
%TO.C,C130*%
X21931250Y-124072499D02*
X21931250Y-124472499D01*
X22781250Y-124072499D02*
X22781250Y-124472499D01*
%TO.C,C164*%
X345371875Y-119838124D02*
X345771875Y-119838124D01*
X345371875Y-120688124D02*
X345771875Y-120688124D01*
D14*
%TO.C,U93*%
X328835000Y-63130000D02*
X328835000Y-63779999D01*
X328835000Y-63130000D02*
X328835000Y-62479999D01*
X325715000Y-63130000D02*
X325715000Y-63779999D01*
X325715000Y-63130000D02*
X325715000Y-61454999D01*
D13*
%TO.C,C89*%
X257912500Y-105022499D02*
X257912500Y-105422499D01*
X258762500Y-105022499D02*
X258762500Y-105422499D01*
%TO.C,C194*%
X257675000Y-62159999D02*
X257675000Y-62559999D01*
X258525000Y-62159999D02*
X258525000Y-62559999D01*
%TO.C,C63*%
X167187500Y-85972499D02*
X167187500Y-86372499D01*
X168037500Y-85972499D02*
X168037500Y-86372499D01*
%TO.C,C88*%
X248387500Y-85972499D02*
X248387500Y-86372499D01*
X249237500Y-85972499D02*
X249237500Y-86372499D01*
D14*
%TO.C,U17*%
X47847500Y-105992500D02*
X47847500Y-106642499D01*
X47847500Y-105992500D02*
X47847500Y-105342499D01*
X44727500Y-105992500D02*
X44727500Y-106642499D01*
X44727500Y-105992500D02*
X44727500Y-104317499D01*
D13*
%TO.C,C62*%
X181712500Y-62159999D02*
X181712500Y-62559999D01*
X182562500Y-62159999D02*
X182562500Y-62559999D01*
%TO.C,C37*%
X62650000Y-143122499D02*
X62650000Y-143522499D01*
X63500000Y-143122499D02*
X63500000Y-143522499D01*
D14*
%TO.C,U88*%
X309785000Y-105992500D02*
X309785000Y-106642499D01*
X309785000Y-105992500D02*
X309785000Y-105342499D01*
X306665000Y-105992500D02*
X306665000Y-106642499D01*
X306665000Y-105992500D02*
X306665000Y-104317499D01*
D13*
%TO.C,C137*%
X210050000Y-143122499D02*
X210050000Y-143522499D01*
X210900000Y-143122499D02*
X210900000Y-143522499D01*
%TO.C,C188*%
X138612500Y-62159999D02*
X138612500Y-62559999D01*
X139462500Y-62159999D02*
X139462500Y-62559999D01*
%TO.C,C5*%
X100750000Y-62159999D02*
X100750000Y-62559999D01*
X101600000Y-62159999D02*
X101600000Y-62559999D01*
D15*
%TO.C,U3*%
X288543750Y-79937499D02*
G75*
G02*
X285043750Y-79937499I-1750000J0D01*
G01*
X285043750Y-79937499D02*
G75*
G02*
X288543750Y-79937499I1750000J0D01*
G01*
X264731250Y-79937499D02*
G75*
G02*
X261231250Y-79937499I-1750000J0D01*
G01*
X261231250Y-79937499D02*
G75*
G02*
X264731250Y-79937499I1750000J0D01*
G01*
X287793750Y-97177499D02*
G75*
G02*
X285794801Y-97178024I-1000000J1999998D01*
G01*
X263981250Y-97177499D02*
G75*
G02*
X261982301Y-97178024I-1000000J2000000D01*
G01*
D14*
X276447500Y-87592499D02*
X276447500Y-86942499D01*
X276447500Y-86292499D02*
X276447500Y-86942499D01*
X273327500Y-87592499D02*
X273327500Y-86942499D01*
X273327500Y-85267499D02*
X273327500Y-86942499D01*
D13*
%TO.C,C113*%
X269581250Y-124072499D02*
X269581250Y-124472499D01*
X270431250Y-124072499D02*
X270431250Y-124472499D01*
%TO.C,C52*%
X134087500Y-85972499D02*
X134087500Y-86372499D01*
X134937500Y-85972499D02*
X134937500Y-86372499D01*
%TO.C,C51*%
X14787500Y-85972499D02*
X14787500Y-86372499D01*
X15637500Y-85972499D02*
X15637500Y-86372499D01*
%TO.C,C85*%
X215050000Y-143122499D02*
X215050000Y-143522499D01*
X215900000Y-143122499D02*
X215900000Y-143522499D01*
%TO.C,C124*%
X162425000Y-124072499D02*
X162425000Y-124472499D01*
X163275000Y-124072499D02*
X163275000Y-124472499D01*
%TO.C,U74*%
X338171875Y-112653124D02*
X340371875Y-112653124D01*
X338171875Y-120723124D02*
X340371875Y-120723124D01*
X342571875Y-112653124D02*
X340371875Y-112653124D01*
X342571875Y-120723124D02*
X340371875Y-120723124D01*
X336511875Y-120263124D02*
X336181875Y-120503124D01*
X336181875Y-120023124D01*
X336511875Y-120263124D01*
G36*
X336511875Y-120263124D02*
G01*
X336181875Y-120503124D01*
X336181875Y-120023124D01*
X336511875Y-120263124D01*
G37*
%TO.C,C118*%
X310300000Y-105022499D02*
X310300000Y-105422499D01*
X311150000Y-105022499D02*
X311150000Y-105422499D01*
D14*
%TO.C,U34*%
X95472500Y-86942500D02*
X95472500Y-87592499D01*
X95472500Y-86942500D02*
X95472500Y-86292499D01*
X92352500Y-86942500D02*
X92352500Y-87592499D01*
X92352500Y-86942500D02*
X92352500Y-85267499D01*
%TO.C,U35*%
X104997500Y-105992500D02*
X104997500Y-106642499D01*
X104997500Y-105992500D02*
X104997500Y-105342499D01*
X101877500Y-105992500D02*
X101877500Y-106642499D01*
X101877500Y-105992500D02*
X101877500Y-104317499D01*
D13*
%TO.C,C53*%
X143612500Y-105022499D02*
X143612500Y-105422499D01*
X144462500Y-105022499D02*
X144462500Y-105422499D01*
%TO.C,C191*%
X200525000Y-62159999D02*
X200525000Y-62559999D01*
X201375000Y-62159999D02*
X201375000Y-62559999D01*
%TO.C,C80*%
X243387500Y-85972499D02*
X243387500Y-86372499D01*
X244237500Y-85972499D02*
X244237500Y-86372499D01*
%TO.C,C107*%
X269818750Y-143122499D02*
X269818750Y-143522499D01*
X270668750Y-143122499D02*
X270668750Y-143522499D01*
%TO.C,C196*%
X305300000Y-62159999D02*
X305300000Y-62559999D01*
X306150000Y-62159999D02*
X306150000Y-62559999D01*
%TO.C,C193*%
X238625000Y-62159999D02*
X238625000Y-62559999D01*
X239475000Y-62159999D02*
X239475000Y-62559999D01*
%TO.C,C139*%
X171950000Y-143122499D02*
X171950000Y-143522499D01*
X172800000Y-143122499D02*
X172800000Y-143522499D01*
%TO.C,C177*%
X38600000Y-62159999D02*
X38600000Y-62559999D01*
X39450000Y-62159999D02*
X39450000Y-62559999D01*
%TO.C,C143*%
X114800000Y-143122499D02*
X114800000Y-143522499D01*
X115650000Y-143122499D02*
X115650000Y-143522499D01*
%TO.C,C111*%
X214812500Y-105022499D02*
X214812500Y-105422499D01*
X215662500Y-105022499D02*
X215662500Y-105422499D01*
D14*
%TO.C,U6*%
X71660000Y-163792499D02*
X71660000Y-163142499D01*
X71660000Y-162492499D02*
X71660000Y-163142499D01*
X68540000Y-163792499D02*
X68540000Y-163142499D01*
X68540000Y-161467499D02*
X68540000Y-163142499D01*
D13*
%TO.C,C76*%
X210287500Y-85972499D02*
X210287500Y-86372499D01*
X211137500Y-85972499D02*
X211137500Y-86372499D01*
%TO.C,C169*%
X24550000Y-162172499D02*
X24550000Y-162572499D01*
X25400000Y-162172499D02*
X25400000Y-162572499D01*
%TO.C,C45*%
X129087500Y-85972499D02*
X129087500Y-86372499D01*
X129937500Y-85972499D02*
X129937500Y-86372499D01*
%TO.C,C67*%
X157900000Y-143122499D02*
X157900000Y-143522499D01*
X158750000Y-143122499D02*
X158750000Y-143522499D01*
%TO.C,C133*%
X57650000Y-143122499D02*
X57650000Y-143522499D01*
X58500000Y-143122499D02*
X58500000Y-143522499D01*
%TO.C,C145*%
X329350000Y-143122499D02*
X329350000Y-143522499D01*
X330200000Y-143122499D02*
X330200000Y-143522499D01*
%TO.C,C29*%
X67412500Y-105022499D02*
X67412500Y-105422499D01*
X68262500Y-105022499D02*
X68262500Y-105422499D01*
D14*
%TO.C,U36*%
X109760000Y-125042500D02*
X109760000Y-125692499D01*
X109760000Y-125042500D02*
X109760000Y-124392499D01*
X106640000Y-125042500D02*
X106640000Y-125692499D01*
X106640000Y-125042500D02*
X106640000Y-123367499D01*
D13*
%TO.C,C150*%
X305300000Y-105022499D02*
X305300000Y-105422499D01*
X306150000Y-105022499D02*
X306150000Y-105422499D01*
D14*
%TO.C,U70*%
X209772500Y-86942500D02*
X209772500Y-87592499D01*
X209772500Y-86942500D02*
X209772500Y-86292499D01*
X206652500Y-86942500D02*
X206652500Y-87592499D01*
X206652500Y-86942500D02*
X206652500Y-85267499D01*
%TO.C,U8*%
X233585000Y-163792499D02*
X233585000Y-163142499D01*
X233585000Y-162492499D02*
X233585000Y-163142499D01*
X230465000Y-163792499D02*
X230465000Y-163142499D01*
X230465000Y-161467499D02*
X230465000Y-163142499D01*
%TO.C,U50*%
X285972500Y-63130000D02*
X285972500Y-63779999D01*
X285972500Y-63130000D02*
X285972500Y-62479999D01*
X282852500Y-63130000D02*
X282852500Y-63779999D01*
X282852500Y-63130000D02*
X282852500Y-61454999D01*
D13*
%TO.C,R9*%
X308550000Y-131109999D02*
X308550000Y-131509999D01*
X309400000Y-131109999D02*
X309400000Y-131509999D01*
D14*
%TO.C,U43*%
X119285000Y-144092500D02*
X119285000Y-144742499D01*
X119285000Y-144092500D02*
X119285000Y-143442499D01*
X116165000Y-144092500D02*
X116165000Y-144742499D01*
X116165000Y-144092500D02*
X116165000Y-142417499D01*
D13*
%TO.C,C79*%
X196000000Y-143122499D02*
X196000000Y-143522499D01*
X196850000Y-143122499D02*
X196850000Y-143522499D01*
D14*
%TO.C,U52*%
X152622500Y-86942500D02*
X152622500Y-87592499D01*
X152622500Y-86942500D02*
X152622500Y-86292499D01*
X149502500Y-86942500D02*
X149502500Y-87592499D01*
X149502500Y-86942500D02*
X149502500Y-85267499D01*
D13*
%TO.C,C6*%
X124562500Y-62159999D02*
X124562500Y-62559999D01*
X125412500Y-62159999D02*
X125412500Y-62559999D01*
D14*
%TO.C,U22*%
X57372500Y-86942500D02*
X57372500Y-87592499D01*
X57372500Y-86942500D02*
X57372500Y-86292499D01*
X54252500Y-86942500D02*
X54252500Y-87592499D01*
X54252500Y-86942500D02*
X54252500Y-85267499D01*
D13*
%TO.C,C97*%
X234100000Y-143122499D02*
X234100000Y-143522499D01*
X234950000Y-143122499D02*
X234950000Y-143522499D01*
%TO.C,C187*%
X119562500Y-62159999D02*
X119562500Y-62559999D01*
X120412500Y-62159999D02*
X120412500Y-62559999D01*
D14*
%TO.C,U5*%
X47847500Y-163142500D02*
X47847500Y-163792499D01*
X47847500Y-163142500D02*
X47847500Y-162492499D01*
X44727500Y-163142500D02*
X44727500Y-163792499D01*
X44727500Y-163142500D02*
X44727500Y-161467499D01*
D13*
%TO.C,C155*%
X329350000Y-105022499D02*
X329350000Y-105422499D01*
X330200000Y-105022499D02*
X330200000Y-105422499D01*
%TO.C,C75*%
X205525000Y-62159999D02*
X205525000Y-62559999D01*
X206375000Y-62159999D02*
X206375000Y-62559999D01*
D14*
%TO.C,U67*%
X195485000Y-144092500D02*
X195485000Y-144742499D01*
X195485000Y-144092500D02*
X195485000Y-143442499D01*
X192365000Y-144092500D02*
X192365000Y-144742499D01*
X192365000Y-144092500D02*
X192365000Y-142417499D01*
D13*
%TO.C,C126*%
X124325000Y-124072499D02*
X124325000Y-124472499D01*
X125175000Y-124072499D02*
X125175000Y-124472499D01*
D14*
%TO.C,U54*%
X166910000Y-125042500D02*
X166910000Y-125692499D01*
X166910000Y-125042500D02*
X166910000Y-124392499D01*
X163790000Y-125042500D02*
X163790000Y-125692499D01*
X163790000Y-125042500D02*
X163790000Y-123367499D01*
D13*
%TO.C,C31*%
X143612500Y-62159999D02*
X143612500Y-62559999D01*
X144462500Y-62159999D02*
X144462500Y-62559999D01*
%TO.C,R13*%
X300175000Y-137384999D02*
X299775000Y-137384999D01*
X300175000Y-138234999D02*
X299775000Y-138234999D01*
D14*
%TO.C,U53*%
X162147500Y-105992500D02*
X162147500Y-106642499D01*
X162147500Y-105992500D02*
X162147500Y-105342499D01*
X159027500Y-105992500D02*
X159027500Y-106642499D01*
X159027500Y-105992500D02*
X159027500Y-104317499D01*
D13*
%TO.C,U68*%
X234587500Y-112653124D02*
X236787500Y-112653124D01*
X234587500Y-120723124D02*
X236787500Y-120723124D01*
X238987500Y-112653124D02*
X236787500Y-112653124D01*
X238987500Y-120723124D02*
X236787500Y-120723124D01*
X232927500Y-120263124D02*
X232597500Y-120503124D01*
X232597500Y-120023124D01*
X232927500Y-120263124D01*
G36*
X232927500Y-120263124D02*
G01*
X232597500Y-120503124D01*
X232597500Y-120023124D01*
X232927500Y-120263124D01*
G37*
%TO.C,C64*%
X172187500Y-85972499D02*
X172187500Y-86372499D01*
X173037500Y-85972499D02*
X173037500Y-86372499D01*
D14*
%TO.C,U29*%
X85947500Y-105992500D02*
X85947500Y-106642499D01*
X85947500Y-105992500D02*
X85947500Y-105342499D01*
X82827500Y-105992500D02*
X82827500Y-106642499D01*
X82827500Y-105992500D02*
X82827500Y-104317499D01*
D13*
%TO.C,C49*%
X100750000Y-143122499D02*
X100750000Y-143522499D01*
X101600000Y-143122499D02*
X101600000Y-143522499D01*
%TO.C,C82*%
X229337500Y-85972499D02*
X229337500Y-86372499D01*
X230187500Y-85972499D02*
X230187500Y-86372499D01*
%TO.C,C138*%
X191000000Y-143122499D02*
X191000000Y-143522499D01*
X191850000Y-143122499D02*
X191850000Y-143522499D01*
%TO.C,C202*%
X313065901Y-134618057D02*
X312783058Y-134900900D01*
X313666942Y-135219098D02*
X313384099Y-135501941D01*
%TO.C,C178*%
X153137500Y-162172499D02*
X153137500Y-162572499D01*
X153987500Y-162172499D02*
X153987500Y-162572499D01*
%TO.C,C55*%
X119800000Y-143122499D02*
X119800000Y-143522499D01*
X120650000Y-143122499D02*
X120650000Y-143522499D01*
D14*
%TO.C,U91*%
X347885000Y-105992500D02*
X347885000Y-106642499D01*
X347885000Y-105992500D02*
X347885000Y-105342499D01*
X344765000Y-105992500D02*
X344765000Y-106642499D01*
X344765000Y-105992500D02*
X344765000Y-104317499D01*
D13*
%TO.C,C38*%
X71937500Y-85972499D02*
X71937500Y-86372499D01*
X72787500Y-85972499D02*
X72787500Y-86372499D01*
D14*
%TO.C,U40*%
X114522500Y-86942500D02*
X114522500Y-87592499D01*
X114522500Y-86942500D02*
X114522500Y-86292499D01*
X111402500Y-86942500D02*
X111402500Y-87592499D01*
X111402500Y-86942500D02*
X111402500Y-85267499D01*
D13*
%TO.C,C158*%
X229100000Y-162172499D02*
X229100000Y-162572499D01*
X229950000Y-162172499D02*
X229950000Y-162572499D01*
%TO.C,U21*%
X35753125Y-112653124D02*
X37953125Y-112653124D01*
X35753125Y-120723124D02*
X37953125Y-120723124D01*
X40153125Y-112653124D02*
X37953125Y-112653124D01*
X40153125Y-120723124D02*
X37953125Y-120723124D01*
X34093125Y-120263124D02*
X33763125Y-120503124D01*
X33763125Y-120023124D01*
X34093125Y-120263124D01*
G36*
X34093125Y-120263124D02*
G01*
X33763125Y-120503124D01*
X33763125Y-120023124D01*
X34093125Y-120263124D01*
G37*
%TO.C,SW2*%
X310350000Y-125449999D02*
X314490000Y-125449999D01*
X310350000Y-125749999D02*
X310350000Y-125449999D01*
X310350000Y-128589999D02*
X310350000Y-128289999D01*
X314490000Y-125449999D02*
X314490000Y-125749999D01*
X314490000Y-128289999D02*
X314490000Y-128589999D01*
X314490000Y-128589999D02*
X310350000Y-128589999D01*
%TO.C,C176*%
X324350000Y-105022499D02*
X324350000Y-105422499D01*
X325200000Y-105022499D02*
X325200000Y-105422499D01*
%TO.C,C46*%
X115037500Y-85972499D02*
X115037500Y-86372499D01*
X115887500Y-85972499D02*
X115887500Y-86372499D01*
%TO.C,C69*%
X205287500Y-85972499D02*
X205287500Y-86372499D01*
X206137500Y-85972499D02*
X206137500Y-86372499D01*
D14*
%TO.C,U90*%
X328835000Y-105992500D02*
X328835000Y-106642499D01*
X328835000Y-105992500D02*
X328835000Y-105342499D01*
X325715000Y-105992500D02*
X325715000Y-106642499D01*
X325715000Y-105992500D02*
X325715000Y-104317499D01*
D13*
%TO.C,C149*%
X67175000Y-162172499D02*
X67175000Y-162572499D01*
X68025000Y-162172499D02*
X68025000Y-162572499D01*
D14*
%TO.C,U75*%
X309785000Y-63130000D02*
X309785000Y-63779999D01*
X309785000Y-63130000D02*
X309785000Y-62479999D01*
X306665000Y-63130000D02*
X306665000Y-63779999D01*
X306665000Y-63130000D02*
X306665000Y-61454999D01*
%TO.C,U45*%
X262160000Y-63130000D02*
X262160000Y-63779999D01*
X262160000Y-63130000D02*
X262160000Y-62479999D01*
X259040000Y-63130000D02*
X259040000Y-63779999D01*
X259040000Y-63130000D02*
X259040000Y-61454999D01*
D13*
%TO.C,C197*%
X324350000Y-62159999D02*
X324350000Y-62559999D01*
X325200000Y-62159999D02*
X325200000Y-62559999D01*
%TO.C,C192*%
X219575000Y-62159999D02*
X219575000Y-62559999D01*
X220425000Y-62159999D02*
X220425000Y-62559999D01*
%TO.C,C74*%
X224337500Y-85972499D02*
X224337500Y-86372499D01*
X225187500Y-85972499D02*
X225187500Y-86372499D01*
%TO.C,C110*%
X165587500Y-119838124D02*
X165987500Y-119838124D01*
X165587500Y-120688124D02*
X165987500Y-120688124D01*
%TO.C,C166*%
X348400000Y-105022499D02*
X348400000Y-105422499D01*
X349250000Y-105022499D02*
X349250000Y-105422499D01*
%TO.C,C163*%
X148137500Y-162172499D02*
X148137500Y-162572499D01*
X148987500Y-162172499D02*
X148987500Y-162572499D01*
%TO.C,C182*%
X343400000Y-105022499D02*
X343400000Y-105422499D01*
X344250000Y-105022499D02*
X344250000Y-105422499D01*
D14*
%TO.C,U47*%
X143097500Y-105992500D02*
X143097500Y-106642499D01*
X143097500Y-105992500D02*
X143097500Y-105342499D01*
X139977500Y-105992500D02*
X139977500Y-106642499D01*
X139977500Y-105992500D02*
X139977500Y-104317499D01*
D13*
%TO.C,C112*%
X233862500Y-105022499D02*
X233862500Y-105422499D01*
X234712500Y-105022499D02*
X234712500Y-105422499D01*
%TO.C,C185*%
X76700000Y-62159999D02*
X76700000Y-62559999D01*
X77550000Y-62159999D02*
X77550000Y-62559999D01*
D14*
%TO.C,U95*%
X328835000Y-163142500D02*
X328835000Y-163792499D01*
X328835000Y-163142500D02*
X328835000Y-162492499D01*
X325715000Y-163142500D02*
X325715000Y-163792499D01*
X325715000Y-163142500D02*
X325715000Y-161467499D01*
D13*
%TO.C,C68*%
X186237500Y-85972499D02*
X186237500Y-86372499D01*
X187087500Y-85972499D02*
X187087500Y-86372499D01*
%TO.C,C27*%
X33837500Y-85972499D02*
X33837500Y-86372499D01*
X34687500Y-85972499D02*
X34687500Y-86372499D01*
%TO.C,C157*%
X329350000Y-162172499D02*
X329350000Y-162572499D01*
X330200000Y-162172499D02*
X330200000Y-162572499D01*
D14*
%TO.C,U71*%
X219297500Y-105992500D02*
X219297500Y-106642499D01*
X219297500Y-105992500D02*
X219297500Y-105342499D01*
X216177500Y-105992500D02*
X216177500Y-106642499D01*
X216177500Y-105992500D02*
X216177500Y-104317499D01*
D13*
%TO.C,C15*%
X276962500Y-85972499D02*
X276962500Y-86372499D01*
X277812500Y-85972499D02*
X277812500Y-86372499D01*
D14*
%TO.C,U14*%
X100235000Y-63130000D02*
X100235000Y-63779999D01*
X100235000Y-63130000D02*
X100235000Y-62479999D01*
X97115000Y-63130000D02*
X97115000Y-63779999D01*
X97115000Y-63130000D02*
X97115000Y-61454999D01*
D13*
%TO.C,C142*%
X95750000Y-143122499D02*
X95750000Y-143522499D01*
X96600000Y-143122499D02*
X96600000Y-143522499D01*
%TO.C,C203*%
X314675000Y-139884999D02*
X314275000Y-139884999D01*
X314675000Y-140734999D02*
X314275000Y-140734999D01*
%TO.C,C3*%
X62650000Y-62159999D02*
X62650000Y-62559999D01*
X63500000Y-62159999D02*
X63500000Y-62559999D01*
%TO.C,C204*%
X308550000Y-127299999D02*
X308550000Y-127699999D01*
X309400000Y-127299999D02*
X309400000Y-127699999D01*
%TO.C,C90*%
X274581250Y-124072499D02*
X274581250Y-124472499D01*
X275431250Y-124072499D02*
X275431250Y-124472499D01*
%TO.C,C114*%
X252912500Y-105022499D02*
X252912500Y-105422499D01*
X253762500Y-105022499D02*
X253762500Y-105422499D01*
%TO.C,C25*%
X296598750Y-68972499D02*
X296998750Y-68972499D01*
X296598750Y-69822499D02*
X296998750Y-69822499D01*
D14*
%TO.C,U28*%
X76422500Y-86942500D02*
X76422500Y-87592499D01*
X76422500Y-86942500D02*
X76422500Y-86292499D01*
X73302500Y-86942500D02*
X73302500Y-87592499D01*
X73302500Y-86942500D02*
X73302500Y-85267499D01*
D13*
%TO.C,C172*%
X257912500Y-162172499D02*
X257912500Y-162572499D01*
X258762500Y-162172499D02*
X258762500Y-162572499D01*
%TO.C,C116*%
X310300000Y-85972499D02*
X310300000Y-86372499D01*
X311150000Y-85972499D02*
X311150000Y-86372499D01*
%TO.C,C92*%
X100512500Y-105022499D02*
X100512500Y-105422499D01*
X101362500Y-105022499D02*
X101362500Y-105422499D01*
%TO.C,C101*%
X157662500Y-105022499D02*
X157662500Y-105422499D01*
X158512500Y-105022499D02*
X158512500Y-105422499D01*
D14*
%TO.C,U42*%
X128810000Y-125042500D02*
X128810000Y-125692499D01*
X128810000Y-125042500D02*
X128810000Y-124392499D01*
X125690000Y-125042500D02*
X125690000Y-125692499D01*
X125690000Y-125042500D02*
X125690000Y-123367499D01*
D13*
%TO.C,C59*%
X162662500Y-105022499D02*
X162662500Y-105422499D01*
X163512500Y-105022499D02*
X163512500Y-105422499D01*
%TO.C,C4*%
X81700000Y-62159999D02*
X81700000Y-62559999D01*
X82550000Y-62159999D02*
X82550000Y-62559999D01*
D14*
%TO.C,U4*%
X24035000Y-163792499D02*
X24035000Y-163142499D01*
X24035000Y-162492499D02*
X24035000Y-163142499D01*
X20915000Y-163792499D02*
X20915000Y-163142499D01*
X20915000Y-161467499D02*
X20915000Y-163142499D01*
D13*
%TO.C,C153*%
X241787500Y-119838124D02*
X242187500Y-119838124D01*
X241787500Y-120688124D02*
X242187500Y-120688124D01*
%TO.C,R12*%
X299775000Y-138384999D02*
X300175000Y-138384999D01*
X299775000Y-139234999D02*
X300175000Y-139234999D01*
D14*
%TO.C,U11*%
X24035000Y-106642499D02*
X24035000Y-105992499D01*
X24035000Y-105342499D02*
X24035000Y-105992499D01*
X20915000Y-106642499D02*
X20915000Y-105992499D01*
X20915000Y-104317499D02*
X20915000Y-105992499D01*
D13*
%TO.C,C40*%
X95987500Y-85972499D02*
X95987500Y-86372499D01*
X96837500Y-85972499D02*
X96837500Y-86372499D01*
%TO.C,C78*%
X224575000Y-124072499D02*
X224575000Y-124472499D01*
X225425000Y-124072499D02*
X225425000Y-124472499D01*
%TO.C,C144*%
X133850000Y-143122499D02*
X133850000Y-143522499D01*
X134700000Y-143122499D02*
X134700000Y-143522499D01*
%TO.C,C94*%
X262675000Y-62159999D02*
X262675000Y-62559999D01*
X263525000Y-62159999D02*
X263525000Y-62559999D01*
D14*
%TO.C,U73*%
X214535000Y-144092500D02*
X214535000Y-144742499D01*
X214535000Y-144092500D02*
X214535000Y-143442499D01*
X211415000Y-144092500D02*
X211415000Y-144742499D01*
X211415000Y-144092500D02*
X211415000Y-142417499D01*
D15*
%TO.C,U84*%
X286162500Y-132007499D02*
G75*
G02*
X282662500Y-132007499I-1750000J0D01*
G01*
X282662500Y-132007499D02*
G75*
G02*
X286162500Y-132007499I1750000J0D01*
G01*
X262350000Y-132007499D02*
G75*
G02*
X258850000Y-132007499I-1750000J0D01*
G01*
X258850000Y-132007499D02*
G75*
G02*
X262350000Y-132007499I1750000J0D01*
G01*
X283412500Y-114767499D02*
G75*
G02*
X285411449Y-114766974I1000000J-1999998D01*
G01*
X259600000Y-114767499D02*
G75*
G02*
X261598949Y-114766974I1000000J-2000020D01*
G01*
D14*
X274066250Y-125042500D02*
X274066250Y-125692499D01*
X274066250Y-125042500D02*
X274066250Y-124392499D01*
X270946250Y-125042500D02*
X270946250Y-125692499D01*
X270946250Y-125042500D02*
X270946250Y-123367499D01*
D13*
%TO.C,R11*%
X299775000Y-136384999D02*
X300175000Y-136384999D01*
X299775000Y-137234999D02*
X300175000Y-137234999D01*
D14*
%TO.C,U41*%
X124047500Y-105992500D02*
X124047500Y-106642499D01*
X124047500Y-105992500D02*
X124047500Y-105342499D01*
X120927500Y-105992500D02*
X120927500Y-106642499D01*
X120927500Y-105992500D02*
X120927500Y-104317499D01*
%TO.C,U48*%
X147860000Y-125042500D02*
X147860000Y-125692499D01*
X147860000Y-125042500D02*
X147860000Y-124392499D01*
X144740000Y-125042500D02*
X144740000Y-125692499D01*
X144740000Y-125042500D02*
X144740000Y-123367499D01*
D13*
%TO.C,C57*%
X148137500Y-85972499D02*
X148137500Y-86372499D01*
X148987500Y-85972499D02*
X148987500Y-86372499D01*
%TO.C,C201*%
X312315901Y-133868057D02*
X312033058Y-134150900D01*
X312916942Y-134469098D02*
X312634099Y-134751941D01*
%TO.C,C65*%
X181712500Y-105022499D02*
X181712500Y-105422499D01*
X182562500Y-105022499D02*
X182562500Y-105422499D01*
D14*
%TO.C,U39*%
X224060000Y-63130000D02*
X224060000Y-63779999D01*
X224060000Y-63130000D02*
X224060000Y-62479999D01*
X220940000Y-63130000D02*
X220940000Y-63779999D01*
X220940000Y-63130000D02*
X220940000Y-61454999D01*
%TO.C,U60*%
X185960000Y-125042500D02*
X185960000Y-125692499D01*
X185960000Y-125042500D02*
X185960000Y-124392499D01*
X182840000Y-125042500D02*
X182840000Y-125692499D01*
X182840000Y-125042500D02*
X182840000Y-123367499D01*
D13*
%TO.C,C147*%
X19550000Y-162172499D02*
X19550000Y-162572499D01*
X20400000Y-162172499D02*
X20400000Y-162572499D01*
%TO.C,C170*%
X48362500Y-162172499D02*
X48362500Y-162572499D01*
X49212500Y-162172499D02*
X49212500Y-162572499D01*
%TO.C,C184*%
X343400000Y-162172499D02*
X343400000Y-162572499D01*
X344250000Y-162172499D02*
X344250000Y-162572499D01*
%TO.C,U56*%
X82187500Y-112653124D02*
X84387500Y-112653124D01*
X82187500Y-120723124D02*
X84387500Y-120723124D01*
X86587500Y-112653124D02*
X84387500Y-112653124D01*
X86587500Y-120723124D02*
X84387500Y-120723124D01*
X80527500Y-120263124D02*
X80197500Y-120503124D01*
X80197500Y-120023124D01*
X80527500Y-120263124D01*
G36*
X80527500Y-120263124D02*
G01*
X80197500Y-120503124D01*
X80197500Y-120023124D01*
X80527500Y-120263124D01*
G37*
D14*
%TO.C,U64*%
X190722500Y-86942500D02*
X190722500Y-87592499D01*
X190722500Y-86942500D02*
X190722500Y-86292499D01*
X187602500Y-86942500D02*
X187602500Y-87592499D01*
X187602500Y-86942500D02*
X187602500Y-85267499D01*
D15*
%TO.C,U7*%
X209962500Y-170107499D02*
G75*
G02*
X206462500Y-170107499I-1750000J0D01*
G01*
X206462500Y-170107499D02*
G75*
G02*
X209962500Y-170107499I1750000J0D01*
G01*
X95662500Y-170107499D02*
G75*
G02*
X92162500Y-170107499I-1750000J0D01*
G01*
X92162500Y-170107499D02*
G75*
G02*
X95662500Y-170107499I1750000J0D01*
G01*
X207212500Y-152867499D02*
G75*
G02*
X209211449Y-152866974I1000000J-1999998D01*
G01*
X92912500Y-152867499D02*
G75*
G02*
X94911449Y-152866974I1000000J-2000000D01*
G01*
D14*
X152622500Y-163792499D02*
X152622500Y-163142499D01*
X152622500Y-162492499D02*
X152622500Y-163142499D01*
X149502500Y-163792499D02*
X149502500Y-163142499D01*
X149502500Y-161467499D02*
X149502500Y-163142499D01*
%TO.C,U59*%
X181197500Y-105992500D02*
X181197500Y-106642499D01*
X181197500Y-105992500D02*
X181197500Y-105342499D01*
X178077500Y-105992500D02*
X178077500Y-106642499D01*
X178077500Y-105992500D02*
X178077500Y-104317499D01*
D13*
%TO.C,C104*%
X89387500Y-119838124D02*
X89787500Y-119838124D01*
X89387500Y-120688124D02*
X89787500Y-120688124D01*
%TO.C,C70*%
X191237500Y-85972499D02*
X191237500Y-86372499D01*
X192087500Y-85972499D02*
X192087500Y-86372499D01*
%TO.C,C198*%
X343400000Y-62159999D02*
X343400000Y-62559999D01*
X344250000Y-62159999D02*
X344250000Y-62559999D01*
%TO.C,C175*%
X324350000Y-85972499D02*
X324350000Y-86372499D01*
X325200000Y-85972499D02*
X325200000Y-86372499D01*
%TO.C,C119*%
X238625000Y-124072499D02*
X238625000Y-124472499D01*
X239475000Y-124072499D02*
X239475000Y-124472499D01*
D14*
%TO.C,U78*%
X243110000Y-125042500D02*
X243110000Y-125692499D01*
X243110000Y-125042500D02*
X243110000Y-124392499D01*
X239990000Y-125042500D02*
X239990000Y-125692499D01*
X239990000Y-125042500D02*
X239990000Y-123367499D01*
D13*
%TO.C,C131*%
X26693750Y-143122499D02*
X26693750Y-143522499D01*
X27543750Y-143122499D02*
X27543750Y-143522499D01*
D14*
%TO.C,U99*%
X347885000Y-63130000D02*
X347885000Y-63779999D01*
X347885000Y-63130000D02*
X347885000Y-62479999D01*
X344765000Y-63130000D02*
X344765000Y-63779999D01*
X344765000Y-63130000D02*
X344765000Y-61454999D01*
D13*
%TO.C,C103*%
X42953125Y-119838124D02*
X43353125Y-119838124D01*
X42953125Y-120688124D02*
X43353125Y-120688124D01*
D14*
%TO.C,U16*%
X38322500Y-86942500D02*
X38322500Y-87592499D01*
X38322500Y-86942500D02*
X38322500Y-86292499D01*
X35202500Y-86942500D02*
X35202500Y-87592499D01*
X35202500Y-86942500D02*
X35202500Y-85267499D01*
D13*
%TO.C,C77*%
X219812500Y-105022499D02*
X219812500Y-105422499D01*
X220662500Y-105022499D02*
X220662500Y-105422499D01*
%TO.C,Y2*%
X314775000Y-136059999D02*
X316775000Y-136059999D01*
X314775000Y-137059999D02*
X314775000Y-136059999D01*
X314775000Y-139659999D02*
X314775000Y-138859999D01*
X316775000Y-135859999D02*
X314775000Y-135859999D01*
X316775000Y-139659999D02*
X314775000Y-139659999D01*
X317175000Y-135859999D02*
X316775000Y-135859999D01*
X317175000Y-136059999D02*
X316775000Y-136059999D01*
X317175000Y-136059999D02*
X317175000Y-137059999D01*
X317175000Y-138859999D02*
X317175000Y-139659999D01*
X317175000Y-139659999D02*
X316775000Y-139659999D01*
X317575000Y-137059999D02*
X317175000Y-137059999D01*
%TO.C,C16*%
X19787500Y-85972499D02*
X19787500Y-86372499D01*
X20637500Y-85972499D02*
X20637500Y-86372499D01*
%TO.C,C83*%
X238862500Y-105022499D02*
X238862500Y-105422499D01*
X239712500Y-105022499D02*
X239712500Y-105422499D01*
%TO.C,C87*%
X62412500Y-105022499D02*
X62412500Y-105422499D01*
X63262500Y-105022499D02*
X63262500Y-105422499D01*
%TO.C,C174*%
X348400000Y-162172499D02*
X348400000Y-162572499D01*
X349250000Y-162172499D02*
X349250000Y-162572499D01*
%TO.C,C39*%
X90987500Y-85972499D02*
X90987500Y-86372499D01*
X91837500Y-85972499D02*
X91837500Y-86372499D01*
%TO.C,C180*%
X324350000Y-162172499D02*
X324350000Y-162572499D01*
X325200000Y-162172499D02*
X325200000Y-162572499D01*
%TO.C,C54*%
X148375000Y-124072499D02*
X148375000Y-124472499D01*
X149225000Y-124072499D02*
X149225000Y-124472499D01*
%TO.C,C136*%
X229100000Y-143122499D02*
X229100000Y-143522499D01*
X229950000Y-143122499D02*
X229950000Y-143522499D01*
%TO.C,C102*%
X176712500Y-105022499D02*
X176712500Y-105422499D01*
X177562500Y-105022499D02*
X177562500Y-105422499D01*
%TO.C,C135*%
X305300000Y-85972499D02*
X305300000Y-86372499D01*
X306150000Y-85972499D02*
X306150000Y-86372499D01*
%TO.C,C100*%
X234100000Y-162172499D02*
X234100000Y-162572499D01*
X234950000Y-162172499D02*
X234950000Y-162572499D01*
%TO.C,C47*%
X124562500Y-105022499D02*
X124562500Y-105422499D01*
X125412500Y-105022499D02*
X125412500Y-105422499D01*
%TO.C,C190*%
X176712500Y-62159999D02*
X176712500Y-62559999D01*
X177562500Y-62159999D02*
X177562500Y-62559999D01*
%TO.C,U51*%
X158387500Y-112653124D02*
X160587500Y-112653124D01*
X158387500Y-120723124D02*
X160587500Y-120723124D01*
X162787500Y-112653124D02*
X160587500Y-112653124D01*
X162787500Y-120723124D02*
X160587500Y-120723124D01*
X156727500Y-120263124D02*
X156397500Y-120503124D01*
X156397500Y-120023124D01*
X156727500Y-120263124D01*
G36*
X156727500Y-120263124D02*
G01*
X156397500Y-120503124D01*
X156397500Y-120023124D01*
X156727500Y-120263124D01*
G37*
D14*
%TO.C,U49*%
X138335000Y-144092500D02*
X138335000Y-144742499D01*
X138335000Y-144092500D02*
X138335000Y-143442499D01*
X135215000Y-144092500D02*
X135215000Y-144742499D01*
X135215000Y-144092500D02*
X135215000Y-142417499D01*
D13*
%TO.C,C186*%
X95750000Y-62159999D02*
X95750000Y-62559999D01*
X96600000Y-62159999D02*
X96600000Y-62559999D01*
%TO.C,C134*%
X264818750Y-143122499D02*
X264818750Y-143522499D01*
X265668750Y-143122499D02*
X265668750Y-143522499D01*
%TO.C,C21*%
X294538750Y-68972499D02*
X294138750Y-68972499D01*
X294538750Y-69822499D02*
X294138750Y-69822499D01*
D14*
%TO.C,U61*%
X176435000Y-144092500D02*
X176435000Y-144742499D01*
X176435000Y-144092500D02*
X176435000Y-143442499D01*
X173315000Y-144092500D02*
X173315000Y-144742499D01*
X173315000Y-144092500D02*
X173315000Y-142417499D01*
%TO.C,U46*%
X133572500Y-86942500D02*
X133572500Y-87592499D01*
X133572500Y-86942500D02*
X133572500Y-86292499D01*
X130452500Y-86942500D02*
X130452500Y-87592499D01*
X130452500Y-86942500D02*
X130452500Y-85267499D01*
%TO.C,U76*%
X228822500Y-86942500D02*
X228822500Y-87592499D01*
X228822500Y-86942500D02*
X228822500Y-86292499D01*
X225702500Y-86942500D02*
X225702500Y-87592499D01*
X225702500Y-86942500D02*
X225702500Y-85267499D01*
D13*
%TO.C,C106*%
X127487500Y-119838124D02*
X127887500Y-119838124D01*
X127487500Y-120688124D02*
X127887500Y-120688124D01*
%TO.C,C154*%
X329350000Y-85972499D02*
X329350000Y-86372499D01*
X330200000Y-85972499D02*
X330200000Y-86372499D01*
%TO.C,C168*%
X305300000Y-162172499D02*
X305300000Y-162572499D01*
X306150000Y-162172499D02*
X306150000Y-162572499D01*
D14*
%TO.C,U98*%
X281210000Y-163792499D02*
X281210000Y-163142499D01*
X281210000Y-162492499D02*
X281210000Y-163142499D01*
X278090000Y-163792499D02*
X278090000Y-163142499D01*
X278090000Y-161467499D02*
X278090000Y-163142499D01*
D13*
%TO.C,C148*%
X43362500Y-162172499D02*
X43362500Y-162572499D01*
X44212500Y-162172499D02*
X44212500Y-162572499D01*
%TO.C,C91*%
X81462500Y-105022499D02*
X81462500Y-105422499D01*
X82312500Y-105022499D02*
X82312500Y-105422499D01*
%TO.C,C159*%
X252912500Y-162172499D02*
X252912500Y-162572499D01*
X253762500Y-162172499D02*
X253762500Y-162572499D01*
%TO.C,C121*%
X200525000Y-124072499D02*
X200525000Y-124472499D01*
X201375000Y-124072499D02*
X201375000Y-124472499D01*
%TO.C,U100*%
X304615000Y-135699999D02*
X305065000Y-135699999D01*
X304615000Y-136149999D02*
X304615000Y-135699999D01*
X304615000Y-142469999D02*
X304615000Y-142919999D01*
X304615000Y-142919999D02*
X305065000Y-142919999D01*
X311835000Y-135699999D02*
X311385000Y-135699999D01*
X311835000Y-136149999D02*
X311835000Y-135699999D01*
X311835000Y-142469999D02*
X311835000Y-142919999D01*
X311835000Y-142919999D02*
X311385000Y-142919999D01*
X312425000Y-136149999D02*
X312085000Y-135679999D01*
X312765000Y-135679999D01*
X312425000Y-136149999D01*
G36*
X312425000Y-136149999D02*
G01*
X312085000Y-135679999D01*
X312765000Y-135679999D01*
X312425000Y-136149999D01*
G37*
D14*
%TO.C,U2*%
X43085000Y-63130000D02*
X43085000Y-63779999D01*
X43085000Y-63130000D02*
X43085000Y-62479999D01*
X39965000Y-63130000D02*
X39965000Y-63779999D01*
X39965000Y-63130000D02*
X39965000Y-61454999D01*
D13*
%TO.C,C61*%
X138850000Y-143122499D02*
X138850000Y-143522499D01*
X139700000Y-143122499D02*
X139700000Y-143522499D01*
D14*
%TO.C,U1*%
X19272500Y-63130000D02*
X19272500Y-63779999D01*
X19272500Y-63130000D02*
X19272500Y-62479999D01*
X16152500Y-63130000D02*
X16152500Y-63779999D01*
X16152500Y-63130000D02*
X16152500Y-61454999D01*
%TO.C,U80*%
X309785000Y-86942500D02*
X309785000Y-87592499D01*
X309785000Y-86942500D02*
X309785000Y-86292499D01*
X306665000Y-86942500D02*
X306665000Y-87592499D01*
X306665000Y-86942500D02*
X306665000Y-85267499D01*
D13*
%TO.C,SW1*%
X310350000Y-129259999D02*
X314490000Y-129259999D01*
X310350000Y-129559999D02*
X310350000Y-129259999D01*
X310350000Y-132399999D02*
X310350000Y-132099999D01*
X314490000Y-129259999D02*
X314490000Y-129559999D01*
X314490000Y-132099999D02*
X314490000Y-132399999D01*
X314490000Y-132399999D02*
X310350000Y-132399999D01*
%TO.C,C84*%
X243625000Y-124072499D02*
X243625000Y-124472499D01*
X244475000Y-124072499D02*
X244475000Y-124472499D01*
D14*
%TO.C,U24*%
X71660000Y-125042500D02*
X71660000Y-125692499D01*
X71660000Y-125042500D02*
X71660000Y-124392499D01*
X68540000Y-125042500D02*
X68540000Y-125692499D01*
X68540000Y-125042500D02*
X68540000Y-123367499D01*
D13*
%TO.C,U15*%
X120287500Y-112653124D02*
X122487500Y-112653124D01*
X120287500Y-120723124D02*
X122487500Y-120723124D01*
X124687500Y-112653124D02*
X122487500Y-112653124D01*
X124687500Y-120723124D02*
X122487500Y-120723124D01*
X118627500Y-120263124D02*
X118297500Y-120503124D01*
X118297500Y-120023124D01*
X118627500Y-120263124D01*
G36*
X118627500Y-120263124D02*
G01*
X118297500Y-120503124D01*
X118297500Y-120023124D01*
X118627500Y-120263124D01*
G37*
%TO.C,C42*%
X110275000Y-124072499D02*
X110275000Y-124472499D01*
X111125000Y-124072499D02*
X111125000Y-124472499D01*
%TO.C,C48*%
X129325000Y-124072499D02*
X129325000Y-124472499D01*
X130175000Y-124072499D02*
X130175000Y-124472499D01*
%TO.C,C120*%
X219575000Y-124072499D02*
X219575000Y-124472499D01*
X220425000Y-124072499D02*
X220425000Y-124472499D01*
%TO.C,C115*%
X276725000Y-105022499D02*
X276725000Y-105422499D01*
X277575000Y-105022499D02*
X277575000Y-105422499D01*
%TD*%
%LPC*%
D16*
%TO.C,D1*%
X22261250Y-130102499D03*
X27451250Y-130102499D03*
%TD*%
D17*
%TO.C,H16*%
X293431250Y-134547499D03*
X292882075Y-135873324D03*
X292882075Y-133221674D03*
X291556250Y-136422499D03*
D18*
X291556250Y-134547499D03*
D17*
X291556250Y-132672499D03*
X290230425Y-135873324D03*
X290230425Y-133221674D03*
X289681250Y-134547499D03*
%TD*%
%TO.C,H13*%
X338674622Y-74110009D03*
X338125447Y-75435834D03*
X338125447Y-72784184D03*
X336799622Y-75985009D03*
D18*
X336799622Y-74110009D03*
D17*
X336799622Y-72235009D03*
X335473797Y-75435834D03*
X335473797Y-72784184D03*
X334924622Y-74110009D03*
%TD*%
%TO.C,H14*%
X35065247Y-163122509D03*
X34516072Y-164448334D03*
X34516072Y-161796684D03*
X33190247Y-164997509D03*
D18*
X33190247Y-163122509D03*
D17*
X33190247Y-161247509D03*
X31864422Y-164448334D03*
X31864422Y-161796684D03*
X31315247Y-163122509D03*
%TD*%
%TO.C,H11*%
X212468750Y-96447499D03*
X211919575Y-97773324D03*
X211919575Y-95121674D03*
X210593750Y-98322499D03*
D18*
X210593750Y-96447499D03*
D17*
X210593750Y-94572499D03*
X209267925Y-97773324D03*
X209267925Y-95121674D03*
X208718750Y-96447499D03*
%TD*%
%TO.C,H5*%
X193199744Y-74110009D03*
X192650569Y-75435834D03*
X192650569Y-72784184D03*
X191324744Y-75985009D03*
D18*
X191324744Y-74110009D03*
D17*
X191324744Y-72235009D03*
X189998919Y-75435834D03*
X189998919Y-72784184D03*
X189449744Y-74110009D03*
%TD*%
D19*
%TO.C,J5*%
X298450000Y-127019999D03*
D20*
X298450000Y-129559999D03*
X300990000Y-127019999D03*
X300990000Y-129559999D03*
X303530000Y-127019999D03*
X303530000Y-129559999D03*
%TD*%
D17*
%TO.C,H4*%
X14349622Y-114497509D03*
X13800447Y-115823334D03*
X13800447Y-113171684D03*
X12474622Y-116372509D03*
D18*
X12474622Y-114497509D03*
D17*
X12474622Y-112622509D03*
X11148797Y-115823334D03*
X11148797Y-113171684D03*
X10599622Y-114497509D03*
%TD*%
%TO.C,H10*%
X302956250Y-96447499D03*
X302407075Y-97773324D03*
X302407075Y-95121674D03*
X301081250Y-98322499D03*
D18*
X301081250Y-96447499D03*
D17*
X301081250Y-94572499D03*
X299755425Y-97773324D03*
X299755425Y-95121674D03*
X299206250Y-96447499D03*
%TD*%
%TO.C,H1*%
X112586744Y-74110009D03*
X112037569Y-75435834D03*
X112037569Y-72784184D03*
X110711744Y-75985009D03*
D18*
X110711744Y-74110009D03*
D17*
X110711744Y-72235009D03*
X109385919Y-75435834D03*
X109385919Y-72784184D03*
X108836744Y-74110009D03*
%TD*%
%TO.C,H18*%
X217231250Y-134547499D03*
X216682075Y-135873324D03*
X216682075Y-133221674D03*
X215356250Y-136422499D03*
D18*
X215356250Y-134547499D03*
D17*
X215356250Y-132672499D03*
X214030425Y-135873324D03*
X214030425Y-133221674D03*
X213481250Y-134547499D03*
%TD*%
%TO.C,H12*%
X31586744Y-74110009D03*
X31037569Y-75435834D03*
X31037569Y-72784184D03*
X29711744Y-75985009D03*
D18*
X29711744Y-74110009D03*
D17*
X29711744Y-72235009D03*
X28385919Y-75435834D03*
X28385919Y-72784184D03*
X27836744Y-74110009D03*
%TD*%
%TO.C,H17*%
X98168750Y-96447499D03*
X97619575Y-97773324D03*
X97619575Y-95121674D03*
X96293750Y-98322499D03*
D18*
X96293750Y-96447499D03*
D17*
X96293750Y-94572499D03*
X94967925Y-97773324D03*
X94967925Y-95121674D03*
X94418750Y-96447499D03*
%TD*%
%TO.C,H2*%
X280199744Y-74110009D03*
X279650569Y-75435834D03*
X279650569Y-72784184D03*
X278324744Y-75985009D03*
D18*
X278324744Y-74110009D03*
D17*
X278324744Y-72235009D03*
X276998919Y-75435834D03*
X276998919Y-72784184D03*
X276449744Y-74110009D03*
%TD*%
%TO.C,H3*%
X102931250Y-134547499D03*
X102382075Y-135873324D03*
X102382075Y-133221674D03*
X101056250Y-136422499D03*
D18*
X101056250Y-134547499D03*
D17*
X101056250Y-132672499D03*
X99730425Y-135873324D03*
X99730425Y-133221674D03*
X99181250Y-134547499D03*
%TD*%
%TO.C,H15*%
X270808997Y-163122509D03*
X270259822Y-164448334D03*
X270259822Y-161796684D03*
X268933997Y-164997509D03*
D18*
X268933997Y-163122509D03*
D17*
X268933997Y-161247509D03*
X267608172Y-164448334D03*
X267608172Y-161796684D03*
X267058997Y-163122509D03*
%TD*%
%TO.C,H8*%
X344199744Y-147122519D03*
X343650569Y-148448344D03*
X343650569Y-145796694D03*
X342324744Y-148997519D03*
D18*
X342324744Y-147122519D03*
D17*
X342324744Y-145247519D03*
X340998919Y-148448344D03*
X340998919Y-145796694D03*
X340449744Y-147122519D03*
%TD*%
%TO.C,H7*%
X163437500Y-166122499D03*
X162888325Y-167448324D03*
X162888325Y-164796674D03*
X161562500Y-167997499D03*
D18*
X161562500Y-166122499D03*
D17*
X161562500Y-164247499D03*
X160236675Y-167448324D03*
X160236675Y-164796674D03*
X159687500Y-166122499D03*
%TD*%
D21*
%TO.C,C33*%
X53312500Y-86652499D03*
X53312500Y-85692499D03*
%TD*%
%TO.C,C73*%
X177375000Y-143802499D03*
X177375000Y-142842499D03*
%TD*%
%TO.C,C1*%
X20212500Y-62839999D03*
X20212500Y-61879999D03*
%TD*%
%TO.C,C160*%
X277150000Y-162852499D03*
X277150000Y-161892499D03*
%TD*%
%TO.C,C60*%
X167850000Y-124752499D03*
X167850000Y-123792499D03*
%TD*%
D22*
%TO.C,C109*%
X204367500Y-120263124D03*
X203407500Y-120263124D03*
%TD*%
D21*
%TO.C,C195*%
X281912500Y-62839999D03*
X281912500Y-61879999D03*
%TD*%
%TO.C,C152*%
X329775000Y-62839999D03*
X329775000Y-61879999D03*
%TD*%
D23*
%TO.C,U25*%
X61525000Y-142917499D03*
X60575000Y-145267499D03*
X59625000Y-142917499D03*
D24*
X55495001Y-144072499D03*
X65654999Y-144072499D03*
%TD*%
D21*
%TO.C,C22*%
X39262500Y-86652499D03*
X39262500Y-85692499D03*
%TD*%
D23*
%TO.C,U23*%
X66287500Y-104817499D03*
X65337500Y-107167499D03*
X64387500Y-104817499D03*
D24*
X60257501Y-105972499D03*
X70417499Y-105972499D03*
%TD*%
D21*
%TO.C,C125*%
X143800000Y-124752499D03*
X143800000Y-123792499D03*
%TD*%
%TO.C,C23*%
X48787500Y-105702499D03*
X48787500Y-104742499D03*
%TD*%
%TO.C,C108*%
X310725000Y-62839999D03*
X310725000Y-61879999D03*
%TD*%
D25*
%TO.C,C199*%
X304064411Y-134470588D03*
X303385589Y-135149410D03*
%TD*%
D23*
%TO.C,U96*%
X347275000Y-161967499D03*
X346325000Y-164317499D03*
X345375000Y-161967499D03*
D24*
X341245001Y-163122499D03*
X351404999Y-163122499D03*
%TD*%
D23*
%TO.C,U26*%
X142487500Y-61954999D03*
X141537500Y-64304999D03*
X140587500Y-61954999D03*
D24*
X136457501Y-63109999D03*
X146617499Y-63109999D03*
%TD*%
D23*
%TO.C,U27*%
X161537500Y-61954999D03*
X160587500Y-64304999D03*
X159637500Y-61954999D03*
D24*
X155507501Y-63109999D03*
X165667499Y-63109999D03*
%TD*%
D26*
%TO.C,J2*%
X297818750Y-82172499D03*
X296818750Y-82172499D03*
X295818750Y-82172499D03*
X294818750Y-82172499D03*
D27*
X299118750Y-78297499D03*
X293518750Y-78297499D03*
%TD*%
D21*
%TO.C,C18*%
X27356250Y-124752499D03*
X27356250Y-123792499D03*
%TD*%
%TO.C,C2*%
X44025000Y-62839999D03*
X44025000Y-61879999D03*
%TD*%
%TO.C,C123*%
X181900000Y-124752499D03*
X181900000Y-123792499D03*
%TD*%
%TO.C,C17*%
X24975000Y-105702499D03*
X24975000Y-104742499D03*
%TD*%
D23*
%TO.C,U30*%
X90100000Y-123867499D03*
X89150000Y-126217499D03*
X88200000Y-123867499D03*
D24*
X84070001Y-125022499D03*
X94229999Y-125022499D03*
%TD*%
D21*
%TO.C,C105*%
X196187500Y-105702499D03*
X196187500Y-104742499D03*
%TD*%
D23*
%TO.C,U38*%
X204400000Y-61954999D03*
X203450000Y-64304999D03*
X202500000Y-61954999D03*
D24*
X198370001Y-63109999D03*
X208529999Y-63109999D03*
%TD*%
D21*
%TO.C,C99*%
X139037500Y-105702499D03*
X139037500Y-104742499D03*
%TD*%
%TO.C,C122*%
X67600000Y-124752499D03*
X67600000Y-123792499D03*
%TD*%
%TO.C,C71*%
X201187500Y-105702499D03*
X201187500Y-104742499D03*
%TD*%
%TO.C,C179*%
X324775000Y-143802499D03*
X324775000Y-142842499D03*
%TD*%
%TO.C,C81*%
X225000000Y-62839999D03*
X225000000Y-61879999D03*
%TD*%
%TO.C,C151*%
X310725000Y-162852499D03*
X310725000Y-161892499D03*
%TD*%
D23*
%TO.C,U66*%
X204400000Y-123867499D03*
X203450000Y-126217499D03*
X202500000Y-123867499D03*
D24*
X198370001Y-125022499D03*
X208529999Y-125022499D03*
%TD*%
D21*
%TO.C,C44*%
X110462500Y-86652499D03*
X110462500Y-85692499D03*
%TD*%
%TO.C,C19*%
X32118750Y-143802499D03*
X32118750Y-142842499D03*
%TD*%
%TO.C,C98*%
X286912500Y-62839999D03*
X286912500Y-61879999D03*
%TD*%
D23*
%TO.C,U13*%
X80575000Y-61954999D03*
X79625000Y-64304999D03*
X78675000Y-61954999D03*
D24*
X74545001Y-63109999D03*
X84704999Y-63109999D03*
%TD*%
D21*
%TO.C,C24*%
X53550000Y-124752499D03*
X53550000Y-123792499D03*
%TD*%
D23*
%TO.C,U20*%
X123437500Y-61954999D03*
X122487500Y-64304999D03*
X121537500Y-61954999D03*
D24*
X117407501Y-63109999D03*
X127567499Y-63109999D03*
%TD*%
D23*
%TO.C,U72*%
X223450000Y-123867499D03*
X222500000Y-126217499D03*
X221550000Y-123867499D03*
D24*
X217420001Y-125022499D03*
X227579999Y-125022499D03*
%TD*%
D21*
%TO.C,C117*%
X19975000Y-105702499D03*
X19975000Y-104742499D03*
%TD*%
%TO.C,C30*%
X72600000Y-124752499D03*
X72600000Y-123792499D03*
%TD*%
D23*
%TO.C,U79*%
X232975000Y-142917499D03*
X232025000Y-145267499D03*
X231075000Y-142917499D03*
D24*
X226945001Y-144072499D03*
X237104999Y-144072499D03*
%TD*%
D21*
%TO.C,C128*%
X86650000Y-124752499D03*
X86650000Y-123792499D03*
%TD*%
D28*
%TO.C,R10*%
X20497500Y-130397500D03*
X20497500Y-129377500D03*
%TD*%
D23*
%TO.C,U44*%
X242500000Y-61954999D03*
X241550000Y-64304999D03*
X240600000Y-61954999D03*
D24*
X236470001Y-63109999D03*
X246629999Y-63109999D03*
%TD*%
D21*
%TO.C,C56*%
X272387500Y-86652499D03*
X272387500Y-85692499D03*
%TD*%
D23*
%TO.C,U32*%
X180587500Y-61954999D03*
X179637500Y-64304999D03*
X178687500Y-61954999D03*
D24*
X174557501Y-63109999D03*
X184717499Y-63109999D03*
%TD*%
D23*
%TO.C,U9*%
X61525000Y-61954999D03*
X60575000Y-64304999D03*
X59625000Y-61954999D03*
D24*
X55495001Y-63109999D03*
X65654999Y-63109999D03*
%TD*%
D29*
%TO.C,U63*%
X298618750Y-67047499D03*
X296318750Y-67047499D03*
D30*
X296318750Y-60747499D03*
D29*
X294018750Y-67047499D03*
%TD*%
D23*
%TO.C,U94*%
X309175000Y-161967499D03*
X308225000Y-164317499D03*
X307275000Y-161967499D03*
D24*
X303145001Y-163122499D03*
X313304999Y-163122499D03*
%TD*%
D21*
%TO.C,C35*%
X86887500Y-105702499D03*
X86887500Y-104742499D03*
%TD*%
%TO.C,C36*%
X91650000Y-124752499D03*
X91650000Y-123792499D03*
%TD*%
D23*
%TO.C,U55*%
X156775000Y-142917499D03*
X155825000Y-145267499D03*
X154875000Y-142917499D03*
D24*
X150745001Y-144072499D03*
X160904999Y-144072499D03*
%TD*%
D21*
%TO.C,C50*%
X163087500Y-62839999D03*
X163087500Y-61879999D03*
%TD*%
%TO.C,C58*%
X153562500Y-86652499D03*
X153562500Y-85692499D03*
%TD*%
D31*
%TO.C,C200*%
X303385589Y-143470588D03*
X304064411Y-144149410D03*
%TD*%
D23*
%TO.C,U82*%
X247262500Y-85767499D03*
X246312500Y-88117499D03*
X245362500Y-85767499D03*
D24*
X241232501Y-86922499D03*
X251392499Y-86922499D03*
%TD*%
D21*
%TO.C,C173*%
X282150000Y-162852499D03*
X282150000Y-161892499D03*
%TD*%
D23*
%TO.C,U77*%
X237737500Y-104817499D03*
X236787500Y-107167499D03*
X235837500Y-104817499D03*
D24*
X231707501Y-105972499D03*
X241867499Y-105972499D03*
%TD*%
D21*
%TO.C,C171*%
X72600000Y-162852499D03*
X72600000Y-161892499D03*
%TD*%
D32*
%TO.C,U62*%
X195825000Y-120263124D03*
X195825000Y-119613124D03*
X195825000Y-118963124D03*
X195825000Y-118313124D03*
X195825000Y-117663124D03*
X195825000Y-117013124D03*
X195825000Y-116363124D03*
X195825000Y-115713124D03*
X195825000Y-115063124D03*
X195825000Y-114413124D03*
X195825000Y-113763124D03*
X195825000Y-113113124D03*
X201550000Y-113113124D03*
X201550000Y-113763124D03*
X201550000Y-114413124D03*
X201550000Y-115063124D03*
X201550000Y-115713124D03*
X201550000Y-116363124D03*
X201550000Y-117013124D03*
X201550000Y-117663124D03*
X201550000Y-118313124D03*
X201550000Y-118963124D03*
X201550000Y-119613124D03*
X201550000Y-120263124D03*
%TD*%
D21*
%TO.C,C129*%
X105700000Y-124752499D03*
X105700000Y-123792499D03*
%TD*%
%TO.C,C161*%
X348825000Y-62839999D03*
X348825000Y-61879999D03*
%TD*%
%TO.C,C127*%
X48550000Y-124752499D03*
X48550000Y-123792499D03*
%TD*%
D23*
%TO.C,U58*%
X171062500Y-85767499D03*
X170112500Y-88117499D03*
X169162500Y-85767499D03*
D24*
X165032501Y-86922499D03*
X175192499Y-86922499D03*
%TD*%
D23*
%TO.C,U31*%
X80575000Y-142917499D03*
X79625000Y-145267499D03*
X78675000Y-142917499D03*
D24*
X74545001Y-144072499D03*
X84704999Y-144072499D03*
%TD*%
D21*
%TO.C,C181*%
X343825000Y-86652499D03*
X343825000Y-85692499D03*
%TD*%
D23*
%TO.C,U89*%
X280600000Y-104817499D03*
X279650000Y-107167499D03*
X278700000Y-104817499D03*
D24*
X274570000Y-105972499D03*
X284730000Y-105972499D03*
%TD*%
D21*
%TO.C,C162*%
X348825000Y-86652499D03*
X348825000Y-85692499D03*
%TD*%
D23*
%TO.C,U92*%
X256787500Y-161967499D03*
X255837500Y-164317499D03*
X254887500Y-161967499D03*
D24*
X250757501Y-163122499D03*
X260917499Y-163122499D03*
%TD*%
D23*
%TO.C,U37*%
X99625000Y-142917499D03*
X98675000Y-145267499D03*
X97725000Y-142917499D03*
D24*
X93595001Y-144072499D03*
X103754999Y-144072499D03*
%TD*%
D23*
%TO.C,U18*%
X52000000Y-123867499D03*
X51050000Y-126217499D03*
X50100000Y-123867499D03*
D24*
X45970001Y-125022499D03*
X56129999Y-125022499D03*
%TD*%
D32*
%TO.C,U69*%
X267262500Y-120263124D03*
X267262500Y-119613124D03*
X267262500Y-118963124D03*
X267262500Y-118313124D03*
X267262500Y-117663124D03*
X267262500Y-117013124D03*
X267262500Y-116363124D03*
X267262500Y-115713124D03*
X267262500Y-115063124D03*
X267262500Y-114413124D03*
X267262500Y-113763124D03*
X267262500Y-113113124D03*
X272987500Y-113113124D03*
X272987500Y-113763124D03*
X272987500Y-114413124D03*
X272987500Y-115063124D03*
X272987500Y-115713124D03*
X272987500Y-116363124D03*
X272987500Y-117013124D03*
X272987500Y-117663124D03*
X272987500Y-118313124D03*
X272987500Y-118963124D03*
X272987500Y-119613124D03*
X272987500Y-120263124D03*
%TD*%
D21*
%TO.C,C189*%
X158087500Y-62839999D03*
X158087500Y-61879999D03*
%TD*%
%TO.C,C66*%
X186900000Y-124752499D03*
X186900000Y-123792499D03*
%TD*%
%TO.C,C141*%
X77125000Y-143802499D03*
X77125000Y-142842499D03*
%TD*%
D23*
%TO.C,U65*%
X199637500Y-104817499D03*
X198687500Y-107167499D03*
X197737500Y-104817499D03*
D24*
X193607501Y-105972499D03*
X203767499Y-105972499D03*
%TD*%
D21*
%TO.C,C72*%
X205950000Y-124752499D03*
X205950000Y-123792499D03*
%TD*%
D22*
%TO.C,C156*%
X275805000Y-120263124D03*
X274845000Y-120263124D03*
%TD*%
D21*
%TO.C,C41*%
X105937500Y-105702499D03*
X105937500Y-104742499D03*
%TD*%
%TO.C,C167*%
X15212500Y-62839999D03*
X15212500Y-61879999D03*
%TD*%
%TO.C,C95*%
X282150000Y-105702499D03*
X282150000Y-104742499D03*
%TD*%
D23*
%TO.C,U10*%
X18662500Y-85767499D03*
X17712500Y-88117499D03*
X16762500Y-85767499D03*
D24*
X12632501Y-86922499D03*
X22792499Y-86922499D03*
%TD*%
D21*
%TO.C,C34*%
X77362500Y-86652499D03*
X77362500Y-85692499D03*
%TD*%
D23*
%TO.C,U97*%
X328225000Y-142917499D03*
X327275000Y-145267499D03*
X326325000Y-142917499D03*
D24*
X322195001Y-144072499D03*
X332354999Y-144072499D03*
%TD*%
D23*
%TO.C,U87*%
X347275000Y-85767499D03*
X346325000Y-88117499D03*
X345375000Y-85767499D03*
D24*
X341245001Y-86922499D03*
X351404999Y-86922499D03*
%TD*%
D23*
%TO.C,U12*%
X25806250Y-123867499D03*
X24856250Y-126217499D03*
X23906250Y-123867499D03*
D24*
X19776250Y-125022499D03*
X29936250Y-125022499D03*
%TD*%
D21*
%TO.C,C183*%
X58075000Y-62839999D03*
X58075000Y-61879999D03*
%TD*%
D23*
%TO.C,U86*%
X328225000Y-85767499D03*
X327275000Y-88117499D03*
X326325000Y-85767499D03*
D24*
X322195001Y-86922499D03*
X332354999Y-86922499D03*
%TD*%
D23*
%TO.C,U57*%
X268693750Y-142917499D03*
X267743750Y-145267499D03*
X266793750Y-142917499D03*
D33*
X255837500Y-137087499D03*
D34*
X255837500Y-152327499D03*
D24*
X262663750Y-144072499D03*
X272823750Y-144072499D03*
D33*
X279650000Y-137087499D03*
D34*
X279650000Y-152327499D03*
%TD*%
D21*
%TO.C,C28*%
X58312500Y-86652499D03*
X58312500Y-85692499D03*
%TD*%
D23*
%TO.C,U83*%
X256787500Y-104817499D03*
X255837500Y-107167499D03*
X254887500Y-104817499D03*
D24*
X250757501Y-105972499D03*
X260917499Y-105972499D03*
%TD*%
D21*
%TO.C,C140*%
X153325000Y-143802499D03*
X153325000Y-142842499D03*
%TD*%
%TO.C,C86*%
X244050000Y-62839999D03*
X244050000Y-61879999D03*
%TD*%
D23*
%TO.C,U33*%
X30568750Y-142917499D03*
X29618750Y-145267499D03*
X28668750Y-142917499D03*
D33*
X17712500Y-137087499D03*
D34*
X17712500Y-152327499D03*
D24*
X24538750Y-144072499D03*
X34698750Y-144072499D03*
D33*
X41525000Y-137087499D03*
D34*
X41525000Y-152327499D03*
%TD*%
D21*
%TO.C,C96*%
X119987500Y-105702499D03*
X119987500Y-104742499D03*
%TD*%
%TO.C,C43*%
X82125000Y-143802499D03*
X82125000Y-142842499D03*
%TD*%
%TO.C,C93*%
X43787500Y-105702499D03*
X43787500Y-104742499D03*
%TD*%
%TO.C,C130*%
X22356250Y-124752499D03*
X22356250Y-123792499D03*
%TD*%
D22*
%TO.C,C164*%
X346051875Y-120263124D03*
X345091875Y-120263124D03*
%TD*%
D23*
%TO.C,U93*%
X328225000Y-61954999D03*
X327275000Y-64304999D03*
X326325000Y-61954999D03*
D24*
X322195001Y-63109999D03*
X332354999Y-63109999D03*
%TD*%
D21*
%TO.C,C89*%
X258337500Y-105702499D03*
X258337500Y-104742499D03*
%TD*%
%TO.C,C194*%
X258100000Y-62839999D03*
X258100000Y-61879999D03*
%TD*%
%TO.C,C63*%
X167612500Y-86652499D03*
X167612500Y-85692499D03*
%TD*%
%TO.C,C88*%
X248812500Y-86652499D03*
X248812500Y-85692499D03*
%TD*%
D23*
%TO.C,U17*%
X47237500Y-104817499D03*
X46287500Y-107167499D03*
X45337500Y-104817499D03*
D24*
X41207501Y-105972499D03*
X51367499Y-105972499D03*
%TD*%
D21*
%TO.C,C62*%
X182137500Y-62839999D03*
X182137500Y-61879999D03*
%TD*%
%TO.C,C37*%
X63075000Y-143802499D03*
X63075000Y-142842499D03*
%TD*%
D23*
%TO.C,U88*%
X309175000Y-104817499D03*
X308225000Y-107167499D03*
X307275000Y-104817499D03*
D24*
X303145001Y-105972499D03*
X313304999Y-105972499D03*
%TD*%
D21*
%TO.C,C137*%
X210475000Y-143802499D03*
X210475000Y-142842499D03*
%TD*%
%TO.C,C188*%
X139037500Y-62839999D03*
X139037500Y-61879999D03*
%TD*%
%TO.C,C5*%
X101175000Y-62839999D03*
X101175000Y-61879999D03*
%TD*%
D23*
%TO.C,U3*%
X275837500Y-85767499D03*
X274887500Y-88117499D03*
X273937500Y-85767499D03*
D33*
X262981250Y-79937499D03*
D34*
X262981250Y-95177499D03*
D24*
X269807500Y-86922499D03*
X279967500Y-86922499D03*
D33*
X286793750Y-79937499D03*
D34*
X286793750Y-95177499D03*
%TD*%
D21*
%TO.C,C113*%
X270006250Y-124752499D03*
X270006250Y-123792499D03*
%TD*%
%TO.C,C52*%
X134512500Y-86652499D03*
X134512500Y-85692499D03*
%TD*%
%TO.C,C51*%
X15212500Y-86652499D03*
X15212500Y-85692499D03*
%TD*%
%TO.C,C85*%
X215475000Y-143802499D03*
X215475000Y-142842499D03*
%TD*%
%TO.C,C124*%
X162850000Y-124752499D03*
X162850000Y-123792499D03*
%TD*%
D32*
%TO.C,U74*%
X337509375Y-120263124D03*
X337509375Y-119613124D03*
X337509375Y-118963124D03*
X337509375Y-118313124D03*
X337509375Y-117663124D03*
X337509375Y-117013124D03*
X337509375Y-116363124D03*
X337509375Y-115713124D03*
X337509375Y-115063124D03*
X337509375Y-114413124D03*
X337509375Y-113763124D03*
X337509375Y-113113124D03*
X343234375Y-113113124D03*
X343234375Y-113763124D03*
X343234375Y-114413124D03*
X343234375Y-115063124D03*
X343234375Y-115713124D03*
X343234375Y-116363124D03*
X343234375Y-117013124D03*
X343234375Y-117663124D03*
X343234375Y-118313124D03*
X343234375Y-118963124D03*
X343234375Y-119613124D03*
X343234375Y-120263124D03*
%TD*%
D21*
%TO.C,C118*%
X310725000Y-105702499D03*
X310725000Y-104742499D03*
%TD*%
D23*
%TO.C,U34*%
X94862500Y-85767499D03*
X93912500Y-88117499D03*
X92962500Y-85767499D03*
D24*
X88832501Y-86922499D03*
X98992499Y-86922499D03*
%TD*%
D23*
%TO.C,U35*%
X104387500Y-104817499D03*
X103437500Y-107167499D03*
X102487500Y-104817499D03*
D24*
X98357501Y-105972499D03*
X108517499Y-105972499D03*
%TD*%
D21*
%TO.C,C53*%
X144037500Y-105702499D03*
X144037500Y-104742499D03*
%TD*%
%TO.C,C191*%
X200950000Y-62839999D03*
X200950000Y-61879999D03*
%TD*%
%TO.C,C80*%
X243812500Y-86652499D03*
X243812500Y-85692499D03*
%TD*%
%TO.C,C107*%
X270243750Y-143802499D03*
X270243750Y-142842499D03*
%TD*%
%TO.C,C196*%
X305725000Y-62839999D03*
X305725000Y-61879999D03*
%TD*%
%TO.C,C193*%
X239050000Y-62839999D03*
X239050000Y-61879999D03*
%TD*%
%TO.C,C139*%
X172375000Y-143802499D03*
X172375000Y-142842499D03*
%TD*%
%TO.C,C177*%
X39025000Y-62839999D03*
X39025000Y-61879999D03*
%TD*%
%TO.C,C143*%
X115225000Y-143802499D03*
X115225000Y-142842499D03*
%TD*%
%TO.C,C111*%
X215237500Y-105702499D03*
X215237500Y-104742499D03*
%TD*%
D23*
%TO.C,U6*%
X71050000Y-161967499D03*
X70100000Y-164317499D03*
X69150000Y-161967499D03*
D24*
X65020000Y-163122499D03*
X75180000Y-163122499D03*
%TD*%
D21*
%TO.C,C76*%
X210712500Y-86652499D03*
X210712500Y-85692499D03*
%TD*%
%TO.C,C169*%
X24975000Y-162852499D03*
X24975000Y-161892499D03*
%TD*%
%TO.C,C45*%
X129512500Y-86652499D03*
X129512500Y-85692499D03*
%TD*%
%TO.C,C67*%
X158325000Y-143802499D03*
X158325000Y-142842499D03*
%TD*%
%TO.C,C133*%
X58075000Y-143802499D03*
X58075000Y-142842499D03*
%TD*%
%TO.C,C145*%
X329775000Y-143802499D03*
X329775000Y-142842499D03*
%TD*%
%TO.C,C29*%
X67837500Y-105702499D03*
X67837500Y-104742499D03*
%TD*%
D23*
%TO.C,U36*%
X109150000Y-123867499D03*
X108200000Y-126217499D03*
X107250000Y-123867499D03*
D24*
X103120001Y-125022499D03*
X113279999Y-125022499D03*
%TD*%
D21*
%TO.C,C150*%
X305725000Y-105702499D03*
X305725000Y-104742499D03*
%TD*%
D23*
%TO.C,U70*%
X209162500Y-85767499D03*
X208212500Y-88117499D03*
X207262500Y-85767499D03*
D24*
X203132501Y-86922499D03*
X213292499Y-86922499D03*
%TD*%
D23*
%TO.C,U8*%
X232975000Y-161967499D03*
X232025000Y-164317499D03*
X231075000Y-161967499D03*
D24*
X226945000Y-163122499D03*
X237105000Y-163122499D03*
%TD*%
D23*
%TO.C,U50*%
X285362500Y-61954999D03*
X284412500Y-64304999D03*
X283462500Y-61954999D03*
D24*
X279332501Y-63109999D03*
X289492499Y-63109999D03*
%TD*%
D21*
%TO.C,R9*%
X308975000Y-131789999D03*
X308975000Y-130829999D03*
%TD*%
D23*
%TO.C,U43*%
X118675000Y-142917499D03*
X117725000Y-145267499D03*
X116775000Y-142917499D03*
D24*
X112645001Y-144072499D03*
X122804999Y-144072499D03*
%TD*%
D21*
%TO.C,C79*%
X196425000Y-143802499D03*
X196425000Y-142842499D03*
%TD*%
D23*
%TO.C,U52*%
X152012500Y-85767499D03*
X151062500Y-88117499D03*
X150112500Y-85767499D03*
D24*
X145982501Y-86922499D03*
X156142499Y-86922499D03*
%TD*%
D21*
%TO.C,C6*%
X124987500Y-62839999D03*
X124987500Y-61879999D03*
%TD*%
D23*
%TO.C,U22*%
X56762500Y-85767499D03*
X55812500Y-88117499D03*
X54862500Y-85767499D03*
D24*
X50732501Y-86922499D03*
X60892499Y-86922499D03*
%TD*%
D21*
%TO.C,C97*%
X234525000Y-143802499D03*
X234525000Y-142842499D03*
%TD*%
%TO.C,C187*%
X119987500Y-62839999D03*
X119987500Y-61879999D03*
%TD*%
D23*
%TO.C,U5*%
X47237500Y-161967499D03*
X46287500Y-164317499D03*
X45337500Y-161967499D03*
D24*
X41207501Y-163122499D03*
X51367499Y-163122499D03*
%TD*%
D21*
%TO.C,C155*%
X329775000Y-105702499D03*
X329775000Y-104742499D03*
%TD*%
%TO.C,C75*%
X205950000Y-62839999D03*
X205950000Y-61879999D03*
%TD*%
D23*
%TO.C,U67*%
X194875000Y-142917499D03*
X193925000Y-145267499D03*
X192975000Y-142917499D03*
D24*
X188845001Y-144072499D03*
X199004999Y-144072499D03*
%TD*%
D21*
%TO.C,C126*%
X124750000Y-124752499D03*
X124750000Y-123792499D03*
%TD*%
D23*
%TO.C,U54*%
X166300000Y-123867499D03*
X165350000Y-126217499D03*
X164400000Y-123867499D03*
D24*
X160270001Y-125022499D03*
X170429999Y-125022499D03*
%TD*%
D21*
%TO.C,C31*%
X144037500Y-62839999D03*
X144037500Y-61879999D03*
%TD*%
D22*
%TO.C,R13*%
X299495000Y-137809999D03*
X300455000Y-137809999D03*
%TD*%
D23*
%TO.C,U53*%
X161537500Y-104817499D03*
X160587500Y-107167499D03*
X159637500Y-104817499D03*
D24*
X155507501Y-105972499D03*
X165667499Y-105972499D03*
%TD*%
D32*
%TO.C,U68*%
X233925000Y-120263124D03*
X233925000Y-119613124D03*
X233925000Y-118963124D03*
X233925000Y-118313124D03*
X233925000Y-117663124D03*
X233925000Y-117013124D03*
X233925000Y-116363124D03*
X233925000Y-115713124D03*
X233925000Y-115063124D03*
X233925000Y-114413124D03*
X233925000Y-113763124D03*
X233925000Y-113113124D03*
X239650000Y-113113124D03*
X239650000Y-113763124D03*
X239650000Y-114413124D03*
X239650000Y-115063124D03*
X239650000Y-115713124D03*
X239650000Y-116363124D03*
X239650000Y-117013124D03*
X239650000Y-117663124D03*
X239650000Y-118313124D03*
X239650000Y-118963124D03*
X239650000Y-119613124D03*
X239650000Y-120263124D03*
%TD*%
D21*
%TO.C,C64*%
X172612500Y-86652499D03*
X172612500Y-85692499D03*
%TD*%
D23*
%TO.C,U29*%
X85337500Y-104817499D03*
X84387500Y-107167499D03*
X83437500Y-104817499D03*
D24*
X79307501Y-105972499D03*
X89467499Y-105972499D03*
%TD*%
D21*
%TO.C,C49*%
X101175000Y-143802499D03*
X101175000Y-142842499D03*
%TD*%
%TO.C,C82*%
X229762500Y-86652499D03*
X229762500Y-85692499D03*
%TD*%
%TO.C,C138*%
X191425000Y-143802499D03*
X191425000Y-142842499D03*
%TD*%
D35*
%TO.C,C202*%
X312885589Y-135399410D03*
X313564411Y-134720588D03*
%TD*%
D21*
%TO.C,C178*%
X153562500Y-162852499D03*
X153562500Y-161892499D03*
%TD*%
%TO.C,C55*%
X120225000Y-143802499D03*
X120225000Y-142842499D03*
%TD*%
D23*
%TO.C,U91*%
X347275000Y-104817499D03*
X346325000Y-107167499D03*
X345375000Y-104817499D03*
D24*
X341245001Y-105972499D03*
X351404999Y-105972499D03*
%TD*%
D21*
%TO.C,C38*%
X72362500Y-86652499D03*
X72362500Y-85692499D03*
%TD*%
D23*
%TO.C,U40*%
X113912500Y-85767499D03*
X112962500Y-88117499D03*
X112012500Y-85767499D03*
D24*
X107882501Y-86922499D03*
X118042499Y-86922499D03*
%TD*%
D21*
%TO.C,C158*%
X229525000Y-162852499D03*
X229525000Y-161892499D03*
%TD*%
D32*
%TO.C,U21*%
X35090625Y-120263124D03*
X35090625Y-119613124D03*
X35090625Y-118963124D03*
X35090625Y-118313124D03*
X35090625Y-117663124D03*
X35090625Y-117013124D03*
X35090625Y-116363124D03*
X35090625Y-115713124D03*
X35090625Y-115063124D03*
X35090625Y-114413124D03*
X35090625Y-113763124D03*
X35090625Y-113113124D03*
X40815625Y-113113124D03*
X40815625Y-113763124D03*
X40815625Y-114413124D03*
X40815625Y-115063124D03*
X40815625Y-115713124D03*
X40815625Y-116363124D03*
X40815625Y-117013124D03*
X40815625Y-117663124D03*
X40815625Y-118313124D03*
X40815625Y-118963124D03*
X40815625Y-119613124D03*
X40815625Y-120263124D03*
%TD*%
D36*
%TO.C,SW2*%
X314520000Y-127019999D03*
X310320000Y-127019999D03*
%TD*%
D21*
%TO.C,C176*%
X324775000Y-105702499D03*
X324775000Y-104742499D03*
%TD*%
%TO.C,C46*%
X115462500Y-86652499D03*
X115462500Y-85692499D03*
%TD*%
%TO.C,C69*%
X205712500Y-86652499D03*
X205712500Y-85692499D03*
%TD*%
D23*
%TO.C,U90*%
X328225000Y-104817499D03*
X327275000Y-107167499D03*
X326325000Y-104817499D03*
D24*
X322195001Y-105972499D03*
X332354999Y-105972499D03*
%TD*%
D21*
%TO.C,C149*%
X67600000Y-162852499D03*
X67600000Y-161892499D03*
%TD*%
D23*
%TO.C,U75*%
X309175000Y-61954999D03*
X308225000Y-64304999D03*
X307275000Y-61954999D03*
D24*
X303145001Y-63109999D03*
X313304999Y-63109999D03*
%TD*%
D23*
%TO.C,U45*%
X261550000Y-61954999D03*
X260600000Y-64304999D03*
X259650000Y-61954999D03*
D24*
X255520001Y-63109999D03*
X265679999Y-63109999D03*
%TD*%
D21*
%TO.C,C197*%
X324775000Y-62839999D03*
X324775000Y-61879999D03*
%TD*%
%TO.C,C192*%
X220000000Y-62839999D03*
X220000000Y-61879999D03*
%TD*%
%TO.C,C74*%
X224762500Y-86652499D03*
X224762500Y-85692499D03*
%TD*%
D22*
%TO.C,C110*%
X166267500Y-120263124D03*
X165307500Y-120263124D03*
%TD*%
D21*
%TO.C,C166*%
X348825000Y-105702499D03*
X348825000Y-104742499D03*
%TD*%
%TO.C,C163*%
X148562500Y-162852499D03*
X148562500Y-161892499D03*
%TD*%
%TO.C,C182*%
X343825000Y-105702499D03*
X343825000Y-104742499D03*
%TD*%
D23*
%TO.C,U47*%
X142487500Y-104817499D03*
X141537500Y-107167499D03*
X140587500Y-104817499D03*
D24*
X136457501Y-105972499D03*
X146617499Y-105972499D03*
%TD*%
D21*
%TO.C,C112*%
X234287500Y-105702499D03*
X234287500Y-104742499D03*
%TD*%
%TO.C,C185*%
X77125000Y-62839999D03*
X77125000Y-61879999D03*
%TD*%
D23*
%TO.C,U95*%
X328225000Y-161967499D03*
X327275000Y-164317499D03*
X326325000Y-161967499D03*
D24*
X322195001Y-163122499D03*
X332354999Y-163122499D03*
%TD*%
D21*
%TO.C,C68*%
X186662500Y-86652499D03*
X186662500Y-85692499D03*
%TD*%
%TO.C,C27*%
X34262500Y-86652499D03*
X34262500Y-85692499D03*
%TD*%
%TO.C,C157*%
X329775000Y-162852499D03*
X329775000Y-161892499D03*
%TD*%
D23*
%TO.C,U71*%
X218687500Y-104817499D03*
X217737500Y-107167499D03*
X216787500Y-104817499D03*
D24*
X212657501Y-105972499D03*
X222817499Y-105972499D03*
%TD*%
D21*
%TO.C,C15*%
X277387500Y-86652499D03*
X277387500Y-85692499D03*
%TD*%
D23*
%TO.C,U14*%
X99625000Y-61954999D03*
X98675000Y-64304999D03*
X97725000Y-61954999D03*
D24*
X93595001Y-63109999D03*
X103754999Y-63109999D03*
%TD*%
D21*
%TO.C,C142*%
X96175000Y-143802499D03*
X96175000Y-142842499D03*
%TD*%
D22*
%TO.C,C203*%
X313995000Y-140309999D03*
X314955000Y-140309999D03*
%TD*%
D21*
%TO.C,C3*%
X63075000Y-62839999D03*
X63075000Y-61879999D03*
%TD*%
%TO.C,C204*%
X308975000Y-127979999D03*
X308975000Y-127019999D03*
%TD*%
%TO.C,C90*%
X275006250Y-124752499D03*
X275006250Y-123792499D03*
%TD*%
%TO.C,C114*%
X253337500Y-105702499D03*
X253337500Y-104742499D03*
%TD*%
D22*
%TO.C,C25*%
X297278750Y-69397499D03*
X296318750Y-69397499D03*
%TD*%
D23*
%TO.C,U28*%
X75812500Y-85767499D03*
X74862500Y-88117499D03*
X73912500Y-85767499D03*
D24*
X69782501Y-86922499D03*
X79942499Y-86922499D03*
%TD*%
D21*
%TO.C,C172*%
X258337500Y-162852499D03*
X258337500Y-161892499D03*
%TD*%
%TO.C,C116*%
X310725000Y-86652499D03*
X310725000Y-85692499D03*
%TD*%
%TO.C,C92*%
X100937500Y-105702499D03*
X100937500Y-104742499D03*
%TD*%
%TO.C,C101*%
X158087500Y-105702499D03*
X158087500Y-104742499D03*
%TD*%
D23*
%TO.C,U42*%
X128200000Y-123867499D03*
X127250000Y-126217499D03*
X126300000Y-123867499D03*
D24*
X122170001Y-125022499D03*
X132329999Y-125022499D03*
%TD*%
D21*
%TO.C,C59*%
X163087500Y-105702499D03*
X163087500Y-104742499D03*
%TD*%
%TO.C,C4*%
X82125000Y-62839999D03*
X82125000Y-61879999D03*
%TD*%
D23*
%TO.C,U4*%
X23425000Y-161967499D03*
X22475000Y-164317499D03*
X21525000Y-161967499D03*
D24*
X17395000Y-163122499D03*
X27555000Y-163122499D03*
%TD*%
D22*
%TO.C,C153*%
X242467500Y-120263124D03*
X241507500Y-120263124D03*
%TD*%
%TO.C,R12*%
X300455000Y-138809999D03*
X299495000Y-138809999D03*
%TD*%
D23*
%TO.C,U11*%
X23425000Y-104817499D03*
X22475000Y-107167499D03*
X21525000Y-104817499D03*
D24*
X17395000Y-105972499D03*
X27555000Y-105972499D03*
%TD*%
D21*
%TO.C,C40*%
X96412500Y-86652499D03*
X96412500Y-85692499D03*
%TD*%
%TO.C,C78*%
X225000000Y-124752499D03*
X225000000Y-123792499D03*
%TD*%
%TO.C,C144*%
X134275000Y-143802499D03*
X134275000Y-142842499D03*
%TD*%
%TO.C,C94*%
X263100000Y-62839999D03*
X263100000Y-61879999D03*
%TD*%
D23*
%TO.C,U73*%
X213925000Y-142917499D03*
X212975000Y-145267499D03*
X212025000Y-142917499D03*
D24*
X207895001Y-144072499D03*
X218054999Y-144072499D03*
%TD*%
D23*
%TO.C,U84*%
X273456250Y-123867499D03*
X272506250Y-126217499D03*
X271556250Y-123867499D03*
D34*
X260599999Y-116767499D03*
D33*
X260600000Y-132007499D03*
D24*
X267426251Y-125022499D03*
X277586249Y-125022499D03*
D33*
X284412500Y-132007499D03*
D34*
X284412501Y-116767499D03*
%TD*%
D22*
%TO.C,R11*%
X300455000Y-136809999D03*
X299495000Y-136809999D03*
%TD*%
D23*
%TO.C,U41*%
X123437500Y-104817499D03*
X122487500Y-107167499D03*
X121537500Y-104817499D03*
D24*
X117407501Y-105972499D03*
X127567499Y-105972499D03*
%TD*%
D23*
%TO.C,U48*%
X147250000Y-123867499D03*
X146300000Y-126217499D03*
X145350000Y-123867499D03*
D24*
X141220001Y-125022499D03*
X151379999Y-125022499D03*
%TD*%
D21*
%TO.C,C57*%
X148562500Y-86652499D03*
X148562500Y-85692499D03*
%TD*%
D35*
%TO.C,C201*%
X312135589Y-134649410D03*
X312814411Y-133970588D03*
%TD*%
D21*
%TO.C,C65*%
X182137500Y-105702499D03*
X182137500Y-104742499D03*
%TD*%
D23*
%TO.C,U39*%
X223450000Y-61954999D03*
X222500000Y-64304999D03*
X221550000Y-61954999D03*
D24*
X217420001Y-63109999D03*
X227579999Y-63109999D03*
%TD*%
D23*
%TO.C,U60*%
X185350000Y-123867499D03*
X184400000Y-126217499D03*
X183450000Y-123867499D03*
D24*
X179320001Y-125022499D03*
X189479999Y-125022499D03*
%TD*%
D21*
%TO.C,C147*%
X19975000Y-162852499D03*
X19975000Y-161892499D03*
%TD*%
%TO.C,C170*%
X48787500Y-162852499D03*
X48787500Y-161892499D03*
%TD*%
%TO.C,C184*%
X343825000Y-162852499D03*
X343825000Y-161892499D03*
%TD*%
D32*
%TO.C,U56*%
X81525000Y-120263124D03*
X81525000Y-119613124D03*
X81525000Y-118963124D03*
X81525000Y-118313124D03*
X81525000Y-117663124D03*
X81525000Y-117013124D03*
X81525000Y-116363124D03*
X81525000Y-115713124D03*
X81525000Y-115063124D03*
X81525000Y-114413124D03*
X81525000Y-113763124D03*
X81525000Y-113113124D03*
X87250000Y-113113124D03*
X87250000Y-113763124D03*
X87250000Y-114413124D03*
X87250000Y-115063124D03*
X87250000Y-115713124D03*
X87250000Y-116363124D03*
X87250000Y-117013124D03*
X87250000Y-117663124D03*
X87250000Y-118313124D03*
X87250000Y-118963124D03*
X87250000Y-119613124D03*
X87250000Y-120263124D03*
%TD*%
D23*
%TO.C,U64*%
X190112500Y-85767499D03*
X189162500Y-88117499D03*
X188212500Y-85767499D03*
D24*
X184082501Y-86922499D03*
X194242499Y-86922499D03*
%TD*%
D23*
%TO.C,U7*%
X152012500Y-161967499D03*
X151062500Y-164317499D03*
X150112500Y-161967499D03*
D34*
X93912500Y-154867499D03*
D33*
X93912500Y-170107499D03*
D24*
X145982500Y-163122499D03*
X156142500Y-163122499D03*
D34*
X208212500Y-154867499D03*
D33*
X208212500Y-170107499D03*
%TD*%
D23*
%TO.C,U59*%
X180587500Y-104817499D03*
X179637500Y-107167499D03*
X178687500Y-104817499D03*
D24*
X174557501Y-105972499D03*
X184717499Y-105972499D03*
%TD*%
D22*
%TO.C,C104*%
X90067500Y-120263124D03*
X89107500Y-120263124D03*
%TD*%
D21*
%TO.C,C70*%
X191662500Y-86652499D03*
X191662500Y-85692499D03*
%TD*%
%TO.C,C198*%
X343825000Y-62839999D03*
X343825000Y-61879999D03*
%TD*%
%TO.C,C175*%
X324775000Y-86652499D03*
X324775000Y-85692499D03*
%TD*%
%TO.C,C119*%
X239050000Y-124752499D03*
X239050000Y-123792499D03*
%TD*%
D23*
%TO.C,U78*%
X242500000Y-123867499D03*
X241550000Y-126217499D03*
X240600000Y-123867499D03*
D24*
X236470001Y-125022499D03*
X246629999Y-125022499D03*
%TD*%
D21*
%TO.C,C131*%
X27118750Y-143802499D03*
X27118750Y-142842499D03*
%TD*%
D23*
%TO.C,U99*%
X347275000Y-61954999D03*
X346325000Y-64304999D03*
X345375000Y-61954999D03*
D24*
X341245001Y-63109999D03*
X351404999Y-63109999D03*
%TD*%
D22*
%TO.C,C103*%
X43633125Y-120263124D03*
X42673125Y-120263124D03*
%TD*%
D23*
%TO.C,U16*%
X37712500Y-85767499D03*
X36762500Y-88117499D03*
X35812500Y-85767499D03*
D24*
X31682501Y-86922499D03*
X41842499Y-86922499D03*
%TD*%
D21*
%TO.C,C77*%
X220237500Y-105702499D03*
X220237500Y-104742499D03*
%TD*%
D37*
%TO.C,Y2*%
X315975000Y-136659999D03*
X315975000Y-137859999D03*
X315975000Y-139059999D03*
%TD*%
D21*
%TO.C,C16*%
X20212500Y-86652499D03*
X20212500Y-85692499D03*
%TD*%
%TO.C,C83*%
X239287500Y-105702499D03*
X239287500Y-104742499D03*
%TD*%
%TO.C,C87*%
X62837500Y-105702499D03*
X62837500Y-104742499D03*
%TD*%
%TO.C,C174*%
X348825000Y-162852499D03*
X348825000Y-161892499D03*
%TD*%
%TO.C,C39*%
X91412500Y-86652499D03*
X91412500Y-85692499D03*
%TD*%
%TO.C,C180*%
X324775000Y-162852499D03*
X324775000Y-161892499D03*
%TD*%
%TO.C,C54*%
X148800000Y-124752499D03*
X148800000Y-123792499D03*
%TD*%
%TO.C,C136*%
X229525000Y-143802499D03*
X229525000Y-142842499D03*
%TD*%
%TO.C,C102*%
X177137500Y-105702499D03*
X177137500Y-104742499D03*
%TD*%
%TO.C,C135*%
X305725000Y-86652499D03*
X305725000Y-85692499D03*
%TD*%
%TO.C,C100*%
X234525000Y-162852499D03*
X234525000Y-161892499D03*
%TD*%
%TO.C,C47*%
X124987500Y-105702499D03*
X124987500Y-104742499D03*
%TD*%
%TO.C,C190*%
X177137500Y-62839999D03*
X177137500Y-61879999D03*
%TD*%
D32*
%TO.C,U51*%
X157725000Y-120263124D03*
X157725000Y-119613124D03*
X157725000Y-118963124D03*
X157725000Y-118313124D03*
X157725000Y-117663124D03*
X157725000Y-117013124D03*
X157725000Y-116363124D03*
X157725000Y-115713124D03*
X157725000Y-115063124D03*
X157725000Y-114413124D03*
X157725000Y-113763124D03*
X157725000Y-113113124D03*
X163450000Y-113113124D03*
X163450000Y-113763124D03*
X163450000Y-114413124D03*
X163450000Y-115063124D03*
X163450000Y-115713124D03*
X163450000Y-116363124D03*
X163450000Y-117013124D03*
X163450000Y-117663124D03*
X163450000Y-118313124D03*
X163450000Y-118963124D03*
X163450000Y-119613124D03*
X163450000Y-120263124D03*
%TD*%
D23*
%TO.C,U49*%
X137725000Y-142917499D03*
X136775000Y-145267499D03*
X135825000Y-142917499D03*
D24*
X131695001Y-144072499D03*
X141854999Y-144072499D03*
%TD*%
D21*
%TO.C,C186*%
X96175000Y-62839999D03*
X96175000Y-61879999D03*
%TD*%
%TO.C,C134*%
X265243750Y-143802499D03*
X265243750Y-142842499D03*
%TD*%
D22*
%TO.C,C21*%
X293858750Y-69397499D03*
X294818750Y-69397499D03*
%TD*%
D23*
%TO.C,U61*%
X175825000Y-142917499D03*
X174875000Y-145267499D03*
X173925000Y-142917499D03*
D24*
X169795001Y-144072499D03*
X179954999Y-144072499D03*
%TD*%
D23*
%TO.C,U46*%
X132962500Y-85767499D03*
X132012500Y-88117499D03*
X131062500Y-85767499D03*
D24*
X126932501Y-86922499D03*
X137092499Y-86922499D03*
%TD*%
D23*
%TO.C,U76*%
X228212500Y-85767499D03*
X227262500Y-88117499D03*
X226312500Y-85767499D03*
D24*
X222182501Y-86922499D03*
X232342499Y-86922499D03*
%TD*%
D22*
%TO.C,C106*%
X128167500Y-120263124D03*
X127207500Y-120263124D03*
%TD*%
D21*
%TO.C,C154*%
X329775000Y-86652499D03*
X329775000Y-85692499D03*
%TD*%
%TO.C,C168*%
X305725000Y-162852499D03*
X305725000Y-161892499D03*
%TD*%
D23*
%TO.C,U98*%
X280600000Y-161967499D03*
X279650000Y-164317499D03*
X278700000Y-161967499D03*
D24*
X274570000Y-163122499D03*
X284730000Y-163122499D03*
%TD*%
D21*
%TO.C,C148*%
X43787500Y-162852499D03*
X43787500Y-161892499D03*
%TD*%
%TO.C,C91*%
X81887500Y-105702499D03*
X81887500Y-104742499D03*
%TD*%
%TO.C,C159*%
X253337500Y-162852499D03*
X253337500Y-161892499D03*
%TD*%
%TO.C,C121*%
X200950000Y-124752499D03*
X200950000Y-123792499D03*
%TD*%
D38*
%TO.C,U100*%
X312387500Y-136559999D03*
X312387500Y-137059999D03*
X312387500Y-137559999D03*
X312387500Y-138060000D03*
X312387500Y-138559999D03*
X312387500Y-139059999D03*
X312387500Y-139559999D03*
X312387500Y-140059999D03*
X312387500Y-140559998D03*
X312387500Y-141059999D03*
X312387500Y-141559999D03*
X312387500Y-142059999D03*
D39*
X310975000Y-143472499D03*
X310475000Y-143472499D03*
X309975000Y-143472499D03*
X309474999Y-143472499D03*
X308975000Y-143472499D03*
X308475000Y-143472499D03*
X307975000Y-143472499D03*
X307475000Y-143472499D03*
X306975001Y-143472499D03*
X306475000Y-143472499D03*
X305975000Y-143472499D03*
X305475000Y-143472499D03*
D38*
X304062500Y-142059999D03*
X304062500Y-141559999D03*
X304062500Y-141059999D03*
X304062500Y-140559998D03*
X304062500Y-140059999D03*
X304062500Y-139559999D03*
X304062500Y-139059999D03*
X304062500Y-138559999D03*
X304062500Y-138060000D03*
X304062500Y-137559999D03*
X304062500Y-137059999D03*
X304062500Y-136559999D03*
D39*
X305475000Y-135147499D03*
X305975000Y-135147499D03*
X306475000Y-135147499D03*
X306975001Y-135147499D03*
X307475000Y-135147499D03*
X307975000Y-135147499D03*
X308475000Y-135147499D03*
X308975000Y-135147499D03*
X309474999Y-135147499D03*
X309975000Y-135147499D03*
X310475000Y-135147499D03*
X310975000Y-135147499D03*
%TD*%
D23*
%TO.C,U2*%
X42475000Y-61954999D03*
X41525000Y-64304999D03*
X40575000Y-61954999D03*
D24*
X36445001Y-63109999D03*
X46604999Y-63109999D03*
%TD*%
D21*
%TO.C,C61*%
X139275000Y-143802499D03*
X139275000Y-142842499D03*
%TD*%
D23*
%TO.C,U1*%
X18662500Y-61954999D03*
X17712500Y-64304999D03*
X16762500Y-61954999D03*
D24*
X12632501Y-63109999D03*
X22792499Y-63109999D03*
%TD*%
D23*
%TO.C,U80*%
X309175000Y-85767499D03*
X308225000Y-88117499D03*
X307275000Y-85767499D03*
D24*
X303145001Y-86922499D03*
X313304999Y-86922499D03*
%TD*%
D40*
%TO.C,SW1*%
X310320000Y-130829999D03*
X314520000Y-130829999D03*
%TD*%
D21*
%TO.C,C84*%
X244050000Y-124752499D03*
X244050000Y-123792499D03*
%TD*%
D23*
%TO.C,U24*%
X71050000Y-123867499D03*
X70100000Y-126217499D03*
X69150000Y-123867499D03*
D24*
X65020001Y-125022499D03*
X75179999Y-125022499D03*
%TD*%
D32*
%TO.C,U15*%
X119625000Y-120263124D03*
X119625000Y-119613124D03*
X119625000Y-118963124D03*
X119625000Y-118313124D03*
X119625000Y-117663124D03*
X119625000Y-117013124D03*
X119625000Y-116363124D03*
X119625000Y-115713124D03*
X119625000Y-115063124D03*
X119625000Y-114413124D03*
X119625000Y-113763124D03*
X119625000Y-113113124D03*
X125350000Y-113113124D03*
X125350000Y-113763124D03*
X125350000Y-114413124D03*
X125350000Y-115063124D03*
X125350000Y-115713124D03*
X125350000Y-116363124D03*
X125350000Y-117013124D03*
X125350000Y-117663124D03*
X125350000Y-118313124D03*
X125350000Y-118963124D03*
X125350000Y-119613124D03*
X125350000Y-120263124D03*
%TD*%
D21*
%TO.C,C42*%
X110700000Y-124752499D03*
X110700000Y-123792499D03*
%TD*%
%TO.C,C48*%
X129750000Y-124752499D03*
X129750000Y-123792499D03*
%TD*%
%TO.C,C120*%
X220000000Y-124752499D03*
X220000000Y-123792499D03*
%TD*%
%TO.C,C115*%
X277150000Y-105702499D03*
X277150000Y-104742499D03*
%TD*%
%LPD*%
M02*
