%TF.GenerationSoftware,KiCad,Pcbnew,8.0.6*%
%TF.CreationDate,2024-11-23T19:51:20+07:00*%
%TF.ProjectId,Zellia80,5a656c6c-6961-4383-902e-6b696361645f,rev?*%
%TF.SameCoordinates,Original*%
%TF.FileFunction,Soldermask,Top*%
%TF.FilePolarity,Negative*%
%FSLAX46Y46*%
G04 Gerber Fmt 4.6, Leading zero omitted, Abs format (unit mm)*
G04 Created by KiCad (PCBNEW 8.0.6) date 2024-11-23 19:51:20*
%MOMM*%
%LPD*%
G01*
G04 APERTURE LIST*
%ADD10C,0.800000*%
%ADD11C,5.000000*%
%ADD12R,1.700000X1.700000*%
%ADD13O,1.700000X1.700000*%
%ADD14C,1.750000*%
%ADD15C,3.048000*%
%ADD16C,3.987800*%
G04 APERTURE END LIST*
D10*
%TO.C,H16*%
X293431250Y-134547499D03*
X292882075Y-135873324D03*
X292882075Y-133221674D03*
X291556250Y-136422499D03*
D11*
X291556250Y-134547499D03*
D10*
X291556250Y-132672499D03*
X290230425Y-135873324D03*
X290230425Y-133221674D03*
X289681250Y-134547499D03*
%TD*%
%TO.C,H13*%
X338674622Y-74110009D03*
X338125447Y-75435834D03*
X338125447Y-72784184D03*
X336799622Y-75985009D03*
D11*
X336799622Y-74110009D03*
D10*
X336799622Y-72235009D03*
X335473797Y-75435834D03*
X335473797Y-72784184D03*
X334924622Y-74110009D03*
%TD*%
%TO.C,H14*%
X35065247Y-163122509D03*
X34516072Y-164448334D03*
X34516072Y-161796684D03*
X33190247Y-164997509D03*
D11*
X33190247Y-163122509D03*
D10*
X33190247Y-161247509D03*
X31864422Y-164448334D03*
X31864422Y-161796684D03*
X31315247Y-163122509D03*
%TD*%
%TO.C,H11*%
X212468750Y-96447499D03*
X211919575Y-97773324D03*
X211919575Y-95121674D03*
X210593750Y-98322499D03*
D11*
X210593750Y-96447499D03*
D10*
X210593750Y-94572499D03*
X209267925Y-97773324D03*
X209267925Y-95121674D03*
X208718750Y-96447499D03*
%TD*%
%TO.C,H5*%
X193199744Y-74110009D03*
X192650569Y-75435834D03*
X192650569Y-72784184D03*
X191324744Y-75985009D03*
D11*
X191324744Y-74110009D03*
D10*
X191324744Y-72235009D03*
X189998919Y-75435834D03*
X189998919Y-72784184D03*
X189449744Y-74110009D03*
%TD*%
D12*
%TO.C,J5*%
X298450000Y-127019999D03*
D13*
X298450000Y-129559999D03*
X300990000Y-127019999D03*
X300990000Y-129559999D03*
X303530000Y-127019999D03*
X303530000Y-129559999D03*
%TD*%
D10*
%TO.C,H4*%
X14349622Y-114497509D03*
X13800447Y-115823334D03*
X13800447Y-113171684D03*
X12474622Y-116372509D03*
D11*
X12474622Y-114497509D03*
D10*
X12474622Y-112622509D03*
X11148797Y-115823334D03*
X11148797Y-113171684D03*
X10599622Y-114497509D03*
%TD*%
%TO.C,H10*%
X302956250Y-96447499D03*
X302407075Y-97773324D03*
X302407075Y-95121674D03*
X301081250Y-98322499D03*
D11*
X301081250Y-96447499D03*
D10*
X301081250Y-94572499D03*
X299755425Y-97773324D03*
X299755425Y-95121674D03*
X299206250Y-96447499D03*
%TD*%
%TO.C,H1*%
X112586744Y-74110009D03*
X112037569Y-75435834D03*
X112037569Y-72784184D03*
X110711744Y-75985009D03*
D11*
X110711744Y-74110009D03*
D10*
X110711744Y-72235009D03*
X109385919Y-75435834D03*
X109385919Y-72784184D03*
X108836744Y-74110009D03*
%TD*%
%TO.C,H18*%
X217231250Y-134547499D03*
X216682075Y-135873324D03*
X216682075Y-133221674D03*
X215356250Y-136422499D03*
D11*
X215356250Y-134547499D03*
D10*
X215356250Y-132672499D03*
X214030425Y-135873324D03*
X214030425Y-133221674D03*
X213481250Y-134547499D03*
%TD*%
%TO.C,H12*%
X31586744Y-74110009D03*
X31037569Y-75435834D03*
X31037569Y-72784184D03*
X29711744Y-75985009D03*
D11*
X29711744Y-74110009D03*
D10*
X29711744Y-72235009D03*
X28385919Y-75435834D03*
X28385919Y-72784184D03*
X27836744Y-74110009D03*
%TD*%
%TO.C,H17*%
X98168750Y-96447499D03*
X97619575Y-97773324D03*
X97619575Y-95121674D03*
X96293750Y-98322499D03*
D11*
X96293750Y-96447499D03*
D10*
X96293750Y-94572499D03*
X94967925Y-97773324D03*
X94967925Y-95121674D03*
X94418750Y-96447499D03*
%TD*%
%TO.C,H2*%
X280199744Y-74110009D03*
X279650569Y-75435834D03*
X279650569Y-72784184D03*
X278324744Y-75985009D03*
D11*
X278324744Y-74110009D03*
D10*
X278324744Y-72235009D03*
X276998919Y-75435834D03*
X276998919Y-72784184D03*
X276449744Y-74110009D03*
%TD*%
%TO.C,H3*%
X102931250Y-134547499D03*
X102382075Y-135873324D03*
X102382075Y-133221674D03*
X101056250Y-136422499D03*
D11*
X101056250Y-134547499D03*
D10*
X101056250Y-132672499D03*
X99730425Y-135873324D03*
X99730425Y-133221674D03*
X99181250Y-134547499D03*
%TD*%
%TO.C,H15*%
X270808997Y-163122509D03*
X270259822Y-164448334D03*
X270259822Y-161796684D03*
X268933997Y-164997509D03*
D11*
X268933997Y-163122509D03*
D10*
X268933997Y-161247509D03*
X267608172Y-164448334D03*
X267608172Y-161796684D03*
X267058997Y-163122509D03*
%TD*%
%TO.C,H8*%
X344199744Y-147122519D03*
X343650569Y-148448344D03*
X343650569Y-145796694D03*
X342324744Y-148997519D03*
D11*
X342324744Y-147122519D03*
D10*
X342324744Y-145247519D03*
X340998919Y-148448344D03*
X340998919Y-145796694D03*
X340449744Y-147122519D03*
%TD*%
%TO.C,H7*%
X163437500Y-166122499D03*
X162888325Y-167448324D03*
X162888325Y-164796674D03*
X161562500Y-167997499D03*
D11*
X161562500Y-166122499D03*
D10*
X161562500Y-164247499D03*
X160236675Y-167448324D03*
X160236675Y-164796674D03*
X159687500Y-166122499D03*
%TD*%
D14*
%TO.C,U25*%
X55495001Y-144072499D03*
X65654999Y-144072499D03*
%TD*%
%TO.C,U23*%
X60257501Y-105972499D03*
X70417499Y-105972499D03*
%TD*%
%TO.C,U96*%
X341245001Y-163122499D03*
X351404999Y-163122499D03*
%TD*%
%TO.C,U26*%
X136457501Y-63109999D03*
X146617499Y-63109999D03*
%TD*%
%TO.C,U27*%
X155507501Y-63109999D03*
X165667499Y-63109999D03*
%TD*%
%TO.C,U30*%
X84070001Y-125022499D03*
X94229999Y-125022499D03*
%TD*%
%TO.C,U38*%
X198370001Y-63109999D03*
X208529999Y-63109999D03*
%TD*%
%TO.C,U66*%
X198370001Y-125022499D03*
X208529999Y-125022499D03*
%TD*%
%TO.C,U13*%
X74545001Y-63109999D03*
X84704999Y-63109999D03*
%TD*%
%TO.C,U20*%
X117407501Y-63109999D03*
X127567499Y-63109999D03*
%TD*%
%TO.C,U72*%
X217420001Y-125022499D03*
X227579999Y-125022499D03*
%TD*%
%TO.C,U79*%
X226945001Y-144072499D03*
X237104999Y-144072499D03*
%TD*%
%TO.C,U44*%
X236470001Y-63109999D03*
X246629999Y-63109999D03*
%TD*%
%TO.C,U32*%
X174557501Y-63109999D03*
X184717499Y-63109999D03*
%TD*%
%TO.C,U9*%
X55495001Y-63109999D03*
X65654999Y-63109999D03*
%TD*%
%TO.C,U94*%
X303145001Y-163122499D03*
X313304999Y-163122499D03*
%TD*%
%TO.C,U55*%
X150745001Y-144072499D03*
X160904999Y-144072499D03*
%TD*%
%TO.C,U82*%
X241232501Y-86922499D03*
X251392499Y-86922499D03*
%TD*%
%TO.C,U77*%
X231707501Y-105972499D03*
X241867499Y-105972499D03*
%TD*%
%TO.C,U58*%
X165032501Y-86922499D03*
X175192499Y-86922499D03*
%TD*%
%TO.C,U31*%
X74545001Y-144072499D03*
X84704999Y-144072499D03*
%TD*%
%TO.C,U89*%
X274570000Y-105972499D03*
X284730000Y-105972499D03*
%TD*%
%TO.C,U92*%
X250757501Y-163122499D03*
X260917499Y-163122499D03*
%TD*%
%TO.C,U37*%
X93595001Y-144072499D03*
X103754999Y-144072499D03*
%TD*%
%TO.C,U18*%
X45970001Y-125022499D03*
X56129999Y-125022499D03*
%TD*%
%TO.C,U65*%
X193607501Y-105972499D03*
X203767499Y-105972499D03*
%TD*%
%TO.C,U10*%
X12632501Y-86922499D03*
X22792499Y-86922499D03*
%TD*%
%TO.C,U97*%
X322195001Y-144072499D03*
X332354999Y-144072499D03*
%TD*%
%TO.C,U87*%
X341245001Y-86922499D03*
X351404999Y-86922499D03*
%TD*%
%TO.C,U12*%
X19776250Y-125022499D03*
X29936250Y-125022499D03*
%TD*%
%TO.C,U86*%
X322195001Y-86922499D03*
X332354999Y-86922499D03*
%TD*%
D15*
%TO.C,U57*%
X255837500Y-137087499D03*
D16*
X255837500Y-152327499D03*
D14*
X262663750Y-144072499D03*
X272823750Y-144072499D03*
D15*
X279650000Y-137087499D03*
D16*
X279650000Y-152327499D03*
%TD*%
D14*
%TO.C,U83*%
X250757501Y-105972499D03*
X260917499Y-105972499D03*
%TD*%
D15*
%TO.C,U33*%
X17712500Y-137087499D03*
D16*
X17712500Y-152327499D03*
D14*
X24538750Y-144072499D03*
X34698750Y-144072499D03*
D15*
X41525000Y-137087499D03*
D16*
X41525000Y-152327499D03*
%TD*%
D14*
%TO.C,U93*%
X322195001Y-63109999D03*
X332354999Y-63109999D03*
%TD*%
%TO.C,U17*%
X41207501Y-105972499D03*
X51367499Y-105972499D03*
%TD*%
%TO.C,U88*%
X303145001Y-105972499D03*
X313304999Y-105972499D03*
%TD*%
D15*
%TO.C,U3*%
X262981250Y-79937499D03*
D16*
X262981250Y-95177499D03*
D14*
X269807500Y-86922499D03*
X279967500Y-86922499D03*
D15*
X286793750Y-79937499D03*
D16*
X286793750Y-95177499D03*
%TD*%
D14*
%TO.C,U34*%
X88832501Y-86922499D03*
X98992499Y-86922499D03*
%TD*%
%TO.C,U35*%
X98357501Y-105972499D03*
X108517499Y-105972499D03*
%TD*%
%TO.C,U6*%
X65020000Y-163122499D03*
X75180000Y-163122499D03*
%TD*%
%TO.C,U36*%
X103120001Y-125022499D03*
X113279999Y-125022499D03*
%TD*%
%TO.C,U70*%
X203132501Y-86922499D03*
X213292499Y-86922499D03*
%TD*%
%TO.C,U8*%
X226945000Y-163122499D03*
X237105000Y-163122499D03*
%TD*%
%TO.C,U50*%
X279332501Y-63109999D03*
X289492499Y-63109999D03*
%TD*%
%TO.C,U43*%
X112645001Y-144072499D03*
X122804999Y-144072499D03*
%TD*%
%TO.C,U52*%
X145982501Y-86922499D03*
X156142499Y-86922499D03*
%TD*%
%TO.C,U22*%
X50732501Y-86922499D03*
X60892499Y-86922499D03*
%TD*%
%TO.C,U5*%
X41207501Y-163122499D03*
X51367499Y-163122499D03*
%TD*%
%TO.C,U67*%
X188845001Y-144072499D03*
X199004999Y-144072499D03*
%TD*%
%TO.C,U54*%
X160270001Y-125022499D03*
X170429999Y-125022499D03*
%TD*%
%TO.C,U53*%
X155507501Y-105972499D03*
X165667499Y-105972499D03*
%TD*%
%TO.C,U29*%
X79307501Y-105972499D03*
X89467499Y-105972499D03*
%TD*%
%TO.C,U91*%
X341245001Y-105972499D03*
X351404999Y-105972499D03*
%TD*%
%TO.C,U40*%
X107882501Y-86922499D03*
X118042499Y-86922499D03*
%TD*%
%TO.C,U90*%
X322195001Y-105972499D03*
X332354999Y-105972499D03*
%TD*%
%TO.C,U75*%
X303145001Y-63109999D03*
X313304999Y-63109999D03*
%TD*%
%TO.C,U45*%
X255520001Y-63109999D03*
X265679999Y-63109999D03*
%TD*%
%TO.C,U47*%
X136457501Y-105972499D03*
X146617499Y-105972499D03*
%TD*%
%TO.C,U95*%
X322195001Y-163122499D03*
X332354999Y-163122499D03*
%TD*%
%TO.C,U71*%
X212657501Y-105972499D03*
X222817499Y-105972499D03*
%TD*%
%TO.C,U14*%
X93595001Y-63109999D03*
X103754999Y-63109999D03*
%TD*%
%TO.C,U28*%
X69782501Y-86922499D03*
X79942499Y-86922499D03*
%TD*%
%TO.C,U42*%
X122170001Y-125022499D03*
X132329999Y-125022499D03*
%TD*%
%TO.C,U4*%
X17395000Y-163122499D03*
X27555000Y-163122499D03*
%TD*%
%TO.C,U11*%
X17395000Y-105972499D03*
X27555000Y-105972499D03*
%TD*%
%TO.C,U73*%
X207895001Y-144072499D03*
X218054999Y-144072499D03*
%TD*%
D16*
%TO.C,U84*%
X260599999Y-116767499D03*
D15*
X260600000Y-132007499D03*
D14*
X267426251Y-125022499D03*
X277586249Y-125022499D03*
D15*
X284412500Y-132007499D03*
D16*
X284412501Y-116767499D03*
%TD*%
D14*
%TO.C,U41*%
X117407501Y-105972499D03*
X127567499Y-105972499D03*
%TD*%
%TO.C,U48*%
X141220001Y-125022499D03*
X151379999Y-125022499D03*
%TD*%
%TO.C,U39*%
X217420001Y-63109999D03*
X227579999Y-63109999D03*
%TD*%
%TO.C,U60*%
X179320001Y-125022499D03*
X189479999Y-125022499D03*
%TD*%
%TO.C,U64*%
X184082501Y-86922499D03*
X194242499Y-86922499D03*
%TD*%
D16*
%TO.C,U7*%
X93912500Y-154867499D03*
D15*
X93912500Y-170107499D03*
D14*
X145982500Y-163122499D03*
X156142500Y-163122499D03*
D16*
X208212500Y-154867499D03*
D15*
X208212500Y-170107499D03*
%TD*%
D14*
%TO.C,U59*%
X174557501Y-105972499D03*
X184717499Y-105972499D03*
%TD*%
%TO.C,U78*%
X236470001Y-125022499D03*
X246629999Y-125022499D03*
%TD*%
%TO.C,U99*%
X341245001Y-63109999D03*
X351404999Y-63109999D03*
%TD*%
%TO.C,U16*%
X31682501Y-86922499D03*
X41842499Y-86922499D03*
%TD*%
%TO.C,U49*%
X131695001Y-144072499D03*
X141854999Y-144072499D03*
%TD*%
%TO.C,U61*%
X169795001Y-144072499D03*
X179954999Y-144072499D03*
%TD*%
%TO.C,U46*%
X126932501Y-86922499D03*
X137092499Y-86922499D03*
%TD*%
%TO.C,U76*%
X222182501Y-86922499D03*
X232342499Y-86922499D03*
%TD*%
%TO.C,U98*%
X274570000Y-163122499D03*
X284730000Y-163122499D03*
%TD*%
%TO.C,U2*%
X36445001Y-63109999D03*
X46604999Y-63109999D03*
%TD*%
%TO.C,U1*%
X12632501Y-63109999D03*
X22792499Y-63109999D03*
%TD*%
%TO.C,U80*%
X303145001Y-86922499D03*
X313304999Y-86922499D03*
%TD*%
%TO.C,U24*%
X65020001Y-125022499D03*
X75179999Y-125022499D03*
%TD*%
M02*
