%TF.GenerationSoftware,KiCad,Pcbnew,8.0.6*%
%TF.CreationDate,2024-11-23T19:51:20+07:00*%
%TF.ProjectId,Zellia80,5a656c6c-6961-4383-902e-6b696361645f,rev?*%
%TF.SameCoordinates,Original*%
%TF.FileFunction,Profile,NP*%
%FSLAX46Y46*%
G04 Gerber Fmt 4.6, Leading zero omitted, Abs format (unit mm)*
G04 Created by KiCad (PCBNEW 8.0.6) date 2024-11-23 19:51:20*
%MOMM*%
%LPD*%
G01*
G04 APERTURE LIST*
%TA.AperFunction,Profile*%
%ADD10C,0.200000*%
%TD*%
%TA.AperFunction,Profile*%
%ADD11C,0.150000*%
%TD*%
G04 APERTURE END LIST*
D10*
X236787200Y-58363301D02*
G75*
G02*
X233559741Y-55495423I0J3250001D01*
G01*
X243391969Y-54612999D02*
X268287167Y-54612999D01*
X224103373Y-172096999D02*
G75*
G02*
X223167201Y-171448653I27J1000099D01*
G01*
X242398905Y-55495423D02*
G75*
G02*
X239171448Y-58363358I-3227605J382223D01*
G01*
X334234010Y-171449825D02*
G75*
G02*
X340315989Y-171449823I3040990J-1146675D01*
G01*
X129470196Y-55461536D02*
G75*
G02*
X130458659Y-54613044I988504J-151564D01*
G01*
X340027477Y-55495265D02*
G75*
G02*
X340967509Y-54614150I993223J-117635D01*
G01*
X216203587Y-55495423D02*
G75*
G02*
X209748673Y-55495423I-3227457J379084D01*
G01*
X194773605Y-55495423D02*
G75*
G02*
X191546148Y-58363358I-3227605J382223D01*
G01*
X333298321Y-172096999D02*
X321250020Y-172096999D01*
X130458659Y-54612999D02*
X184941378Y-54612999D01*
X54050020Y-55335019D02*
X54050019Y-55112998D01*
X38314776Y-54613000D02*
G75*
G02*
X39302825Y-55459256I24J-999900D01*
G01*
X29225020Y-170897518D02*
X29225020Y-171597000D01*
X354025950Y-58612999D02*
X354025951Y-168096999D01*
X103437198Y-57363301D02*
X110589946Y-57363000D01*
X43749376Y-55459245D02*
G75*
G02*
X44737485Y-54612999I988024J-153655D01*
G01*
X294723321Y-172096999D02*
X250066677Y-172097000D01*
X114566189Y-54612999D02*
X124043601Y-54612999D01*
X28725019Y-172096999D02*
X14025951Y-172096999D01*
X10025951Y-58701999D02*
G75*
G02*
X14114941Y-54614002I4000439J87579D01*
G01*
X341251677Y-172097000D02*
G75*
G02*
X340316008Y-171449817I23J1000000D01*
G01*
X113630523Y-55260113D02*
G75*
G02*
X114566189Y-54613019I935577J-352787D01*
G01*
X216149737Y-172092116D02*
X65749438Y-172096999D01*
X48050020Y-55112999D02*
X48050020Y-55335019D01*
X232566678Y-54612999D02*
G75*
G02*
X233559742Y-55495423I-178J-1000201D01*
G01*
X321250020Y-172096999D02*
G75*
G02*
X320750001Y-171596999I-20J499999D01*
G01*
X189161900Y-58363301D02*
X191546148Y-58363300D01*
X194773605Y-55495423D02*
G75*
G02*
X195766669Y-54612980I992995J-117477D01*
G01*
X242398905Y-55495423D02*
G75*
G02*
X243391969Y-54612980I992995J-117477D01*
G01*
X54050019Y-55112998D02*
G75*
G02*
X54550020Y-54613019I499981J-2D01*
G01*
X302676677Y-172097000D02*
G75*
G02*
X301741008Y-171449817I23J1000000D01*
G01*
X54550020Y-54612999D02*
X100225846Y-54612999D01*
X314750019Y-55112997D02*
X314750020Y-55335018D01*
X314750020Y-170897518D02*
G75*
G02*
X320750020Y-170897518I3000000J0D01*
G01*
X33839750Y-54612999D02*
X38314776Y-54613000D01*
X58732215Y-171449622D02*
G75*
G02*
X57796450Y-172096981I-935815J352722D01*
G01*
X29225020Y-171597000D02*
G75*
G02*
X28725019Y-172097020I-500020J0D01*
G01*
X103437198Y-57363301D02*
G75*
G02*
X101213953Y-55459247I2J2250001D01*
G01*
X25398637Y-54613084D02*
G75*
G02*
X26391776Y-55495487I63J-1000016D01*
G01*
X314750020Y-170897518D02*
X314750020Y-171596999D01*
X276728210Y-54612999D02*
X314249157Y-54612999D01*
X189161900Y-58363301D02*
G75*
G02*
X185934441Y-55495423I0J3250001D01*
G01*
X184941378Y-54612999D02*
G75*
G02*
X185934442Y-55495423I-178J-1000201D01*
G01*
X321249158Y-54612999D02*
X332579478Y-54613000D01*
X35725020Y-172096999D02*
G75*
G02*
X35225001Y-171596999I-20J499999D01*
G01*
X216203587Y-55495423D02*
G75*
G02*
X217196651Y-54612951I993113J-117577D01*
G01*
X44737485Y-54612999D02*
X47550020Y-54612999D01*
X243049010Y-171449825D02*
G75*
G02*
X242113321Y-172097019I-935710J352825D01*
G01*
X314250020Y-172096999D02*
X302676677Y-172097000D01*
X32846686Y-55495423D02*
G75*
G02*
X33839750Y-54612950I993114J-117577D01*
G01*
X113630523Y-55260113D02*
G75*
G02*
X110589946Y-57363010I-3040423J1146513D01*
G01*
X340967511Y-54614196D02*
X350025950Y-54613000D01*
X314249157Y-54612999D02*
G75*
G02*
X314750002Y-55112997I843J-500001D01*
G01*
X35225020Y-171596999D02*
X35225020Y-170897518D01*
X58732215Y-171449622D02*
G75*
G02*
X64813673Y-171449622I3040729J-1145835D01*
G01*
X14025951Y-172096999D02*
G75*
G02*
X10026001Y-168096999I-251J3999699D01*
G01*
X350025950Y-54613000D02*
G75*
G02*
X354026000Y-58612999I250J-3999800D01*
G01*
X340027477Y-55495265D02*
G75*
G02*
X333572542Y-55495426I-3227477J381965D01*
G01*
X295659010Y-171449825D02*
G75*
G02*
X294723321Y-172097019I-935710J352825D01*
G01*
X124043601Y-54612999D02*
G75*
G02*
X125032064Y-55461537I-1J-1000001D01*
G01*
X217085290Y-171444907D02*
G75*
G02*
X216149737Y-172092123I-935790J352907D01*
G01*
X32846686Y-55495423D02*
G75*
G02*
X26391782Y-55495487I-3227456J382133D01*
G01*
X320750020Y-55335019D02*
G75*
G02*
X314749980Y-55335018I-3000020J19D01*
G01*
X217196651Y-54612999D02*
X232566678Y-54612999D01*
X354025951Y-168096999D02*
G75*
G02*
X350025950Y-172096951I-3999651J-301D01*
G01*
X65749438Y-172096999D02*
G75*
G02*
X64813700Y-171449612I-38J999899D01*
G01*
X236787200Y-58363301D02*
X239171448Y-58363300D01*
X195766669Y-54612999D02*
X208755609Y-54613000D01*
X54050020Y-55335019D02*
G75*
G02*
X48050020Y-55335019I-3000000J0D01*
G01*
X208755609Y-54613000D02*
G75*
G02*
X209748664Y-55495424I-9J-1000000D01*
G01*
X242113321Y-172096999D02*
X224103373Y-172096999D01*
X320750020Y-171596999D02*
X320750020Y-170897518D01*
X295659010Y-171449825D02*
G75*
G02*
X301740989Y-171449823I3040990J-1146675D01*
G01*
X314750020Y-171596999D02*
G75*
G02*
X314250020Y-172097020I-500020J-1D01*
G01*
X57796450Y-172096999D02*
X35725020Y-172096999D01*
X320750020Y-55335019D02*
X320750019Y-55112998D01*
X320750019Y-55112998D02*
G75*
G02*
X321249158Y-54613020I499981J-2D01*
G01*
X217085290Y-171444907D02*
G75*
G02*
X223167305Y-171448614I3040310J-1146193D01*
G01*
X29225020Y-170897518D02*
G75*
G02*
X35225020Y-170897518I3000000J0D01*
G01*
X47550020Y-54612999D02*
G75*
G02*
X48050001Y-55112999I-20J-500001D01*
G01*
X332579478Y-54613000D02*
G75*
G02*
X333572564Y-55495423I22J-1000000D01*
G01*
X275735146Y-55495423D02*
G75*
G02*
X269280232Y-55495423I-3227457J382124D01*
G01*
X100225846Y-54612999D02*
G75*
G02*
X101213995Y-55459240I-46J-1000101D01*
G01*
X10025951Y-168096999D02*
X10025951Y-58701999D01*
X14114941Y-54613999D02*
X25398637Y-54613084D01*
X129470196Y-55461536D02*
G75*
G02*
X125032006Y-55461546I-2219096J340036D01*
G01*
X275735146Y-55495423D02*
G75*
G02*
X276728210Y-54613010I993054J-117577D01*
G01*
X243049010Y-171449825D02*
G75*
G02*
X249130989Y-171449823I3040990J-1146675D01*
G01*
X350025950Y-172096999D02*
X341251677Y-172097000D01*
X250066677Y-172097000D02*
G75*
G02*
X249130947Y-171449839I23J1000100D01*
G01*
X334234010Y-171449825D02*
G75*
G02*
X333298321Y-172097019I-935710J352825D01*
G01*
X268287167Y-54612999D02*
G75*
G02*
X269280177Y-55495429I33J-999901D01*
G01*
X43749376Y-55459245D02*
G75*
G02*
X39302884Y-55459247I-2223246J345935D01*
G01*
D11*
%TO.C,D1*%
X26756250Y-131802499D02*
X26756250Y-128402499D01*
X26756250Y-131802499D02*
X22956250Y-131802499D01*
X22956250Y-131802499D02*
X22956250Y-128402499D01*
X26756250Y-128402499D02*
X22956250Y-128402499D01*
%TD*%
M02*
