M48
; DRILL file {KiCad 8.0.6} date 2024-11-23T19:51:20+0700
; FORMAT={-:-/ absolute / inch / decimal}
; #@! TF.CreationDate,2024-11-23T19:51:20+07:00
; #@! TF.GenerationSoftware,Kicad,Pcbnew,8.0.6
; #@! TF.FileFunction,Plated,1,2,PTH
FMAT,2
INCH
; #@! TA.AperFunction,Plated,PTH,ViaDrill
T1C0.0118
; #@! TA.AperFunction,Plated,PTH,ViaDrill
T2C0.0157
; #@! TA.AperFunction,Plated,PTH,ViaDrill
T3C0.0197
; #@! TA.AperFunction,Plated,PTH,ComponentDrill
T4C0.0197
; #@! TA.AperFunction,Plated,PTH,ComponentDrill
T5C0.0394
; #@! TA.AperFunction,Plated,PTH,ComponentDrill
T6C0.0984
%
G90
G05
T1
X0.6973Y-2.5711
X0.6973Y-3.5086
X0.7667Y-4.1237
X0.8253Y-2.4362
X0.8253Y-3.3737
X0.8605Y-4.8737
X0.8848Y-4.2586
X0.8848Y-6.5086
X0.9786Y-5.0086
X0.9833Y-4.104
X1.003Y-6.3737
X1.048Y-5.6237
X1.1262Y-4.658
X1.1262Y-4.8737
X1.1604Y-4.5812
X1.1661Y-5.7586
X1.1841Y-4.5556
X1.2077Y-4.53
X1.2842Y-4.6836
X1.2842Y-5.6237
X1.3078Y-4.7092
X1.3151Y-4.4533
X1.4473Y-3.5086
X1.4603Y-4.7348
X1.4603Y-5.3909
X1.5454Y-4.5045
X1.5851Y-3.3737
X1.6348Y-2.5711
X1.7628Y-2.4362
X1.8223Y-4.2586
X1.8223Y-6.5086
X1.9405Y-6.3737
X1.9601Y-4.1237
X2.0098Y-2.3772
X2.0098Y-3.3147
X2.0098Y-5.0086
X2.0098Y-5.5647
X2.0098Y-6.3147
X2.0979Y-4.53
X2.1216Y-4.5556
X2.1452Y-4.5812
X2.1476Y-4.7092
X2.1476Y-4.8737
X2.1973Y-3.5086
X2.2854Y-4.6836
X2.3091Y-4.658
X2.3351Y-3.3737
X2.3848Y-2.5711
X2.3848Y-5.7586
X2.5128Y-2.4362
X2.5226Y-5.6237
X2.5723Y-4.2586
X2.7101Y-4.1237
X2.7598Y-5.0086
X2.7598Y-6.5086
X2.8479Y-4.5812
X2.8716Y-4.5556
X2.878Y-6.3737
X2.8952Y-4.53
X2.8976Y-4.658
X2.8976Y-4.8737
X2.9473Y-3.5086
X3.0354Y-4.6836
X3.0591Y-4.7092
X3.068Y-4.5045
X3.0851Y-3.3737
X3.1064Y-4.5045
X3.1348Y-2.5711
X3.1348Y-4.7346
X3.1348Y-5.2971
X3.1348Y-5.7586
X3.1481Y-4.3765
X3.1481Y-4.5045
X3.2628Y-2.4362
X3.2712Y-4.3509
X3.2712Y-4.4789
X3.2726Y-5.6237
X3.3223Y-4.2586
X3.3735Y-4.5045
X3.4601Y-4.1237
X3.5098Y-5.0086
X3.5979Y-4.53
X3.6216Y-4.5556
X3.6452Y-4.5812
X3.6476Y-4.7092
X3.6476Y-4.8737
X3.6973Y-3.5086
X3.7854Y-4.6836
X3.8351Y-3.3737
X3.8848Y-2.5711
X3.8848Y-5.7586
X4.0128Y-2.4362
X4.0226Y-5.6237
X4.0723Y-3.3147
X4.0723Y-4.2586
X4.2101Y-4.1237
X4.2598Y-5.0086
X4.3479Y-4.5812
X4.3716Y-4.5556
X4.3952Y-4.53
X4.3976Y-4.658
X4.3976Y-4.8737
X4.4473Y-3.5086
X4.4473Y-4.0647
X4.5354Y-4.6836
X4.568Y-4.5045
X4.5851Y-3.3737
X4.6064Y-4.5045
X4.6348Y-4.7348
X4.6348Y-5.2971
X4.6348Y-5.7586
X4.6481Y-4.3765
X4.6481Y-4.5045
X4.7712Y-4.3509
X4.7712Y-4.4789
X4.7726Y-5.6237
X4.8223Y-2.5711
X4.8223Y-4.2586
X4.8735Y-4.5045
X4.9503Y-2.4362
X4.9601Y-4.1237
X5.0098Y-5.0086
X5.0979Y-4.53
X5.1216Y-4.5556
X5.1452Y-4.5812
X5.1476Y-4.7092
X5.1476Y-4.8737
X5.1973Y-3.5086
X5.2854Y-4.6836
X5.3351Y-3.3737
X5.3848Y-5.7586
X5.5226Y-5.6237
X5.5723Y-2.5711
X5.5723Y-4.2586
X5.7003Y-2.4362
X5.7101Y-4.1237
X5.7598Y-5.0086
X5.7598Y-5.5647
X5.8292Y-6.3737
X5.8479Y-4.5812
X5.8716Y-4.5556
X5.8952Y-4.53
X5.8976Y-4.658
X5.8976Y-4.8737
X5.9473Y-3.5086
X5.9473Y-6.5086
X6.0354Y-4.6836
X6.0591Y-4.7092
X6.0655Y-6.3737
X6.068Y-4.5045
X6.0851Y-3.3737
X6.1064Y-4.5045
X6.1348Y-4.7348
X6.1348Y-5.2971
X6.1348Y-5.7586
X6.1481Y-4.3765
X6.1481Y-4.5045
X6.2712Y-4.3509
X6.2712Y-4.4789
X6.2726Y-5.6237
X6.3223Y-2.5711
X6.3223Y-4.2586
X6.3735Y-4.5045
X6.4503Y-2.4362
X6.4601Y-4.1237
X6.5098Y-5.0086
X6.5979Y-4.53
X6.6216Y-4.5556
X6.6452Y-4.5812
X6.6476Y-4.7092
X6.6476Y-4.8737
X6.6973Y-3.5086
X6.7854Y-4.6836
X6.8351Y-3.3737
X6.8848Y-5.7586
X7.0226Y-5.6237
X7.0723Y-2.5711
X7.0723Y-4.2586
X7.2003Y-2.4362
X7.2101Y-4.1237
X7.2598Y-5.0086
X7.3479Y-4.5812
X7.3716Y-4.5556
X7.3952Y-4.53
X7.3976Y-4.658
X7.3976Y-4.8737
X7.4473Y-3.5086
X7.5354Y-4.6836
X7.568Y-4.5045
X7.5851Y-3.3737
X7.6064Y-4.5045
X7.6348Y-4.7346
X7.6348Y-5.2971
X7.6348Y-5.7586
X7.6481Y-4.3765
X7.6481Y-4.5045
X7.7712Y-4.3509
X7.7712Y-4.4789
X7.7726Y-5.6237
X7.8223Y-4.2586
X7.8735Y-4.5045
X7.9601Y-4.1237
X8.0098Y-2.5711
X8.0098Y-5.0086
X8.0979Y-4.53
X8.1216Y-4.5556
X8.1378Y-2.4362
X8.1452Y-4.5812
X8.1476Y-4.7092
X8.1476Y-4.8737
X8.1973Y-3.5086
X8.2854Y-4.6836
X8.3351Y-3.3737
X8.3848Y-5.7586
X8.5226Y-5.6237
X8.5723Y-4.2586
X8.7101Y-4.1237
X8.7598Y-2.5711
X8.7598Y-5.0086
X8.8479Y-4.5812
X8.8716Y-4.5556
X8.8878Y-2.4362
X8.8952Y-4.53
X8.8976Y-4.658
X8.8976Y-4.8737
X8.9473Y-3.5086
X9.0354Y-4.6836
X9.0591Y-4.7092
X9.068Y-4.5045
X9.0851Y-3.3737
X9.1064Y-4.5045
X9.1348Y-4.7348
X9.1348Y-5.7586
X9.1348Y-6.5086
X9.1481Y-4.3765
X9.1481Y-4.5045
X9.2712Y-4.3509
X9.2712Y-4.4789
X9.2726Y-5.6237
X9.2726Y-6.3737
X9.3223Y-4.2586
X9.3692Y-5.2971
X9.3735Y-4.5045
X9.4601Y-4.1237
X9.5098Y-2.5711
X9.5098Y-5.0086
X9.5098Y-5.5647
X9.5098Y-6.3147
X9.5979Y-4.53
X9.6216Y-4.5556
X9.6378Y-2.4362
X9.6452Y-4.5812
X9.6476Y-4.7092
X9.6476Y-4.8737
X9.6973Y-3.5086
X9.7854Y-4.6836
X9.8351Y-3.3737
X9.906Y-5.4611
X9.9572Y-5.4227
X9.9572Y-5.4611
X10.0723Y-4.2586
X10.0723Y-6.5086
X10.1875Y-5.4227
X10.1875Y-5.4611
X10.2101Y-4.1237
X10.2101Y-6.3737
X10.2387Y-5.4611
X10.2598Y-2.5711
X10.3637Y-4.5812
X10.3873Y-4.5556
X10.3878Y-2.4362
X10.4109Y-4.53
X10.4294Y-4.6836
X10.453Y-4.7092
X10.4606Y-4.3765
X10.4606Y-4.5045
X10.5411Y-5.7586
X10.5837Y-4.3509
X10.5837Y-4.4789
X10.6009Y-4.7348
X10.6009Y-5.2971
X10.6172Y-4.4661
X10.6172Y-4.5045
X10.6556Y-4.5045
X10.6789Y-5.6237
X10.7286Y-5.0086
X10.8223Y-3.5086
X10.8664Y-4.8737
X10.9601Y-3.3737
X11.0042Y-4.7092
X11.0098Y-4.2586
X11.0098Y-6.5086
X11.1476Y-4.1237
X11.1476Y-4.4182
X11.1476Y-6.3737
X11.1973Y-2.5711
X11.2854Y-4.4477
X11.3091Y-4.4714
X11.3253Y-2.4362
X11.607Y-2.4566
X11.607Y-2.4861
X11.607Y-2.5156
X11.607Y-2.5452
X11.6366Y-2.4566
X11.6366Y-2.4861
X11.6366Y-2.5156
X11.6366Y-2.5452
X11.6494Y-3.1745
X11.6661Y-2.4566
X11.6661Y-2.4861
X11.6661Y-2.5156
X11.6661Y-2.5452
X11.6661Y-2.5747
X11.6661Y-2.7716
X11.6828Y-3.1745
X11.6956Y-2.4566
X11.6956Y-2.4861
X11.6956Y-2.5156
X11.6956Y-2.5452
X11.7251Y-2.4566
X11.7251Y-2.4861
X11.7251Y-2.5156
X11.7251Y-2.5452
X11.8779Y-5.5047
X11.8967Y-5.398
X11.8995Y-5.483
X11.9Y-5.2508
X11.9281Y-5.337
X11.9872Y-5.6913
X12.0266Y-4.4021
X12.0266Y-5.2327
X12.06Y-4.4277
X12.06Y-5.2327
X12.0915Y-4.4533
X12.0915Y-5.2327
X12.125Y-4.4789
X12.125Y-5.2327
X12.1348Y-2.5711
X12.1348Y-3.5086
X12.1348Y-4.2586
X12.1348Y-5.4846
X12.1348Y-6.5086
X12.1644Y-4.9728
X12.1644Y-5.4945
X12.2428Y-5.8782
X12.2431Y-5.7626
X12.2628Y-2.4362
X12.2628Y-3.3737
X12.2628Y-4.1237
X12.2628Y-4.7092
X12.2726Y-6.3737
X12.3303Y-5.2892
X12.4104Y-4.6836
X12.4203Y-5.524
X12.4341Y-4.658
X12.5098Y-2.3772
X12.5098Y-3.3147
X12.5098Y-5.62
X12.5098Y-6.3147
X12.8848Y-2.5711
X12.8848Y-3.5086
X12.8848Y-4.2586
X12.8848Y-5.7586
X12.8848Y-6.5086
X13.0128Y-2.4362
X13.0128Y-3.3737
X13.0128Y-4.1237
X13.0128Y-4.6324
X13.0226Y-5.6237
X13.0226Y-6.3737
X13.1604Y-4.6068
X13.1841Y-4.5812
X13.2263Y-4.3765
X13.2263Y-4.5045
X13.3493Y-4.3509
X13.3493Y-4.4789
X13.381Y-4.5045
X13.4108Y-4.5556
X13.4344Y-4.53
X13.5167Y-4.1237
X13.5858Y-4.5045
X13.5863Y-4.7741
X13.6348Y-2.5711
X13.6348Y-3.5086
X13.6348Y-4.2586
X13.6348Y-6.5086
X13.6369Y-4.5045
X13.7018Y-4.6836
X13.7254Y-4.658
X13.749Y-4.6324
X13.7628Y-2.4362
X13.7628Y-3.3737
X13.7628Y-4.1237
X13.7628Y-4.53
X13.7726Y-4.6068
X13.7726Y-6.3737
T2
X11.607Y-5.1008
X11.6454Y-5.3609
X11.6868Y-5.3609
X12.0266Y-5.3764
X12.0266Y-5.5929
X12.2431Y-5.3764
X12.2431Y-5.5339
T3
X0.8605Y-5.2302
T4
X0.4173Y-4.5078
X0.4389Y-4.4556
X0.4389Y-4.56
X0.4911Y-4.434
X0.4911Y-4.5816
X0.5433Y-4.4556
X0.5433Y-4.56
X0.5649Y-4.5078
X1.0959Y-2.9177
X1.1176Y-2.8655
X1.1176Y-2.9699
X1.1698Y-2.8439
X1.1698Y-2.9915
X1.222Y-2.8655
X1.222Y-2.9699
X1.2329Y-6.4221
X1.2436Y-2.9177
X1.2545Y-6.3699
X1.2545Y-6.4743
X1.3067Y-6.3483
X1.3067Y-6.496
X1.3589Y-6.3699
X1.3589Y-6.4743
X1.3805Y-6.4221
X3.7173Y-3.7971
X3.7389Y-3.7449
X3.7389Y-3.8493
X3.7911Y-3.7233
X3.7911Y-3.871
X3.8433Y-3.7449
X3.8433Y-3.8493
X3.8649Y-3.7971
X3.9048Y-5.2971
X3.9264Y-5.2449
X3.9264Y-5.3493
X3.9786Y-5.2233
X3.9786Y-5.371
X4.0308Y-5.2449
X4.0308Y-5.3493
X4.0524Y-5.2971
X4.2849Y-2.9177
X4.3065Y-2.8655
X4.3065Y-2.9699
X4.3587Y-2.8439
X4.3587Y-2.9915
X4.4109Y-2.8655
X4.4109Y-2.9699
X4.4325Y-2.9177
X6.2869Y-6.5403
X6.3085Y-6.4881
X6.3085Y-6.5925
X6.3607Y-6.4664
X6.3607Y-6.6141
X6.4129Y-6.4881
X6.4129Y-6.5925
X6.4345Y-6.5403
X7.4587Y-2.9177
X7.4803Y-2.8655
X7.4803Y-2.9699
X7.5325Y-2.8439
X7.5325Y-2.9915
X7.5847Y-2.8655
X7.5847Y-2.9699
X7.6063Y-2.9177
X8.2173Y-3.7971
X8.2389Y-3.7449
X8.2389Y-3.8493
X8.2911Y-3.7233
X8.2911Y-3.871
X8.3433Y-3.7449
X8.3433Y-3.8493
X8.3649Y-3.7971
X8.4048Y-5.2971
X8.4264Y-5.2449
X8.4264Y-5.3493
X8.4786Y-5.2233
X8.4786Y-5.371
X8.5308Y-5.2449
X8.5308Y-5.3493
X8.5524Y-5.2971
X10.5141Y-6.4221
X10.5358Y-6.3699
X10.5358Y-6.4743
X10.588Y-6.3483
X10.588Y-6.496
X10.6402Y-6.3699
X10.6402Y-6.4743
X10.6618Y-6.4221
X10.8838Y-2.9177
X10.9055Y-2.8655
X10.9055Y-2.9699
X10.9577Y-2.8439
X10.9577Y-2.9915
X11.0099Y-2.8655
X11.0099Y-2.9699
X11.0315Y-2.9177
X11.4048Y-5.2971
X11.4264Y-5.2449
X11.4264Y-5.3493
X11.4786Y-5.2233
X11.4786Y-5.371
X11.5308Y-5.2449
X11.5308Y-5.3493
X11.5524Y-5.2971
X11.7798Y-3.7971
X11.8014Y-3.7449
X11.8014Y-3.8493
X11.8536Y-3.7233
X11.8536Y-3.871
X11.9058Y-3.7449
X11.9058Y-3.8493
X11.9274Y-3.7971
X13.186Y-2.9177
X13.2076Y-2.8655
X13.2076Y-2.9699
X13.2598Y-2.8439
X13.2598Y-2.9915
X13.312Y-2.8655
X13.312Y-2.9699
X13.3336Y-2.9177
X13.4035Y-5.7922
X13.4252Y-5.74
X13.4252Y-5.8444
X13.4774Y-5.7184
X13.4774Y-5.866
X13.5295Y-5.74
X13.5295Y-5.8444
X13.5512Y-5.7922
T5
X11.75Y-5.0008
X11.75Y-5.1008
X11.85Y-5.0008
X11.85Y-5.1008
X11.95Y-5.0008
X11.95Y-5.1008
T6
X0.4911Y-4.5078
X1.1698Y-2.9177
X1.3067Y-6.4221
X3.7911Y-3.7971
X3.9786Y-5.2971
X4.3587Y-2.9177
X6.3607Y-6.5403
X7.5325Y-2.9177
X8.2911Y-3.7971
X8.4786Y-5.2971
X10.588Y-6.4221
X10.9577Y-2.9177
X11.4786Y-5.2971
X11.8536Y-3.7971
X13.2598Y-2.9177
X13.4774Y-5.7922
M30
