M48
; DRILL file {KiCad 8.0.6} date 2024-11-23T19:51:20+0700
; FORMAT={-:-/ absolute / inch / decimal}
; #@! TF.CreationDate,2024-11-23T19:51:20+07:00
; #@! TF.GenerationSoftware,Kicad,Pcbnew,8.0.6
; #@! TF.FileFunction,NonPlated,1,2,NPTH
FMAT,2
INCH
; #@! TA.AperFunction,NonPlated,NPTH,ComponentDrill
T1C0.0689
; #@! TA.AperFunction,NonPlated,NPTH,ComponentDrill
T2C0.1200
; #@! TA.AperFunction,NonPlated,NPTH,ComponentDrill
T3C0.1570
%
G90
G05
T1
X0.4973Y-2.4846
X0.4973Y-3.4221
X0.6848Y-4.1721
X0.6848Y-6.4221
X0.7786Y-4.9221
X0.8973Y-2.4846
X0.8973Y-3.4221
X0.9661Y-5.6721
X1.0848Y-4.1721
X1.0848Y-6.4221
X1.1786Y-4.9221
X1.2473Y-3.4221
X1.3661Y-5.6721
X1.4348Y-2.4846
X1.6223Y-4.1721
X1.6223Y-6.4221
X1.6473Y-3.4221
X1.8098Y-4.9221
X1.8348Y-2.4846
X1.9973Y-3.4221
X2.0223Y-4.1721
X2.0223Y-6.4221
X2.1848Y-2.4846
X2.1848Y-5.6721
X2.2098Y-4.9221
X2.3723Y-4.1721
X2.3973Y-3.4221
X2.5598Y-6.4221
X2.5598Y-4.9221
X2.5848Y-2.4846
X2.5848Y-5.6721
X2.7473Y-3.4221
X2.7723Y-4.1721
X2.9348Y-2.4846
X2.9348Y-5.6721
X2.9598Y-4.9221
X2.9598Y-6.4221
X3.1223Y-4.1721
X3.1473Y-3.4221
X3.3098Y-4.9221
X3.3348Y-2.4846
X3.3348Y-5.6721
X3.4973Y-3.4221
X3.5223Y-4.1721
X3.6848Y-2.4846
X3.6848Y-5.6721
X3.7098Y-4.9221
X3.8723Y-4.1721
X3.8973Y-3.4221
X4.0598Y-4.9221
X4.0848Y-2.4846
X4.0848Y-5.6721
X4.2473Y-3.4221
X4.2723Y-4.1721
X4.4348Y-5.6721
X4.4598Y-4.9221
X4.6223Y-2.4846
X4.6223Y-4.1721
X4.6473Y-3.4221
X4.8098Y-4.9221
X4.8348Y-5.6721
X4.9973Y-3.4221
X5.0223Y-2.4846
X5.0223Y-4.1721
X5.1848Y-5.6721
X5.2098Y-4.9221
X5.3723Y-2.4846
X5.3723Y-4.1721
X5.3973Y-3.4221
X5.5598Y-4.9221
X5.5848Y-5.6721
X5.7473Y-6.4221
X5.7473Y-3.4221
X5.7723Y-2.4846
X5.7723Y-4.1721
X5.9348Y-5.6721
X5.9598Y-4.9221
X6.1223Y-2.4846
X6.1223Y-4.1721
X6.1473Y-3.4221
X6.1473Y-6.4221
X6.3098Y-4.9221
X6.3348Y-5.6721
X6.4973Y-3.4221
X6.5223Y-2.4846
X6.5223Y-4.1721
X6.6848Y-5.6721
X6.7098Y-4.9221
X6.8723Y-2.4846
X6.8723Y-4.1721
X6.8973Y-3.4221
X7.0598Y-4.9221
X7.0848Y-5.6721
X7.2473Y-3.4221
X7.2723Y-2.4846
X7.2723Y-4.1721
X7.4348Y-5.6721
X7.4598Y-4.9221
X7.6223Y-4.1721
X7.6473Y-3.4221
X7.8098Y-2.4846
X7.8098Y-4.9221
X7.8348Y-5.6721
X7.9973Y-3.4221
X8.0223Y-4.1721
X8.1848Y-5.6721
X8.2098Y-2.4846
X8.2098Y-4.9221
X8.3723Y-4.1721
X8.3973Y-3.4221
X8.5598Y-2.4846
X8.5598Y-4.9221
X8.5848Y-5.6721
X8.7473Y-3.4221
X8.7723Y-4.1721
X8.9348Y-6.4221
X8.9348Y-5.6721
X8.9598Y-2.4846
X8.9598Y-4.9221
X9.1223Y-4.1721
X9.1473Y-3.4221
X9.3098Y-2.4846
X9.3098Y-4.9221
X9.3348Y-5.6721
X9.3348Y-6.4221
X9.4973Y-3.4221
X9.5223Y-4.1721
X9.7098Y-2.4846
X9.7098Y-4.9221
X9.8723Y-4.1721
X9.8723Y-6.4221
X9.8973Y-3.4221
X10.0598Y-2.4846
X10.2723Y-4.1721
X10.2723Y-6.4221
X10.3411Y-5.6721
X10.4598Y-2.4846
X10.5286Y-4.9221
X10.6223Y-3.4221
X10.7411Y-5.6721
X10.8098Y-4.1721
X10.8098Y-6.4221
X10.9286Y-4.9221
X10.9973Y-2.4846
X11.0223Y-3.4221
X11.2098Y-4.1721
X11.2098Y-6.4221
X11.3973Y-2.4846
X11.9348Y-2.4846
X11.9348Y-3.4221
X11.9348Y-4.1721
X11.9348Y-6.4221
X12.3348Y-2.4846
X12.3348Y-3.4221
X12.3348Y-4.1721
X12.3348Y-6.4221
X12.6848Y-2.4846
X12.6848Y-3.4221
X12.6848Y-4.1721
X12.6848Y-5.6721
X12.6848Y-6.4221
X13.0848Y-2.4846
X13.0848Y-3.4221
X13.0848Y-4.1721
X13.0848Y-5.6721
X13.0848Y-6.4221
X13.4348Y-2.4846
X13.4348Y-3.4221
X13.4348Y-4.1721
X13.4348Y-6.4221
X13.8348Y-2.4846
X13.8348Y-3.4221
X13.8348Y-4.1721
X13.8348Y-6.4221
T2
X0.6973Y-5.3971
X1.6348Y-5.3971
X3.6973Y-6.6971
X8.1973Y-6.6971
X10.0723Y-5.3971
X10.2598Y-5.1971
X10.3536Y-3.1471
X11.0098Y-5.3971
X11.1973Y-5.1971
X11.2911Y-3.1471
T3
X0.6973Y-5.9971
X1.6348Y-5.9971
X3.6973Y-6.0971
X8.1973Y-6.0971
X10.0723Y-5.9971
X10.2598Y-4.5971
X10.3536Y-3.7471
X11.0098Y-5.9971
X11.1973Y-4.5971
X11.2911Y-3.7471
M30
