%TF.GenerationSoftware,KiCad,Pcbnew,8.0.6*%
%TF.CreationDate,2024-11-23T19:51:20+07:00*%
%TF.ProjectId,Zellia80,5a656c6c-6961-4383-902e-6b696361645f,rev?*%
%TF.SameCoordinates,Original*%
%TF.FileFunction,Paste,Bot*%
%TF.FilePolarity,Positive*%
%FSLAX46Y46*%
G04 Gerber Fmt 4.6, Leading zero omitted, Abs format (unit mm)*
G04 Created by KiCad (PCBNEW 8.0.6) date 2024-11-23 19:51:20*
%MOMM*%
%LPD*%
G01*
G04 APERTURE LIST*
G04 Aperture macros list*
%AMRoundRect*
0 Rectangle with rounded corners*
0 $1 Rounding radius*
0 $2 $3 $4 $5 $6 $7 $8 $9 X,Y pos of 4 corners*
0 Add a 4 corners polygon primitive as box body*
4,1,4,$2,$3,$4,$5,$6,$7,$8,$9,$2,$3,0*
0 Add four circle primitives for the rounded corners*
1,1,$1+$1,$2,$3*
1,1,$1+$1,$4,$5*
1,1,$1+$1,$6,$7*
1,1,$1+$1,$8,$9*
0 Add four rect primitives between the rounded corners*
20,1,$1+$1,$2,$3,$4,$5,0*
20,1,$1+$1,$4,$5,$6,$7,0*
20,1,$1+$1,$6,$7,$8,$9,0*
20,1,$1+$1,$8,$9,$2,$3,0*%
%AMRotRect*
0 Rectangle, with rotation*
0 The origin of the aperture is its center*
0 $1 length*
0 $2 width*
0 $3 Rotation angle, in degrees counterclockwise*
0 Add horizontal line*
21,1,$1,$2,0,0,$3*%
G04 Aperture macros list end*
%ADD10R,1.190000X3.000000*%
%ADD11R,0.620000X0.560000*%
%ADD12R,0.560000X0.620000*%
%ADD13RoundRect,0.150000X-0.150000X0.350000X-0.150000X-0.350000X0.150000X-0.350000X0.150000X0.350000X0*%
%ADD14RotRect,0.560000X0.620000X225.000000*%
%ADD15R,0.600000X1.550000*%
%ADD16R,1.200000X1.800000*%
%ADD17RoundRect,0.135000X-0.185000X0.135000X-0.185000X-0.135000X0.185000X-0.135000X0.185000X0.135000X0*%
%ADD18RoundRect,0.375000X0.375000X-0.625000X0.375000X0.625000X-0.375000X0.625000X-0.375000X-0.625000X0*%
%ADD19RoundRect,0.500000X1.400000X-0.500000X1.400000X0.500000X-1.400000X0.500000X-1.400000X-0.500000X0*%
%ADD20RotRect,0.560000X0.620000X315.000000*%
%ADD21RoundRect,0.100000X-0.637500X-0.100000X0.637500X-0.100000X0.637500X0.100000X-0.637500X0.100000X0*%
%ADD22RotRect,0.560000X0.620000X45.000000*%
%ADD23RoundRect,0.200000X0.200000X0.800000X-0.200000X0.800000X-0.200000X-0.800000X0.200000X-0.800000X0*%
%ADD24R,1.900000X0.400000*%
%ADD25RoundRect,0.075000X0.662500X0.075000X-0.662500X0.075000X-0.662500X-0.075000X0.662500X-0.075000X0*%
%ADD26RoundRect,0.075000X0.075000X0.662500X-0.075000X0.662500X-0.075000X-0.662500X0.075000X-0.662500X0*%
%ADD27RoundRect,0.200000X-0.200000X-0.800000X0.200000X-0.800000X0.200000X0.800000X-0.200000X0.800000X0*%
G04 APERTURE END LIST*
D10*
%TO.C,D1*%
X22261250Y-130102499D03*
X27451250Y-130102499D03*
%TD*%
D11*
%TO.C,C33*%
X53312500Y-86652499D03*
X53312500Y-85692499D03*
%TD*%
%TO.C,C73*%
X177375000Y-143802499D03*
X177375000Y-142842499D03*
%TD*%
%TO.C,C1*%
X20212500Y-62839999D03*
X20212500Y-61879999D03*
%TD*%
%TO.C,C160*%
X277150000Y-162852499D03*
X277150000Y-161892499D03*
%TD*%
%TO.C,C60*%
X167850000Y-124752499D03*
X167850000Y-123792499D03*
%TD*%
D12*
%TO.C,C109*%
X204367500Y-120263124D03*
X203407500Y-120263124D03*
%TD*%
D11*
%TO.C,C195*%
X281912500Y-62839999D03*
X281912500Y-61879999D03*
%TD*%
%TO.C,C152*%
X329775000Y-62839999D03*
X329775000Y-61879999D03*
%TD*%
D13*
%TO.C,U25*%
X61525000Y-142917499D03*
X60575000Y-145267499D03*
X59625000Y-142917499D03*
%TD*%
D11*
%TO.C,C22*%
X39262500Y-86652499D03*
X39262500Y-85692499D03*
%TD*%
D13*
%TO.C,U23*%
X66287500Y-104817499D03*
X65337500Y-107167499D03*
X64387500Y-104817499D03*
%TD*%
D11*
%TO.C,C125*%
X143800000Y-124752499D03*
X143800000Y-123792499D03*
%TD*%
%TO.C,C23*%
X48787500Y-105702499D03*
X48787500Y-104742499D03*
%TD*%
%TO.C,C108*%
X310725000Y-62839999D03*
X310725000Y-61879999D03*
%TD*%
D14*
%TO.C,C199*%
X304064411Y-134470588D03*
X303385589Y-135149410D03*
%TD*%
D13*
%TO.C,U96*%
X347275000Y-161967499D03*
X346325000Y-164317499D03*
X345375000Y-161967499D03*
%TD*%
%TO.C,U26*%
X142487500Y-61954999D03*
X141537500Y-64304999D03*
X140587500Y-61954999D03*
%TD*%
%TO.C,U27*%
X161537500Y-61954999D03*
X160587500Y-64304999D03*
X159637500Y-61954999D03*
%TD*%
D15*
%TO.C,J2*%
X297818750Y-82172499D03*
X296818750Y-82172499D03*
X295818750Y-82172499D03*
X294818750Y-82172499D03*
D16*
X299118750Y-78297499D03*
X293518750Y-78297499D03*
%TD*%
D11*
%TO.C,C18*%
X27356250Y-124752499D03*
X27356250Y-123792499D03*
%TD*%
%TO.C,C2*%
X44025000Y-62839999D03*
X44025000Y-61879999D03*
%TD*%
%TO.C,C123*%
X181900000Y-124752499D03*
X181900000Y-123792499D03*
%TD*%
%TO.C,C17*%
X24975000Y-105702499D03*
X24975000Y-104742499D03*
%TD*%
D13*
%TO.C,U30*%
X90100000Y-123867499D03*
X89150000Y-126217499D03*
X88200000Y-123867499D03*
%TD*%
D11*
%TO.C,C105*%
X196187500Y-105702499D03*
X196187500Y-104742499D03*
%TD*%
D13*
%TO.C,U38*%
X204400000Y-61954999D03*
X203450000Y-64304999D03*
X202500000Y-61954999D03*
%TD*%
D11*
%TO.C,C99*%
X139037500Y-105702499D03*
X139037500Y-104742499D03*
%TD*%
%TO.C,C122*%
X67600000Y-124752499D03*
X67600000Y-123792499D03*
%TD*%
%TO.C,C71*%
X201187500Y-105702499D03*
X201187500Y-104742499D03*
%TD*%
%TO.C,C179*%
X324775000Y-143802499D03*
X324775000Y-142842499D03*
%TD*%
%TO.C,C81*%
X225000000Y-62839999D03*
X225000000Y-61879999D03*
%TD*%
%TO.C,C151*%
X310725000Y-162852499D03*
X310725000Y-161892499D03*
%TD*%
D13*
%TO.C,U66*%
X204400000Y-123867499D03*
X203450000Y-126217499D03*
X202500000Y-123867499D03*
%TD*%
D11*
%TO.C,C44*%
X110462500Y-86652499D03*
X110462500Y-85692499D03*
%TD*%
%TO.C,C19*%
X32118750Y-143802499D03*
X32118750Y-142842499D03*
%TD*%
%TO.C,C98*%
X286912500Y-62839999D03*
X286912500Y-61879999D03*
%TD*%
D13*
%TO.C,U13*%
X80575000Y-61954999D03*
X79625000Y-64304999D03*
X78675000Y-61954999D03*
%TD*%
D11*
%TO.C,C24*%
X53550000Y-124752499D03*
X53550000Y-123792499D03*
%TD*%
D13*
%TO.C,U20*%
X123437500Y-61954999D03*
X122487500Y-64304999D03*
X121537500Y-61954999D03*
%TD*%
%TO.C,U72*%
X223450000Y-123867499D03*
X222500000Y-126217499D03*
X221550000Y-123867499D03*
%TD*%
D11*
%TO.C,C117*%
X19975000Y-105702499D03*
X19975000Y-104742499D03*
%TD*%
%TO.C,C30*%
X72600000Y-124752499D03*
X72600000Y-123792499D03*
%TD*%
D13*
%TO.C,U79*%
X232975000Y-142917499D03*
X232025000Y-145267499D03*
X231075000Y-142917499D03*
%TD*%
D11*
%TO.C,C128*%
X86650000Y-124752499D03*
X86650000Y-123792499D03*
%TD*%
D17*
%TO.C,R10*%
X20497500Y-130397500D03*
X20497500Y-129377500D03*
%TD*%
D13*
%TO.C,U44*%
X242500000Y-61954999D03*
X241550000Y-64304999D03*
X240600000Y-61954999D03*
%TD*%
D11*
%TO.C,C56*%
X272387500Y-86652499D03*
X272387500Y-85692499D03*
%TD*%
D13*
%TO.C,U32*%
X180587500Y-61954999D03*
X179637500Y-64304999D03*
X178687500Y-61954999D03*
%TD*%
%TO.C,U9*%
X61525000Y-61954999D03*
X60575000Y-64304999D03*
X59625000Y-61954999D03*
%TD*%
D18*
%TO.C,U63*%
X298618750Y-67047499D03*
X296318750Y-67047499D03*
D19*
X296318750Y-60747499D03*
D18*
X294018750Y-67047499D03*
%TD*%
D13*
%TO.C,U94*%
X309175000Y-161967499D03*
X308225000Y-164317499D03*
X307275000Y-161967499D03*
%TD*%
D11*
%TO.C,C35*%
X86887500Y-105702499D03*
X86887500Y-104742499D03*
%TD*%
%TO.C,C36*%
X91650000Y-124752499D03*
X91650000Y-123792499D03*
%TD*%
D13*
%TO.C,U55*%
X156775000Y-142917499D03*
X155825000Y-145267499D03*
X154875000Y-142917499D03*
%TD*%
D11*
%TO.C,C50*%
X163087500Y-62839999D03*
X163087500Y-61879999D03*
%TD*%
%TO.C,C58*%
X153562500Y-86652499D03*
X153562500Y-85692499D03*
%TD*%
D20*
%TO.C,C200*%
X303385589Y-143470588D03*
X304064411Y-144149410D03*
%TD*%
D13*
%TO.C,U82*%
X247262500Y-85767499D03*
X246312500Y-88117499D03*
X245362500Y-85767499D03*
%TD*%
D11*
%TO.C,C173*%
X282150000Y-162852499D03*
X282150000Y-161892499D03*
%TD*%
D13*
%TO.C,U77*%
X237737500Y-104817499D03*
X236787500Y-107167499D03*
X235837500Y-104817499D03*
%TD*%
D11*
%TO.C,C171*%
X72600000Y-162852499D03*
X72600000Y-161892499D03*
%TD*%
D21*
%TO.C,U62*%
X195825000Y-120263124D03*
X195825000Y-119613124D03*
X195825000Y-118963124D03*
X195825000Y-118313124D03*
X195825000Y-117663124D03*
X195825000Y-117013124D03*
X195825000Y-116363124D03*
X195825000Y-115713124D03*
X195825000Y-115063124D03*
X195825000Y-114413124D03*
X195825000Y-113763124D03*
X195825000Y-113113124D03*
X201550000Y-113113124D03*
X201550000Y-113763124D03*
X201550000Y-114413124D03*
X201550000Y-115063124D03*
X201550000Y-115713124D03*
X201550000Y-116363124D03*
X201550000Y-117013124D03*
X201550000Y-117663124D03*
X201550000Y-118313124D03*
X201550000Y-118963124D03*
X201550000Y-119613124D03*
X201550000Y-120263124D03*
%TD*%
D11*
%TO.C,C129*%
X105700000Y-124752499D03*
X105700000Y-123792499D03*
%TD*%
%TO.C,C161*%
X348825000Y-62839999D03*
X348825000Y-61879999D03*
%TD*%
%TO.C,C127*%
X48550000Y-124752499D03*
X48550000Y-123792499D03*
%TD*%
D13*
%TO.C,U58*%
X171062500Y-85767499D03*
X170112500Y-88117499D03*
X169162500Y-85767499D03*
%TD*%
%TO.C,U31*%
X80575000Y-142917499D03*
X79625000Y-145267499D03*
X78675000Y-142917499D03*
%TD*%
D11*
%TO.C,C181*%
X343825000Y-86652499D03*
X343825000Y-85692499D03*
%TD*%
D13*
%TO.C,U89*%
X280600000Y-104817499D03*
X279650000Y-107167499D03*
X278700000Y-104817499D03*
%TD*%
D11*
%TO.C,C162*%
X348825000Y-86652499D03*
X348825000Y-85692499D03*
%TD*%
D13*
%TO.C,U92*%
X256787500Y-161967499D03*
X255837500Y-164317499D03*
X254887500Y-161967499D03*
%TD*%
%TO.C,U37*%
X99625000Y-142917499D03*
X98675000Y-145267499D03*
X97725000Y-142917499D03*
%TD*%
%TO.C,U18*%
X52000000Y-123867499D03*
X51050000Y-126217499D03*
X50100000Y-123867499D03*
%TD*%
D21*
%TO.C,U69*%
X267262500Y-120263124D03*
X267262500Y-119613124D03*
X267262500Y-118963124D03*
X267262500Y-118313124D03*
X267262500Y-117663124D03*
X267262500Y-117013124D03*
X267262500Y-116363124D03*
X267262500Y-115713124D03*
X267262500Y-115063124D03*
X267262500Y-114413124D03*
X267262500Y-113763124D03*
X267262500Y-113113124D03*
X272987500Y-113113124D03*
X272987500Y-113763124D03*
X272987500Y-114413124D03*
X272987500Y-115063124D03*
X272987500Y-115713124D03*
X272987500Y-116363124D03*
X272987500Y-117013124D03*
X272987500Y-117663124D03*
X272987500Y-118313124D03*
X272987500Y-118963124D03*
X272987500Y-119613124D03*
X272987500Y-120263124D03*
%TD*%
D11*
%TO.C,C189*%
X158087500Y-62839999D03*
X158087500Y-61879999D03*
%TD*%
%TO.C,C66*%
X186900000Y-124752499D03*
X186900000Y-123792499D03*
%TD*%
%TO.C,C141*%
X77125000Y-143802499D03*
X77125000Y-142842499D03*
%TD*%
D13*
%TO.C,U65*%
X199637500Y-104817499D03*
X198687500Y-107167499D03*
X197737500Y-104817499D03*
%TD*%
D11*
%TO.C,C72*%
X205950000Y-124752499D03*
X205950000Y-123792499D03*
%TD*%
D12*
%TO.C,C156*%
X275805000Y-120263124D03*
X274845000Y-120263124D03*
%TD*%
D11*
%TO.C,C41*%
X105937500Y-105702499D03*
X105937500Y-104742499D03*
%TD*%
%TO.C,C167*%
X15212500Y-62839999D03*
X15212500Y-61879999D03*
%TD*%
%TO.C,C95*%
X282150000Y-105702499D03*
X282150000Y-104742499D03*
%TD*%
D13*
%TO.C,U10*%
X18662500Y-85767499D03*
X17712500Y-88117499D03*
X16762500Y-85767499D03*
%TD*%
D11*
%TO.C,C34*%
X77362500Y-86652499D03*
X77362500Y-85692499D03*
%TD*%
D13*
%TO.C,U97*%
X328225000Y-142917499D03*
X327275000Y-145267499D03*
X326325000Y-142917499D03*
%TD*%
%TO.C,U87*%
X347275000Y-85767499D03*
X346325000Y-88117499D03*
X345375000Y-85767499D03*
%TD*%
%TO.C,U12*%
X25806250Y-123867499D03*
X24856250Y-126217499D03*
X23906250Y-123867499D03*
%TD*%
D11*
%TO.C,C183*%
X58075000Y-62839999D03*
X58075000Y-61879999D03*
%TD*%
D13*
%TO.C,U86*%
X328225000Y-85767499D03*
X327275000Y-88117499D03*
X326325000Y-85767499D03*
%TD*%
%TO.C,U57*%
X268693750Y-142917499D03*
X267743750Y-145267499D03*
X266793750Y-142917499D03*
%TD*%
D11*
%TO.C,C28*%
X58312500Y-86652499D03*
X58312500Y-85692499D03*
%TD*%
D13*
%TO.C,U83*%
X256787500Y-104817499D03*
X255837500Y-107167499D03*
X254887500Y-104817499D03*
%TD*%
D11*
%TO.C,C140*%
X153325000Y-143802499D03*
X153325000Y-142842499D03*
%TD*%
%TO.C,C86*%
X244050000Y-62839999D03*
X244050000Y-61879999D03*
%TD*%
D13*
%TO.C,U33*%
X30568750Y-142917499D03*
X29618750Y-145267499D03*
X28668750Y-142917499D03*
%TD*%
D11*
%TO.C,C96*%
X119987500Y-105702499D03*
X119987500Y-104742499D03*
%TD*%
%TO.C,C43*%
X82125000Y-143802499D03*
X82125000Y-142842499D03*
%TD*%
%TO.C,C93*%
X43787500Y-105702499D03*
X43787500Y-104742499D03*
%TD*%
%TO.C,C130*%
X22356250Y-124752499D03*
X22356250Y-123792499D03*
%TD*%
D12*
%TO.C,C164*%
X346051875Y-120263124D03*
X345091875Y-120263124D03*
%TD*%
D13*
%TO.C,U93*%
X328225000Y-61954999D03*
X327275000Y-64304999D03*
X326325000Y-61954999D03*
%TD*%
D11*
%TO.C,C89*%
X258337500Y-105702499D03*
X258337500Y-104742499D03*
%TD*%
%TO.C,C194*%
X258100000Y-62839999D03*
X258100000Y-61879999D03*
%TD*%
%TO.C,C63*%
X167612500Y-86652499D03*
X167612500Y-85692499D03*
%TD*%
%TO.C,C88*%
X248812500Y-86652499D03*
X248812500Y-85692499D03*
%TD*%
D13*
%TO.C,U17*%
X47237500Y-104817499D03*
X46287500Y-107167499D03*
X45337500Y-104817499D03*
%TD*%
D11*
%TO.C,C62*%
X182137500Y-62839999D03*
X182137500Y-61879999D03*
%TD*%
%TO.C,C37*%
X63075000Y-143802499D03*
X63075000Y-142842499D03*
%TD*%
D13*
%TO.C,U88*%
X309175000Y-104817499D03*
X308225000Y-107167499D03*
X307275000Y-104817499D03*
%TD*%
D11*
%TO.C,C137*%
X210475000Y-143802499D03*
X210475000Y-142842499D03*
%TD*%
%TO.C,C188*%
X139037500Y-62839999D03*
X139037500Y-61879999D03*
%TD*%
%TO.C,C5*%
X101175000Y-62839999D03*
X101175000Y-61879999D03*
%TD*%
D13*
%TO.C,U3*%
X275837500Y-85767499D03*
X274887500Y-88117499D03*
X273937500Y-85767499D03*
%TD*%
D11*
%TO.C,C113*%
X270006250Y-124752499D03*
X270006250Y-123792499D03*
%TD*%
%TO.C,C52*%
X134512500Y-86652499D03*
X134512500Y-85692499D03*
%TD*%
%TO.C,C51*%
X15212500Y-86652499D03*
X15212500Y-85692499D03*
%TD*%
%TO.C,C85*%
X215475000Y-143802499D03*
X215475000Y-142842499D03*
%TD*%
%TO.C,C124*%
X162850000Y-124752499D03*
X162850000Y-123792499D03*
%TD*%
D21*
%TO.C,U74*%
X337509375Y-120263124D03*
X337509375Y-119613124D03*
X337509375Y-118963124D03*
X337509375Y-118313124D03*
X337509375Y-117663124D03*
X337509375Y-117013124D03*
X337509375Y-116363124D03*
X337509375Y-115713124D03*
X337509375Y-115063124D03*
X337509375Y-114413124D03*
X337509375Y-113763124D03*
X337509375Y-113113124D03*
X343234375Y-113113124D03*
X343234375Y-113763124D03*
X343234375Y-114413124D03*
X343234375Y-115063124D03*
X343234375Y-115713124D03*
X343234375Y-116363124D03*
X343234375Y-117013124D03*
X343234375Y-117663124D03*
X343234375Y-118313124D03*
X343234375Y-118963124D03*
X343234375Y-119613124D03*
X343234375Y-120263124D03*
%TD*%
D11*
%TO.C,C118*%
X310725000Y-105702499D03*
X310725000Y-104742499D03*
%TD*%
D13*
%TO.C,U34*%
X94862500Y-85767499D03*
X93912500Y-88117499D03*
X92962500Y-85767499D03*
%TD*%
%TO.C,U35*%
X104387500Y-104817499D03*
X103437500Y-107167499D03*
X102487500Y-104817499D03*
%TD*%
D11*
%TO.C,C53*%
X144037500Y-105702499D03*
X144037500Y-104742499D03*
%TD*%
%TO.C,C191*%
X200950000Y-62839999D03*
X200950000Y-61879999D03*
%TD*%
%TO.C,C80*%
X243812500Y-86652499D03*
X243812500Y-85692499D03*
%TD*%
%TO.C,C107*%
X270243750Y-143802499D03*
X270243750Y-142842499D03*
%TD*%
%TO.C,C196*%
X305725000Y-62839999D03*
X305725000Y-61879999D03*
%TD*%
%TO.C,C193*%
X239050000Y-62839999D03*
X239050000Y-61879999D03*
%TD*%
%TO.C,C139*%
X172375000Y-143802499D03*
X172375000Y-142842499D03*
%TD*%
%TO.C,C177*%
X39025000Y-62839999D03*
X39025000Y-61879999D03*
%TD*%
%TO.C,C143*%
X115225000Y-143802499D03*
X115225000Y-142842499D03*
%TD*%
%TO.C,C111*%
X215237500Y-105702499D03*
X215237500Y-104742499D03*
%TD*%
D13*
%TO.C,U6*%
X71050000Y-161967499D03*
X70100000Y-164317499D03*
X69150000Y-161967499D03*
%TD*%
D11*
%TO.C,C76*%
X210712500Y-86652499D03*
X210712500Y-85692499D03*
%TD*%
%TO.C,C169*%
X24975000Y-162852499D03*
X24975000Y-161892499D03*
%TD*%
%TO.C,C45*%
X129512500Y-86652499D03*
X129512500Y-85692499D03*
%TD*%
%TO.C,C67*%
X158325000Y-143802499D03*
X158325000Y-142842499D03*
%TD*%
%TO.C,C133*%
X58075000Y-143802499D03*
X58075000Y-142842499D03*
%TD*%
%TO.C,C145*%
X329775000Y-143802499D03*
X329775000Y-142842499D03*
%TD*%
%TO.C,C29*%
X67837500Y-105702499D03*
X67837500Y-104742499D03*
%TD*%
D13*
%TO.C,U36*%
X109150000Y-123867499D03*
X108200000Y-126217499D03*
X107250000Y-123867499D03*
%TD*%
D11*
%TO.C,C150*%
X305725000Y-105702499D03*
X305725000Y-104742499D03*
%TD*%
D13*
%TO.C,U70*%
X209162500Y-85767499D03*
X208212500Y-88117499D03*
X207262500Y-85767499D03*
%TD*%
%TO.C,U8*%
X232975000Y-161967499D03*
X232025000Y-164317499D03*
X231075000Y-161967499D03*
%TD*%
%TO.C,U50*%
X285362500Y-61954999D03*
X284412500Y-64304999D03*
X283462500Y-61954999D03*
%TD*%
D11*
%TO.C,R9*%
X308975000Y-131789999D03*
X308975000Y-130829999D03*
%TD*%
D13*
%TO.C,U43*%
X118675000Y-142917499D03*
X117725000Y-145267499D03*
X116775000Y-142917499D03*
%TD*%
D11*
%TO.C,C79*%
X196425000Y-143802499D03*
X196425000Y-142842499D03*
%TD*%
D13*
%TO.C,U52*%
X152012500Y-85767499D03*
X151062500Y-88117499D03*
X150112500Y-85767499D03*
%TD*%
D11*
%TO.C,C6*%
X124987500Y-62839999D03*
X124987500Y-61879999D03*
%TD*%
D13*
%TO.C,U22*%
X56762500Y-85767499D03*
X55812500Y-88117499D03*
X54862500Y-85767499D03*
%TD*%
D11*
%TO.C,C97*%
X234525000Y-143802499D03*
X234525000Y-142842499D03*
%TD*%
%TO.C,C187*%
X119987500Y-62839999D03*
X119987500Y-61879999D03*
%TD*%
D13*
%TO.C,U5*%
X47237500Y-161967499D03*
X46287500Y-164317499D03*
X45337500Y-161967499D03*
%TD*%
D11*
%TO.C,C155*%
X329775000Y-105702499D03*
X329775000Y-104742499D03*
%TD*%
%TO.C,C75*%
X205950000Y-62839999D03*
X205950000Y-61879999D03*
%TD*%
D13*
%TO.C,U67*%
X194875000Y-142917499D03*
X193925000Y-145267499D03*
X192975000Y-142917499D03*
%TD*%
D11*
%TO.C,C126*%
X124750000Y-124752499D03*
X124750000Y-123792499D03*
%TD*%
D13*
%TO.C,U54*%
X166300000Y-123867499D03*
X165350000Y-126217499D03*
X164400000Y-123867499D03*
%TD*%
D11*
%TO.C,C31*%
X144037500Y-62839999D03*
X144037500Y-61879999D03*
%TD*%
D12*
%TO.C,R13*%
X299495000Y-137809999D03*
X300455000Y-137809999D03*
%TD*%
D13*
%TO.C,U53*%
X161537500Y-104817499D03*
X160587500Y-107167499D03*
X159637500Y-104817499D03*
%TD*%
D21*
%TO.C,U68*%
X233925000Y-120263124D03*
X233925000Y-119613124D03*
X233925000Y-118963124D03*
X233925000Y-118313124D03*
X233925000Y-117663124D03*
X233925000Y-117013124D03*
X233925000Y-116363124D03*
X233925000Y-115713124D03*
X233925000Y-115063124D03*
X233925000Y-114413124D03*
X233925000Y-113763124D03*
X233925000Y-113113124D03*
X239650000Y-113113124D03*
X239650000Y-113763124D03*
X239650000Y-114413124D03*
X239650000Y-115063124D03*
X239650000Y-115713124D03*
X239650000Y-116363124D03*
X239650000Y-117013124D03*
X239650000Y-117663124D03*
X239650000Y-118313124D03*
X239650000Y-118963124D03*
X239650000Y-119613124D03*
X239650000Y-120263124D03*
%TD*%
D11*
%TO.C,C64*%
X172612500Y-86652499D03*
X172612500Y-85692499D03*
%TD*%
D13*
%TO.C,U29*%
X85337500Y-104817499D03*
X84387500Y-107167499D03*
X83437500Y-104817499D03*
%TD*%
D11*
%TO.C,C49*%
X101175000Y-143802499D03*
X101175000Y-142842499D03*
%TD*%
%TO.C,C82*%
X229762500Y-86652499D03*
X229762500Y-85692499D03*
%TD*%
%TO.C,C138*%
X191425000Y-143802499D03*
X191425000Y-142842499D03*
%TD*%
D22*
%TO.C,C202*%
X312885589Y-135399410D03*
X313564411Y-134720588D03*
%TD*%
D11*
%TO.C,C178*%
X153562500Y-162852499D03*
X153562500Y-161892499D03*
%TD*%
%TO.C,C55*%
X120225000Y-143802499D03*
X120225000Y-142842499D03*
%TD*%
D13*
%TO.C,U91*%
X347275000Y-104817499D03*
X346325000Y-107167499D03*
X345375000Y-104817499D03*
%TD*%
D11*
%TO.C,C38*%
X72362500Y-86652499D03*
X72362500Y-85692499D03*
%TD*%
D13*
%TO.C,U40*%
X113912500Y-85767499D03*
X112962500Y-88117499D03*
X112012500Y-85767499D03*
%TD*%
D11*
%TO.C,C158*%
X229525000Y-162852499D03*
X229525000Y-161892499D03*
%TD*%
D21*
%TO.C,U21*%
X35090625Y-120263124D03*
X35090625Y-119613124D03*
X35090625Y-118963124D03*
X35090625Y-118313124D03*
X35090625Y-117663124D03*
X35090625Y-117013124D03*
X35090625Y-116363124D03*
X35090625Y-115713124D03*
X35090625Y-115063124D03*
X35090625Y-114413124D03*
X35090625Y-113763124D03*
X35090625Y-113113124D03*
X40815625Y-113113124D03*
X40815625Y-113763124D03*
X40815625Y-114413124D03*
X40815625Y-115063124D03*
X40815625Y-115713124D03*
X40815625Y-116363124D03*
X40815625Y-117013124D03*
X40815625Y-117663124D03*
X40815625Y-118313124D03*
X40815625Y-118963124D03*
X40815625Y-119613124D03*
X40815625Y-120263124D03*
%TD*%
D23*
%TO.C,SW2*%
X314520000Y-127019999D03*
X310320000Y-127019999D03*
%TD*%
D11*
%TO.C,C176*%
X324775000Y-105702499D03*
X324775000Y-104742499D03*
%TD*%
%TO.C,C46*%
X115462500Y-86652499D03*
X115462500Y-85692499D03*
%TD*%
%TO.C,C69*%
X205712500Y-86652499D03*
X205712500Y-85692499D03*
%TD*%
D13*
%TO.C,U90*%
X328225000Y-104817499D03*
X327275000Y-107167499D03*
X326325000Y-104817499D03*
%TD*%
D11*
%TO.C,C149*%
X67600000Y-162852499D03*
X67600000Y-161892499D03*
%TD*%
D13*
%TO.C,U75*%
X309175000Y-61954999D03*
X308225000Y-64304999D03*
X307275000Y-61954999D03*
%TD*%
%TO.C,U45*%
X261550000Y-61954999D03*
X260600000Y-64304999D03*
X259650000Y-61954999D03*
%TD*%
D11*
%TO.C,C197*%
X324775000Y-62839999D03*
X324775000Y-61879999D03*
%TD*%
%TO.C,C192*%
X220000000Y-62839999D03*
X220000000Y-61879999D03*
%TD*%
%TO.C,C74*%
X224762500Y-86652499D03*
X224762500Y-85692499D03*
%TD*%
D12*
%TO.C,C110*%
X166267500Y-120263124D03*
X165307500Y-120263124D03*
%TD*%
D11*
%TO.C,C166*%
X348825000Y-105702499D03*
X348825000Y-104742499D03*
%TD*%
%TO.C,C163*%
X148562500Y-162852499D03*
X148562500Y-161892499D03*
%TD*%
%TO.C,C182*%
X343825000Y-105702499D03*
X343825000Y-104742499D03*
%TD*%
D13*
%TO.C,U47*%
X142487500Y-104817499D03*
X141537500Y-107167499D03*
X140587500Y-104817499D03*
%TD*%
D11*
%TO.C,C112*%
X234287500Y-105702499D03*
X234287500Y-104742499D03*
%TD*%
%TO.C,C185*%
X77125000Y-62839999D03*
X77125000Y-61879999D03*
%TD*%
D13*
%TO.C,U95*%
X328225000Y-161967499D03*
X327275000Y-164317499D03*
X326325000Y-161967499D03*
%TD*%
D11*
%TO.C,C68*%
X186662500Y-86652499D03*
X186662500Y-85692499D03*
%TD*%
%TO.C,C27*%
X34262500Y-86652499D03*
X34262500Y-85692499D03*
%TD*%
%TO.C,C157*%
X329775000Y-162852499D03*
X329775000Y-161892499D03*
%TD*%
D13*
%TO.C,U71*%
X218687500Y-104817499D03*
X217737500Y-107167499D03*
X216787500Y-104817499D03*
%TD*%
D11*
%TO.C,C15*%
X277387500Y-86652499D03*
X277387500Y-85692499D03*
%TD*%
D13*
%TO.C,U14*%
X99625000Y-61954999D03*
X98675000Y-64304999D03*
X97725000Y-61954999D03*
%TD*%
D11*
%TO.C,C142*%
X96175000Y-143802499D03*
X96175000Y-142842499D03*
%TD*%
D12*
%TO.C,C203*%
X313995000Y-140309999D03*
X314955000Y-140309999D03*
%TD*%
D11*
%TO.C,C3*%
X63075000Y-62839999D03*
X63075000Y-61879999D03*
%TD*%
%TO.C,C204*%
X308975000Y-127979999D03*
X308975000Y-127019999D03*
%TD*%
%TO.C,C90*%
X275006250Y-124752499D03*
X275006250Y-123792499D03*
%TD*%
%TO.C,C114*%
X253337500Y-105702499D03*
X253337500Y-104742499D03*
%TD*%
D12*
%TO.C,C25*%
X297278750Y-69397499D03*
X296318750Y-69397499D03*
%TD*%
D13*
%TO.C,U28*%
X75812500Y-85767499D03*
X74862500Y-88117499D03*
X73912500Y-85767499D03*
%TD*%
D11*
%TO.C,C172*%
X258337500Y-162852499D03*
X258337500Y-161892499D03*
%TD*%
%TO.C,C116*%
X310725000Y-86652499D03*
X310725000Y-85692499D03*
%TD*%
%TO.C,C92*%
X100937500Y-105702499D03*
X100937500Y-104742499D03*
%TD*%
%TO.C,C101*%
X158087500Y-105702499D03*
X158087500Y-104742499D03*
%TD*%
D13*
%TO.C,U42*%
X128200000Y-123867499D03*
X127250000Y-126217499D03*
X126300000Y-123867499D03*
%TD*%
D11*
%TO.C,C59*%
X163087500Y-105702499D03*
X163087500Y-104742499D03*
%TD*%
%TO.C,C4*%
X82125000Y-62839999D03*
X82125000Y-61879999D03*
%TD*%
D13*
%TO.C,U4*%
X23425000Y-161967499D03*
X22475000Y-164317499D03*
X21525000Y-161967499D03*
%TD*%
D12*
%TO.C,C153*%
X242467500Y-120263124D03*
X241507500Y-120263124D03*
%TD*%
%TO.C,R12*%
X300455000Y-138809999D03*
X299495000Y-138809999D03*
%TD*%
D13*
%TO.C,U11*%
X23425000Y-104817499D03*
X22475000Y-107167499D03*
X21525000Y-104817499D03*
%TD*%
D11*
%TO.C,C40*%
X96412500Y-86652499D03*
X96412500Y-85692499D03*
%TD*%
%TO.C,C78*%
X225000000Y-124752499D03*
X225000000Y-123792499D03*
%TD*%
%TO.C,C144*%
X134275000Y-143802499D03*
X134275000Y-142842499D03*
%TD*%
%TO.C,C94*%
X263100000Y-62839999D03*
X263100000Y-61879999D03*
%TD*%
D13*
%TO.C,U73*%
X213925000Y-142917499D03*
X212975000Y-145267499D03*
X212025000Y-142917499D03*
%TD*%
%TO.C,U84*%
X273456250Y-123867499D03*
X272506250Y-126217499D03*
X271556250Y-123867499D03*
%TD*%
D12*
%TO.C,R11*%
X300455000Y-136809999D03*
X299495000Y-136809999D03*
%TD*%
D13*
%TO.C,U41*%
X123437500Y-104817499D03*
X122487500Y-107167499D03*
X121537500Y-104817499D03*
%TD*%
%TO.C,U48*%
X147250000Y-123867499D03*
X146300000Y-126217499D03*
X145350000Y-123867499D03*
%TD*%
D11*
%TO.C,C57*%
X148562500Y-86652499D03*
X148562500Y-85692499D03*
%TD*%
D22*
%TO.C,C201*%
X312135589Y-134649410D03*
X312814411Y-133970588D03*
%TD*%
D11*
%TO.C,C65*%
X182137500Y-105702499D03*
X182137500Y-104742499D03*
%TD*%
D13*
%TO.C,U39*%
X223450000Y-61954999D03*
X222500000Y-64304999D03*
X221550000Y-61954999D03*
%TD*%
%TO.C,U60*%
X185350000Y-123867499D03*
X184400000Y-126217499D03*
X183450000Y-123867499D03*
%TD*%
D11*
%TO.C,C147*%
X19975000Y-162852499D03*
X19975000Y-161892499D03*
%TD*%
%TO.C,C170*%
X48787500Y-162852499D03*
X48787500Y-161892499D03*
%TD*%
%TO.C,C184*%
X343825000Y-162852499D03*
X343825000Y-161892499D03*
%TD*%
D21*
%TO.C,U56*%
X81525000Y-120263124D03*
X81525000Y-119613124D03*
X81525000Y-118963124D03*
X81525000Y-118313124D03*
X81525000Y-117663124D03*
X81525000Y-117013124D03*
X81525000Y-116363124D03*
X81525000Y-115713124D03*
X81525000Y-115063124D03*
X81525000Y-114413124D03*
X81525000Y-113763124D03*
X81525000Y-113113124D03*
X87250000Y-113113124D03*
X87250000Y-113763124D03*
X87250000Y-114413124D03*
X87250000Y-115063124D03*
X87250000Y-115713124D03*
X87250000Y-116363124D03*
X87250000Y-117013124D03*
X87250000Y-117663124D03*
X87250000Y-118313124D03*
X87250000Y-118963124D03*
X87250000Y-119613124D03*
X87250000Y-120263124D03*
%TD*%
D13*
%TO.C,U64*%
X190112500Y-85767499D03*
X189162500Y-88117499D03*
X188212500Y-85767499D03*
%TD*%
%TO.C,U7*%
X152012500Y-161967499D03*
X151062500Y-164317499D03*
X150112500Y-161967499D03*
%TD*%
%TO.C,U59*%
X180587500Y-104817499D03*
X179637500Y-107167499D03*
X178687500Y-104817499D03*
%TD*%
D12*
%TO.C,C104*%
X90067500Y-120263124D03*
X89107500Y-120263124D03*
%TD*%
D11*
%TO.C,C70*%
X191662500Y-86652499D03*
X191662500Y-85692499D03*
%TD*%
%TO.C,C198*%
X343825000Y-62839999D03*
X343825000Y-61879999D03*
%TD*%
%TO.C,C175*%
X324775000Y-86652499D03*
X324775000Y-85692499D03*
%TD*%
%TO.C,C119*%
X239050000Y-124752499D03*
X239050000Y-123792499D03*
%TD*%
D13*
%TO.C,U78*%
X242500000Y-123867499D03*
X241550000Y-126217499D03*
X240600000Y-123867499D03*
%TD*%
D11*
%TO.C,C131*%
X27118750Y-143802499D03*
X27118750Y-142842499D03*
%TD*%
D13*
%TO.C,U99*%
X347275000Y-61954999D03*
X346325000Y-64304999D03*
X345375000Y-61954999D03*
%TD*%
D12*
%TO.C,C103*%
X43633125Y-120263124D03*
X42673125Y-120263124D03*
%TD*%
D13*
%TO.C,U16*%
X37712500Y-85767499D03*
X36762500Y-88117499D03*
X35812500Y-85767499D03*
%TD*%
D11*
%TO.C,C77*%
X220237500Y-105702499D03*
X220237500Y-104742499D03*
%TD*%
D24*
%TO.C,Y2*%
X315975000Y-136659999D03*
X315975000Y-137859999D03*
X315975000Y-139059999D03*
%TD*%
D11*
%TO.C,C16*%
X20212500Y-86652499D03*
X20212500Y-85692499D03*
%TD*%
%TO.C,C83*%
X239287500Y-105702499D03*
X239287500Y-104742499D03*
%TD*%
%TO.C,C87*%
X62837500Y-105702499D03*
X62837500Y-104742499D03*
%TD*%
%TO.C,C174*%
X348825000Y-162852499D03*
X348825000Y-161892499D03*
%TD*%
%TO.C,C39*%
X91412500Y-86652499D03*
X91412500Y-85692499D03*
%TD*%
%TO.C,C180*%
X324775000Y-162852499D03*
X324775000Y-161892499D03*
%TD*%
%TO.C,C54*%
X148800000Y-124752499D03*
X148800000Y-123792499D03*
%TD*%
%TO.C,C136*%
X229525000Y-143802499D03*
X229525000Y-142842499D03*
%TD*%
%TO.C,C102*%
X177137500Y-105702499D03*
X177137500Y-104742499D03*
%TD*%
%TO.C,C135*%
X305725000Y-86652499D03*
X305725000Y-85692499D03*
%TD*%
%TO.C,C100*%
X234525000Y-162852499D03*
X234525000Y-161892499D03*
%TD*%
%TO.C,C47*%
X124987500Y-105702499D03*
X124987500Y-104742499D03*
%TD*%
%TO.C,C190*%
X177137500Y-62839999D03*
X177137500Y-61879999D03*
%TD*%
D21*
%TO.C,U51*%
X157725000Y-120263124D03*
X157725000Y-119613124D03*
X157725000Y-118963124D03*
X157725000Y-118313124D03*
X157725000Y-117663124D03*
X157725000Y-117013124D03*
X157725000Y-116363124D03*
X157725000Y-115713124D03*
X157725000Y-115063124D03*
X157725000Y-114413124D03*
X157725000Y-113763124D03*
X157725000Y-113113124D03*
X163450000Y-113113124D03*
X163450000Y-113763124D03*
X163450000Y-114413124D03*
X163450000Y-115063124D03*
X163450000Y-115713124D03*
X163450000Y-116363124D03*
X163450000Y-117013124D03*
X163450000Y-117663124D03*
X163450000Y-118313124D03*
X163450000Y-118963124D03*
X163450000Y-119613124D03*
X163450000Y-120263124D03*
%TD*%
D13*
%TO.C,U49*%
X137725000Y-142917499D03*
X136775000Y-145267499D03*
X135825000Y-142917499D03*
%TD*%
D11*
%TO.C,C186*%
X96175000Y-62839999D03*
X96175000Y-61879999D03*
%TD*%
%TO.C,C134*%
X265243750Y-143802499D03*
X265243750Y-142842499D03*
%TD*%
D12*
%TO.C,C21*%
X293858750Y-69397499D03*
X294818750Y-69397499D03*
%TD*%
D13*
%TO.C,U61*%
X175825000Y-142917499D03*
X174875000Y-145267499D03*
X173925000Y-142917499D03*
%TD*%
%TO.C,U46*%
X132962500Y-85767499D03*
X132012500Y-88117499D03*
X131062500Y-85767499D03*
%TD*%
%TO.C,U76*%
X228212500Y-85767499D03*
X227262500Y-88117499D03*
X226312500Y-85767499D03*
%TD*%
D12*
%TO.C,C106*%
X128167500Y-120263124D03*
X127207500Y-120263124D03*
%TD*%
D11*
%TO.C,C154*%
X329775000Y-86652499D03*
X329775000Y-85692499D03*
%TD*%
%TO.C,C168*%
X305725000Y-162852499D03*
X305725000Y-161892499D03*
%TD*%
D13*
%TO.C,U98*%
X280600000Y-161967499D03*
X279650000Y-164317499D03*
X278700000Y-161967499D03*
%TD*%
D11*
%TO.C,C148*%
X43787500Y-162852499D03*
X43787500Y-161892499D03*
%TD*%
%TO.C,C91*%
X81887500Y-105702499D03*
X81887500Y-104742499D03*
%TD*%
%TO.C,C159*%
X253337500Y-162852499D03*
X253337500Y-161892499D03*
%TD*%
%TO.C,C121*%
X200950000Y-124752499D03*
X200950000Y-123792499D03*
%TD*%
D25*
%TO.C,U100*%
X312387500Y-136559999D03*
X312387500Y-137059999D03*
X312387500Y-137559999D03*
X312387500Y-138060000D03*
X312387500Y-138559999D03*
X312387500Y-139059999D03*
X312387500Y-139559999D03*
X312387500Y-140059999D03*
X312387500Y-140559998D03*
X312387500Y-141059999D03*
X312387500Y-141559999D03*
X312387500Y-142059999D03*
D26*
X310975000Y-143472499D03*
X310475000Y-143472499D03*
X309975000Y-143472499D03*
X309474999Y-143472499D03*
X308975000Y-143472499D03*
X308475000Y-143472499D03*
X307975000Y-143472499D03*
X307475000Y-143472499D03*
X306975001Y-143472499D03*
X306475000Y-143472499D03*
X305975000Y-143472499D03*
X305475000Y-143472499D03*
D25*
X304062500Y-142059999D03*
X304062500Y-141559999D03*
X304062500Y-141059999D03*
X304062500Y-140559998D03*
X304062500Y-140059999D03*
X304062500Y-139559999D03*
X304062500Y-139059999D03*
X304062500Y-138559999D03*
X304062500Y-138060000D03*
X304062500Y-137559999D03*
X304062500Y-137059999D03*
X304062500Y-136559999D03*
D26*
X305475000Y-135147499D03*
X305975000Y-135147499D03*
X306475000Y-135147499D03*
X306975001Y-135147499D03*
X307475000Y-135147499D03*
X307975000Y-135147499D03*
X308475000Y-135147499D03*
X308975000Y-135147499D03*
X309474999Y-135147499D03*
X309975000Y-135147499D03*
X310475000Y-135147499D03*
X310975000Y-135147499D03*
%TD*%
D13*
%TO.C,U2*%
X42475000Y-61954999D03*
X41525000Y-64304999D03*
X40575000Y-61954999D03*
%TD*%
D11*
%TO.C,C61*%
X139275000Y-143802499D03*
X139275000Y-142842499D03*
%TD*%
D13*
%TO.C,U1*%
X18662500Y-61954999D03*
X17712500Y-64304999D03*
X16762500Y-61954999D03*
%TD*%
%TO.C,U80*%
X309175000Y-85767499D03*
X308225000Y-88117499D03*
X307275000Y-85767499D03*
%TD*%
D27*
%TO.C,SW1*%
X310320000Y-130829999D03*
X314520000Y-130829999D03*
%TD*%
D11*
%TO.C,C84*%
X244050000Y-124752499D03*
X244050000Y-123792499D03*
%TD*%
D13*
%TO.C,U24*%
X71050000Y-123867499D03*
X70100000Y-126217499D03*
X69150000Y-123867499D03*
%TD*%
D21*
%TO.C,U15*%
X119625000Y-120263124D03*
X119625000Y-119613124D03*
X119625000Y-118963124D03*
X119625000Y-118313124D03*
X119625000Y-117663124D03*
X119625000Y-117013124D03*
X119625000Y-116363124D03*
X119625000Y-115713124D03*
X119625000Y-115063124D03*
X119625000Y-114413124D03*
X119625000Y-113763124D03*
X119625000Y-113113124D03*
X125350000Y-113113124D03*
X125350000Y-113763124D03*
X125350000Y-114413124D03*
X125350000Y-115063124D03*
X125350000Y-115713124D03*
X125350000Y-116363124D03*
X125350000Y-117013124D03*
X125350000Y-117663124D03*
X125350000Y-118313124D03*
X125350000Y-118963124D03*
X125350000Y-119613124D03*
X125350000Y-120263124D03*
%TD*%
D11*
%TO.C,C42*%
X110700000Y-124752499D03*
X110700000Y-123792499D03*
%TD*%
%TO.C,C48*%
X129750000Y-124752499D03*
X129750000Y-123792499D03*
%TD*%
%TO.C,C120*%
X220000000Y-124752499D03*
X220000000Y-123792499D03*
%TD*%
%TO.C,C115*%
X277150000Y-105702499D03*
X277150000Y-104742499D03*
%TD*%
M02*
